<svg class="main-svg" xmlns="http://www.w3.org/2000/svg" xmlns:xlink="http://www.w3.org/1999/xlink" width="700" height="500" style="" viewBox="0 0 700 500"><rect x="0" y="0" width="700" height="500" style="fill: rgb(255, 255, 255); fill-opacity: 1;"/><defs id="defs-89fee0"><g class="clips"><clipPath id="clip89fee0xyplot" class="plotclip"><rect width="640" height="163.99999999999997"/></clipPath><clipPath id="clip89fee0x2y2plot" class="plotclip"><rect width="640" height="164"/></clipPath><clipPath class="axesclip" id="clip89fee0x"><rect x="50" y="0" width="640" height="500"/></clipPath><clipPath class="axesclip" id="clip89fee0y"><rect x="0" y="50" width="700" height="163.99999999999997"/></clipPath><clipPath class="axesclip" id="clip89fee0xy"><rect x="50" y="50" width="640" height="163.99999999999997"/></clipPath><clipPath class="axesclip" id="clip89fee0y2"><rect x="0" y="296" width="700" height="164"/></clipPath><clipPath class="axesclip" id="clip89fee0xy2"><rect x="50" y="296" width="640" height="164"/></clipPath><clipPath class="axesclip" id="clip89fee0x2"><rect x="50" y="0" width="640" height="500"/></clipPath><clipPath class="axesclip" id="clip89fee0x2y"><rect x="50" y="50" width="640" height="163.99999999999997"/></clipPath><clipPath class="axesclip" id="clip89fee0x2y2"><rect x="50" y="296" width="640" height="164"/></clipPath></g><g class="gradients"/><g class="patterns"/></defs><g class="bglayer"><rect class="bg" x="50" y="50" width="640" height="163.99999999999997" style="fill: rgb(229, 236, 246); fill-opacity: 1; stroke-width: 0;"/><rect class="bg" x="50" y="296" width="640" height="164" style="fill: rgb(229, 236, 246); fill-opacity: 1; stroke-width: 0;"/></g><g class="layer-below"><g class="imagelayer"/><g class="shapelayer"/></g><g class="cartesianlayer"><g class="subplot xy"><g class="layer-subplot"><g class="shapelayer"/><g class="imagelayer"/></g><g class="minor-gridlayer"><g class="x"/><g class="y"/></g><g class="gridlayer"><g class="x"><path class="xgrid crisp" transform="translate(123.9,0)" d="M0,50v163.99999999999997" style="stroke: rgb(255, 255, 255); stroke-opacity: 1; stroke-width: 1px;"/><path class="xgrid crisp" transform="translate(223.02,0)" d="M0,50v163.99999999999997" style="stroke: rgb(255, 255, 255); stroke-opacity: 1; stroke-width: 1px;"/><path class="xgrid crisp" transform="translate(322.14,0)" d="M0,50v163.99999999999997" style="stroke: rgb(255, 255, 255); stroke-opacity: 1; stroke-width: 1px;"/><path class="xgrid crisp" transform="translate(421.27,0)" d="M0,50v163.99999999999997" style="stroke: rgb(255, 255, 255); stroke-opacity: 1; stroke-width: 1px;"/><path class="xgrid crisp" transform="translate(520.39,0)" d="M0,50v163.99999999999997" style="stroke: rgb(255, 255, 255); stroke-opacity: 1; stroke-width: 1px;"/><path class="xgrid crisp" transform="translate(619.51,0)" d="M0,50v163.99999999999997" style="stroke: rgb(255, 255, 255); stroke-opacity: 1; stroke-width: 1px;"/></g><g class="y"><path class="ygrid crisp" transform="translate(0,189.36)" d="M50,0h640" style="stroke: rgb(255, 255, 255); stroke-opacity: 1; stroke-width: 1px;"/><path class="ygrid crisp" transform="translate(0,156.32999999999998)" d="M50,0h640" style="stroke: rgb(255, 255, 255); stroke-opacity: 1; stroke-width: 1px;"/><path class="ygrid crisp" transform="translate(0,123.3)" d="M50,0h640" style="stroke: rgb(255, 255, 255); stroke-opacity: 1; stroke-width: 1px;"/><path class="ygrid crisp" transform="translate(0,90.27000000000001)" d="M50,0h640" style="stroke: rgb(255, 255, 255); stroke-opacity: 1; stroke-width: 1px;"/><path class="ygrid crisp" transform="translate(0,57.24)" d="M50,0h640" style="stroke: rgb(255, 255, 255); stroke-opacity: 1; stroke-width: 1px;"/></g></g><g class="zerolinelayer"/><g class="layer-between"><g class="shapelayer"/><g class="imagelayer"/></g><path class="xlines-below"/><path class="ylines-below"/><g class="overlines-below"/><g class="xaxislayer-below"/><g class="yaxislayer-below"/><g class="overaxes-below"/><g class="overplot"><g class="xy" transform="translate(50,50)" clip-path="url(#clip89fee0xyplot)"><g class="scatterlayer mlayer"><g class="trace scatter trace526207" style="stroke-miterlimit: 2; opacity: 1;"><g class="fills"/><g class="errorbars"/><g class="lines"><path class="js-line" d="M35.75,11.95L568.04,13.82" style="vector-effect: none; fill: none; stroke: rgb(237, 69, 0); stroke-opacity: 1; stroke-width: 2px; opacity: 1;"/></g><g class="points"><path class="point" transform="translate(35.75,11.95)" d="M3,0A3,3 0 1,1 0,-3A3,3 0 0,1 3,0Z" style="opacity: 1; stroke-width: 0px; fill: rgb(237, 69, 0); fill-opacity: 1;"/><path class="point" transform="translate(301.61,12.94)" d="M3,0A3,3 0 1,1 0,-3A3,3 0 0,1 3,0Z" style="opacity: 1; stroke-width: 0px; fill: rgb(237, 69, 0); fill-opacity: 1;"/><path class="point" transform="translate(568.04,13.82)" d="M3,0A3,3 0 1,1 0,-3A3,3 0 0,1 3,0Z" style="opacity: 1; stroke-width: 0px; fill: rgb(237, 69, 0); fill-opacity: 1;"/></g><g class="text"/></g><g class="trace scatter trace901f90" style="stroke-miterlimit: 2; opacity: 1;"><g class="fills"/><g class="errorbars"/><g class="lines"><path class="js-line" d="M38.53,140.32L570.85,141.02" style="vector-effect: none; fill: none; stroke: rgb(118, 161, 0); stroke-opacity: 1; stroke-width: 2px; opacity: 1;"/></g><g class="points"><path class="point" transform="translate(38.53,140.32)" d="M3,0A3,3 0 1,1 0,-3A3,3 0 0,1 3,0Z" style="opacity: 1; stroke-width: 0px; fill: rgb(118, 161, 0); fill-opacity: 1;"/><path class="point" transform="translate(304.39,140.61)" d="M3,0A3,3 0 1,1 0,-3A3,3 0 0,1 3,0Z" style="opacity: 1; stroke-width: 0px; fill: rgb(118, 161, 0); fill-opacity: 1;"/><path class="point" transform="translate(570.85,141.02)" d="M3,0A3,3 0 1,1 0,-3A3,3 0 0,1 3,0Z" style="opacity: 1; stroke-width: 0px; fill: rgb(118, 161, 0); fill-opacity: 1;"/></g><g class="text"/></g><g class="trace scatter trace09d070" style="stroke-miterlimit: 2; opacity: 1;"><g class="fills"/><g class="errorbars"/><g class="lines"><path class="js-line" d="M69.16,102.86L601.47,103.47" style="vector-effect: none; fill: none; stroke: rgb(0, 168, 237); stroke-opacity: 1; stroke-width: 2px; opacity: 1;"/></g><g class="points"><path class="point" transform="translate(69.16,102.86)" d="M3,0A3,3 0 1,1 0,-3A3,3 0 0,1 3,0Z" style="opacity: 1; stroke-width: 0px; fill: rgb(0, 168, 237); fill-opacity: 1;"/><path class="point" transform="translate(335.22,103.14)" d="M3,0A3,3 0 1,1 0,-3A3,3 0 0,1 3,0Z" style="opacity: 1; stroke-width: 0px; fill: rgb(0, 168, 237); fill-opacity: 1;"/><path class="point" transform="translate(601.47,103.47)" d="M3,0A3,3 0 1,1 0,-3A3,3 0 0,1 3,0Z" style="opacity: 1; stroke-width: 0px; fill: rgb(0, 168, 237); fill-opacity: 1;"/></g><g class="text"/></g><g class="trace scatter tracedf1466" style="stroke-miterlimit: 2; opacity: 1;"><g class="fills"/><g class="errorbars"/><g class="lines"><path class="js-line" d="M71.94,151.87L604.25,152.05" style="vector-effect: none; fill: none; stroke: rgb(187, 0, 237); stroke-opacity: 1; stroke-width: 2px; opacity: 1;"/></g><g class="points"><path class="point" transform="translate(71.94,151.87)" d="M3,0A3,3 0 1,1 0,-3A3,3 0 0,1 3,0Z" style="opacity: 1; stroke-width: 0px; fill: rgb(187, 0, 237); fill-opacity: 1;"/><path class="point" transform="translate(337.99,151.92)" d="M3,0A3,3 0 1,1 0,-3A3,3 0 0,1 3,0Z" style="opacity: 1; stroke-width: 0px; fill: rgb(187, 0, 237); fill-opacity: 1;"/><path class="point" transform="translate(604.25,152.05)" d="M3,0A3,3 0 1,1 0,-3A3,3 0 0,1 3,0Z" style="opacity: 1; stroke-width: 0px; fill: rgb(187, 0, 237); fill-opacity: 1;"/></g><g class="text"/></g></g></g></g><g class="zerolinelayer-above"/><path class="xlines-above crisp" d="M0,0" style="fill: none;"/><path class="ylines-above crisp" d="M0,0" style="fill: none;"/><g class="overlines-above"/><g class="xaxislayer-above"><g class="xtick"><text text-anchor="middle" x="0" y="226.99999999999997" transform="translate(123.9,0)" style="font-family: 'Times New Roman'; font-size: 12px; fill: rgb(0, 0, 0); fill-opacity: 1; white-space: pre;">6e+5</text></g><g class="xtick"><text text-anchor="middle" x="0" y="226.99999999999997" style="font-family: 'Times New Roman'; font-size: 12px; fill: rgb(0, 0, 0); fill-opacity: 1; white-space: pre;" transform="translate(223.02,0)">6e+5</text></g><g class="xtick"><text text-anchor="middle" x="0" y="226.99999999999997" style="font-family: 'Times New Roman'; font-size: 12px; fill: rgb(0, 0, 0); fill-opacity: 1; white-space: pre;" transform="translate(322.14,0)">6e+5</text></g><g class="xtick"><text text-anchor="middle" x="0" y="226.99999999999997" style="font-family: 'Times New Roman'; font-size: 12px; fill: rgb(0, 0, 0); fill-opacity: 1; white-space: pre;" transform="translate(421.27,0)">6e+5</text></g><g class="xtick"><text text-anchor="middle" x="0" y="226.99999999999997" style="font-family: 'Times New Roman'; font-size: 12px; fill: rgb(0, 0, 0); fill-opacity: 1; white-space: pre;" transform="translate(520.39,0)">6e+5</text></g><g class="xtick"><text text-anchor="middle" x="0" y="226.99999999999997" style="font-family: 'Times New Roman'; font-size: 12px; fill: rgb(0, 0, 0); fill-opacity: 1; white-space: pre;" transform="translate(619.51,0)">6e+5</text></g></g><g class="yaxislayer-above"><g class="ytick"><text text-anchor="end" x="49" y="4.199999999999999" transform="translate(0,189.36)" style="font-family: 'Times New Roman'; font-size: 12px; fill: rgb(0, 0, 0); fill-opacity: 1; white-space: pre;">4e+6</text></g><g class="ytick"><text text-anchor="end" x="49" y="4.199999999999999" style="font-family: 'Times New Roman'; font-size: 12px; fill: rgb(0, 0, 0); fill-opacity: 1; white-space: pre;" transform="translate(0,156.32999999999998)">6e+6</text></g><g class="ytick"><text text-anchor="end" x="49" y="4.199999999999999" style="font-family: 'Times New Roman'; font-size: 12px; fill: rgb(0, 0, 0); fill-opacity: 1; white-space: pre;" transform="translate(0,123.3)">8e+6</text></g><g class="ytick"><text text-anchor="end" x="49" y="4.199999999999999" style="font-family: 'Times New Roman'; font-size: 12px; fill: rgb(0, 0, 0); fill-opacity: 1; white-space: pre;" transform="translate(0,90.27000000000001)">1e+7</text></g><g class="ytick"><text text-anchor="end" x="49" y="4.199999999999999" style="font-family: 'Times New Roman'; font-size: 12px; fill: rgb(0, 0, 0); fill-opacity: 1; white-space: pre;" transform="translate(0,57.24)">1e+7</text></g></g><g class="overaxes-above"/></g><g class="subplot x2y2"><g class="layer-subplot"><g class="shapelayer"/><g class="imagelayer"/></g><g class="minor-gridlayer"><g class="x2"/><g class="y2"/></g><g class="gridlayer"><g class="x2"><path class="x2grid crisp" transform="translate(126.5,0)" d="M0,296v164" style="stroke: rgb(255, 255, 255); stroke-opacity: 1; stroke-width: 1px;"/><path class="x2grid crisp" transform="translate(232.36,0)" d="M0,296v164" style="stroke: rgb(255, 255, 255); stroke-opacity: 1; stroke-width: 1px;"/><path class="x2grid crisp" transform="translate(338.22,0)" d="M0,296v164" style="stroke: rgb(255, 255, 255); stroke-opacity: 1; stroke-width: 1px;"/><path class="x2grid crisp" transform="translate(444.09,0)" d="M0,296v164" style="stroke: rgb(255, 255, 255); stroke-opacity: 1; stroke-width: 1px;"/><path class="x2grid crisp" transform="translate(549.95,0)" d="M0,296v164" style="stroke: rgb(255, 255, 255); stroke-opacity: 1; stroke-width: 1px;"/><path class="x2grid crisp" transform="translate(655.82,0)" d="M0,296v164" style="stroke: rgb(255, 255, 255); stroke-opacity: 1; stroke-width: 1px;"/></g><g class="y2"><path class="y2grid crisp" transform="translate(0,435.38)" d="M50,0h640" style="stroke: rgb(255, 255, 255); stroke-opacity: 1; stroke-width: 1px;"/><path class="y2grid crisp" transform="translate(0,402.35)" d="M50,0h640" style="stroke: rgb(255, 255, 255); stroke-opacity: 1; stroke-width: 1px;"/><path class="y2grid crisp" transform="translate(0,369.31)" d="M50,0h640" style="stroke: rgb(255, 255, 255); stroke-opacity: 1; stroke-width: 1px;"/><path class="y2grid crisp" transform="translate(0,336.27)" d="M50,0h640" style="stroke: rgb(255, 255, 255); stroke-opacity: 1; stroke-width: 1px;"/><path class="y2grid crisp" transform="translate(0,303.24)" d="M50,0h640" style="stroke: rgb(255, 255, 255); stroke-opacity: 1; stroke-width: 1px;"/></g></g><g class="zerolinelayer"/><g class="layer-between"><g class="shapelayer"/><g class="imagelayer"/></g><path class="xlines-below"/><path class="ylines-below"/><g class="overlines-below"/><g class="xaxislayer-below"/><g class="yaxislayer-below"/><g class="overaxes-below"/><g class="overplot"><g class="x2y2" transform="translate(50,296)" clip-path="url(#clip89fee0x2y2plot)"><g class="scatterlayer mlayer"><g class="trace scatter tracefb70f3" style="stroke-miterlimit: 2; opacity: 1;"><g class="fills"/><g class="errorbars"/><g class="lines"><path class="js-line" d="M35.75,11.95L604.25,13.82" style="vector-effect: none; fill: none; stroke: rgb(237, 69, 0); stroke-opacity: 1; stroke-width: 2px; opacity: 1;"/></g><g class="points"><path class="point" transform="translate(35.75,11.95)" d="M3,0A3,3 0 1,1 0,-3A3,3 0 0,1 3,0Z" style="opacity: 1; stroke-width: 0px; fill: rgb(237, 69, 0); fill-opacity: 1;"/><path class="point" transform="translate(130.5,12.26)" d="M3,0A3,3 0 1,1 0,-3A3,3 0 0,1 3,0Z" style="opacity: 1; stroke-width: 0px; fill: rgb(237, 69, 0); fill-opacity: 1;"/><path class="point" transform="translate(225.25,12.6)" d="M3,0A3,3 0 1,1 0,-3A3,3 0 0,1 3,0Z" style="opacity: 1; stroke-width: 0px; fill: rgb(237, 69, 0); fill-opacity: 1;"/><path class="point" transform="translate(320,12.94)" d="M3,0A3,3 0 1,1 0,-3A3,3 0 0,1 3,0Z" style="opacity: 1; stroke-width: 0px; fill: rgb(237, 69, 0); fill-opacity: 1;"/><path class="point" transform="translate(414.75,13.27)" d="M3,0A3,3 0 1,1 0,-3A3,3 0 0,1 3,0Z" style="opacity: 1; stroke-width: 0px; fill: rgb(237, 69, 0); fill-opacity: 1;"/><path class="point" transform="translate(509.5,13.56)" d="M3,0A3,3 0 1,1 0,-3A3,3 0 0,1 3,0Z" style="opacity: 1; stroke-width: 0px; fill: rgb(237, 69, 0); fill-opacity: 1;"/><path class="point" transform="translate(604.25,13.82)" d="M3,0A3,3 0 1,1 0,-3A3,3 0 0,1 3,0Z" style="opacity: 1; stroke-width: 0px; fill: rgb(237, 69, 0); fill-opacity: 1;"/></g><g class="text"/></g><g class="trace scatter trace8b324d" style="stroke-miterlimit: 2; opacity: 1;"><g class="fills"/><g class="errorbars"/><g class="lines"><path class="js-line" d="M35.75,140.34L604.25,141.04" style="vector-effect: none; fill: none; stroke: rgb(118, 161, 0); stroke-opacity: 1; stroke-width: 2px; opacity: 1;"/></g><g class="points"><path class="point" transform="translate(35.75,140.34)" d="M3,0A3,3 0 1,1 0,-3A3,3 0 0,1 3,0Z" style="opacity: 1; stroke-width: 0px; fill: rgb(118, 161, 0); fill-opacity: 1;"/><path class="point" transform="translate(130.5,140.41)" d="M3,0A3,3 0 1,1 0,-3A3,3 0 0,1 3,0Z" style="opacity: 1; stroke-width: 0px; fill: rgb(118, 161, 0); fill-opacity: 1;"/><path class="point" transform="translate(225.25,140.51)" d="M3,0A3,3 0 1,1 0,-3A3,3 0 0,1 3,0Z" style="opacity: 1; stroke-width: 0px; fill: rgb(118, 161, 0); fill-opacity: 1;"/><path class="point" transform="translate(320,140.63)" d="M3,0A3,3 0 1,1 0,-3A3,3 0 0,1 3,0Z" style="opacity: 1; stroke-width: 0px; fill: rgb(118, 161, 0); fill-opacity: 1;"/><path class="point" transform="translate(414.75,140.76)" d="M3,0A3,3 0 1,1 0,-3A3,3 0 0,1 3,0Z" style="opacity: 1; stroke-width: 0px; fill: rgb(118, 161, 0); fill-opacity: 1;"/><path class="point" transform="translate(509.5,140.9)" d="M3,0A3,3 0 1,1 0,-3A3,3 0 0,1 3,0Z" style="opacity: 1; stroke-width: 0px; fill: rgb(118, 161, 0); fill-opacity: 1;"/><path class="point" transform="translate(604.25,141.04)" d="M3,0A3,3 0 1,1 0,-3A3,3 0 0,1 3,0Z" style="opacity: 1; stroke-width: 0px; fill: rgb(118, 161, 0); fill-opacity: 1;"/></g><g class="text"/></g><g class="trace scatter trace037262" style="stroke-miterlimit: 2; opacity: 1;"><g class="fills"/><g class="errorbars"/><g class="lines"><path class="js-line" d="M35.75,102.83L604.25,103.42" style="vector-effect: none; fill: none; stroke: rgb(0, 168, 237); stroke-opacity: 1; stroke-width: 2px; opacity: 1;"/></g><g class="points"><path class="point" transform="translate(35.75,102.83)" d="M3,0A3,3 0 1,1 0,-3A3,3 0 0,1 3,0Z" style="opacity: 1; stroke-width: 0px; fill: rgb(0, 168, 237); fill-opacity: 1;"/><path class="point" transform="translate(130.5,102.94)" d="M3,0A3,3 0 1,1 0,-3A3,3 0 0,1 3,0Z" style="opacity: 1; stroke-width: 0px; fill: rgb(0, 168, 237); fill-opacity: 1;"/><path class="point" transform="translate(225.25,103.04)" d="M3,0A3,3 0 1,1 0,-3A3,3 0 0,1 3,0Z" style="opacity: 1; stroke-width: 0px; fill: rgb(0, 168, 237); fill-opacity: 1;"/><path class="point" transform="translate(320,103.13)" d="M3,0A3,3 0 1,1 0,-3A3,3 0 0,1 3,0Z" style="opacity: 1; stroke-width: 0px; fill: rgb(0, 168, 237); fill-opacity: 1;"/><path class="point" transform="translate(414.75,103.21)" d="M3,0A3,3 0 1,1 0,-3A3,3 0 0,1 3,0Z" style="opacity: 1; stroke-width: 0px; fill: rgb(0, 168, 237); fill-opacity: 1;"/><path class="point" transform="translate(509.5,103.3)" d="M3,0A3,3 0 1,1 0,-3A3,3 0 0,1 3,0Z" style="opacity: 1; stroke-width: 0px; fill: rgb(0, 168, 237); fill-opacity: 1;"/><path class="point" transform="translate(604.25,103.42)" d="M3,0A3,3 0 1,1 0,-3A3,3 0 0,1 3,0Z" style="opacity: 1; stroke-width: 0px; fill: rgb(0, 168, 237); fill-opacity: 1;"/></g><g class="text"/></g><g class="trace scatter tracef06a7c" style="stroke-miterlimit: 2; opacity: 1;"><g class="fills"/><g class="errorbars"/><g class="lines"><path class="js-line" d="M35.75,151.88L604.25,152.05" style="vector-effect: none; fill: none; stroke: rgb(187, 0, 237); stroke-opacity: 1; stroke-width: 2px; opacity: 1;"/></g><g class="points"><path class="point" transform="translate(35.75,151.88)" d="M3,0A3,3 0 1,1 0,-3A3,3 0 0,1 3,0Z" style="opacity: 1; stroke-width: 0px; fill: rgb(187, 0, 237); fill-opacity: 1;"/><path class="point" transform="translate(130.5,151.9)" d="M3,0A3,3 0 1,1 0,-3A3,3 0 0,1 3,0Z" style="opacity: 1; stroke-width: 0px; fill: rgb(187, 0, 237); fill-opacity: 1;"/><path class="point" transform="translate(225.25,151.91)" d="M3,0A3,3 0 1,1 0,-3A3,3 0 0,1 3,0Z" style="opacity: 1; stroke-width: 0px; fill: rgb(187, 0, 237); fill-opacity: 1;"/><path class="point" transform="translate(320,151.93)" d="M3,0A3,3 0 1,1 0,-3A3,3 0 0,1 3,0Z" style="opacity: 1; stroke-width: 0px; fill: rgb(187, 0, 237); fill-opacity: 1;"/><path class="point" transform="translate(414.75,151.96)" d="M3,0A3,3 0 1,1 0,-3A3,3 0 0,1 3,0Z" style="opacity: 1; stroke-width: 0px; fill: rgb(187, 0, 237); fill-opacity: 1;"/><path class="point" transform="translate(509.5,152)" d="M3,0A3,3 0 1,1 0,-3A3,3 0 0,1 3,0Z" style="opacity: 1; stroke-width: 0px; fill: rgb(187, 0, 237); fill-opacity: 1;"/><path class="point" transform="translate(604.25,152.05)" d="M3,0A3,3 0 1,1 0,-3A3,3 0 0,1 3,0Z" style="opacity: 1; stroke-width: 0px; fill: rgb(187, 0, 237); fill-opacity: 1;"/></g><g class="text"/></g></g></g></g><g class="zerolinelayer-above"/><path class="xlines-above crisp" d="M0,0" style="fill: none;"/><path class="ylines-above crisp" d="M0,0" style="fill: none;"/><g class="overlines-above"/><g class="xaxislayer-above"><g class="x2tick"><text text-anchor="middle" x="0" y="473" transform="translate(126.5,0)" style="font-family: 'Times New Roman'; font-size: 12px; fill: rgb(0, 0, 0); fill-opacity: 1; white-space: pre;">6e+5</text></g><g class="x2tick"><text text-anchor="middle" x="0" y="473" style="font-family: 'Times New Roman'; font-size: 12px; fill: rgb(0, 0, 0); fill-opacity: 1; white-space: pre;" transform="translate(232.36,0)">6e+5</text></g><g class="x2tick"><text text-anchor="middle" x="0" y="473" style="font-family: 'Times New Roman'; font-size: 12px; fill: rgb(0, 0, 0); fill-opacity: 1; white-space: pre;" transform="translate(338.22,0)">6e+5</text></g><g class="x2tick"><text text-anchor="middle" x="0" y="473" style="font-family: 'Times New Roman'; font-size: 12px; fill: rgb(0, 0, 0); fill-opacity: 1; white-space: pre;" transform="translate(444.09,0)">6e+5</text></g><g class="x2tick"><text text-anchor="middle" x="0" y="473" style="font-family: 'Times New Roman'; font-size: 12px; fill: rgb(0, 0, 0); fill-opacity: 1; white-space: pre;" transform="translate(549.95,0)">6e+5</text></g><g class="x2tick"><text text-anchor="middle" x="0" y="473" style="font-family: 'Times New Roman'; font-size: 12px; fill: rgb(0, 0, 0); fill-opacity: 1; white-space: pre;" transform="translate(655.82,0)">6e+5</text></g></g><g class="yaxislayer-above"><g class="y2tick"><text text-anchor="end" x="49" y="4.199999999999999" transform="translate(0,435.38)" style="font-family: 'Times New Roman'; font-size: 12px; fill: rgb(0, 0, 0); fill-opacity: 1; white-space: pre;">4e+6</text></g><g class="y2tick"><text text-anchor="end" x="49" y="4.199999999999999" style="font-family: 'Times New Roman'; font-size: 12px; fill: rgb(0, 0, 0); fill-opacity: 1; white-space: pre;" transform="translate(0,402.35)">6e+6</text></g><g class="y2tick"><text text-anchor="end" x="49" y="4.199999999999999" style="font-family: 'Times New Roman'; font-size: 12px; fill: rgb(0, 0, 0); fill-opacity: 1; white-space: pre;" transform="translate(0,369.31)">8e+6</text></g><g class="y2tick"><text text-anchor="end" x="49" y="4.199999999999999" style="font-family: 'Times New Roman'; font-size: 12px; fill: rgb(0, 0, 0); fill-opacity: 1; white-space: pre;" transform="translate(0,336.27)">1e+7</text></g><g class="y2tick"><text text-anchor="end" x="49" y="4.199999999999999" style="font-family: 'Times New Roman'; font-size: 12px; fill: rgb(0, 0, 0); fill-opacity: 1; white-space: pre;" transform="translate(0,303.24)">1e+7</text></g></g><g class="overaxes-above"/></g></g><g class="polarlayer"/><g class="smithlayer"/><g class="ternarylayer"/><g class="geolayer"/><g class="funnelarealayer"/><g class="pielayer"/><g class="iciclelayer"/><g class="treemaplayer"/><g class="sunburstlayer"/><g class="glimages"/><defs id="topdefs-89fee0"><g class="clips"/></defs><g class="layer-above"><g class="imagelayer"/><g class="shapelayer"/></g><g class="infolayer"><g class="g-gtitle"><text class="gtitle" x="350" y="25" text-anchor="middle" dy="0em" style="opacity: 1; font-family: 'Times New Roman'; font-size: 17px; fill: rgb(0, 0, 0); fill-opacity: 1; white-space: pre;">Effects of Interpolation</text></g><g class="g-xtitle"><text class="xtitle" x="370" y="253.8" text-anchor="middle" style="opacity: 1; font-family: 'Times New Roman'; font-size: 14px; fill: rgb(0, 0, 0); fill-opacity: 1; white-space: pre;">Time since power on (ms)</text></g><g class="g-x2title" transform="translate(0,-2.8000000000000114)"><text class="x2title" x="370" y="499.8" text-anchor="middle" style="opacity: 1; font-family: 'Times New Roman'; font-size: 14px; fill: rgb(0, 0, 0); fill-opacity: 1; white-space: pre;">Time since power on (ms)</text></g><g class="g-ytitle" transform="translate(6.994140625,0)"><text class="ytitle" transform="rotate(-90,5.506250000000001,132)" x="5.506250000000001" y="132" text-anchor="middle" style="opacity: 1; font-family: 'Times New Roman'; font-size: 14px; fill: rgb(0, 0, 0); fill-opacity: 1; white-space: pre;">Resistance (Ohms)</text></g><g class="g-y2title" transform="translate(6.994140625,0)"><text class="y2title" transform="rotate(-90,5.506250000000001,378)" x="5.506250000000001" y="378" text-anchor="middle" style="opacity: 1; font-family: 'Times New Roman'; font-size: 14px; fill: rgb(0, 0, 0); fill-opacity: 1; white-space: pre;">Resistance (Ohms)</text></g><g class="annotation" data-index="0" style="opacity: 1;"><g class="annotation-text-g" transform="rotate(0,370,39)"><g class="cursor-pointer" transform="translate(337,28)"><rect class="bg" x="0.5" y="0.5" width="65" height="21" style="stroke-width: 1px; stroke: rgb(0, 0, 0); stroke-opacity: 0; fill: rgb(0, 0, 0); fill-opacity: 0;"/><text class="annotation-text" text-anchor="middle" x="32.88671875" y="16.5" style="font-family: 'Times New Roman'; font-size: 16px; fill: rgb(0, 0, 0); fill-opacity: 1; white-space: pre;">LPF Data</text></g></g></g><g class="annotation" data-index="1" style="opacity: 1;"><g class="annotation-text-g" transform="rotate(0,370,285)"><g class="cursor-pointer" transform="translate(312,274)"><rect class="bg" x="0.5" y="0.5" width="115" height="21" style="stroke-width: 1px; stroke: rgb(0, 0, 0); stroke-opacity: 0; fill: rgb(0, 0, 0); fill-opacity: 0;"/><text class="annotation-text" text-anchor="middle" x="57.75" y="16.5" style="font-family: 'Times New Roman'; font-size: 16px; fill: rgb(0, 0, 0); fill-opacity: 1; white-space: pre;">Interpolated Data</text></g></g></g></g></svg>