<svg class="main-svg" xmlns="http://www.w3.org/2000/svg" xmlns:xlink="http://www.w3.org/1999/xlink" width="625" height="300" style="" viewBox="0 0 625 300"><rect x="0" y="0" width="625" height="300" style="fill: rgb(255, 255, 255); fill-opacity: 1;"/><defs id="defs-81c373"><g class="clips"><clipPath id="clip81c373xyplot" class="plotclip"><rect width="577" height="210"/></clipPath><clipPath class="axesclip" id="clip81c373x"><rect x="38" y="0" width="577" height="300"/></clipPath><clipPath class="axesclip" id="clip81c373y"><rect x="0" y="50" width="625" height="210"/></clipPath><clipPath class="axesclip" id="clip81c373xy"><rect x="38" y="50" width="577" height="210"/></clipPath></g><g class="gradients"/><g class="patterns"/></defs><g class="bglayer"><rect class="bg" x="38" y="50" width="577" height="210" style="fill: rgb(229, 236, 246); fill-opacity: 1; stroke-width: 0;"/></g><g class="layer-below"><g class="imagelayer"/><g class="shapelayer"/></g><g class="cartesianlayer"><g class="subplot xy"><g class="layer-subplot"><g class="shapelayer"/><g class="imagelayer"/></g><g class="minor-gridlayer"><g class="x"/><g class="y"/></g><g class="gridlayer"><g class="x"><path class="xgrid crisp" transform="translate(159.63,0)" d="M0,50v210" style="stroke: rgb(255, 255, 255); stroke-opacity: 1; stroke-width: 1px;"/><path class="xgrid crisp" transform="translate(328.41,0)" d="M0,50v210" style="stroke: rgb(255, 255, 255); stroke-opacity: 1; stroke-width: 1px;"/><path class="xgrid crisp" transform="translate(497.19,0)" d="M0,50v210" style="stroke: rgb(255, 255, 255); stroke-opacity: 1; stroke-width: 1px;"/></g><g class="y"><path class="ygrid crisp" transform="translate(0,222.83)" d="M38,0h577" style="stroke: rgb(255, 255, 255); stroke-opacity: 1; stroke-width: 1px;"/><path class="ygrid crisp" transform="translate(0,184.38)" d="M38,0h577" style="stroke: rgb(255, 255, 255); stroke-opacity: 1; stroke-width: 1px;"/><path class="ygrid crisp" transform="translate(0,145.93)" d="M38,0h577" style="stroke: rgb(255, 255, 255); stroke-opacity: 1; stroke-width: 1px;"/><path class="ygrid crisp" transform="translate(0,107.49000000000001)" d="M38,0h577" style="stroke: rgb(255, 255, 255); stroke-opacity: 1; stroke-width: 1px;"/><path class="ygrid crisp" transform="translate(0,69.03999999999999)" d="M38,0h577" style="stroke: rgb(255, 255, 255); stroke-opacity: 1; stroke-width: 1px;"/></g></g><g class="zerolinelayer"/><g class="layer-between"><g class="shapelayer"/><g class="imagelayer"/></g><path class="xlines-below"/><path class="ylines-below"/><g class="overlines-below"/><g class="xaxislayer-below"/><g class="yaxislayer-below"/><g class="overaxes-below"/><g class="overplot"><g class="xy" transform="translate(38,50)" clip-path="url(#clip81c373xyplot)"><g class="scatterlayer mlayer"><g class="trace scatter tracef7790d" style="stroke-miterlimit: 2; opacity: 1;"><g class="fills"/><g class="errorbars"/><g class="lines"><path class="js-line" d="M0,10.5L4.81,10.99L5.29,12.56L6.26,23.83L6.74,36.26L9.62,164.92L10.11,156.23L10.59,159.82L11.07,167.41L11.55,166.92L12.03,166.05L13.47,166.99L13.96,167.03L26.47,167.84L26.95,167.87L57.75,169.12L58.23,169.08L62.56,169.09L63.04,168L64,166.92L64.49,156.31L65.93,112.63L66.41,90.15L68.34,44.01L68.82,39.51L70.74,30.67L71.22,29.35L75.07,20.91L75.55,19.95L77.96,16.69L78.44,16.27L81.33,12.36L81.81,11.57L83.73,10.53L84.22,10.51L104.91,10.79L105.39,11.82L106.35,20.75L106.83,31.4L110.2,147.33L110.68,146.45L111.65,151.75L112.13,151.08L115.02,151.87L115.5,151.92L134.75,153.87L135.23,153.88L161.21,154.63L161.69,154.8L163.14,154L163.62,151.13L165.06,119.31L165.54,97.16L167.47,39.55L167.95,33.28L169.88,22.35L170.36,23.31L170.84,25.18L171.32,23.2L172.76,14.52L173.24,13.6L176.13,10.65L176.61,10.55L186.24,10.5L186.72,10.5L206.45,10.77L206.93,11.76L207.89,20.42L208.37,30.79L211.74,141.15L212.22,140.42L213.19,144.47L213.67,144.23L216.56,145.23L217.04,145.38L221.85,145.92L222.33,146.01L230.51,146.63L230.99,146.65L247.35,147.34L247.84,147.44L255.54,147.52L256.02,147.37L257.94,147.53L258.42,147.63L262.75,147.22L263.24,147.07L264.68,146.78L265.16,146.1L265.64,146.69L266.12,141.19L268.05,80.39L268.53,61.08L270.45,24.4L270.93,21.27L273.34,13.15L273.82,12.36L275.75,10.64L276.23,10.54L288.74,10.5L289.22,10.5L308.47,10.79L308.95,11.83L309.91,20.78L310.4,31.45L313.76,136.66L314.25,136.17L315.21,139.17L315.69,138.93L318.58,139.5L319.06,139.48L322.43,140.21L322.91,140.29L346.49,142.49L346.97,142.45L352.74,142.66L353.23,142.72L366.22,143.36L366.7,142.7L367.18,142.02L367.66,142.53L368.14,137.07L370.07,76.56L370.55,57.49L372.48,20.83L372.96,17.34L374.88,10.98L375.36,10.67L379.21,10.5L379.69,10.5L409.53,10.73L410.01,11.57L410.97,19.59L411.46,29.48L414.82,134.3L415.31,133.23L416.27,136.18L416.75,135.96L423.01,137.32L423.49,137.4L433.59,138.2L434.07,138.34L448.03,139.34L448.51,139.37L466.32,140.4L466.8,140.07L468.24,136.94L468.72,125.49L470.17,80.19L470.65,59.36L472.57,19.02L473.05,15.47L474.5,10.99L474.98,10.67L478.35,10.5L478.83,10.5L510.59,10.71L511.07,11.44L512.03,19L512.51,28.48L515.88,128.97L516.36,127.87L517.33,130.11L517.81,129.95L534.65,132.76L535.13,132.78L543.31,133.32L543.79,133.37L554.38,134.11L554.86,134.13L568.82,134.08L569.3,133.19L570.26,123.89L570.74,114.02L574.11,19.17L574.59,15.26L576.04,10.83L576.52,10.59L577,10.54" style="vector-effect: none; fill: none; stroke: rgb(99, 110, 250); stroke-opacity: 1; stroke-width: 2px; opacity: 1;"/></g><g class="points"/><g class="text"/></g><g class="trace scatter traceacac68" style="stroke-miterlimit: 2; opacity: 1;"><g class="fills"/><g class="errorbars"/><g class="lines"><path class="js-line" d="M0,82.11L4.81,82.08L5.29,83.59L6.26,94.61L6.74,106.85L9.62,198.63L10.11,197.13L11.55,198.9L12.03,198.77L16.84,198.86L17.32,198.86L63.52,198.45L64,197.82L64.97,190.42L65.45,181.8L67.85,120.32L68.34,116.27L70.26,110.39L70.74,109.67L74.59,105.8L75.07,105.45L83.73,100.19L84.22,99.96L92.88,96.6L93.36,96.47L104.43,93.56L104.91,93.65L105.39,94.63L105.87,97.47L106.83,113.86L107.32,129.42L109.24,189.47L109.72,197.97L112.61,198.84L113.09,198.87L149.18,198.86L149.66,198.86L163.14,198.72L163.62,198.03L165.06,184.26L165.54,165.33L167.47,115.84L167.95,111.88L169.39,107.08L169.88,106.73L170.84,107.59L171.32,106.85L173.24,102.87L173.73,102.57L181.91,98.48L182.39,98.26L190.09,95.48L190.57,95.34L199.71,93.25L200.19,93.16L206.45,91.76L206.93,92.69L207.89,101.31L208.37,111.64L211.26,197.66L211.74,198.21L212.22,197.91L212.71,198.75L214.63,198.87L215.11,198.86L265.16,198.4L265.64,197.64L266.6,190.14L267.09,180.28L269.97,110.71L270.45,107.88L272.38,103.52L272.86,102.98L279.12,98.48L279.6,98.22L289.7,94.2L290.18,94L300.77,91.09L301.25,90.99L308.47,89.63L308.95,90.48L309.91,99.05L310.4,109.51L313.28,196.07L313.76,196.51L314.25,196.36L314.73,197.37L316.65,197.77L317.13,197.8L333.5,198.86L333.98,198.86L367.18,198.38L367.66,197.79L368.63,189.94L369.11,180.72L371.99,109.44L372.48,106.56L374.4,101.92L374.88,101.32L378.25,98.6L378.73,98.36L385.95,95L386.43,94.84L405.68,89.2L406.16,89.13L409.53,88.61L410.01,89.31L410.97,97L411.46,106.68L414.34,194.52L414.82,195.92L415.31,195.42L415.79,196.39L417.23,196.77L417.71,196.87L457.17,198.82L457.65,198.81L467.28,198.51L467.76,197.59L468.72,191.09L469.2,180.91L472.09,109.19L472.57,106.06L474.5,100.99L474.98,100.31L478.35,97.57L478.83,97.33L490.38,92.44L490.86,92.26L498.08,90.05L498.56,90.01L506.74,88.28L507.22,88.17L511.07,88.19L511.55,90.18L512.51,104.19L513,118.5L514.92,181.5L515.4,192.58L515.88,194.66L516.36,193.98L516.85,194.92L518.29,195.37L518.77,195.47L540.43,196.57L540.91,196.58L569.3,196.7L569.78,194.06L570.74,185.42L571.23,169.47L573.15,114.79L573.63,109.45L575.08,102.34L575.56,101.2L577,98.96" style="vector-effect: none; fill: none; stroke: rgb(239, 85, 59); stroke-opacity: 1; stroke-width: 2px; opacity: 1;"/></g><g class="points"/><g class="text"/></g><g class="trace scatter trace480111" style="stroke-miterlimit: 2; opacity: 1;"><g class="fills"/><g class="errorbars"/><g class="lines"><path class="js-line" d="M0,23.65L4.81,23.08L5.29,23.9L6.26,32.04L6.74,42.14L9.14,133.61L9.62,172.26L10.11,181.59L10.59,175.77L11.55,194.23L12.03,190.6L13.47,191.44L13.96,191.2L39.46,189.42L39.94,189.41L54.38,189.14L54.86,189.2L61.12,189.17L61.6,189.12L63.04,188.76L63.52,188.07L64,187.25L64.49,182.96L65.93,145.29L66.41,124.86L68.34,81.27L68.82,77.48L70.74,70.78L71.22,69.8L75.55,63.26L76.04,62.68L83.73,55.6L84.22,55.25L93.84,49.16L94.32,48.86L100.58,46.03L101.06,45.85L104.91,44.45L105.39,44.95L106.35,51.48L106.83,60.03L108.28,121.1L108.76,136.32L109.72,165.72L110.2,176.31L110.68,173.03L111.17,175.24L111.65,177.02L112.13,176.53L112.61,176.32L117.42,176.84L117.9,176.84L163.14,177.69L163.62,177.51L165.06,159.09L165.54,140.47L167.47,79.96L167.95,74.04L169.39,66.59L169.88,66.32L170.84,66.07L171.32,64.79L173.24,58.74L173.73,58.26L180.94,52.17L181.43,51.88L192.49,45.3L192.97,45.07L206.45,40.16L206.93,40.53L207.89,46.81L208.37,55.2L209.34,88.07L209.82,115.47L211.74,171.22L212.22,168.08L213.19,171.9L213.67,171.62L214.15,171.59L217.04,172.28L217.52,172.35L222.81,172.41L223.29,172.41L235.32,173.1L235.8,173.25L238.69,173.32L239.17,173.33L250.72,173.58L251.2,173.57L264.68,173.7L265.16,173.33L265.64,172.57L266.12,170.07L267.09,152.11L267.57,137.52L269.97,70.62L270.45,66.23L272.38,59.28L272.86,58.4L277.19,53.51L277.67,53.08L281.52,49.68L282,49.4L293.55,42.41L294.03,42.24L300.77,39.55L301.25,39.4L304.14,38.07L304.62,37.77L308.95,36.79L309.43,38.55L310.4,51.33L310.88,64.86L313.76,167.09L314.25,163.97L315.21,168.01L315.69,167.7L316.17,167.65L318.1,167.97L318.58,168.02L329.65,168.52L330.13,168.47L336.38,168.77L336.86,168.84L353.71,170.21L354.19,170.16L359,170.4L359.48,170.49L366.7,170.42L367.18,169.97L367.66,169.4L368.14,167.23L369.59,136.32L370.07,116.46L371.99,67.74L372.48,63.22L374.4,55.39L374.88,54.45L378.25,49.86L378.73,49.44L384.51,45.12L384.99,44.8L388.84,42.78L389.32,42.57L397.02,37.98L397.5,37.63L401.35,35.92L401.83,35.89L405.2,35.02L405.68,34.84L410.01,33.78L410.49,35.26L411.46,46.64L411.94,59.28L414.82,164.93L415.31,161.27L416.27,165.39L416.75,165.15L417.23,164.93L419.64,165.14L420.12,165.25L426.85,165.99L427.34,165.98L435.52,166.53L436,166.58L453.8,167.75L454.29,167.68L459.1,168.14L459.58,168.25L463.43,168.38L463.91,168.38L467.28,167.99L467.76,167.14L468.24,165.04L468.72,159.48L470.17,115.52L470.65,97.4L472.57,60.92L473.05,57.79L474.98,51.41L475.46,50.49L478.35,47.02L478.83,46.62L488.45,39.87L488.93,39.6L499.04,34.57L499.52,34.42L507.7,31.84L508.18,31.84L510.59,32.72L511.07,35.37L512.03,51.89L512.51,67.86L514.92,159L515.4,158.36L515.88,158.13L516.36,160.92L517.33,160.92L517.81,161.1L520.21,161.41L520.7,161.4L544.28,163.44L544.76,163.42L551.01,163.74L551.49,163.86L558.71,164.34L559.19,164.35L569.3,164.17L569.78,162.01L570.74,151.12L571.23,137.68L573.63,66.12L574.11,60.79L576.04,51.29L576.52,50.1L577,49.08" style="vector-effect: none; fill: none; stroke: rgb(0, 204, 150); stroke-opacity: 1; stroke-width: 2px; opacity: 1;"/></g><g class="points"/><g class="text"/></g><g class="trace scatter trace42fb75" style="stroke-miterlimit: 2; opacity: 1;"><g class="fills"/><g class="errorbars"/><g class="lines"><path class="js-line" d="M0,85.7L4.81,85.62L5.29,86.48L6.26,94.58L6.74,104.55L9.62,196.88L10.11,198.12L10.59,197.49L11.07,198.65L12.51,198.82L12.99,198.87L49.09,198.86L49.57,198.86L63.52,198.52L64,197.63L64.97,191.8L65.45,181.8L67.85,121.33L68.34,117.06L69.78,111.77L70.26,110.93L73.63,107.28L74.11,106.9L81.33,102.42L81.81,102.19L92.4,98.1L92.88,97.96L103.95,95.14L104.43,95.16L105.39,96.27L105.87,98.79L106.83,112.67L107.32,126.37L109.24,187.25L109.72,195.92L110.2,198.68L110.68,198.08L111.17,198.55L112.61,198.83L113.09,198.86L148.7,198.86L149.18,198.86L163.62,198.64L164.1,196.17L165.06,188.5L165.54,173.94L167.47,117.89L167.95,113.18L169.39,108.39L169.88,108.4L170.84,108.5L171.32,107.75L173.24,103.6L173.73,103.32L183.35,99.04L183.83,98.92L188.64,97.16L189.13,97.03L205.97,93.46L206.45,93.42L206.93,93.84L207.41,95.69L208.37,108.11L208.86,121.21L211.26,194.91L211.74,198.71L212.22,197.86L212.71,198.43L213.19,198.94L218,198.86L218.48,198.86L265.16,198.61L265.64,197.62L266.6,191.83L267.09,181.91L269.49,116.74L269.97,111.82L271.42,105.73L271.9,104.83L274.3,102.57L274.78,102.23L280.08,99L280.56,98.82L302.22,92.65L302.7,92.59L308.95,91.82L309.43,93.59L310.4,106.06L310.88,119.3L313.28,193.99L313.76,197.92L314.25,197.1L314.73,197.9L315.69,198.56L316.17,198.58L320.98,198.86L321.46,198.86L367.18,198.57L367.66,197.58L368.63,191.48L369.11,181.34L371.51,115.55L371.99,110.57L373.44,104.28L373.92,103.35L376.81,100.24L377.29,99.91L383.54,96.86L384.03,96.72L400.87,91.48L401.35,91.45L406.16,90.7L406.64,90.59L410.01,90.43L410.49,92.04L411.46,103.46L411.94,115.95L414.34,191.81L414.82,197.22L415.31,196.25L415.79,196.82L416.27,197.58L452.36,198.86L452.84,198.86L467.28,198.66L467.76,197.96L468.72,192.24L469.2,184.57L472.09,110.31L472.57,106.9L474.5,101.48L474.98,100.81L478.35,98.2L478.83,97.96L492.78,92.64L493.27,92.5L504.33,90.26L504.81,90.2L510.11,89.84L510.59,90.77L511.55,99.47L512.03,110.02L514.92,194.85L515.4,194.93L515.88,194.92L516.36,195.84L519.25,196.28L519.73,196.31L539.46,197.26L539.94,197.27L559.68,197.78L560.16,197.75L569.3,197.73L569.78,196.12L570.74,188.26L571.23,177.18L573.15,116.99L573.63,110.94L575.08,103.02L575.56,101.85L577,99.63" style="vector-effect: none; fill: none; stroke: rgb(171, 99, 250); stroke-opacity: 1; stroke-width: 2px; opacity: 1;"/></g><g class="points"/><g class="text"/></g><g class="trace scatter tracea5b406" style="stroke-miterlimit: 2; opacity: 1;"><g class="fills"/><g class="errorbars"/><g class="lines"><path class="js-line" d="M0,54.66L4.81,54.4L5.29,55.17L6.26,63.05L6.74,72.93L9.14,161.77L9.62,189.82L10.11,195.52L10.59,192.57L11.07,197.7L11.55,199.5L12.03,198.54L12.51,198.64L13.96,198.84L14.44,198.86L50.05,198.86L50.53,198.86L63.04,198.57L63.52,198L64.49,191.83L64.97,184.27L68.34,97.66L68.82,94.64L70.74,89.42L71.22,88.66L75.55,83.6L76.04,83.13L83.25,77.31L83.73,76.98L91.92,72.68L92.4,72.47L101.54,69.04L102.02,68.89L104.91,68.73L105.39,69.95L106.35,78.48L106.83,87.79L110.2,194L110.68,192.81L112.13,195.38L112.61,195.42L115.98,196.14L116.46,196.2L135.23,197.52L135.71,197.51L162.66,197.56L163.14,197.46L163.62,197.59L164.1,191.83L165.54,157.84L166.03,135.19L167.95,92.16L168.43,88.93L169.88,86.36L170.36,86.53L170.84,86.37L171.32,85.36L173.24,80.24L173.73,79.9L183.83,73.14L184.31,73.01L188.64,70.91L189.13,70.71L198.27,67.48L198.75,67.41L203.08,66.21L203.56,66.12L206.93,65.54L207.41,67.34L208.37,79.62L208.86,92.72L211.74,191.99L212.22,189.55L213.19,193.1L213.67,192.94L214.15,192.86L218,193.65L218.48,193.68L232.44,194.46L232.92,194.46L253.13,195.09L253.61,195.1L265.16,194.5L265.64,192.33L266.6,181.1L267.09,166.65L269.49,95.11L269.97,89.76L271.42,82.78L271.9,81.77L274.78,78.26L275.27,77.65L279.12,74.42L279.6,74.07L291.15,68.19L291.63,68.03L308.47,62.77L308.95,63.03L309.91,68.93L310.4,77.15L311.84,137.01L312.32,152.82L313.28,179.34L313.76,189.18L314.25,186.7L314.73,188.56L315.21,190.29L315.69,190.13L316.17,190.09L319.06,190.78L319.54,190.83L349.86,192.69L350.34,192.69L366.7,192.85L367.18,192.48L368.14,185.95L368.63,179.18L371.99,87.61L372.48,84.07L374.4,77.84L374.88,77.02L377.77,74.05L378.25,73.74L385.47,69.25L385.95,69.03L395.57,64.94L396.06,64.6L399.91,62.95L400.39,62.83L407.61,60.98L408.09,60.84L410.01,60.84L410.49,62.32L411.46,73.61L411.94,86.19L414.82,188.27L415.31,185.79L416.75,189.4L417.23,189.3L419.64,189.75L420.12,189.83L427.82,190.57L428.3,190.59L437.44,191.11L437.92,191.15L450.44,191.75L450.92,191.73L467.28,191.73L467.76,190.36L468.72,179.91L469.2,168.46L471.61,92.83L472.09,86.74L473.53,78.58L474.02,77.24L476.42,73.44L476.9,72.95L480.75,70.41L481.23,70.09L488.45,66.22L488.93,66.01L498.56,62.34L499.04,62.26L508.66,59.95L509.15,60.01L510.11,59.99L510.59,60.81L511.55,69.31L512.03,79.84L515.4,184.81L515.88,184.5L516.85,187.67L517.33,187.41L520.7,188.19L521.18,188.27L527.43,188.82L527.91,188.88L542.35,189.6L542.83,189.61L558.23,190.19L558.71,190.18L569.3,189.97L569.78,186.83L571.23,158.8L571.71,136.56L573.63,87.48L574.11,83.08L576.04,75.43L576.52,74.48L577,73.7" style="vector-effect: none; fill: none; stroke: rgb(255, 161, 90); stroke-opacity: 1; stroke-width: 2px; opacity: 1;"/></g><g class="points"/><g class="text"/></g><g class="trace scatter trace2a6eaa" style="stroke-miterlimit: 2; opacity: 1;"><g class="fills"/><g class="errorbars"/><g class="lines"><path class="js-line" d="M0,61.63L4.33,61.33L4.81,62.23L5.77,69.04L6.26,76.55L7.7,124.47L8.18,148.56L10.11,196.87L10.59,196.6L11.55,198.94L12.03,198.79L12.51,198.79L17.32,198.86L17.81,198.86L63.52,198.45L64,196.68L64.97,188.78L65.45,175.42L67.85,111.18L68.34,106.93L70.26,100.53L70.74,99.72L75.07,94.65L75.55,94.25L83.73,88.17L84.22,87.94L97.69,81.53L98.17,81.38L104.43,79.68L104.91,80.68L105.87,89.77L106.35,100.55L109.24,192.08L109.72,192.19L110.2,192.22L110.68,193.5L113.09,194.11L113.57,194.19L127.05,195.85L127.53,195.8L137.15,196.11L137.63,196.14L153.03,196.72L153.51,196.69L163.62,196.73L164.1,193.87L165.54,168.64L166.03,146.28L167.95,101.45L168.43,98.24L169.88,94.76L170.36,94.46L171.32,93.51L171.8,92.44L173.73,89.64L174.21,89.32L184.79,83.33L185.28,83.14L194.42,79.08L194.9,78.87L198.75,77.38L199.23,77.33L206.93,75.39L207.41,76.85L208.37,87.79L208.86,99.99L211.74,191.11L212.22,189.93L213.67,191.95L214.15,191.9L220.89,193.26L221.37,193.28L265.16,194.55L265.64,193.04L266.6,184.54L267.09,173.31L269.49,103.49L269.97,98.55L271.42,91.95L271.9,90.91L274.3,87.98L274.78,87.56L281.04,83.04L281.52,82.86L288.26,79.14L288.74,78.83L293.07,76.67L293.55,76.48L306.55,72.53L307.03,72.48L308.95,72.28L309.43,73.59L310.4,84.37L310.88,96.55L313.76,188.44L314.25,187.1L315.69,189.42L316.17,189.44L319.06,190.14L319.54,190.24L326.76,191.06L327.24,191.06L340.23,192.06L340.71,192.14L348.89,192.6L349.38,192.62L365.26,193.37L365.74,193.38L367.18,193.05L367.66,191.55L368.63,183.02L369.11,171.59L371.51,101.34L371.99,96.16L373.92,88.02L374.4,87.12L377.29,83.85L377.77,83.51L388.36,77.4L388.84,77.22L394.61,74.73L395.09,74.48L400.87,71.96L401.35,71.89L405.68,70.8L406.16,70.58L410.01,69.92L410.49,71.08L411.46,81.01L411.94,92.5L414.82,187.42L415.31,186.61L415.79,187.07L416.27,188.71L419.16,189.34L419.64,189.46L425.41,190.26L425.89,190.27L444.66,191.8L445.14,191.83L467.28,192.57L467.76,191.86L469.2,175.24L469.68,156.77L471.61,100.83L472.09,95.08L473.53,87.62L474.02,86.46L476.42,83L476.9,82.56L481.23,79.68L481.72,79.42L490.38,74.36L490.86,74.16L500.48,70.69L500.96,70.61L503.85,69.97L504.33,69.83L510.11,68.94L510.59,69.46L511.55,76.67L512.03,86.18L515.4,185.63L515.88,184.82L516.85,187.3L517.33,187.2L523.58,188.44L524.06,188.47L545.24,189.98L545.72,189.98L568.34,191.16L568.82,190.83L569.3,191.05L569.78,189.39L571.23,168.29L571.71,146.44L573.63,95.85L574.11,91.49L576.04,84.56L576.52,83.69L577,82.95" style="vector-effect: none; fill: none; stroke: rgb(25, 211, 243); stroke-opacity: 1; stroke-width: 2px; opacity: 1;"/></g><g class="points"/><g class="text"/></g><g class="trace scatter trace88890d" style="stroke-miterlimit: 2; opacity: 1;"><g class="fills"/><g class="errorbars"/><g class="lines"><path class="js-line" d="M0,65.5L4.33,64.99L4.81,66.29L5.77,76.46L6.26,88.1L9.14,197.49L9.62,195.27L10.11,195.9L10.59,198.91L12.99,198.86L13.47,198.85L50.53,198.86L51.01,198.86L63.52,198.61L64,197.05L64.97,189.91L65.45,178.11L67.85,112.87L68.34,108.69L69.78,103.45L70.26,102.57L73.63,98.57L74.11,98.1L81.33,92.75L81.81,92.42L87.1,89.34L87.58,89.08L98.17,84.67L98.65,84.49L104.43,83.05L104.91,83.77L105.87,91.62L106.35,101.42L109.24,191.61L109.72,193.01L110.2,192.48L110.68,193.63L112.13,194.09L112.61,194.22L127.05,196.02L127.53,196.02L149.18,196.71L149.66,196.74L158.81,196.76L159.29,196.77L163.62,196.63L164.1,194.8L165.54,172.07L166.03,150.4L167.95,103.64L168.43,100.28L169.88,96.49L170.36,96.04L171.8,94.51L172.28,93.71L174.69,91.58L175.17,91.32L184.79,86.22L185.28,86.13L202.6,80.01L203.08,79.9L206.93,79.2L207.41,80.38L208.37,89.89L208.86,100.92L211.74,191.13L212.22,190.9L212.71,190.98L213.19,192.25L215.59,192.67L216.07,192.79L222.33,193.54L222.81,193.53L254.57,194.87L255.05,194.85L265.16,194.89L265.64,193.84L267.09,176.43L267.57,157.07L269.49,105.03L269.97,100.2L271.42,94.23L271.9,93.29L274.3,90.51L274.78,90.15L281.04,85.65L281.52,85.49L286.82,82.79L287.3,82.5L293.07,79.99L293.55,79.82L307.99,76.07L308.47,76.88L309.43,84.5L309.91,94.06L312.8,186.07L313.28,187.95L313.76,187.51L314.25,188.84L315.69,189.56L316.17,189.77L322.43,190.91L322.91,190.95L361.41,193.51L361.89,193.53L367.18,193.56L367.66,192.44L369.11,174.85L369.59,155.77L371.51,103.29L371.99,98.15L373.92,90.26L374.4,89.42L377.29,86.24L377.77,85.99L384.51,82.3L384.99,82.01L390.28,80.1L390.76,79.89L401.35,75.21L401.83,75.19L405.68,74.1L406.16,73.89L410.01,73.21L410.49,74.01L411.46,82.48L411.94,92.89L414.82,186.75L415.31,187.47L415.79,187.22L416.27,188.75L417.71,189.28L418.19,189.44L433.59,191.22L434.07,191.24L442.74,191.98L443.22,192.03L460.06,193.06L460.54,193.06L467.76,192.85L468.24,189.39L469.2,178.21L469.68,160.6L471.61,102.89L472.09,97.13L473.53,89.8L474.02,88.69L476.42,85.46L476.9,85.04L482.68,81.51L483.16,81.24L495.67,75.26L496.15,75.07L500.48,73.97L500.96,73.91L503.85,73.24L504.33,73.06L510.11,72.21L510.59,72.48L511.55,78.48L512.03,86.96L515.4,186.5L515.88,185.31L517.33,187.55L517.81,187.66L521.18,188.44L521.66,188.55L528.4,189.36L528.88,189.42L562.56,191.52L563.04,191.5L569.3,191.62L569.78,190.77L571.23,172.68L571.71,151.66L573.63,98.18L574.11,93.66L576.04,86.76L576.52,85.91L577,85.22" style="vector-effect: none; fill: none; stroke: rgb(255, 102, 146); stroke-opacity: 1; stroke-width: 2px; opacity: 1;"/></g><g class="points"/><g class="text"/></g><g class="trace scatter trace5816a3" style="stroke-miterlimit: 2; opacity: 1;"><g class="fills"/><g class="errorbars"/><g class="lines"><path class="js-line" d="M0,87.55L4.33,87.58L4.81,88.84L5.77,98.83L6.26,110.3L9.14,198.39L9.62,197.71L10.11,197.88L10.59,198.87L17.32,198.86L17.81,198.86L63.52,198.7L64,197.86L64.97,193.24L65.45,184.71L67.85,122.5L68.34,118.01L69.78,112.49L70.26,111.65L73.15,108.66L73.63,108.25L79.88,104.39L80.37,104.15L89.51,100.54L89.99,100.39L103.95,96.89L104.43,96.92L104.91,97.7L105.39,100.22L106.35,115.28L106.83,130L108.76,189.24L109.24,197.52L109.72,198.49L110.2,198.08L110.68,198.72L112.61,198.87L113.09,198.86L163.62,198.46L164.1,197.14L165.06,187.27L165.54,176.52L167.47,119.65L167.95,114.28L169.39,108.5L169.88,108.31L171.32,108.24L171.8,107.31L173.73,104.13L174.21,103.92L189.61,98.3L190.09,98.19L204.04,95.46L204.52,95.38L206.93,95.23L207.41,96.32L208.37,105.63L208.86,116.51L211.26,190.92L211.74,198.31L212.71,198.12L213.19,198.83L217.04,198.86L217.52,198.86L265.16,198.71L265.64,198.06L266.6,192.16L267.09,185.45L269.49,117.36L269.97,112.33L271.42,106.24L271.9,105.42L274.3,103.16L274.78,102.84L281.52,99.53L282,99.38L293.55,95.84L294.03,95.74L307.03,93.46L307.51,93.57L308.47,94.52L308.95,96.94L309.91,111.67L310.4,126.2L312.32,186.75L312.8,195.96L314.25,197.65L314.73,198L318.58,198.63L319.06,198.66L330.13,198.86L330.61,198.86L367.18,198.69L367.66,197.99L368.63,191.93L369.11,184.76L371.51,116.29L371.99,111.18L373.44,104.78L373.92,103.87L376.81,100.94L377.29,100.67L386.43,97.13L386.91,97L403.76,92.87L404.24,92.81L410.01,91.66L410.49,92.52L411.46,101.06L411.94,111.4L414.82,195.95L415.31,196.44L415.79,196.22L416.27,197.09L418.67,197.51L419.16,197.58L428.78,198.44L429.26,198.46L447.55,198.86L448.03,198.86L467.76,198.44L468.24,196.18L469.2,187.97L469.68,173.19L471.61,117.03L472.09,111.25L473.53,103.98L474.02,102.98L476.42,100.24L476.9,99.91L482.68,97.25L483.16,97.04L494.71,93.47L495.19,93.38L508.66,91.23L509.15,91.3L510.59,91.66L511.07,93.45L512.03,106.19L512.51,119.6L514.92,192.34L515.4,195.32L515.88,194.63L516.36,195.37L517.81,195.91L518.29,196.02L544.76,197.57L545.24,197.57L569.3,198.08L569.78,197.61L571.23,183.83L571.71,165L573.63,112.48L574.11,108.03L575.56,102.44L576.04,101.55L577,100.28" style="vector-effect: none; fill: none; stroke: rgb(182, 232, 128); stroke-opacity: 1; stroke-width: 2px; opacity: 1;"/></g><g class="points"/><g class="text"/></g><g class="trace scatter trace986d95" style="stroke-miterlimit: 2; opacity: 1;"><g class="fills"/><g class="errorbars"/><g class="lines"><path class="js-line" d="M0,76.9L4.33,76.67L4.81,77.68L5.77,86.51L6.26,96.97L9.14,196.78L9.62,197.41L10.11,196.84L10.59,198.66L11.55,198.75L12.03,198.81L17.32,198.86L17.81,198.86L63.52,198.77L64,197.74L64.97,191.73L65.45,183.21L67.85,118.89L68.34,115.05L70.26,108.97L70.74,108.18L74.11,104.48L74.59,104.04L80.37,99.78L80.85,99.45L87.58,96.07L88.07,95.86L94.32,93.5L94.8,93.35L104.43,90.66L104.91,91.23L105.87,98.06L106.35,106.89L109.24,195.61L109.72,198.6L110.2,197.73L110.68,198.5L111.65,198.84L112.13,198.82L119.35,198.86L119.83,198.86L163.14,198.54L163.62,196.93L164.58,190.1L165.06,177.51L167.47,114.91L167.95,110.76L169.88,104.19L170.36,103.48L175.17,99.56L175.65,99.33L185.76,94.72L186.24,94.52L192.97,91.88L193.46,91.74L206.93,88.84L207.41,89.75L208.37,97.81L208.86,107.68L211.74,195.04L212.22,196.15L212.71,195.75L213.19,196.77L214.63,197.11L215.11,197.17L240.14,198.18L240.62,198.16L253.61,198.35L254.09,198.35L263.24,198.25L263.72,198.35L265.64,197.63L266.12,193.89L267.09,184.02L267.57,165.47L269.49,113.15L269.97,108.81L271.9,102.27L272.38,101.44L275.27,98.5L275.75,98.14L288.74,91.55L289.22,91.39L305.1,86.88L305.58,86.78L308.47,86.82L308.95,88.86L309.91,102.23L310.4,115.96L312.8,190.37L313.28,193.4L313.76,192.55L314.25,193.35L315.69,193.8L316.17,193.93L322.91,194.48L323.39,194.5L366.22,195.87L366.7,195.63L367.66,195.22L368.14,191.68L369.11,182.18L369.59,163.82L371.51,112.01L371.99,107.59L373.92,100.51L374.4,99.7L377.29,96.94L377.77,96.6L383.06,93.75L383.54,93.56L393.65,89.59L394.13,89.49L397.02,88.23L397.5,88.05L409.05,85.68L409.53,86.03L410.49,91.51L410.97,99.11L412.42,151.46L412.9,167.25L414.34,191.67L414.82,191.53L415.31,192.26L416.75,192.84L417.23,192.93L428.78,193.67L429.26,193.66L442.25,194.13L442.74,194.17L452.84,194.5L453.32,194.48L467.76,194.5L468.24,192.16L469.2,184.21L469.68,170.23L471.61,112.66L472.09,107.54L474.02,99.77L474.5,98.89L477.38,95.88L477.87,95.56L487.49,90.76L487.97,90.58L499.04,87.11L499.52,87.01L510.59,85.27L511.07,86.63L512.03,97.79L512.51,110.27L514.92,185.94L515.4,191.15L515.88,190.11L516.36,190.68L516.85,191.41L531.28,192.14L531.76,192.19L543.79,192.67L544.28,192.67L551.98,192.93L552.46,192.96L569.3,192.64L569.78,192.24L570.74,183.62L571.23,177.09L573.63,109.11L574.11,104.79L576.04,98.35L576.52,97.63L577,97.05" style="vector-effect: none; fill: none; stroke: rgb(255, 151, 255); stroke-opacity: 1; stroke-width: 2px; opacity: 1;"/></g><g class="points"/><g class="text"/></g><g class="trace scatter trace5c706c" style="stroke-miterlimit: 2; opacity: 1;"><g class="fills"/><g class="errorbars"/><g class="lines"><path class="js-line" d="M0,75.2L4.33,74.88L4.81,75.63L5.77,83.21L6.26,92.73L9.62,197.91L10.11,196.45L11.07,199.08L11.55,198.77L47.16,198.86L47.64,198.86L63.52,198.76L64,198.05L65.45,185.06L65.93,166.29L67.85,118.46L68.34,114.74L70.26,109.13L70.74,108.39L74.59,104.17L75.07,103.75L80.85,99.5L81.33,99.23L90.47,94.93L90.95,94.74L99.13,91.79L99.62,91.62L103.95,90.53L104.43,90.49L104.91,90.85L105.39,92.57L106.35,104.44L106.83,117.21L109.24,193.57L109.72,198.79L110.2,197.7L110.68,198.28L111.17,198.95L115.98,198.86L116.46,198.86L163.14,198.69L163.62,196.75L164.58,189.42L165.06,176.87L166.99,118.8L167.47,113.21L168.91,106.17L169.39,105.07L171.32,102.56L171.8,102.07L174.69,99.8L175.17,99.52L184.31,95.12L184.79,94.99L192.97,91.72L193.46,91.53L199.23,90.2L199.71,90.15L206.93,88.48L207.41,89.18L208.37,96.24L208.86,105.18L211.74,192.99L212.22,195.68L212.71,194.9L213.19,195.74L214.63,196.25L215.11,196.36L223.29,196.86L223.77,196.85L264.2,197.27L264.68,197L265.64,196.91L266.12,193.59L267.09,184.52L267.57,167.57L269.49,112.25L269.97,107.93L271.42,102.95L271.9,102.04L274.78,98.8L275.27,98.35L280.56,95.15L281.04,94.93L295.48,89.15L295.96,88.98L303.18,87.06L303.66,86.94L307.99,86.02L308.47,86.25L309.43,91.78L309.91,99.53L311.36,155.97L311.84,171.36L313.28,192.77L313.76,191.8L314.25,192.39L315.21,193.06L315.69,193.05L320.98,193.54L321.46,193.54L366.22,194.95L366.7,194.65L367.66,194.52L368.14,191.3L369.11,182.61L369.59,165.7L371.51,110.94L371.99,106.52L373.92,100.1L374.4,99.4L378.25,96.04L378.73,95.72L384.03,92.98L384.51,92.78L401.35,86.79L401.83,86.76L409.53,85.61L410.01,86.96L410.97,97.51L411.46,109.43L413.86,185.18L414.34,191.59L414.82,190.82L415.31,191.21L415.79,191.99L450.92,193.56L451.4,193.56L467.76,193.43L468.24,191.47L469.68,168.34L470.17,148.4L472.09,106.46L472.57,103.46L474.5,98.57L474.98,97.95L478.83,94.88L479.31,94.62L489.42,89.68L489.9,89.48L500,86.56L500.48,86.52L503.85,85.73L504.33,85.6L510.59,84.79L511.07,85.8L512.03,95.49L512.51,106.94L514.92,182.79L515.4,190L516.36,189.55L516.85,190.35L532.73,191.29L533.21,191.28L547.64,191.72L548.13,191.75L568.82,191.95L569.3,191.15L570.26,185.67L570.74,178.08L573.15,111.85L573.63,106.9L575.56,98.99L576.04,98.12L577,96.87" style="vector-effect: none; fill: none; stroke: rgb(254, 203, 82); stroke-opacity: 1; stroke-width: 2px; opacity: 1;"/></g><g class="points"/><g class="text"/></g></g></g></g><path class="xlines-above crisp" d="M0,0" style="fill: none;"/><path class="ylines-above crisp" d="M0,0" style="fill: none;"/><g class="overlines-above"/><g class="xaxislayer-above"><g class="xtick"><text text-anchor="middle" x="0" y="273" transform="translate(159.63,0)" style="font-family: 'Times New Roman'; font-size: 12px; fill: rgb(0, 0, 0); fill-opacity: 1; white-space: pre; opacity: 1;">5e+6</text></g><g class="xtick"><text text-anchor="middle" x="0" y="273" style="font-family: 'Times New Roman'; font-size: 12px; fill: rgb(0, 0, 0); fill-opacity: 1; white-space: pre; opacity: 1;" transform="translate(328.41,0)">1e+7</text></g><g class="xtick"><text text-anchor="middle" x="0" y="273" style="font-family: 'Times New Roman'; font-size: 12px; fill: rgb(0, 0, 0); fill-opacity: 1; white-space: pre; opacity: 1;" transform="translate(497.19,0)">2e+7</text></g></g><g class="yaxislayer-above"><g class="ytick"><text text-anchor="end" x="37" y="4.199999999999999" transform="translate(0,222.83)" style="font-family: 'Times New Roman'; font-size: 12px; fill: rgb(0, 0, 0); fill-opacity: 1; white-space: pre; opacity: 1;">10</text></g><g class="ytick"><text text-anchor="end" x="37" y="4.199999999999999" style="font-family: 'Times New Roman'; font-size: 12px; fill: rgb(0, 0, 0); fill-opacity: 1; white-space: pre; opacity: 1;" transform="translate(0,184.38)">12</text></g><g class="ytick"><text text-anchor="end" x="37" y="4.199999999999999" style="font-family: 'Times New Roman'; font-size: 12px; fill: rgb(0, 0, 0); fill-opacity: 1; white-space: pre; opacity: 1;" transform="translate(0,145.93)">14</text></g><g class="ytick"><text text-anchor="end" x="37" y="4.199999999999999" style="font-family: 'Times New Roman'; font-size: 12px; fill: rgb(0, 0, 0); fill-opacity: 1; white-space: pre; opacity: 1;" transform="translate(0,107.49000000000001)">16</text></g><g class="ytick"><text text-anchor="end" x="37" y="4.199999999999999" style="font-family: 'Times New Roman'; font-size: 12px; fill: rgb(0, 0, 0); fill-opacity: 1; white-space: pre; opacity: 1;" transform="translate(0,69.03999999999999)">18</text></g></g><g class="overaxes-above"/></g></g><g class="polarlayer"/><g class="smithlayer"/><g class="ternarylayer"/><g class="geolayer"/><g class="funnelarealayer"/><g class="pielayer"/><g class="iciclelayer"/><g class="treemaplayer"/><g class="sunburstlayer"/><g class="glimages"/><defs id="topdefs-81c373"><g class="clips"/></defs><g class="layer-above"><g class="imagelayer"/><g class="shapelayer"><g class="shape-group" data-index="0" clip-path="url(#clip81c373x)"><path data-index="0" fill-rule="evenodd" d="M58.25,260H98.75V50H58.25Z" style="opacity: 0.4; stroke: rgb(0, 0, 0); stroke-opacity: 0; fill: rgb(205, 208, 255); fill-opacity: 1; stroke-width: 0px;"/></g><g class="shape-group" data-index="1" clip-path="url(#clip81c373x)"><path data-index="1" fill-rule="evenodd" d="M159.5,260H200.02V50H159.5Z" style="opacity: 0.4; stroke: rgb(0, 0, 0); stroke-opacity: 0; fill: rgb(175, 223, 255); fill-opacity: 1; stroke-width: 0px;"/></g><g class="shape-group" data-index="2" clip-path="url(#clip81c373x)"><path data-index="2" fill-rule="evenodd" d="M260.61,260H301.12V50H260.61Z" style="opacity: 0.4; stroke: rgb(0, 0, 0); stroke-opacity: 0; fill: rgb(145, 237, 255); fill-opacity: 1; stroke-width: 0px;"/></g><g class="shape-group" data-index="3" clip-path="url(#clip81c373x)"><path data-index="3" fill-rule="evenodd" d="M361.85,260H402.36V50H361.85Z" style="opacity: 0.4; stroke: rgb(0, 0, 0); stroke-opacity: 0; fill: rgb(136, 248, 239); fill-opacity: 1; stroke-width: 0px;"/></g><g class="shape-group" data-index="4" clip-path="url(#clip81c373x)"><path data-index="4" fill-rule="evenodd" d="M463.13,260H503.63V50H463.13Z" style="opacity: 0.4; stroke: rgb(0, 0, 0); stroke-opacity: 0; fill: rgb(160, 254, 205); fill-opacity: 1; stroke-width: 0px;"/></g><g class="shape-group" data-index="5" clip-path="url(#clip81c373x)"><path data-index="5" fill-rule="evenodd" d="M564.38,260H604.87V50H564.38Z" style="opacity: 0.4; stroke: rgb(0, 0, 0); stroke-opacity: 0; fill: rgb(206, 254, 172); fill-opacity: 1; stroke-width: 0px;"/></g></g></g><g class="infolayer"><g class="g-gtitle"><text class="gtitle" x="312.5" y="25" text-anchor="middle" dy="0em" style="opacity: 1; font-family: 'Times New Roman'; font-size: 17px; fill: rgb(0, 0, 0); fill-opacity: 1; white-space: pre;">Matrix 0, Sensor 7</text></g><g class="g-xtitle" transform="translate(0,-2.8000000000000114)"><text class="xtitle" x="326.5" y="299.8" text-anchor="middle" style="opacity: 1; font-family: 'Times New Roman'; font-size: 14px; fill: rgb(0, 0, 0); fill-opacity: 1; white-space: pre;">Time since power on (ms)</text></g><g class="g-ytitle" transform="translate(6.900390625,0)"><text class="ytitle" transform="rotate(-90,5.600000000000001,155)" x="5.600000000000001" y="155" text-anchor="middle" style="opacity: 1; font-family: 'Times New Roman'; font-size: 14px; fill: rgb(0, 0, 0); fill-opacity: 1; white-space: pre;">Resistance (Ohms)</text></g><g class="annotation" data-index="0" style="opacity: 1;"><g class="annotation-text-g" transform="rotate(0,74.25,58.5)"><g class="cursor-pointer" transform="translate(58,50)"><rect class="bg" x="0.5" y="0.5" width="31" height="16" style="stroke-width: 1px; stroke: rgb(0, 0, 0); stroke-opacity: 0; fill: rgb(0, 0, 0); fill-opacity: 0;"/><text class="annotation-text" text-anchor="middle" x="16.171875" y="12.5" style="font-family: 'Times New Roman'; font-size: 12px; fill: rgb(0, 0, 0); fill-opacity: 1; white-space: pre;">E 100</text></g></g></g><g class="annotation" data-index="1" style="opacity: 1;"><g class="annotation-text-g" transform="rotate(0,177,58.5)"><g class="cursor-pointer" transform="translate(160,50)"><rect class="bg" x="0.5" y="0.5" width="34" height="16" style="stroke-width: 1px; stroke: rgb(0, 0, 0); stroke-opacity: 0; fill: rgb(0, 0, 0); fill-opacity: 0;"/><text class="annotation-text" text-anchor="middle" x="17.671875" y="12.5" style="font-family: 'Times New Roman'; font-size: 12px; fill: rgb(0, 0, 0); fill-opacity: 1; white-space: pre;">E 97.5</text></g></g></g><g class="annotation" data-index="2" style="opacity: 1;"><g class="annotation-text-g" transform="rotate(0,273.61,58.5)"><g class="cursor-pointer" transform="translate(261,50)"><rect class="bg" x="0.5" y="0.5" width="25" height="16" style="stroke-width: 1px; stroke: rgb(0, 0, 0); stroke-opacity: 0; fill: rgb(0, 0, 0); fill-opacity: 0;"/><text class="annotation-text" text-anchor="middle" x="13.171875" y="12.5" style="font-family: 'Times New Roman'; font-size: 12px; fill: rgb(0, 0, 0); fill-opacity: 1; white-space: pre;">E 95</text></g></g></g><g class="annotation" data-index="3" style="opacity: 1;"><g class="annotation-text-g" transform="rotate(0,374.85,58.5)"><g class="cursor-pointer" transform="translate(362,50)"><rect class="bg" x="0.5" y="0.5" width="25" height="16" style="stroke-width: 1px; stroke: rgb(0, 0, 0); stroke-opacity: 0; fill: rgb(0, 0, 0); fill-opacity: 0;"/><text class="annotation-text" text-anchor="middle" x="13.171875" y="12.5" style="font-family: 'Times New Roman'; font-size: 12px; fill: rgb(0, 0, 0); fill-opacity: 1; white-space: pre;">E 90</text></g></g></g><g class="annotation" data-index="4" style="opacity: 1;"><g class="annotation-text-g" transform="rotate(0,476.13,58.5)"><g class="cursor-pointer" transform="translate(463,50)"><rect class="bg" x="0.5" y="0.5" width="25" height="16" style="stroke-width: 1px; stroke: rgb(0, 0, 0); stroke-opacity: 0; fill: rgb(0, 0, 0); fill-opacity: 0;"/><text class="annotation-text" text-anchor="middle" x="13.171875" y="12.5" style="font-family: 'Times New Roman'; font-size: 12px; fill: rgb(0, 0, 0); fill-opacity: 1; white-space: pre;">E 80</text></g></g></g><g class="annotation" data-index="5" style="opacity: 1;"><g class="annotation-text-g" transform="rotate(0,577.38,58.5)"><g class="cursor-pointer" transform="translate(564,50)"><rect class="bg" x="0.5" y="0.5" width="25" height="16" style="stroke-width: 1px; stroke: rgb(0, 0, 0); stroke-opacity: 0; fill: rgb(0, 0, 0); fill-opacity: 0;"/><text class="annotation-text" text-anchor="middle" x="13.171875" y="12.5" style="font-family: 'Times New Roman'; font-size: 12px; fill: rgb(0, 0, 0); fill-opacity: 1; white-space: pre;">E 50</text></g></g></g></g></svg>