<svg class="main-svg" xmlns="http://www.w3.org/2000/svg" xmlns:xlink="http://www.w3.org/1999/xlink" width="625" height="300" style="" viewBox="0 0 625 300"><rect x="0" y="0" width="625" height="300" style="fill: rgb(255, 255, 255); fill-opacity: 1;"/><defs id="defs-aa544c"><g class="clips"><clipPath id="clipaa544cxyplot" class="plotclip"><rect width="577" height="210"/></clipPath><clipPath class="axesclip" id="clipaa544cx"><rect x="38" y="0" width="577" height="300"/></clipPath><clipPath class="axesclip" id="clipaa544cy"><rect x="0" y="50" width="625" height="210"/></clipPath><clipPath class="axesclip" id="clipaa544cxy"><rect x="38" y="50" width="577" height="210"/></clipPath></g><g class="gradients"/><g class="patterns"/></defs><g class="bglayer"><rect class="bg" x="38" y="50" width="577" height="210" style="fill: rgb(229, 236, 246); fill-opacity: 1; stroke-width: 0;"/></g><g class="layer-below"><g class="imagelayer"/><g class="shapelayer"/></g><g class="cartesianlayer"><g class="subplot xy"><g class="layer-subplot"><g class="shapelayer"/><g class="imagelayer"/></g><g class="minor-gridlayer"><g class="x"/><g class="y"/></g><g class="gridlayer"><g class="x"><path class="xgrid crisp" transform="translate(159.63,0)" d="M0,50v210" style="stroke: rgb(255, 255, 255); stroke-opacity: 1; stroke-width: 1px;"/><path class="xgrid crisp" transform="translate(328.41,0)" d="M0,50v210" style="stroke: rgb(255, 255, 255); stroke-opacity: 1; stroke-width: 1px;"/><path class="xgrid crisp" transform="translate(497.19,0)" d="M0,50v210" style="stroke: rgb(255, 255, 255); stroke-opacity: 1; stroke-width: 1px;"/></g><g class="y"><path class="ygrid crisp" transform="translate(0,258.59000000000003)" d="M38,0h577" style="stroke: rgb(255, 255, 255); stroke-opacity: 1; stroke-width: 1px;"/><path class="ygrid crisp" transform="translate(0,222.21)" d="M38,0h577" style="stroke: rgb(255, 255, 255); stroke-opacity: 1; stroke-width: 1px;"/><path class="ygrid crisp" transform="translate(0,185.82)" d="M38,0h577" style="stroke: rgb(255, 255, 255); stroke-opacity: 1; stroke-width: 1px;"/><path class="ygrid crisp" transform="translate(0,149.44)" d="M38,0h577" style="stroke: rgb(255, 255, 255); stroke-opacity: 1; stroke-width: 1px;"/><path class="ygrid crisp" transform="translate(0,113.05)" d="M38,0h577" style="stroke: rgb(255, 255, 255); stroke-opacity: 1; stroke-width: 1px;"/><path class="ygrid crisp" transform="translate(0,76.67)" d="M38,0h577" style="stroke: rgb(255, 255, 255); stroke-opacity: 1; stroke-width: 1px;"/></g></g><g class="zerolinelayer"/><g class="layer-between"><g class="shapelayer"/><g class="imagelayer"/></g><path class="xlines-below"/><path class="ylines-below"/><g class="overlines-below"/><g class="xaxislayer-below"/><g class="yaxislayer-below"/><g class="overaxes-below"/><g class="overplot"><g class="xy" transform="translate(38,50)" clip-path="url(#clipaa544cxyplot)"><g class="scatterlayer mlayer"><g class="trace scatter trace2785f0" style="stroke-miterlimit: 2; opacity: 1;"><g class="fills"/><g class="errorbars"/><g class="lines"><path class="js-line" d="M0,10.5L577,10.5" style="vector-effect: none; fill: none; stroke: rgb(99, 110, 250); stroke-opacity: 1; stroke-width: 2px; opacity: 1;"/></g><g class="points"/><g class="text"/></g><g class="trace scatter trace93eeba" style="stroke-miterlimit: 2; opacity: 1;"><g class="fills"/><g class="errorbars"/><g class="lines"><path class="js-line" d="M0,160.88L2.89,160.81L3.37,160.9L4.33,161.15L4.81,162.3L5.77,171.3L6.26,179.4L7.7,191.96L8.18,191.57L14.44,189.1L14.92,189.05L23.1,187.81L23.58,187.76L58.71,185.97L59.19,186.03L63.52,185.51L64,185.3L64.97,184.79L65.45,182.67L68.34,154.2L68.82,153.59L71.22,152.48L71.7,152.47L75.07,153.13L75.55,153.38L77.48,153.58L77.96,153.44L81.33,152.99L81.81,152.98L99.13,154.35L99.62,154.52L101.54,154.5L102.02,154.29L103.95,154.51L104.43,155.37L105.39,162.31L105.87,169.23L107.8,188.45L108.28,188.4L112.13,186.38L112.61,186.27L135.71,184.05L136.19,184.05L141.48,183.89L141.96,183.87L165.06,183.28L165.54,182.85L166.51,175.48L166.99,168.4L168.43,153.43L168.91,151.98L169.39,152.5L169.88,154.71L170.84,159.57L171.32,158.63L173.24,151.65L173.73,151.22L175.17,151.08L175.65,151.14L179.02,150.76L179.5,150.57L182.39,149.75L182.87,150.19L186.72,155.6L187.2,155.52L190.09,153.18L190.57,152.44L192.01,151.43L192.49,151.48L194.42,151.5L194.9,151.28L198.75,150.55L199.23,150.57L206.45,151.23L206.93,153.45L207.89,166.01L208.37,175.22L209.82,186.23L210.3,185.89L215.59,183.78L216.07,183.75L243.5,181.82L243.99,181.86L251.69,181.76L252.17,181.77L266.6,181.45L267.09,181.02L268.05,176.17L268.53,170.44L270.45,151.37L270.93,150.22L273.34,148.55L273.82,148.34L280.08,147.51L280.56,147.53L307.51,148.76L307.99,148.97L308.47,149.43L308.95,151.15L309.91,162.02L310.4,171.09L311.84,184.12L312.32,183.85L321.95,181.67L322.43,181.62L329.16,180.86L329.65,180.86L368.63,180.37L369.11,180.09L370.07,176.44L370.55,171.6L372.96,149.91L373.44,149.1L376.33,146.76L376.81,146.64L381.62,146.08L382.1,146.06L386.91,146.37L387.39,146.4L400.87,146.82L401.35,146.78L409.53,147.17L410.01,147.82L410.97,154.8L411.46,162.32L412.9,181.95L413.38,182.9L414.82,182.52L415.31,182.16L418.19,181.06L418.67,180.97L437.44,179.63L437.92,179.67L445.62,179.57L446.1,179.5L469.2,179.01L469.68,178.42L470.65,170.66L471.13,163.81L472.57,150.96L473.05,149.81L475.46,146.47L475.94,146.34L482.68,145.86L483.16,145.67L487.01,145.42L487.49,145.41L496.15,145.59L496.63,145.66L501.45,145.91L501.93,145.91L510.11,146.52L510.59,147.58L511.55,156.74L512.03,165.51L513.48,181.88L513.96,181.8L516.85,180.96L517.33,180.72L520.7,179.97L521.18,179.95L540.43,178.86L540.91,178.86L569.78,178.74L570.26,178.59L571.23,177.95L571.71,176.73L572.67,169.55L573.15,163.96L575.08,148.23L575.56,147.08L576.52,146.75L577,147.41" style="vector-effect: none; fill: none; stroke: rgb(239, 85, 59); stroke-opacity: 1; stroke-width: 2px; opacity: 1;"/></g><g class="points"/><g class="text"/></g><g class="trace scatter tracec4b03d" style="stroke-miterlimit: 2; opacity: 1;"><g class="fills"/><g class="errorbars"/><g class="lines"><path class="js-line" d="M0,48.18L3.37,47.85L3.85,48.09L4.81,50.94L5.29,55.75L8.18,102.72L8.66,102.5L17.32,98.62L17.81,98.52L25.51,97.47L25.99,97.4L34.17,96.75L34.65,96.78L41.39,96.19L41.87,96.15L53.9,95.75L54.38,95.72L64,94.91L64.49,94.39L64.97,93.94L65.45,91.08L68.34,41.2L68.82,39.62L70.74,36.18L71.22,35.97L74.11,36.14L74.59,36.33L77,37.74L77.48,37.28L79.88,35.49L80.37,35.36L86.14,34.09L86.62,34.11L96.25,34.75L96.73,35L101.54,36.57L102.02,35.9L103.47,35.19L103.95,35.34L104.43,36.13L104.91,38.92L105.87,55.62L106.35,69.83L107.8,96.27L108.28,96.8L109.72,96.02L110.2,95.62L113.09,94.23L113.57,94.17L119.83,92.62L120.31,92.46L126.08,92.07L126.56,92.1L136.19,91.57L136.67,91.55L151.59,90.82L152.07,90.79L165.06,89.99L165.54,89.53L166.51,77.17L166.99,64.67L168.91,34.31L169.39,33.47L170.36,38.98L170.84,42.8L171.32,43.84L171.8,41.81L173.73,34.36L174.21,33.47L175.65,32.79L176.13,32.89L177.58,33.28L178.06,32.75L181.43,28.67L181.91,28.56L182.87,29.29L183.35,30.61L186.24,38.84L186.72,38.81L189.13,37.55L189.61,36.39L191.53,31.38L192.01,31.25L193.46,31.41L193.94,30.87L195.86,29L196.34,28.75L198.27,28.34L198.75,28.38L205.97,27.54L206.45,28.07L207.41,35.19L207.89,44.77L209.82,91.83L210.3,91.74L211.26,91.63L211.74,91.19L215.11,89.4L215.59,89.31L219.44,88.11L219.92,87.98L232.44,86.83L232.92,86.97L235.32,86.77L235.8,86.68L243.02,86.14L243.5,86.28L246.39,86.39L246.87,86.36L257.94,86.19L258.42,86.18L266.12,85.95L266.6,85.66L267.09,84.9L267.57,82.05L269.01,52.56L269.49,42.68L270.93,29.82L271.42,28.64L273.82,25.24L274.3,25L278.15,23.47L278.63,23.33L285.85,21.9L286.33,21.83L307.51,22.14L307.99,22.7L308.95,26.71L309.43,32.24L312.32,87.12L312.8,87.04L315.69,85.36L316.17,85.08L319.06,84.27L319.54,84.18L328.68,83.17L329.16,83.15L369.11,81.96L369.59,80.13L370.55,66.19L371.03,54.84L372.96,27.83L373.44,26.29L376.81,20.76L377.29,20.35L380.18,18.86L380.66,18.83L392.69,18.84L393.17,18.74L398.46,18.51L398.94,18.45L407.12,18.32L407.61,18.32L410.01,19.01L410.49,21.19L411.46,36.78L411.94,51.83L413.38,84.1L413.86,84.53L414.82,84.32L415.31,83.81L418.19,82.39L418.67,82.16L423.49,80.84L423.97,80.83L429.74,80.59L430.22,80.54L436.48,80.31L436.96,80.36L468.24,79.88L468.72,79.58L469.68,78.44L470.17,74.3L473.05,26.64L473.53,24.92L475.46,19.42L475.94,19.11L478.83,18.52L479.31,18.16L480.75,18.52L481.23,18.66L482.68,17.65L483.16,17.17L485.57,15.78L486.05,15.7L489.9,15.79L490.38,15.77L504.81,16.18L505.3,16.25L510.11,16.36L510.59,17.27L511.55,27.22L512.03,39.18L513.96,82.07L514.44,82.05L515.4,81.96L515.88,81.62L521.66,79.51L522.14,79.47L546.68,78.43L547.16,78.47L563.04,78.08L563.53,78.05L570.74,77.69L571.23,77L572.19,69.97L572.67,61.52L575.08,22.32L575.56,19.92L576.52,18.35L577,19.29" style="vector-effect: none; fill: none; stroke: rgb(0, 204, 150); stroke-opacity: 1; stroke-width: 2px; opacity: 1;"/></g><g class="points"/><g class="text"/></g><g class="trace scatter trace62dc0d" style="stroke-miterlimit: 2; opacity: 1;"><g class="fills"/><g class="errorbars"/><g class="lines"><path class="js-line" d="M0,167.82L3.85,167.97L4.33,168.95L5.29,175.79L5.77,181.8L7.22,194.58L7.7,194.97L13.47,192.58L13.96,192.48L21.17,191.43L21.66,191.42L64.97,189.03L65.45,187.62L66.89,170.78L67.37,165.3L68.82,159.4L69.3,158.95L71.22,158.41L71.7,158.47L78.44,159.58L78.92,159.45L84.22,159.31L84.7,159.27L91.43,159.66L91.92,159.72L102.5,160.79L102.98,160.69L104.43,161.22L104.91,163.05L105.87,173.48L106.35,181.12L107.8,191.84L108.28,191.82L114.05,189.94L114.53,189.87L124.16,188.83L124.64,188.85L131.86,188.5L132.34,188.41L140.52,188.23L141,188.28L153.99,188.08L154.48,188.08L165.54,187.64L166.03,186.24L167.47,169L167.95,163.42L169.39,157.57L169.88,159.29L171.32,165.25L171.8,163.22L173.24,158.1L173.73,157.64L175.17,157.01L175.65,157.07L178.06,157.5L178.54,157.24L182.39,156.21L182.87,156.63L186.24,161.44L186.72,161.49L189.13,160.77L189.61,160.28L192.01,157.98L192.49,158.08L193.94,158.08L194.42,157.82L197.31,157.13L197.79,157.11L206.45,157.33L206.93,158.69L207.89,168.28L208.37,176.66L209.82,189.91L210.3,189.7L218.96,187.58L219.44,187.58L237.25,186.59L237.73,186.67L241.58,186.7L242.06,186.68L252.65,186.5L253.13,186.54L264.2,186.29L264.68,186.25L267.09,185.92L267.57,184.73L268.53,176.48L269.01,170.15L270.93,156.01L271.42,155.36L274.3,153.99L274.78,154.01L304.14,154.62L304.62,154.69L307.99,155.39L308.47,156.63L309.43,164.33L309.91,171.03L311.36,187.44L311.84,188.3L318.58,186.27L319.06,186.24L329.65,185.62L330.13,185.62L346.01,185.3L346.49,185.29L361.89,185.3L362.37,185.34L369.11,185.08L369.59,184.33L370.55,177.96L371.03,172.06L372.96,155.83L373.44,154.91L376.33,152.69L376.81,152.56L383.06,152.22L383.54,152.22L398.94,152.96L399.42,153.02L410.01,153.75L410.49,155.26L411.46,165.24L411.94,173.58L413.38,187.15L413.86,187.24L418.19,185.69L418.67,185.56L423.49,185.05L423.97,185L437.92,184.59L438.4,184.61L459.1,184.46L459.58,184.47L469.68,183.84L470.17,182.07L473.05,155.81L473.53,154.97L475.94,151.96L476.42,152L478.83,152.1L479.31,152.01L482.68,151.77L483.16,151.56L486.05,151.32L486.53,151.35L510.11,152.59L510.59,153.24L511.55,160.08L512.03,167.53L513.48,185.95L513.96,186.32L523.58,184.42L524.06,184.42L549.09,184.09L549.57,184.09L560.64,183.87L561.12,183.92L570.74,183.68L571.23,183.38L572.19,180.08L572.67,176.06L575.08,154.28L575.56,152.83L576.52,151.85L577,152.23" style="vector-effect: none; fill: none; stroke: rgb(171, 99, 250); stroke-opacity: 1; stroke-width: 2px; opacity: 1;"/></g><g class="points"/><g class="text"/></g><g class="trace scatter tracec566bc" style="stroke-miterlimit: 2; opacity: 1;"><g class="fills"/><g class="errorbars"/><g class="lines"><path class="js-line" d="M0,104.44L2.41,104.49L2.89,104.58L3.85,104.87L4.33,106.26L5.29,116.1L5.77,124.96L7.22,143.76L7.7,144.29L14.44,140.8L14.92,140.66L20.69,139.54L21.17,139.5L24.54,138.95L25.02,138.68L26.95,138.1L27.43,138.21L29.36,137.92L29.84,137.78L38.02,137.33L38.5,137.3L58.71,136.29L59.19,136.33L64,135.73L64.49,135.44L64.97,134.93L65.45,132.74L68.34,96.27L68.82,95.35L70.74,93.99L71.22,93.89L74.11,94.33L74.59,94.55L77.48,95.43L77.96,95.24L81.33,94.62L81.81,94.53L86.14,94.65L86.62,94.71L96.25,95.44L96.73,95.59L101.54,96.41L102.02,96.14L103.95,95.8L104.43,96.45L105.39,103.88L105.87,112.52L107.8,139.51L108.28,139.44L113.09,136.34L113.57,136.25L134.75,133.73L135.23,133.75L142.93,133.52L143.41,133.5L159.29,133.12L159.77,133.06L165.54,132.26L166.03,130.26L168.91,92.81L169.39,92.51L171.32,102.41L171.8,99.84L173.24,93.27L173.73,92.66L175.17,91.86L175.65,91.93L178.06,92.27L178.54,91.9L182.39,90.27L182.87,90.88L186.24,96.74L186.72,96.84L189.13,96.35L189.61,95.66L192.01,92.51L192.49,92.62L193.94,92.55L194.42,92.17L196.82,91.21L197.31,91.1L206.45,91.41L206.93,93.16L207.89,105.01L208.37,115.9L209.82,135.57L210.3,135.31L213.67,133.47L214.15,133.22L217.52,132.38L218,132.26L227.62,131.33L228.11,131.36L241.58,130.9L242.06,130.89L258.42,130.53L258.9,130.49L267.09,129.6L267.57,127.8L268.53,115.92L269.01,107.44L270.45,91.84L270.93,90.29L273.34,87.41L273.82,87.2L282.97,86.36L283.45,86.42L287.78,86.37L288.26,86.32L307.03,87.37L307.51,87.52L307.99,88.14L308.47,90.05L309.43,100.99L309.91,110.27L311.36,131.88L311.84,132.94L315.21,131.33L315.69,131.11L320.98,129.89L321.46,129.79L330.61,129.04L331.09,129.03L349.38,128.58L349.86,128.61L356.59,128.76L357.08,128.74L369.11,128.22L369.59,127.05L370.55,117.69L371.03,109.65L372.96,89.3L373.44,88.1L376.33,84.96L376.81,84.69L379.69,84.21L380.18,84.19L397.98,84.87L398.46,84.96L410.01,85.8L410.49,87.62L411.46,100.13L411.94,111.26L413.38,130.88L413.86,131.06L415.31,130.35L415.79,129.97L418.67,129.03L419.16,128.97L431.19,127.78L431.67,127.79L449.95,127.27L450.44,127.32L455.25,127.21L455.73,127.18L469.68,126.43L470.17,123.98L473.05,89.04L473.53,87.94L475.94,84.1L476.42,84L482.2,83.84L482.68,83.5L484.6,82.94L485.08,82.97L503.37,83.75L503.85,83.87L508.18,84.06L508.66,84.07L510.11,84.32L510.59,85.07L511.55,93.18L512.03,102.45L513.48,129.03L513.96,129.81L517.81,128.45L518.29,128.3L523.58,127.22L524.06,127.16L534.65,126.74L535.13,126.81L549.09,126.38L549.57,126.35L565.45,126.38L565.93,126.43L570.74,126.28L571.23,125.82L572.19,121.04L572.67,115.3L575.08,86.78L575.56,85.03L576.52,83.87L577,84.31" style="vector-effect: none; fill: none; stroke: rgb(255, 161, 90); stroke-opacity: 1; stroke-width: 2px; opacity: 1;"/></g><g class="points"/><g class="text"/></g><g class="trace scatter trace4728a5" style="stroke-miterlimit: 2; opacity: 1;"><g class="fills"/><g class="errorbars"/><g class="lines"><path class="js-line" d="M0,120.74L2.41,120.84L2.89,121.05L3.85,121.37L4.33,122.83L5.29,134.7L5.77,146.35L7.22,170.5L7.7,170.51L10.11,168.83L10.59,168.53L14.44,167.13L14.92,166.98L21.66,165.57L22.14,165.56L43.31,163.43L43.79,163.38L60.64,162.7L61.12,162.7L64.49,161.8L64.97,160.26L65.93,148.13L66.41,138.15L68.34,114.72L68.82,113.5L70.74,111.59L71.22,111.43L74.11,111.64L74.59,111.92L76.52,113.02L77,112.88L80.85,111.4L81.33,111.35L94.8,111.22L95.28,111.31L101.54,112.88L102.02,112.43L103.47,111.78L103.95,111.92L104.43,112.53L104.91,114.89L105.87,129.92L106.35,143.29L107.8,166.08L108.28,165.85L109.72,164.96L110.2,164.6L113.09,162.97L113.57,162.89L128.01,160.56L128.49,160.61L132.34,160.15L132.82,160.1L139.56,159.87L140.04,159.87L164.58,158.9L165.06,158.57L165.54,158.27L166.03,156.06L168.91,110.57L169.39,109.6L170.36,112.77L170.84,115.35L171.32,116.61L171.8,115.83L172.28,114.25L174.21,110.05L174.69,109.65L176.13,109.85L176.61,110.43L177.58,110.56L178.06,109.9L180.46,107.49L180.94,107.09L182.39,107.05L182.87,107.86L185.76,114.2L186.24,114.33L187.68,114.22L188.16,114.66L189.13,114.34L189.61,113.25L191.53,109.01L192.01,108.97L193.46,109.39L193.94,108.96L195.86,107.36L196.34,107.28L200.19,106.7L200.67,106.67L205.97,106.6L206.45,106.93L206.93,108.51L207.41,112.75L208.86,146.96L209.34,157.66L209.82,161.7L210.3,161.61L210.78,161.52L212.71,160.3L213.19,159.99L217.04,158.66L217.52,158.56L228.11,157.25L228.59,157.26L266.12,155.92L266.6,155.67L267.09,155.3L267.57,152.9L269.01,126.5L269.49,118.18L270.93,107.63L271.42,106.7L273.82,104.45L274.3,104.35L276.23,103.78L276.71,103.49L281.52,102.56L282,102.55L304.14,102.72L304.62,102.74L307.51,103.14L307.99,103.74L308.95,111.09L309.43,120.25L311.36,158.63L311.84,159.03L313.28,158.35L313.76,158.06L319.06,156.05L319.54,155.98L335.9,154.52L336.38,154.5L346.97,154.08L347.45,154.08L369.11,153.23L369.59,151.84L370.55,139.54L371.03,129.43L372.96,106.77L373.44,105.53L376.33,101.87L376.81,101.58L380.18,100.23L380.66,100.17L410.01,100.67L410.49,102.31L411.46,115.41L411.94,128.56L413.38,156.89L413.86,156.89L414.82,156.77L415.31,156.33L418.67,154.75L419.16,154.57L423.97,153.51L424.45,153.44L443.7,152.5L444.18,152.51L456.21,152.03L456.69,151.98L469.2,151.58L469.68,150.54L470.65,139.46L471.13,129.4L472.57,108.14L473.05,105.93L475.46,100.81L475.94,100.63L478.35,100.41L478.83,100.11L480.27,99.97L480.75,100.15L482.2,99.95L482.68,99.61L485.08,98.35L485.57,98.35L493.75,98.51L494.23,98.44L499.52,98.07L500,98.06L510.11,99.05L510.59,99.82L511.55,108.18L512.03,118.21L513.96,155.37L514.44,155.22L515.88,154.84L516.36,154.58L521.66,152.84L522.14,152.75L531.28,151.9L531.76,151.93L537.54,151.57L538.02,151.56L570.74,150.94L571.23,150.35L572.19,143.32L572.67,135.28L575.08,103.06L575.56,101.24L577,99.9" style="vector-effect: none; fill: none; stroke: rgb(25, 211, 243); stroke-opacity: 1; stroke-width: 2px; opacity: 1;"/></g><g class="points"/><g class="text"/></g><g class="trace scatter trace95139c" style="stroke-miterlimit: 2; opacity: 1;"><g class="fills"/><g class="errorbars"/><g class="lines"><path class="js-line" d="M0,128.89L2.89,128.76L3.37,128.91L3.85,129.02L4.33,130.16L5.29,140.96L5.77,152.39L7.22,178.86L7.7,178.76L15.4,174.76L15.88,174.65L25.99,173.27L26.47,173.26L39.46,172.24L39.94,172.17L48.6,171.75L49.09,171.82L52.94,171.56L53.42,171.51L64,171L64.49,170.53L65.45,164.02L65.93,155.65L67.85,125.41L68.34,123.12L70.26,120.27L70.74,120.02L73.15,120.05L73.63,120.18L77.48,121.33L77.96,120.99L80.37,120.12L80.85,120.07L91.43,119.45L91.92,119.48L96.73,120.52L97.21,120.66L101.54,121.63L102.02,121.14L103.47,120.34L103.95,120.5L104.43,120.96L104.91,122.9L105.87,136.44L106.35,149.37L107.8,174.73L108.28,174.44L110.2,173.3L110.68,173.04L114.53,171.66L115.02,171.6L127.05,169.71L127.53,169.66L165.06,167.83L165.54,167.5L166.03,165.89L166.51,159.82L168.91,119.16L169.39,117.92L169.88,118.38L170.36,120.07L171.8,123.69L172.28,122.62L174.21,119.14L174.69,118.87L176.13,118.84L176.61,119.37L177.58,119.54L178.06,118.79L179.98,116.53L180.46,116.12L181.91,115.47L182.39,115.9L186.24,123.75L186.72,123.57L188.16,123.35L188.64,123.39L189.61,121.74L190.09,120.39L191.53,117.98L192.01,117.99L193.46,118.47L193.94,118L195.86,115.87L196.34,115.72L202.12,115.02L202.6,114.99L206.45,115.49L206.93,116.74L207.89,127.57L208.37,139.19L209.82,170.37L210.3,170.69L213.19,169.25L213.67,168.98L217.52,167.83L218,167.72L225.22,166.79L225.7,166.78L240.14,165.92L240.62,165.92L266.12,165.31L266.6,165.03L267.09,164.74L267.57,162.69L269.01,135.84L269.49,127.1L270.93,116.27L271.42,115.24L273.82,112.56L274.3,112.41L276.71,111.88L277.19,111.67L287.78,110.57L288.26,110.53L307.51,111.18L307.99,111.68L308.95,118.3L309.43,127L311.36,168.3L311.84,168.52L313.28,167.97L313.76,167.6L317.13,165.97L317.61,165.9L335.42,163.63L335.9,163.62L369.11,162.4L369.59,161.26L370.55,149.38L371.03,139.07L372.96,115.3L373.44,113.97L376.33,109.84L376.81,109.51L380.66,108.31L381.14,108.32L397.98,108.32L398.46,108.27L403.27,108.28L403.76,108.29L410.01,108.48L410.49,109.76L411.46,121.4L411.94,134.06L413.38,166.47L413.86,166.6L415.31,165.94L415.79,165.6L423.01,163.03L423.49,162.96L434.07,161.97L434.55,161.97L469.2,160.71L469.68,159.29L470.65,147.52L471.13,137.61L473.05,113.94L473.53,112.69L475.94,109.03L476.42,109.15L477.87,109.27L478.35,108.92L479.79,108.17L480.27,108.35L481.72,108.62L482.2,108.25L484.6,106.63L485.08,106.59L502.89,106.42L503.37,106.54L506.74,107.11L507.22,107.04L510.11,107.05L510.59,107.68L511.55,115.33L512.03,124.74L513.96,165.2L514.44,165.05L515.88,164.37L516.36,164.03L520.21,162.51L520.7,162.42L534.65,161.3L535.13,161.31L556.31,160.79L556.79,160.83L570.74,160.45L571.23,159.96L572.19,152.56L572.67,144.17L575.08,111.13L575.56,109.27L577,107.63" style="vector-effect: none; fill: none; stroke: rgb(255, 102, 146); stroke-opacity: 1; stroke-width: 2px; opacity: 1;"/></g><g class="points"/><g class="text"/></g><g class="trace scatter trace0d4cd4" style="stroke-miterlimit: 2; opacity: 1;"><g class="fills"/><g class="errorbars"/><g class="lines"><path class="js-line" d="M0,171.38L3.85,171.62L4.33,172.43L5.29,179.67L5.77,186.59L7.22,199.5L7.7,199.36L12.99,196.92L13.47,196.83L23.58,195.73L24.06,195.67L32.72,195.02L33.21,195.05L44.75,194.56L45.24,194.53L64.49,193.83L64.97,192.93L65.93,185.91L66.41,179.77L68.34,164.08L68.82,163.28L70.74,162.5L71.22,162.49L75.07,163.44L75.55,163.82L77.48,164.34L77.96,164.13L80.85,163.56L81.33,163.55L92.4,163.97L92.88,164.1L101.54,165.67L102.02,165.51L103.95,165.57L104.43,165.83L105.39,170.37L105.87,176.22L107.8,196.86L108.28,196.7L116.46,194.34L116.94,194.26L128.01,193.58L128.49,193.62L136.19,193.21L136.67,193.21L159.77,192.95L160.25,192.94L165.54,192.56L166.03,191.84L166.99,183.18L167.47,175.75L168.91,162.31L169.39,161.53L170.36,164.89L170.84,167.65L171.32,169.13L171.8,168.1L173.73,162.37L174.21,162.14L176.13,162.31L176.61,162.68L177.58,162.82L178.06,162.39L180.46,160.98L180.94,160.77L182.39,160.83L182.87,161.39L186.24,166.33L186.72,166.37L189.61,165.45L190.09,164.63L192.01,162.75L192.49,162.84L193.94,162.79L194.42,162.48L196.82,161.67L197.31,161.66L206.45,161.81L206.93,162.68L207.89,170.4L208.37,178.1L209.82,194.73L210.3,194.83L220.41,192.65L220.89,192.64L230.03,192.15L230.51,192.23L233.4,192.01L233.88,192.03L243.02,192.06L243.5,192.05L252.65,192.02L253.13,192.05L267.09,191.49L267.57,190.61L268.53,182.47L269.01,175.58L270.45,161.97L270.93,160.52L272.86,158.72L273.34,158.51L275.27,158.48L275.75,158.54L290.18,158.57L290.67,158.7L294.03,158.88L294.52,158.95L299.33,159.36L299.81,159.29L305.58,159.54L306.07,159.56L307.99,160.19L308.47,161.48L309.43,170.43L309.91,178.39L311.36,193.34L311.84,193.61L313.76,193L314.25,192.82L319.54,192.03L320.02,191.94L325.8,191.46L326.28,191.48L369.11,190.81L369.59,190.25L370.55,184.08L371.03,177.9L372.96,160.6L373.44,159.51L375.84,157.53L376.33,157.37L381.62,156.77L382.1,156.75L393.65,157.7L394.13,157.79L398.94,157.75L399.42,157.66L405.68,158L406.16,158L410.01,158.53L410.49,159.41L411.46,167.52L411.94,175.7L413.38,192.75L413.86,192.88L417.71,191.65L418.19,191.53L428.3,190.6L428.78,190.59L444.66,190.51L445.14,190.5L469.2,189.97L469.68,189.17L470.65,182.54L471.13,176.54L473.05,160.22L473.53,159.33L475.94,156.76L476.42,156.83L478.35,157.04L478.83,156.85L480.27,156.89L480.75,157.13L482.2,157.15L482.68,156.89L485.08,156.41L485.57,156.41L490.86,156.4L491.34,156.48L510.11,157.69L510.59,158.11L511.55,163.46L512.03,169.88L513.96,192.21L514.44,192.12L519.73,190.95L520.21,190.88L529.36,190.5L529.84,190.47L540.91,190.25L541.39,190.3L571.23,189.76L571.71,188.77L572.67,181.56L573.15,175.67L575.08,159.03L575.56,157.62L577,156.43" style="vector-effect: none; fill: none; stroke: rgb(182, 232, 128); stroke-opacity: 1; stroke-width: 2px; opacity: 1;"/></g><g class="points"/><g class="text"/></g><g class="trace scatter trace3bc934" style="stroke-miterlimit: 2; opacity: 1;"><g class="fills"/><g class="errorbars"/><g class="lines"><path class="js-line" d="M0,153.02L3.85,153.22L4.33,153.87L5.29,161.57L5.77,169.8L7.22,186.99L7.7,186.54L10.59,184.28L11.07,184.06L17.81,182.15L18.29,182.05L27.43,180.79L27.91,180.77L36.09,180.2L36.57,180.2L42.83,179.47L43.31,179.41L64.49,177.97L64.97,176.79L65.93,167.51L66.41,160.53L67.85,148.38L68.34,147.2L70.26,145.68L70.74,145.56L74.11,145.89L74.59,145.97L78.44,146.49L78.92,146.32L81.81,145.86L82.29,145.92L89.51,146.07L89.99,146.11L102.5,147.04L102.98,146.92L104.43,147.22L104.91,148.36L105.87,157.51L106.35,166.28L107.8,181.9L108.28,181.53L114.05,178.95L114.53,178.88L131.38,177L131.86,177L145.33,176.26L145.81,176.2L165.06,175.41L165.54,174.56L166.51,167.8L166.99,161.64L168.91,145.21L169.39,144.84L172.28,145.82L172.76,145.26L174.21,144.4L174.69,144.4L179.02,143.97L179.5,143.77L182.39,143.37L182.87,143.85L185.76,147.15L186.24,147.64L187.68,147.62L188.16,147.5L189.61,146.62L190.09,145.92L191.53,144.62L192.01,144.6L193.94,144.72L194.42,144.47L197.79,143.66L198.27,143.66L206.45,144.6L206.93,146.12L207.89,155.25L208.37,162.97L209.82,178.29L210.3,178.39L216.56,176.09L217.04,176.04L225.7,174.97L226.18,174.91L242.54,174.3L243.02,174.24L249.76,173.97L250.24,173.96L267.09,173.41L267.57,172.66L268.53,164.21L269.01,157.22L270.45,144.77L270.93,143.68L273.34,141.67L273.82,141.52L284.41,141.15L284.89,141.13L307.51,142.23L307.99,142.45L308.47,143.57L308.95,146.63L311.36,176.72L311.84,176.56L319.54,174.25L320.02,174.25L335.42,173.01L335.9,172.99L348.89,172.63L349.38,172.7L355.63,172.63L356.11,172.63L369.59,171.78L370.07,169.68L372.96,143.48L373.44,142.74L376.33,140.68L376.81,140.53L381.62,139.98L382.1,140.02L392.69,140.63L393.17,140.61L407.61,141.04L408.09,141.08L410.01,141.37L410.49,142.08L411.46,149.55L411.94,157.49L413.38,175.05L413.86,175.13L420.6,172.94L421.08,172.89L438.4,171.79L438.89,171.81L468.72,171.21L469.2,170.92L470.17,166.28L470.65,161.03L472.57,144.4L473.05,143.16L475.46,140.38L475.94,140.26L481.23,140.22L481.72,140.14L486.53,139.56L487.01,139.62L510.59,141.19L511.07,142.57L512.03,151.73L512.51,159.63L513.96,173.6L514.44,173.51L521.18,171.98L521.66,171.91L534.17,171.26L534.65,171.23L551.49,170.74L551.98,170.78L558.23,170.68L558.71,170.67L571.23,170.29L571.71,169.68L572.67,164.33L573.15,158.97L575.08,142.34L575.56,141.21L577,139.83" style="vector-effect: none; fill: none; stroke: rgb(255, 151, 255); stroke-opacity: 1; stroke-width: 2px; opacity: 1;"/></g><g class="points"/><g class="text"/></g><g class="trace scatter trace3fc050" style="stroke-miterlimit: 2; opacity: 1;"><g class="fills"/><g class="errorbars"/><g class="lines"><path class="js-line" d="M0,150.09L2.89,150.09L3.37,150.16L4.33,150.66L4.81,152.81L5.77,165.68L6.26,175.32L7.7,186.41L8.18,185.99L14.92,182.49L15.4,182.4L35.13,179.7L35.61,179.73L39.46,179.22L39.94,179.14L56.3,178.18L56.79,178.15L64.49,177.62L64.97,176.66L65.93,166.68L66.41,158.93L67.85,145.91L68.34,144.89L70.26,143.56L70.74,143.42L74.11,143.43L74.59,143.51L77.48,143.99L77.96,143.78L80.37,143.33L80.85,143.36L96.25,143.81L96.73,143.95L100.58,144.53L101.06,144.51L103.95,144.2L104.43,144.4L104.91,145.31L105.39,148.08L107.8,181.37L108.28,181.17L114.53,178.47L115.02,178.41L135.71,176.21L136.19,176.19L165.06,174.54L165.54,173.4L166.51,164.38L166.99,157.29L168.43,143.93L168.91,142.63L169.88,142.3L170.36,142.49L172.28,143.25L172.76,142.82L174.21,141.8L174.69,141.87L178.06,141.77L178.54,141.48L182.39,140.39L182.87,140.88L186.24,145.53L186.72,145.67L189.13,144.24L189.61,143.63L191.53,141.73L192.01,141.75L193.94,141.99L194.42,141.78L199.23,140.78L199.71,140.76L205.97,141.13L206.45,142.29L207.41,151.91L207.89,161.28L209.34,178.93L209.82,178.65L214.63,176.1L215.11,175.98L220.89,174.81L221.37,174.76L229.55,174.01L230.03,173.99L267.09,172.45L267.57,171.5L268.53,162.35L269.01,155.04L270.45,142.13L270.93,141.14L274.3,138.37L274.78,138.44L278.15,138.19L278.63,137.96L281.04,137.66L281.52,137.63L294.52,137.73L295,137.8L302.22,138.41L302.7,138.3L304.62,139.01L305.1,139.15L307.99,139.58L308.47,140.43L309.43,148.64L309.91,157.23L311.36,176.08L311.84,176.03L318.58,173.63L319.06,173.56L327.72,172.66L328.2,172.65L368.63,171.3L369.11,171.03L369.59,170.3L370.07,167.78L372.96,140.74L373.44,140.04L376.33,137.01L376.81,136.89L382.1,136.54L382.58,136.55L409.05,137.26L409.53,137.48L410.49,141.12L410.97,146.2L413.38,174.69L413.86,174.71L419.64,172.24L420.12,172.15L433.59,171.18L434.07,171.13L442.25,170.86L442.74,170.88L447.55,170.66L448.03,170.65L469.2,169.93L469.68,168.56L471.13,152.62L471.61,147.29L473.05,140.66L473.53,139.7L475.46,136.76L475.94,136.71L478.35,136.74L478.83,136.59L491.82,135.98L492.3,135.97L503.37,136.43L503.85,136.48L510.11,137.18L510.59,139.17L511.55,151.66L512.03,161.5L513.48,173.71L513.96,173.35L522.14,170.9L522.62,170.85L534.65,170.06L535.13,170.05L570.26,169.38L570.74,169.23L571.71,168.32L572.19,165.94L575.56,137.44L576.04,136.8L577,136.28" style="vector-effect: none; fill: none; stroke: rgb(254, 203, 82); stroke-opacity: 1; stroke-width: 2px; opacity: 1;"/></g><g class="points"/><g class="text"/></g></g></g></g><path class="xlines-above crisp" d="M0,0" style="fill: none;"/><path class="ylines-above crisp" d="M0,0" style="fill: none;"/><g class="overlines-above"/><g class="xaxislayer-above"><g class="xtick"><text text-anchor="middle" x="0" y="273" transform="translate(159.63,0)" style="font-family: 'Times New Roman'; font-size: 12px; fill: rgb(0, 0, 0); fill-opacity: 1; white-space: pre; opacity: 1;">5e+6</text></g><g class="xtick"><text text-anchor="middle" x="0" y="273" style="font-family: 'Times New Roman'; font-size: 12px; fill: rgb(0, 0, 0); fill-opacity: 1; white-space: pre; opacity: 1;" transform="translate(328.41,0)">1e+7</text></g><g class="xtick"><text text-anchor="middle" x="0" y="273" style="font-family: 'Times New Roman'; font-size: 12px; fill: rgb(0, 0, 0); fill-opacity: 1; white-space: pre; opacity: 1;" transform="translate(497.19,0)">2e+7</text></g></g><g class="yaxislayer-above"><g class="ytick"><text text-anchor="end" x="37" y="4.199999999999999" transform="translate(0,258.59000000000003)" style="font-family: 'Times New Roman'; font-size: 12px; fill: rgb(0, 0, 0); fill-opacity: 1; white-space: pre; opacity: 1;">13</text></g><g class="ytick"><text text-anchor="end" x="37" y="4.199999999999999" style="font-family: 'Times New Roman'; font-size: 12px; fill: rgb(0, 0, 0); fill-opacity: 1; white-space: pre; opacity: 1;" transform="translate(0,222.21)">14</text></g><g class="ytick"><text text-anchor="end" x="37" y="4.199999999999999" style="font-family: 'Times New Roman'; font-size: 12px; fill: rgb(0, 0, 0); fill-opacity: 1; white-space: pre; opacity: 1;" transform="translate(0,185.82)">15</text></g><g class="ytick"><text text-anchor="end" x="37" y="4.199999999999999" style="font-family: 'Times New Roman'; font-size: 12px; fill: rgb(0, 0, 0); fill-opacity: 1; white-space: pre; opacity: 1;" transform="translate(0,149.44)">16</text></g><g class="ytick"><text text-anchor="end" x="37" y="4.199999999999999" style="font-family: 'Times New Roman'; font-size: 12px; fill: rgb(0, 0, 0); fill-opacity: 1; white-space: pre; opacity: 1;" transform="translate(0,113.05)">17</text></g><g class="ytick"><text text-anchor="end" x="37" y="4.199999999999999" style="font-family: 'Times New Roman'; font-size: 12px; fill: rgb(0, 0, 0); fill-opacity: 1; white-space: pre; opacity: 1;" transform="translate(0,76.67)">18</text></g></g><g class="overaxes-above"/></g></g><g class="polarlayer"/><g class="smithlayer"/><g class="ternarylayer"/><g class="geolayer"/><g class="funnelarealayer"/><g class="pielayer"/><g class="iciclelayer"/><g class="treemaplayer"/><g class="sunburstlayer"/><g class="glimages"/><defs id="topdefs-aa544c"><g class="clips"/></defs><g class="layer-above"><g class="imagelayer"/><g class="shapelayer"><g class="shape-group" data-index="0" clip-path="url(#clipaa544cx)"><path data-index="0" fill-rule="evenodd" d="M56.28,260H96.78V50H56.28Z" style="opacity: 0.4; stroke: rgb(0, 0, 0); stroke-opacity: 0; fill: rgb(44, 115, 210); fill-opacity: 1; stroke-width: 0px;"/></g><g class="shape-group" data-index="1" clip-path="url(#clipaa544cx)"><path data-index="1" fill-rule="evenodd" d="M157.53,260H198.04V50H157.53Z" style="opacity: 0.4; stroke: rgb(0, 0, 0); stroke-opacity: 0; fill: rgb(44, 115, 210); fill-opacity: 1; stroke-width: 0px;"/></g><g class="shape-group" data-index="2" clip-path="url(#clipaa544cx)"><path data-index="2" fill-rule="evenodd" d="M258.58000000000004,260H299.07V50H258.58000000000004Z" style="opacity: 0.4; stroke: rgb(0, 0, 0); stroke-opacity: 0; fill: rgb(44, 115, 210); fill-opacity: 1; stroke-width: 0px;"/></g><g class="shape-group" data-index="3" clip-path="url(#clipaa544cx)"><path data-index="3" fill-rule="evenodd" d="M359.84,260H400.33V50H359.84Z" style="opacity: 0.4; stroke: rgb(0, 0, 0); stroke-opacity: 0; fill: rgb(44, 115, 210); fill-opacity: 1; stroke-width: 0px;"/></g><g class="shape-group" data-index="4" clip-path="url(#clipaa544cx)"><path data-index="4" fill-rule="evenodd" d="M461.09,260H501.59V50H461.09Z" style="opacity: 0.4; stroke: rgb(0, 0, 0); stroke-opacity: 0; fill: rgb(44, 115, 210); fill-opacity: 1; stroke-width: 0px;"/></g><g class="shape-group" data-index="5" clip-path="url(#clipaa544cx)"><path data-index="5" fill-rule="evenodd" d="M562.35,260H602.85V50H562.35Z" style="opacity: 0.4; stroke: rgb(0, 0, 0); stroke-opacity: 0; fill: rgb(44, 115, 210); fill-opacity: 1; stroke-width: 0px;"/></g></g></g><g class="infolayer"><g class="g-gtitle"><text class="gtitle" x="312.5" y="25" text-anchor="middle" dy="0em" style="opacity: 1; font-family: 'Times New Roman'; font-size: 17px; fill: rgb(0, 0, 0); fill-opacity: 1; white-space: pre;">Matrix 1, Sensor 7</text></g><g class="g-xtitle" transform="translate(0,-2.8000000000000114)"><text class="xtitle" x="326.5" y="299.8" text-anchor="middle" style="opacity: 1; font-family: 'Times New Roman'; font-size: 14px; fill: rgb(0, 0, 0); fill-opacity: 1; white-space: pre;">Time since power on (ms)</text></g><g class="g-ytitle" transform="translate(6.900390625,0)"><text class="ytitle" transform="rotate(-90,5.600000000000001,155)" x="5.600000000000001" y="155" text-anchor="middle" style="opacity: 1; font-family: 'Times New Roman'; font-size: 14px; fill: rgb(0, 0, 0); fill-opacity: 1; white-space: pre;">Resistance (Ohms)</text></g><g class="annotation" data-index="0" style="opacity: 1;"><g class="annotation-text-g" transform="rotate(0,66.28,58.5)"><g class="cursor-pointer" transform="translate(56,50)"><rect class="bg" x="0.5" y="0.5" width="19" height="16" style="stroke-width: 1px; stroke: rgb(0, 0, 0); stroke-opacity: 0; fill: rgb(0, 0, 0); fill-opacity: 0;"/><text class="annotation-text" text-anchor="middle" x="10" y="12.5" style="font-family: 'Times New Roman'; font-size: 12px; fill: rgb(0, 0, 0); fill-opacity: 1; white-space: pre;">Air</text></g></g></g><g class="annotation" data-index="1" style="opacity: 1;"><g class="annotation-text-g" transform="rotate(0,167.53,58.5)"><g class="cursor-pointer" transform="translate(158,50)"><rect class="bg" x="0.5" y="0.5" width="19" height="16" style="stroke-width: 1px; stroke: rgb(0, 0, 0); stroke-opacity: 0; fill: rgb(0, 0, 0); fill-opacity: 0;"/><text class="annotation-text" text-anchor="middle" x="10" y="12.5" style="font-family: 'Times New Roman'; font-size: 12px; fill: rgb(0, 0, 0); fill-opacity: 1; white-space: pre;">Air</text></g></g></g><g class="annotation" data-index="2" style="opacity: 1;"><g class="annotation-text-g" transform="rotate(0,268.58000000000004,58.5)"><g class="cursor-pointer" transform="translate(259,50)"><rect class="bg" x="0.5" y="0.5" width="19" height="16" style="stroke-width: 1px; stroke: rgb(0, 0, 0); stroke-opacity: 0; fill: rgb(0, 0, 0); fill-opacity: 0;"/><text class="annotation-text" text-anchor="middle" x="10" y="12.5" style="font-family: 'Times New Roman'; font-size: 12px; fill: rgb(0, 0, 0); fill-opacity: 1; white-space: pre;">Air</text></g></g></g><g class="annotation" data-index="3" style="opacity: 1;"><g class="annotation-text-g" transform="rotate(0,369.84,58.5)"><g class="cursor-pointer" transform="translate(360,50)"><rect class="bg" x="0.5" y="0.5" width="19" height="16" style="stroke-width: 1px; stroke: rgb(0, 0, 0); stroke-opacity: 0; fill: rgb(0, 0, 0); fill-opacity: 0;"/><text class="annotation-text" text-anchor="middle" x="10" y="12.5" style="font-family: 'Times New Roman'; font-size: 12px; fill: rgb(0, 0, 0); fill-opacity: 1; white-space: pre;">Air</text></g></g></g><g class="annotation" data-index="4" style="opacity: 1;"><g class="annotation-text-g" transform="rotate(0,471.09,58.5)"><g class="cursor-pointer" transform="translate(461,50)"><rect class="bg" x="0.5" y="0.5" width="19" height="16" style="stroke-width: 1px; stroke: rgb(0, 0, 0); stroke-opacity: 0; fill: rgb(0, 0, 0); fill-opacity: 0;"/><text class="annotation-text" text-anchor="middle" x="10" y="12.5" style="font-family: 'Times New Roman'; font-size: 12px; fill: rgb(0, 0, 0); fill-opacity: 1; white-space: pre;">Air</text></g></g></g><g class="annotation" data-index="5" style="opacity: 1;"><g class="annotation-text-g" transform="rotate(0,572.35,58.5)"><g class="cursor-pointer" transform="translate(562,50)"><rect class="bg" x="0.5" y="0.5" width="19" height="16" style="stroke-width: 1px; stroke: rgb(0, 0, 0); stroke-opacity: 0; fill: rgb(0, 0, 0); fill-opacity: 0;"/><text class="annotation-text" text-anchor="middle" x="10" y="12.5" style="font-family: 'Times New Roman'; font-size: 12px; fill: rgb(0, 0, 0); fill-opacity: 1; white-space: pre;">Air</text></g></g></g></g></svg>