<svg class="main-svg" xmlns="http://www.w3.org/2000/svg" xmlns:xlink="http://www.w3.org/1999/xlink" width="625" height="300" style="" viewBox="0 0 625 300"><rect x="0" y="0" width="625" height="300" style="fill: rgb(255, 255, 255); fill-opacity: 1;"/><defs id="defs-8d80e3"><g class="clips"><clipPath id="clip8d80e3xyplot" class="plotclip"><rect width="576" height="210"/></clipPath><clipPath class="axesclip" id="clip8d80e3x"><rect x="39" y="0" width="576" height="300"/></clipPath><clipPath class="axesclip" id="clip8d80e3y"><rect x="0" y="50" width="625" height="210"/></clipPath><clipPath class="axesclip" id="clip8d80e3xy"><rect x="39" y="50" width="576" height="210"/></clipPath></g><g class="gradients"/><g class="patterns"/></defs><g class="bglayer"><rect class="bg" x="39" y="50" width="576" height="210" style="fill: rgb(229, 236, 246); fill-opacity: 1; stroke-width: 0;"/></g><g class="layer-below"><g class="imagelayer"/><g class="shapelayer"/></g><g class="cartesianlayer"><g class="subplot xy"><g class="layer-subplot"><g class="shapelayer"/><g class="imagelayer"/></g><g class="minor-gridlayer"><g class="x"/><g class="y"/></g><g class="gridlayer"><g class="x"><path class="xgrid crisp" transform="translate(160.42000000000002,0)" d="M0,50v210" style="stroke: rgb(255, 255, 255); stroke-opacity: 1; stroke-width: 1px;"/><path class="xgrid crisp" transform="translate(328.91,0)" d="M0,50v210" style="stroke: rgb(255, 255, 255); stroke-opacity: 1; stroke-width: 1px;"/><path class="xgrid crisp" transform="translate(497.4,0)" d="M0,50v210" style="stroke: rgb(255, 255, 255); stroke-opacity: 1; stroke-width: 1px;"/></g><g class="y"><path class="ygrid crisp" transform="translate(0,244.03)" d="M39,0h576" style="stroke: rgb(255, 255, 255); stroke-opacity: 1; stroke-width: 1px;"/><path class="ygrid crisp" transform="translate(0,201.8)" d="M39,0h576" style="stroke: rgb(255, 255, 255); stroke-opacity: 1; stroke-width: 1px;"/><path class="ygrid crisp" transform="translate(0,159.57999999999998)" d="M39,0h576" style="stroke: rgb(255, 255, 255); stroke-opacity: 1; stroke-width: 1px;"/><path class="ygrid crisp" transform="translate(0,117.35)" d="M39,0h576" style="stroke: rgb(255, 255, 255); stroke-opacity: 1; stroke-width: 1px;"/></g></g><g class="zerolinelayer"><path class="yzl zl crisp" transform="translate(0,75.12)" d="M39,0h576" style="stroke: rgb(255, 255, 255); stroke-opacity: 1; stroke-width: 2px;"/></g><g class="layer-between"><g class="shapelayer"/><g class="imagelayer"/></g><path class="xlines-below"/><path class="ylines-below"/><g class="overlines-below"/><g class="xaxislayer-below"/><g class="yaxislayer-below"/><g class="overaxes-below"/><g class="overplot"><g class="xy" transform="translate(39,50)" clip-path="url(#clip8d80e3xyplot)"><g class="scatterlayer mlayer"><g class="trace scatter traceca0a9a" style="stroke-miterlimit: 2; opacity: 1;"><g class="fills"/><g class="errorbars"/><g class="lines"><path class="js-line" d="M0,25.12L4.8,25.66L5.28,27.39L6.25,39.76L6.73,53.42L9.61,194.73L10.09,185.18L10.57,189.13L11.05,197.46L11.53,196.92L12.01,195.97L13.45,197L13.93,197.05L27.38,198L27.86,198.03L49.48,199.09L49.96,199.08L62.45,199.3L62.93,198.1L63.89,196.93L64.37,185.27L65.81,137.3L66.3,112.61L68.22,61.92L68.7,56.98L70.62,47.28L71.1,45.82L75.42,35.51L75.9,34.46L78.31,31.46L78.79,30.93L81.19,27.17L81.67,26.3L83.11,25.22L83.59,25.15L101.84,25.13L102.33,25.13L104.73,25.44L105.21,26.58L106.17,36.38L106.65,48.08L110.01,175.41L110.49,174.44L111.45,180.26L111.93,179.52L114.82,180.39L115.3,180.45L134.99,182.6L135.47,182.6L161.89,183.39L162.38,182.76L162.86,182.73L163.34,179.59L164.78,144.64L165.26,120.3L167.18,57.03L167.66,50.14L169.58,38.14L170.06,39.19L170.54,41.25L171.02,39.07L172.94,28.53L173.42,27.76L175.83,25.29L176.31,25.18L185.91,25.12L186.4,25.12L206.09,25.42L206.57,26.51L207.53,36.02L208.01,47.41L211.38,168.62L211.86,167.82L212.82,172.26L213.3,172L216.18,173.1L216.66,173.26L220.98,173.78L221.46,173.86L229.15,174.58L229.63,174.61L255.09,175.61L255.57,175.45L257.49,175.63L257.97,175.74L262.3,175.29L262.78,175.12L264.22,174.8L264.7,174.06L265.18,174.71L265.66,168.67L267.58,101.89L268.06,80.67L269.98,40.39L270.47,36.95L272.87,28.04L273.35,27.17L275.27,25.28L275.75,25.17L288.24,25.12L288.72,25.12L307.94,25.44L308.42,26.59L309.38,36.42L309.86,48.13L313.22,163.69L313.7,163.15L314.66,166.44L315.14,166.18L318.03,166.81L318.51,166.79L321.39,167.5L321.87,167.59L331.48,168.63L331.96,168.62L341.56,169.77L342.05,169.83L349.73,170.22L350.21,170.19L355.98,170.57L356.46,170.61L365.58,171.05L366.07,170.33L366.55,169.58L367.03,170.14L367.51,164.14L369.43,97.68L369.91,76.73L371.83,36.47L372.31,32.64L374.23,25.65L374.71,25.31L378.56,25.12L379.04,25.12L408.82,25.38L409.3,26.3L410.26,35.11L410.74,45.97L414.11,161.09L414.59,159.93L415.55,163.16L416.03,162.92L422.27,164.41L422.75,164.5L433.32,165.53L433.8,165.6L465.99,167.43L466.47,166.32L466.95,166.5L467.43,164L469.35,101.67L469.83,78.79L471.75,34.48L472.23,30.58L473.67,25.67L474.16,25.31L477.52,25.12L478,25.12L509.7,25.35L510.19,26.16L511.15,34.46L511.63,44.87L514.99,155.24L515.47,154.03L516.43,156.49L516.91,156.31L530.36,158.89L530.84,158.92L554.86,160.9L555.34,160.93L567.35,161.09L567.83,160.85L568.31,159.88L568.79,156.45L569.75,138.82L570.24,120.3L572.64,41.05L573.12,34.65L574.56,26.19L575.04,25.49L576,25.16" style="vector-effect: none; fill: none; stroke: rgb(99, 110, 250); stroke-opacity: 1; stroke-width: 2px; opacity: 1;"/></g><g class="points"/><g class="text"/></g><g class="trace scatter trace896b06" style="stroke-miterlimit: 2; opacity: 1;"><g class="fills"/><g class="errorbars"/><g class="lines"><path class="js-line" d="M0,16.51L2.88,16.17L3.36,16.09L5.76,16.14L6.25,19.5L7.21,45.79L7.69,73.49L9.61,127.15L10.09,125.66L11.53,127.99L12.01,127.96L14.89,128.4L15.37,128.41L28.82,129.44L29.3,129.49L39.39,129.81L39.87,129.82L63.41,130L63.89,129.42L64.85,121.6L65.33,113.36L67.74,61.59L68.22,57.91L69.66,53.16L70.14,52.32L74.94,46.64L75.42,46.12L78.31,44.05L78.79,43.81L90.32,37.78L90.8,37.58L101.36,33.48L101.84,33.49L104.25,32.29L104.73,31.03L105.69,28.54L106.17,30.5L107.13,53.09L107.61,77.04L109.05,118.85L109.53,128.36L112.41,129.98L112.89,130.05L129.71,131.14L130.19,131.17L146.52,131.44L147,131.45L161.41,131.61L161.89,131.51L163.34,130.83L163.82,126.85L164.78,115.71L165.26,95.17L166.7,56.23L167.18,53.14L170.54,45.26L171.02,44.99L173.42,44.59L173.9,44.42L180.63,41.28L181.11,41.17L182.55,40.22L183.03,39.56L186.4,35.71L186.88,35.5L189.76,35.67L190.24,35.94L192.16,35.84L192.64,35.59L195.04,35.33L195.52,35.25L205.13,33.16L205.61,33.01L207.05,32.78L207.53,34.63L208.49,53.28L208.97,75.63L210.42,118.79L210.9,129.24L212.82,131.2L213.3,131.15L218.58,131.73L219.06,131.81L227.71,132.17L228.19,132.18L242.12,132.61L242.6,132.61L264.7,132.25L265.18,131.41L266.14,123.23L266.62,112.64L269.02,54.78L269.5,52.08L271.43,47.5L271.91,46.91L276.23,43.77L276.71,43.52L281.03,41.1L281.51,40.93L299.77,33.83L300.25,33.72L308.42,31.35L308.9,32.08L309.38,34.46L309.86,40.68L310.82,75.54L311.3,101.01L313.22,129.18L313.7,129.15L315.14,130.82L315.62,130.99L320.91,132.02L321.39,132.04L331,133.16L331.48,133.18L366.07,133.3L366.55,132.95L367.03,132.26L367.51,129.73L368.47,113.67L368.95,97.99L370.87,52.64L371.35,50.18L373.27,46.26L373.75,45.72L379.04,42.29L379.52,42L391.05,36.83L391.53,36.6L403.06,32.82L403.54,32.72L409.3,32L409.78,33.33L410.74,42.66L411.22,53.88L413.62,127.23L414.11,128.96L414.59,128.62L415.07,129.86L416.51,130.58L416.99,130.77L425.15,131.91L425.63,131.95L440.05,133.12L440.53,133.11L465.99,133.88L466.47,133.64L467.43,130.27L467.91,125.67L471.27,50.61L471.75,48.57L473.67,45.08L474.16,44.67L479.92,40.64L480.4,40.31L484.72,38.76L485.2,38.58L497.69,33.96L498.18,33.9L507.78,31.7L508.26,31.73L509.22,31.51L509.7,30.58L510.67,27.78L511.15,27.96L511.63,33.04L512.59,67.12L513.07,95.28L514.99,128.26L515.47,127.61L516.91,129.44L517.39,129.62L520.75,130.25L521.23,130.35L527.48,131.09L527.96,131.12L568.31,131.94L568.79,129.1L569.75,119.81L570.24,102.55L572.16,50.63L572.64,48.01L574.56,45.5L575.04,44.82L576,42.84" style="vector-effect: none; fill: none; stroke: rgb(239, 85, 59); stroke-opacity: 1; stroke-width: 2px; opacity: 1;"/></g><g class="points"/><g class="text"/></g><g class="trace scatter trace9afd09" style="stroke-miterlimit: 2; opacity: 1;"><g class="fills"/><g class="errorbars"/><g class="lines"><path class="js-line" d="M0,17.7L3.84,17.11L4.32,16.66L6.25,11.01L6.73,14.61L7.69,48.55L8.17,79.71L9.13,107.07L9.61,149.76L10.09,160.27L10.57,154.12L11.53,174.73L12.01,170.85L13.45,172.13L13.93,171.98L17.77,171.83L18.26,171.82L26.42,171.83L26.9,171.8L35.55,171.54L36.03,171.64L39.87,171.83L40.35,171.81L47.56,171.9L48.04,171.97L52.84,171.75L53.32,171.76L62.45,172.16L62.93,171.75L63.89,170.27L64.37,165.86L68.22,85.04L68.7,81.8L70.62,76.43L71.1,75.47L76.86,65.59L77.34,65.38L79.27,64.31L79.75,63.86L85.03,59.79L85.51,59.48L94.64,53.09L95.12,52.79L101.84,48.8L102.33,48.88L103.77,48.17L104.25,47.59L105.21,42.97L105.69,39L106.17,35.71L106.65,36.84L107.13,46.29L110.01,157.84L110.49,154.45L111.45,159.18L111.93,158.76L112.41,158.6L116.74,159.53L117.22,159.63L124.42,161.05L124.9,161.08L156.13,162.52L156.61,162.46L163.34,162.15L163.82,156.91L165.26,122.01L165.74,100.29L167.18,77.08L167.66,75.74L170.06,69.96L170.54,67.42L171.98,63.88L172.46,63.7L174.87,63.15L175.35,62.75L178.23,60.71L178.71,60.54L182.07,59.28L182.55,58.45L186.4,50.61L186.88,50.25L188.8,49.53L189.28,49.94L191.2,51.76L191.68,51.57L193.6,50.86L194.08,51.1L195.52,51.07L196,50.93L201.77,49.5L202.25,49.13L204.17,48.56L204.65,48.5L206.09,47.5L206.57,46.71L207.53,45.12L208.01,45.84L208.49,51.21L208.97,65.43L210.9,142.46L211.38,154.82L211.86,151.59L212.34,153.97L212.82,156.14L213.3,155.99L213.78,156.08L215.7,156.86L216.18,157.05L221.46,158.2L221.94,158.23L234.92,159.46L235.4,159.66L237.8,159.86L238.28,159.79L255.09,160.45L255.57,160.56L261.82,160.96L262.3,160.91L264.7,160.1L265.18,159.25L265.66,156.6L266.14,149.4L269.02,79.83L269.5,76.46L271.43,69.88L271.91,69.17L276.23,64.94L276.71,64.71L283.44,59.49L283.92,59.25L289.68,55.54L290.16,55.29L307.46,47.11L307.94,46.02L309.38,42.73L309.86,44.16L310.82,64.97L311.3,92.42L313.22,153.01L313.7,149.81L314.18,152.36L314.66,154.54L315.14,154.34L315.62,154.45L317.54,155.19L318.03,155.28L323.79,155.83L324.27,155.83L338.68,157.19L339.16,157.16L352.13,158.71L352.61,158.76L366.55,158.53L367.03,157.86L367.51,155.48L367.99,147.98L371.35,73.17L371.83,71.25L374.23,65.99L374.71,65.6L380.96,60.22L381.44,59.85L400.65,48.48L401.13,48.45L404.98,47.3L405.46,47.11L409.78,46.11L410.26,47.14L411.22,54.71L411.7,65.78L414.11,151.91L414.59,148.18L415.55,153.08L416.03,152.93L416.51,152.79L418.91,153.59L419.39,153.79L424.67,155.17L425.15,155.18L432.84,155.91L433.32,155.97L453.98,157.53L454.46,157.54L465.51,158.33L465.99,158.18L466.95,156.86L467.43,154.6L468.39,137.23L468.87,121.54L470.79,75.62L471.27,72.25L473.19,65.53L473.67,64.97L480.88,57.54L481.36,57.36L485.2,56.1L485.68,55.81L496.73,48.86L497.21,48.78L499.62,48L500.1,47.84L502.98,47L503.46,46.7L507.3,45.24L507.78,45.37L509.7,45.6L510.19,46.68L511.15,53.94L511.63,62.11L514.03,146.61L514.51,146.06L514.99,146.01L515.95,149.75L516.43,149.47L518.83,150.65L519.31,150.64L532.28,153L532.76,153.15L540.45,153.86L540.93,153.87L550.06,154.2L550.54,154.35L555.82,154.72L556.3,154.72L565.43,155.27L565.91,155.31L568.31,154.65L568.79,152.33L570.24,126.22L570.72,105.37L572.16,71.08L572.64,68.66L576,62.39" style="vector-effect: none; fill: none; stroke: rgb(0, 204, 150); stroke-opacity: 1; stroke-width: 2px; opacity: 1;"/></g><g class="points"/><g class="text"/></g><g class="trace scatter trace88d2cf" style="stroke-miterlimit: 2; opacity: 1;"><g class="fills"/><g class="errorbars"/><g class="lines"><path class="js-line" d="M0,16.43L3.84,16.09L4.32,15.59L5.76,12.02L6.25,14.5L7.21,38.19L7.69,62.18L9.13,109.67L9.61,123.44L11.05,125.79L11.53,126.26L13.45,126.35L13.93,126.4L22.1,127.03L22.58,127.05L63.41,127.71L63.89,126.78L64.85,120.66L65.33,110.49L67.74,58.99L68.22,55.31L69.66,50.38L70.14,49.56L74.94,43.86L75.42,43.37L78.79,41.19L79.27,40.93L86.95,36.83L87.43,36.64L103.29,31L103.77,30.9L104.73,29.82L105.21,28.53L105.69,27.53L106.17,28.6L107.13,47.63L107.61,68.1L109.05,114.31L109.53,123.99L110.01,127.16L110.49,126.63L110.97,127.25L112.41,127.75L112.89,127.83L138.84,128.86L139.32,128.87L163.34,128.82L163.82,126.1L164.78,117.75L165.26,101.85L166.7,55.42L167.18,51.1L168.62,47.78L169.1,47.29L171.98,41.82L172.46,41.8L175.83,40.69L176.31,40.28L178.71,39.22L179.19,39.08L182.55,37.75L183.03,37.14L186.4,33.48L186.88,33.29L189.28,33.12L189.76,33.39L191.68,33.75L192.16,33.51L194.08,33.17L194.56,33.21L201.77,31.96L202.25,31.79L207.05,30.73L207.53,31.8L208.49,45.91L208.97,63.94L210.42,112.29L210.9,123.84L211.38,128.15L211.86,127.34L212.34,128.12L213.78,128.89L214.26,129.02L221.46,129.48L221.94,129.49L242.12,129.8L242.6,129.82L263.26,129.97L263.74,129.91L264.7,129.76L265.18,128.69L266.14,122.36L266.62,111.59L269.02,52.54L269.5,49.66L271.43,44.88L271.91,44.27L275.75,41.56L276.23,41.36L286.32,36.44L286.8,36.3L307.46,30.12L307.94,29.28L308.9,27.12L309.38,27.86L310.34,43.74L310.82,62.96L312.26,111.56L312.74,123.83L313.22,128.29L313.7,127.51L314.18,128.52L315.62,129.59L316.1,129.74L325.71,130.41L326.19,130.44L366.55,130.32L367.03,129.23L367.99,122.51L368.47,111.45L370.87,50.26L371.35,47.69L373.27,43.61L373.75,43.07L378.08,40.18L378.56,39.97L392.97,34.08L393.45,33.92L403.54,31L404.02,30.93L409.3,29.79L409.78,30.68L410.74,37.44L411.22,46.3L414.11,127.83L414.59,126.92L416.51,128.8L416.99,129L424.67,130.24L425.15,130.2L465.99,130.95L466.47,130.85L466.95,130.01L467.43,127.4L468.39,115.47L468.87,98.27L470.79,51.09L471.27,47.86L473.19,42.65L473.67,42.19L481.36,37.43L481.84,37.34L487.13,35.4L487.61,35.24L500.58,31.23L501.06,31.26L503.94,30.36L504.42,30.24L508.26,29.77L508.74,29.8L509.7,30.46L510.19,32.2L511.15,43.31L511.63,55.55L513.55,116.14L514.03,125.68L514.99,125.93L515.47,127L518.35,127.95L518.83,128.06L525.56,128.78L526.04,128.79L546.7,129.85L547.18,129.85L563.51,130.24L563.99,130.25L568.31,130.24L568.79,128.47L570.24,107.88L570.72,86.6L572.16,49.08L572.64,45.68L574.08,43.3L574.56,42.86L576,40.77" style="vector-effect: none; fill: none; stroke: rgb(171, 99, 250); stroke-opacity: 1; stroke-width: 2px; opacity: 1;"/></g><g class="points"/><g class="text"/></g><g class="trace scatter trace9716c8" style="stroke-miterlimit: 2; opacity: 1;"><g class="fills"/><g class="errorbars"/><g class="lines"><path class="js-line" d="M0,19.12L2.88,18.69L3.36,18.62L4.32,17.72L4.8,15.78L5.76,10.5L6.25,11.13L6.73,18.02L7.69,57.28L8.17,88.44L9.13,114.28L9.61,145.3L10.09,151.74L10.57,148.68L11.05,154.47L11.53,156.6L12.01,155.65L12.49,155.84L13.93,156.29L14.41,156.39L21.62,157.16L22.1,157.14L25.46,157.78L25.94,157.91L34.11,158.4L34.59,158.39L45.64,158.66L46.12,158.67L62.93,158.89L63.41,158.31L64.37,151.78L64.85,143.78L67.74,75.02L68.22,71.09L70.14,64.21L70.62,63.35L76.86,54.58L77.34,54.22L82.63,50.21L83.11,49.8L90.32,45.27L90.8,45.04L99.44,40.08L99.92,39.82L104.25,38.81L104.73,37.83L106.17,34.36L106.65,39.05L107.61,72.13L108.09,100.38L110.01,152.93L110.49,151.81L111.93,154.99L112.41,155.13L115.3,156.18L115.78,156.32L126.83,158.39L127.31,158.39L132.11,158.9L132.59,158.97L142.2,159.24L142.68,159.24L163.34,159.59L163.82,153.3L165.26,116.3L165.74,92.58L167.18,64.65L167.66,63L170.06,57.71L170.54,55.46L171.5,53.63L171.98,53.67L174.39,53.38L174.87,52.95L178.23,50.11L178.71,49.87L182.55,47.71L183.03,46.89L185.91,42.75L186.4,42.38L188.8,41.44L189.28,41.61L191.68,42.32L192.16,42.04L194.08,41.61L194.56,41.62L204.65,39.1L205.13,38.85L207.53,37.3L208.01,39.88L208.97,64.93L209.45,93.53L211.38,152.49L211.86,149.99L213.3,154.15L213.78,154.2L216.66,155.4L217.14,155.54L228.19,156.89L228.67,156.93L254.13,158.12L254.61,158.09L264.22,158.04L264.7,157.71L265.66,150.17L266.14,143.16L269.02,66.07L269.5,63.24L271.43,57.92L271.91,57.38L280.55,50.1L281.03,49.85L294.01,42.67L294.49,42.5L307.46,37.65L307.94,36.37L309.38,31.4L309.86,34.65L310.82,63.73L311.3,93.02L313.22,150.81L313.7,148.24L315.14,152.42L315.62,152.49L318.51,153.67L318.99,153.75L334.36,155.76L334.84,155.73L340.12,156.18L340.6,156.27L349.25,156.69L349.73,156.65L361.26,157.15L361.74,157.22L365.58,157.09L366.07,156.94L366.55,156.57L367.03,154.34L367.99,141.96L368.47,126.43L370.39,67.29L370.87,62.79L372.79,56.58L373.27,55.59L375.67,52.99L376.15,52.65L389.12,44.78L389.6,44.62L394.89,41.82L395.37,41.46L399.69,39.41L400.17,39.29L409.3,36.72L409.78,37.29L410.74,42.43L411.22,49.79L414.11,150.59L414.59,148.1L415.07,149.93L416.03,152.56L416.51,152.53L418.91,153.3L419.39,153.45L423.71,154.4L424.19,154.43L449.65,156.41L450.14,156.35L457.82,156.71L458.3,156.77L465.51,156.83L465.99,156.62L466.47,156.47L466.95,154.95L467.91,143.56L468.39,131.1L470.31,67.87L470.79,63.07L472.71,54.97L473.19,54.14L477.52,49.85L478,49.61L496.25,39.94L496.73,39.9L499.14,39.36L499.62,39.08L508.26,36.8L508.74,36.75L509.7,37.11L510.19,38.51L511.15,47.92L511.63,58.63L514.03,147.23L514.51,147.46L514.99,147.27L515.47,150.32L516.91,151.23L517.39,151.54L524.12,153.2L524.6,153.23L535.65,154.21L536.13,154.31L544.29,154.58L544.77,154.56L550.54,155.04L551.02,155.07L565.43,155.22L565.91,155.23L567.35,155.08L567.83,154.76L568.31,154.98L568.79,151.54L570.24,121.09L570.72,97.49L572.16,60.33L572.64,57.39L574.56,54.49L575.04,53.75L576,51.7" style="vector-effect: none; fill: none; stroke: rgb(255, 161, 90); stroke-opacity: 1; stroke-width: 2px; opacity: 1;"/></g><g class="points"/><g class="text"/></g><g class="trace scatter trace838c66" style="stroke-miterlimit: 2; opacity: 1;"><g class="fills"/><g class="errorbars"/><g class="lines"><path class="js-line" d="M0,17.31L3.36,16.51L3.84,16.39L4.8,14.43L5.28,12.34L5.76,10.6L6.25,11.74L7.21,34.95L7.69,57.45L9.61,131.1L10.09,137.95L10.57,137.81L11.05,139.67L12.01,140.64L12.49,140.72L16.33,141.4L16.81,141.45L34.11,142.91L34.59,142.86L63.41,143.4L63.89,141.55L64.85,134.03L65.33,121.74L67.26,78.61L67.74,73.82L69.18,66.99L69.66,66.02L74.94,58.48L75.42,57.81L77.82,55.96L78.31,55.68L89.35,48.83L89.83,48.58L101.84,42.27L102.33,42.34L104.25,41.9L104.73,41.63L105.21,41.77L105.69,42.9L106.65,56.98L107.13,77.73L108.57,122.33L109.05,134.68L110.01,135.29L110.49,136.92L112.41,138.17L112.89,138.32L126.35,141.64L126.83,141.64L131.63,141.96L132.11,142.06L136.91,142.21L137.39,142.28L142.2,142.38L142.68,142.39L157.57,143.24L158.05,143.23L163.34,143.45L163.82,140.32L165.26,113.07L165.74,89.79L167.18,62.98L167.66,62.08L169.1,60.83L169.58,59.62L171.98,53.75L172.46,53.73L174.87,53.59L175.35,53.25L177.75,51.33L178.23,51.37L182.07,50.08L182.55,49.34L185.91,44.05L186.4,43.87L188.8,42.38L189.28,42.78L191.2,44.48L191.68,44.32L193.6,43.52L194.08,43.68L195.52,43.38L196,43.09L198.89,42.64L199.37,42.55L206.09,40.19L206.57,39.52L207.53,38.02L208.01,38.86L208.97,57.43L209.45,82.86L210.9,125.88L211.38,136.17L211.86,135.1L212.34,136.01L213.3,137.83L213.78,137.9L219.06,139.99L219.54,140.11L228.67,141.25L229.15,141.26L263.26,143.06L263.74,142.88L264.7,142.7L265.18,141.1L266.14,132.04L266.62,119.92L268.54,68.07L269.02,64.77L270.95,58.75L271.43,57.97L274.79,54.87L275.27,54.56L278.15,52.6L278.63,52.18L293.52,44.03L294.01,43.87L307.46,38.95L307.94,37.47L309.38,27.19L309.86,27.55L310.34,35.48L313.22,134.93L313.7,133.6L315.62,136.62L316.1,136.99L319.47,138.26L319.95,138.39L326.67,139.65L327.15,139.69L344.93,141.66L345.41,141.68L359.82,142.38L360.3,142.49L365.1,142.8L365.58,142.68L366.55,142.47L367.03,140.83L367.99,131.64L368.47,119.23L370.39,64.35L370.87,61.18L372.79,56.37L373.27,55.59L376.15,53.25L376.63,53L381.92,49.9L382.4,49.65L401.61,40.41L402.1,40.28L409.78,38.39L410.26,39.36L411.22,46.68L411.7,56.96L414.11,134.56L414.59,133.92L416.51,136.96L416.99,137.27L421.79,139.18L422.27,139.27L429,140.23L429.48,140.29L452.06,142.41L452.54,142.4L466.47,142.84L466.95,142.06L468.39,124.2L468.87,104.51L470.31,64.64L470.79,61.05L472.71,55.19L473.19,54.63L480.4,49.03L480.88,48.79L490.97,43.62L491.45,43.3L494.81,41.87L495.29,41.69L500.58,40.18L501.06,40.18L503.46,39.09L503.94,38.93L509.22,37.92L509.7,38.05L510.67,41.13L511.15,45.74L512.11,70.07L512.59,94.56L514.51,133.55L514.99,132.82L516.43,135.85L516.91,136.14L519.79,137.4L520.27,137.55L526.04,138.83L526.52,138.88L567.35,142.01L567.83,141.61L568.31,141.8L568.79,139.96L570.24,117.27L570.72,94.51L572.16,59.14L572.64,56.7L574.08,55.37L574.56,54.97L576,52.82" style="vector-effect: none; fill: none; stroke: rgb(25, 211, 243); stroke-opacity: 1; stroke-width: 2px; opacity: 1;"/></g><g class="points"/><g class="text"/></g><g class="trace scatter trace49003a" style="stroke-miterlimit: 2; opacity: 1;"><g class="fills"/><g class="errorbars"/><g class="lines"><path class="js-line" d="M0,16.84L3.84,15.99L4.32,15.53L5.28,14.39L5.76,15.24L6.73,33.6L7.21,59.18L9.13,133.5L9.61,131.29L10.09,132.16L10.57,135.65L12.49,136.19L12.97,136.25L21.62,137.34L22.1,137.38L49,138.4L49.48,138.37L61.01,138.63L61.49,138.65L63.41,138.45L63.89,136.89L64.85,130.38L65.33,120.13L67.26,75.66L67.74,70.87L69.18,64.16L69.66,63.28L75.9,55.07L76.38,54.6L98,42.61L98.48,42.39L101.84,40.9L102.33,41.1L104.25,40.71L104.73,40.37L105.21,40.36L105.69,41.14L106.17,44.4L106.65,52.99L109.05,129.13L109.53,130.91L110.01,130.53L110.49,131.94L111.93,132.91L112.41,133.19L119.62,135.49L120.1,135.57L134.51,137.05L134.99,137.06L162.38,137.98L162.86,137.67L163.34,137.91L163.82,135.89L165.26,111.47L165.74,88.61L167.18,59.78L167.66,59.01L169.1,58.09L169.58,56.97L171.98,51.45L172.46,51.48L174.87,51.1L175.35,50.83L177.75,48.97L178.23,49.17L180.63,48.82L181.11,48.71L182.07,47.97L182.55,47.12L184.95,43.06L185.43,42.49L187.84,40.9L188.32,40.61L189.28,41.14L189.76,41.73L191.2,42.62L191.68,42.46L193.6,41.78L194.08,42.07L196,42.26L196.48,42.15L206.57,38.93L207.05,38.11L208.01,37.64L208.49,41.63L209.45,75.63L209.93,100.9L210.9,119.2L211.38,130.87L212.34,131.07L212.82,132.62L214.74,133.53L215.22,133.72L220.98,135.32L221.46,135.36L236.36,136.73L236.84,136.79L254.61,137.55L255.09,137.55L264.7,137.69L265.18,136.56L266.62,117.87L267.1,97.79L268.54,64.33L269.02,61.29L270.95,56.31L271.43,55.7L275.75,52.22L276.23,52.04L286.32,46.46L286.8,46.12L293.04,43.06L293.52,42.95L296.41,41.95L296.89,41.74L308.42,38.13L308.9,38.8L309.38,41.79L309.86,49.67L312.26,126.35L312.74,128.64L313.22,128.38L313.7,130.04L315.14,131.32L315.62,131.66L320.43,133.33L320.91,133.44L332.92,135.48L333.4,135.52L366.55,137.8L367.03,136.55L368.47,117.48L368.95,97.2L370.39,60.86L370.87,57.96L372.79,53.86L373.27,53.19L376.63,51.01L377.11,50.84L380.48,49.08L380.96,48.76L388.16,45.36L388.64,45.17L400.65,39.54L401.13,39.52L404.98,38.21L405.46,38.02L409.78,37.28L410.26,37.98L411.22,43.92L411.7,52.42L414.11,128.26L414.59,129.29L415.07,129.22L415.55,131.03L417.47,132.35L417.95,132.59L424.19,134.57L424.67,134.69L429.96,135.36L430.44,135.43L439.09,136.35L439.57,136.35L456.38,137.8L456.86,137.83L466.47,138.17L466.95,137.83L468.39,122.16L468.87,103.65L470.31,62.25L470.79,58.43L472.71,52.92L473.19,52.33L478,48.69L478.48,48.58L483.28,46.44L483.76,46.3L488.57,43.61L489.05,43.24L492.89,41.32L493.37,41.21L502.98,38.22L503.46,37.91L506.82,36.91L507.3,36.99L510.19,37.35L510.67,38.96L511.63,49.84L512.11,63.59L514.03,123.62L514.51,128.9L514.99,127.84L515.47,129.54L516.91,131.09L517.39,131.45L521.71,132.79L522.2,132.87L533.72,134.67L534.21,134.71L554.38,136.6L554.86,136.58L568.31,136.87L568.79,135.94L570.24,116.52L570.72,94.71L572.16,57.14L572.64,54.41L574.08,53.05L574.56,52.7L576,50.83" style="vector-effect: none; fill: none; stroke: rgb(255, 102, 146); stroke-opacity: 1; stroke-width: 2px; opacity: 1;"/></g><g class="points"/><g class="text"/></g><g class="trace scatter tracedf3ea5" style="stroke-miterlimit: 2; opacity: 1;"><g class="fills"/><g class="errorbars"/><g class="lines"><path class="js-line" d="M0,16.39L4.8,15.77L5.28,16.62L6.25,28.61L6.73,44.39L8.65,112.35L9.13,122.44L10.09,122.18L10.57,123.38L14.41,123.98L14.89,124.02L34.11,124.92L34.59,124.93L63.41,125.25L63.89,124.39L64.85,119.97L65.33,112L67.74,58.03L68.22,54.08L69.66,48.86L70.14,48L73.5,44.07L73.98,43.62L78.31,40.12L78.79,39.92L90.8,34.61L91.28,34.46L102.33,30.33L102.81,30.25L104.73,30.01L105.21,30.89L106.17,39.49L106.65,51.5L108.57,113.49L109.05,122.71L110.49,124.41L110.97,124.76L116.74,125.37L117.22,125.41L137.87,125.99L138.36,125.98L163.34,125.76L163.82,124.31L164.78,113.55L165.26,101.82L167.18,49.12L167.66,47.02L171.5,40L171.98,39.97L174.87,39.42L175.35,39.16L177.75,37.75L178.23,37.83L182.07,36.88L182.55,36.31L185.43,32.9L185.91,32.48L188.8,31.43L189.28,31.64L191.68,32.57L192.16,32.4L194.56,32.15L195.04,32.15L206.09,30.26L206.57,29.87L207.53,29.94L208.01,32.35L208.97,53.68L209.45,77.55L210.9,116.44L211.38,124.67L212.34,124.69L212.82,125.56L216.66,126.2L217.14,126.24L264.7,126.66L265.18,125.92L266.14,119.54L266.62,112.25L269.02,50.32L269.5,47.46L271.43,43.04L271.91,42.52L276.23,39.61L276.71,39.39L282.48,36.57L282.96,36.37L299.77,30.94L300.25,30.86L307.94,29.8L308.42,30.61L309.38,38.82L309.86,50.32L311.78,112.45L312.26,122.65L313.7,124.87L314.18,125.34L328.59,127.09L329.07,127.09L365.58,127.21L366.07,127.05L366.55,127.06L367.03,126.28L367.99,119.68L368.47,111.89L370.87,47.89L371.35,45.34L373.27,41.55L373.75,41.05L377.59,38.72L378.08,38.54L385.76,35.19L386.24,35.01L403.06,29.94L403.54,29.88L408.34,28.72L408.82,28.49L409.78,28.8L410.26,30.23L411.22,40.08L411.7,52.07L413.62,113.29L414.11,123.07L416.03,125.02L416.51,125.07L421.79,126.29L422.27,126.36L437.16,127.56L437.64,127.53L446.29,127.56L446.77,127.57L466.47,127.39L466.95,127.18L468.39,115.9L468.87,100.13L470.79,49.44L471.27,45.99L473.19,40.76L473.67,40.29L480.88,35.69L481.36,35.55L488.57,33.52L489.05,33.33L495.29,31.17L495.77,31.04L507.78,28.51L508.26,28.58L509.7,28.61L510.19,29.64L511.15,37.74L511.63,47.52L514.03,119.48L514.51,122.81L514.99,122.15L515.47,123.03L516.91,123.79L517.39,123.99L525.08,125.19L525.56,125.22L568.31,126.97L568.79,126.47L570.24,111.48L570.72,91.36L572.16,48.97L572.64,44.67L574.08,41.23L574.56,40.73L576,39.05" style="vector-effect: none; fill: none; stroke: rgb(182, 232, 128); stroke-opacity: 1; stroke-width: 2px; opacity: 1;"/></g><g class="points"/><g class="text"/></g><g class="trace scatter trace63e5b7" style="stroke-miterlimit: 2; opacity: 1;"><g class="fills"/><g class="errorbars"/><g class="lines"><path class="js-line" d="M0,15.35L5.28,14.42L5.76,16.17L6.73,36.15L7.21,60.35L8.65,110.67L9.13,128.37L11.53,131.28L12.01,131.44L16.33,132.25L16.81,132.31L44.2,134.03L44.68,134.03L56.69,134.26L57.17,134.29L63.41,134.47L63.89,133.46L65.33,120.3L65.81,103.31L67.74,64.16L68.22,60.63L70.14,54.83L70.62,54.04L75.42,48.14L75.9,47.61L79.27,45.26L79.75,44.96L88.39,39.95L88.87,39.69L101.36,34.1L101.84,34.1L105.21,34.31L105.69,35.99L106.65,50.8L107.13,69.42L108.57,117.1L109.05,129.51L109.53,132.99L110.01,132.2L110.49,133.19L111.93,133.9L112.41,134.04L121.54,135L122.02,135.03L162.86,135.75L163.34,133.97L164.3,126.56L164.78,112.86L166.7,59.15L167.18,55.74L169.58,49.97L170.06,49.02L172.46,46.44L172.94,46.36L176.79,43.86L177.27,43.57L182.55,41.29L183.03,40.65L185.91,37.82L186.4,37.44L189.28,36.78L189.76,37.02L191.68,37.03L192.16,36.78L194.08,36.36L194.56,36.38L199.85,35.26L200.33,35.11L206.09,33.2L206.57,32.47L207.53,31.02L208.01,32.54L208.97,52.16L209.45,74.83L210.9,119.3L211.38,130.74L212.82,133.04L213.3,133.56L217.62,134.53L218.1,134.63L225.79,135.54L226.27,135.56L239.24,136.03L239.72,136.08L251.73,136.6L252.21,136.51L256.53,136.43L257.01,136.51L263.74,136.69L264.22,136.42L265.18,135.9L265.66,131.84L266.62,121.17L267.1,101.24L268.54,60.33L269.02,56.25L270.95,50.13L271.43,49.28L274.31,46.24L274.79,45.77L281.51,41.63L281.99,41.44L290.64,37.1L291.12,36.89L297.37,34.79L297.85,34.65L305.53,32.45L306.02,32.38L308.42,32.19L308.9,33.89L309.86,48.75L310.34,67.35L311.78,114.2L312.26,126.5L312.74,129.98L313.22,129.21L313.7,130.22L315.14,131.09L315.62,131.33L319.47,132.01L319.95,132.07L336.76,133.81L337.24,133.82L346.37,134.36L346.85,134.39L366.55,134.58L367.03,133.98L368.47,119.82L368.95,99.93L370.39,58.16L370.87,54.24L372.79,48.42L373.27,47.55L375.67,45.34L376.15,45.01L386.24,39.09L386.72,38.87L400.65,33.72L401.13,33.77L404.5,32.69L404.98,32.53L408.82,32.18L409.3,33.92L410.26,44.67L410.74,55.1L413.62,128.69L414.11,128.64L415.55,130.49L416.03,130.62L420.35,131.67L420.83,131.74L443.89,133.4L444.37,133.44L465.51,134.03L465.99,133.78L466.95,133.81L467.43,131.3L468.39,122.83L468.87,108.27L470.79,56.31L471.27,52.77L473.19,47.03L473.67,46.38L478.48,42.5L478.96,42.2L482.32,40.51L482.8,40.29L492.89,35.66L493.37,35.45L498.18,34.15L498.66,34.03L504.9,32.27L505.38,32.01L507.78,31.88L508.26,31.83L509.7,31.41L510.19,32.1L511.15,39.04L511.63,48.17L514.51,129.11L514.99,128.06L516.91,129.69L517.39,129.88L525.56,130.99L526.04,131.02L552.46,132.47L552.94,132.48L568.31,132.27L568.79,131.86L569.75,122.47L570.24,115.37L572.64,50.69L573.12,48.91L576,45.14" style="vector-effect: none; fill: none; stroke: rgb(255, 151, 255); stroke-opacity: 1; stroke-width: 2px; opacity: 1;"/></g><g class="points"/><g class="text"/></g><g class="trace scatter tracec6b0c2" style="stroke-miterlimit: 2; opacity: 1;"><g class="fills"/><g class="errorbars"/><g class="lines"><path class="js-line" d="M0,15.18L5.28,13.96L5.76,14.94L6.73,31.46L7.21,52.84L9.13,125.27L9.61,129.76L10.09,128.36L10.57,130.58L11.53,131.34L12.01,131.45L15.37,132.25L15.85,132.3L31.23,133.56L31.71,133.57L61.97,134.85L62.45,134.76L63.89,134.1L64.37,130.36L65.33,122.52L65.81,105.61L67.74,65.12L68.22,61.63L70.14,56.24L70.62,55.5L76.86,48.17L77.34,47.85L100.88,35.89L101.36,35.89L104.25,35.28L104.73,35.15L105.21,35.43L105.69,36.63L106.65,48.64L107.13,64.94L108.57,114.69L109.05,127.41L109.53,133.3L110.01,132.26L110.49,133.03L111.45,133.97L111.93,134.03L115.3,134.61L115.78,134.66L128.27,135.54L128.75,135.56L161.41,136.44L161.89,136.26L162.86,136.27L163.34,134.14L164.3,126.3L164.78,112.66L166.7,58.9L167.18,56.35L170.06,50.59L170.54,49.93L172.94,47.79L173.42,47.64L180.15,44.14L180.63,44.03L182.55,42.89L183.03,42.22L185.91,38.97L186.4,38.61L188.8,38.33L189.28,38.52L191.2,38.76L191.68,38.57L194.56,37.57L195.04,37.48L205.13,35.22L205.61,34.94L206.57,32.4L207.05,29.48L208.01,26.36L208.49,32.5L209.45,68.87L209.93,97.26L211.86,131.95L212.34,131.25L213.78,132.94L214.26,133.04L218.1,133.97L218.58,134L228.67,135.07L229.15,135.08L251.73,135.77L252.21,135.75L265.18,135.58L265.66,131.97L266.62,122.27L267.1,104.22L268.54,60.96L269.02,56.74L270.47,52.05L270.95,51.16L272.87,49.17L273.35,48.88L278.15,45.28L278.63,45.08L293.04,38.28L293.52,38.14L304.09,34.15L304.57,33.91L308.42,33.09L308.9,34.24L309.86,46.22L310.34,62.4L311.78,111.65L312.26,123.97L312.74,129.68L313.22,128.79L313.7,129.55L314.66,130.45L315.14,130.51L320.43,131.74L320.91,131.74L329.55,132.64L330.04,132.7L340.6,133.52L341.08,133.54L367.03,133.86L367.51,130.34L368.47,121L368.95,102.86L370.39,58.92L370.87,54.77L372.79,49.4L373.27,48.75L380,44.35L380.48,44.1L390.09,39.45L390.57,39.3L404.98,34.5L405.46,34.4L408.82,33.93L409.3,34.82L410.26,41.95L410.74,50.71L413.62,128.89L414.11,128.2L416.03,130.04L416.51,130.21L423.71,131.4L424.19,131.38L433.8,132.33L434.28,132.4L450.14,133.33L450.62,133.32L466.95,133.25L467.43,131.17L468.87,106.76L469.35,86.94L470.79,56.63L471.27,53.22L472.71,48.91L473.19,48.33L481.84,42.32L482.32,42.17L490.97,38.37L491.45,38.14L496.73,36.36L497.21,36.25L509.22,33.26L509.7,32.05L510.67,29.3L511.15,30.85L512.11,55.01L512.59,81.56L514.03,120.1L514.51,128.2L515.47,127.95L515.95,128.96L519.79,129.83L520.27,129.92L528.92,130.82L529.4,130.86L539.97,131.49L540.45,131.48L567.83,132.14L568.31,131.27L569.27,125.32L569.75,117.07L572.16,52.48L572.64,50.57L576,46.99" style="vector-effect: none; fill: none; stroke: rgb(254, 203, 82); stroke-opacity: 1; stroke-width: 2px; opacity: 1;"/></g><g class="points"/><g class="text"/></g></g></g></g><path class="xlines-above crisp" d="M0,0" style="fill: none;"/><path class="ylines-above crisp" d="M0,0" style="fill: none;"/><g class="overlines-above"/><g class="xaxislayer-above"><g class="xtick"><text text-anchor="middle" x="0" y="273" transform="translate(160.42000000000002,0)" style="font-family: 'Times New Roman'; font-size: 12px; fill: rgb(0, 0, 0); fill-opacity: 1; white-space: pre; opacity: 1;">5e+6</text></g><g class="xtick"><text text-anchor="middle" x="0" y="273" style="font-family: 'Times New Roman'; font-size: 12px; fill: rgb(0, 0, 0); fill-opacity: 1; white-space: pre; opacity: 1;" transform="translate(328.91,0)">1e+7</text></g><g class="xtick"><text text-anchor="middle" x="0" y="273" style="font-family: 'Times New Roman'; font-size: 12px; fill: rgb(0, 0, 0); fill-opacity: 1; white-space: pre; opacity: 1;" transform="translate(497.4,0)">2e+7</text></g></g><g class="yaxislayer-above"><g class="ytick"><text text-anchor="end" x="38" y="4.199999999999999" transform="translate(0,244.03)" style="font-family: 'Times New Roman'; font-size: 12px; fill: rgb(0, 0, 0); fill-opacity: 1; white-space: pre; opacity: 1;">−8</text></g><g class="ytick"><text text-anchor="end" x="38" y="4.199999999999999" style="font-family: 'Times New Roman'; font-size: 12px; fill: rgb(0, 0, 0); fill-opacity: 1; white-space: pre; opacity: 1;" transform="translate(0,201.8)">−6</text></g><g class="ytick"><text text-anchor="end" x="38" y="4.199999999999999" style="font-family: 'Times New Roman'; font-size: 12px; fill: rgb(0, 0, 0); fill-opacity: 1; white-space: pre; opacity: 1;" transform="translate(0,159.57999999999998)">−4</text></g><g class="ytick"><text text-anchor="end" x="38" y="4.199999999999999" style="font-family: 'Times New Roman'; font-size: 12px; fill: rgb(0, 0, 0); fill-opacity: 1; white-space: pre; opacity: 1;" transform="translate(0,117.35)">−2</text></g><g class="ytick"><text text-anchor="end" x="38" y="4.199999999999999" style="font-family: 'Times New Roman'; font-size: 12px; fill: rgb(0, 0, 0); fill-opacity: 1; white-space: pre; opacity: 1;" transform="translate(0,75.12)">0</text></g></g><g class="overaxes-above"/></g></g><g class="polarlayer"/><g class="smithlayer"/><g class="ternarylayer"/><g class="geolayer"/><g class="funnelarealayer"/><g class="pielayer"/><g class="iciclelayer"/><g class="treemaplayer"/><g class="sunburstlayer"/><g class="glimages"/><defs id="topdefs-8d80e3"><g class="clips"/></defs><g class="layer-above"><g class="imagelayer"/><g class="shapelayer"><g class="shape-group" data-index="0" clip-path="url(#clip8d80e3x)"><path data-index="0" fill-rule="evenodd" d="M59.21,260H99.65V50H59.21Z" style="opacity: 0.4; stroke: rgb(0, 0, 0); stroke-opacity: 0; fill: rgb(205, 208, 255); fill-opacity: 1; stroke-width: 0px;"/></g><g class="shape-group" data-index="1" clip-path="url(#clip8d80e3x)"><path data-index="1" fill-rule="evenodd" d="M160.29000000000002,260H200.74V50H160.29000000000002Z" style="opacity: 0.4; stroke: rgb(0, 0, 0); stroke-opacity: 0; fill: rgb(175, 223, 255); fill-opacity: 1; stroke-width: 0px;"/></g><g class="shape-group" data-index="2" clip-path="url(#clip8d80e3x)"><path data-index="2" fill-rule="evenodd" d="M261.23,260H301.66V50H261.23Z" style="opacity: 0.4; stroke: rgb(0, 0, 0); stroke-opacity: 0; fill: rgb(145, 237, 255); fill-opacity: 1; stroke-width: 0px;"/></g><g class="shape-group" data-index="3" clip-path="url(#clip8d80e3x)"><path data-index="3" fill-rule="evenodd" d="M362.29,260H402.73V50H362.29Z" style="opacity: 0.4; stroke: rgb(0, 0, 0); stroke-opacity: 0; fill: rgb(136, 248, 239); fill-opacity: 1; stroke-width: 0px;"/></g><g class="shape-group" data-index="4" clip-path="url(#clip8d80e3x)"><path data-index="4" fill-rule="evenodd" d="M463.39,260H503.83V50H463.39Z" style="opacity: 0.4; stroke: rgb(0, 0, 0); stroke-opacity: 0; fill: rgb(160, 254, 205); fill-opacity: 1; stroke-width: 0px;"/></g><g class="shape-group" data-index="5" clip-path="url(#clip8d80e3x)"><path data-index="5" fill-rule="evenodd" d="M564.47,260H604.89V50H564.47Z" style="opacity: 0.4; stroke: rgb(0, 0, 0); stroke-opacity: 0; fill: rgb(206, 254, 172); fill-opacity: 1; stroke-width: 0px;"/></g></g></g><g class="infolayer"><g class="g-gtitle"><text class="gtitle" x="312.5" y="25" text-anchor="middle" dy="0em" style="opacity: 1; font-family: 'Times New Roman'; font-size: 17px; fill: rgb(0, 0, 0); fill-opacity: 1; white-space: pre;">Sensor 7 Net</text></g><g class="g-xtitle" transform="translate(0,-2.8000000000000114)"><text class="xtitle" x="327" y="299.8" text-anchor="middle" style="opacity: 1; font-family: 'Times New Roman'; font-size: 14px; fill: rgb(0, 0, 0); fill-opacity: 1; white-space: pre;">Time since power on (ms)</text></g><g class="g-ytitle" transform="translate(6.681640625,0)"><text class="ytitle" transform="rotate(-90,5.818750000000001,155)" x="5.818750000000001" y="155" text-anchor="middle" style="opacity: 1; font-family: 'Times New Roman'; font-size: 14px; fill: rgb(0, 0, 0); fill-opacity: 1; white-space: pre;">Resistance (Ohms)</text></g><g class="annotation" data-index="0" style="opacity: 1;"><g class="annotation-text-g" transform="rotate(0,75.21000000000001,58.5)"><g class="cursor-pointer" transform="translate(59,50)"><rect class="bg" x="0.5" y="0.5" width="31" height="16" style="stroke-width: 1px; stroke: rgb(0, 0, 0); stroke-opacity: 0; fill: rgb(0, 0, 0); fill-opacity: 0;"/><text class="annotation-text" text-anchor="middle" x="16.171875" y="12.5" style="font-family: 'Times New Roman'; font-size: 12px; fill: rgb(0, 0, 0); fill-opacity: 1; white-space: pre;">E 100</text></g></g></g><g class="annotation" data-index="1" style="opacity: 1;"><g class="annotation-text-g" transform="rotate(0,177.79000000000002,58.5)"><g class="cursor-pointer" transform="translate(160,50)"><rect class="bg" x="0.5" y="0.5" width="34" height="16" style="stroke-width: 1px; stroke: rgb(0, 0, 0); stroke-opacity: 0; fill: rgb(0, 0, 0); fill-opacity: 0;"/><text class="annotation-text" text-anchor="middle" x="17.671875" y="12.5" style="font-family: 'Times New Roman'; font-size: 12px; fill: rgb(0, 0, 0); fill-opacity: 1; white-space: pre;">E 97.5</text></g></g></g><g class="annotation" data-index="2" style="opacity: 1;"><g class="annotation-text-g" transform="rotate(0,274.23,58.5)"><g class="cursor-pointer" transform="translate(261,50)"><rect class="bg" x="0.5" y="0.5" width="25" height="16" style="stroke-width: 1px; stroke: rgb(0, 0, 0); stroke-opacity: 0; fill: rgb(0, 0, 0); fill-opacity: 0;"/><text class="annotation-text" text-anchor="middle" x="13.171875" y="12.5" style="font-family: 'Times New Roman'; font-size: 12px; fill: rgb(0, 0, 0); fill-opacity: 1; white-space: pre;">E 95</text></g></g></g><g class="annotation" data-index="3" style="opacity: 1;"><g class="annotation-text-g" transform="rotate(0,375.29,58.5)"><g class="cursor-pointer" transform="translate(362,50)"><rect class="bg" x="0.5" y="0.5" width="25" height="16" style="stroke-width: 1px; stroke: rgb(0, 0, 0); stroke-opacity: 0; fill: rgb(0, 0, 0); fill-opacity: 0;"/><text class="annotation-text" text-anchor="middle" x="13.171875" y="12.5" style="font-family: 'Times New Roman'; font-size: 12px; fill: rgb(0, 0, 0); fill-opacity: 1; white-space: pre;">E 90</text></g></g></g><g class="annotation" data-index="4" style="opacity: 1;"><g class="annotation-text-g" transform="rotate(0,476.39,58.5)"><g class="cursor-pointer" transform="translate(463,50)"><rect class="bg" x="0.5" y="0.5" width="25" height="16" style="stroke-width: 1px; stroke: rgb(0, 0, 0); stroke-opacity: 0; fill: rgb(0, 0, 0); fill-opacity: 0;"/><text class="annotation-text" text-anchor="middle" x="13.171875" y="12.5" style="font-family: 'Times New Roman'; font-size: 12px; fill: rgb(0, 0, 0); fill-opacity: 1; white-space: pre;">E 80</text></g></g></g><g class="annotation" data-index="5" style="opacity: 1;"><g class="annotation-text-g" transform="rotate(0,577.47,58.5)"><g class="cursor-pointer" transform="translate(564,50)"><rect class="bg" x="0.5" y="0.5" width="25" height="16" style="stroke-width: 1px; stroke: rgb(0, 0, 0); stroke-opacity: 0; fill: rgb(0, 0, 0); fill-opacity: 0;"/><text class="annotation-text" text-anchor="middle" x="13.171875" y="12.5" style="font-family: 'Times New Roman'; font-size: 12px; fill: rgb(0, 0, 0); fill-opacity: 1; white-space: pre;">E 50</text></g></g></g></g></svg>