<svg class="main-svg" xmlns="http://www.w3.org/2000/svg" xmlns:xlink="http://www.w3.org/1999/xlink" width="700" height="500" style="" viewBox="0 0 700 500"><rect x="0" y="0" width="700" height="500" style="fill: rgb(255, 255, 255); fill-opacity: 1;"/><defs id="defs-8499ea"><g class="clips"><clipPath id="clip8499eaxyplot" class="plotclip"><rect width="651" height="410"/></clipPath><clipPath class="axesclip" id="clip8499eax"><rect x="39" y="0" width="651" height="500"/></clipPath><clipPath class="axesclip" id="clip8499eay"><rect x="0" y="50" width="700" height="410"/></clipPath><clipPath class="axesclip" id="clip8499eaxy"><rect x="39" y="50" width="651" height="410"/></clipPath></g><g class="gradients"/><g class="patterns"/></defs><g class="bglayer"><rect class="bg" x="39" y="50" width="651" height="410" style="fill: rgb(229, 236, 246); fill-opacity: 1; stroke-width: 0;"/></g><g class="layer-below"><g class="imagelayer"/><g class="shapelayer"/></g><g class="cartesianlayer"><g class="subplot xy"><g class="layer-subplot"><g class="shapelayer"/><g class="imagelayer"/></g><g class="minor-gridlayer"><g class="x"/><g class="y"/></g><g class="gridlayer"><g class="x"><path class="xgrid crisp" transform="translate(111.08,0)" d="M0,50v410" style="stroke: rgb(255, 255, 255); stroke-opacity: 1; stroke-width: 1px;"/><path class="xgrid crisp" transform="translate(199.66,0)" d="M0,50v410" style="stroke: rgb(255, 255, 255); stroke-opacity: 1; stroke-width: 1px;"/><path class="xgrid crisp" transform="translate(288.23,0)" d="M0,50v410" style="stroke: rgb(255, 255, 255); stroke-opacity: 1; stroke-width: 1px;"/><path class="xgrid crisp" transform="translate(376.81,0)" d="M0,50v410" style="stroke: rgb(255, 255, 255); stroke-opacity: 1; stroke-width: 1px;"/><path class="xgrid crisp" transform="translate(465.39,0)" d="M0,50v410" style="stroke: rgb(255, 255, 255); stroke-opacity: 1; stroke-width: 1px;"/><path class="xgrid crisp" transform="translate(553.97,0)" d="M0,50v410" style="stroke: rgb(255, 255, 255); stroke-opacity: 1; stroke-width: 1px;"/><path class="xgrid crisp" transform="translate(642.55,0)" d="M0,50v410" style="stroke: rgb(255, 255, 255); stroke-opacity: 1; stroke-width: 1px;"/></g><g class="y"><path class="ygrid crisp" transform="translate(0,446.1)" d="M39,0h651" style="stroke: rgb(255, 255, 255); stroke-opacity: 1; stroke-width: 1px;"/><path class="ygrid crisp" transform="translate(0,397.02)" d="M39,0h651" style="stroke: rgb(255, 255, 255); stroke-opacity: 1; stroke-width: 1px;"/><path class="ygrid crisp" transform="translate(0,347.94)" d="M39,0h651" style="stroke: rgb(255, 255, 255); stroke-opacity: 1; stroke-width: 1px;"/><path class="ygrid crisp" transform="translate(0,298.86)" d="M39,0h651" style="stroke: rgb(255, 255, 255); stroke-opacity: 1; stroke-width: 1px;"/><path class="ygrid crisp" transform="translate(0,249.77)" d="M39,0h651" style="stroke: rgb(255, 255, 255); stroke-opacity: 1; stroke-width: 1px;"/><path class="ygrid crisp" transform="translate(0,200.69)" d="M39,0h651" style="stroke: rgb(255, 255, 255); stroke-opacity: 1; stroke-width: 1px;"/><path class="ygrid crisp" transform="translate(0,151.61)" d="M39,0h651" style="stroke: rgb(255, 255, 255); stroke-opacity: 1; stroke-width: 1px;"/><path class="ygrid crisp" transform="translate(0,53.45)" d="M39,0h651" style="stroke: rgb(255, 255, 255); stroke-opacity: 1; stroke-width: 1px;"/></g></g><g class="zerolinelayer"><path class="yzl zl crisp" transform="translate(0,102.53)" d="M39,0h651" style="stroke: rgb(255, 255, 255); stroke-opacity: 1; stroke-width: 2px;"/></g><g class="layer-between"><g class="shapelayer"/><g class="imagelayer"/></g><path class="xlines-below"/><path class="ylines-below"/><g class="overlines-below"/><g class="xaxislayer-below"/><g class="yaxislayer-below"/><g class="overaxes-below"/><g class="overplot"><g class="xy" transform="translate(39,50)" clip-path="url(#clip8499eaxyplot)"><g class="scatterlayer mlayer"><g class="trace scatter trace11f62f" style="stroke-miterlimit: 2; opacity: 1;"><g class="fills"/><g class="errorbars"/><g class="lines"><path class="js-line" d="M0,52.53L13.03,52.97L13.57,53.94L14.66,64.75L15.2,78.49L16.29,133.08L16.83,176.72L18.46,280.02L19,300.97L20.09,323.22L20.63,321.28L22.26,323.4L22.8,323.09L28.78,322.68L29.32,322.44L31.49,322.02L32.03,322.11L34.75,321.81L35.29,321.71L43.44,320.82L43.98,320.91L48.32,320.78L48.87,320.62L51.58,319.91L52.12,320.04L60.81,320.15L61.35,320.12L79.81,319.96L80.36,320.13L83.07,319.86L83.61,319.78L86.87,320.08L87.42,320.25L89.04,319.77L89.59,319.38L90.13,317.8L90.67,312.43L93.93,258.98L94.47,257.29L97.19,250.95L97.73,249.53L103.16,238.49L103.7,237.5L116.73,218.06L117.28,217.66L121.08,213.48L121.62,212.7L131.39,200.98L131.94,200.72L134.11,197.93L134.65,197.08L139,191.12L139.54,190.67L141.71,189.31L142.25,191.49L143.34,207.76L143.88,225.06L146.05,304.09L146.6,305.88L148.23,310.13L148.77,310.38L150.94,311.07L151.48,311.07L158,311.58L158.54,311.73L163.97,312.49L164.51,312.46L171.57,312.31L172.12,312.33L186.78,312.5L187.32,312.4L194.38,311.28L194.92,311.08L196.55,311.1L197.09,311.42L199.81,312.46L200.35,312.45L208.49,311.75L209.04,311.57L214.47,310.83L215.01,310.97L218.27,311.76L218.81,311.65L223.7,310.05L224.24,307.09L225.87,279.98L226.41,270.89L228.04,258.33L228.58,256.88L232.38,248.97L232.93,248.21L237.81,241.39L238.36,240.57L250.84,223.75L251.39,223.35L257.36,216.56L257.9,215.81L262.79,210.74L263.33,209.63L265.5,206.53L266.05,206.49L267.13,205.83L267.68,205.07L270.39,201.84L270.93,201.48L273.11,199.43L273.65,198.7L275.28,197.13L275.82,197.56L276.91,203.42L277.45,211.07L279.08,260.06L279.62,280.14L280.71,301.92L281.25,303.27L282.88,305.63L283.42,305.67L287.76,306.62L288.31,306.78L293.74,307.91L294.28,307.81L296.99,307.55L297.54,307.82L299.71,308.12L300.25,308.15L307.31,308.96L307.85,308.98L319.8,308.39L320.34,308.62L323.06,308.68L323.6,308.66L333.37,308.75L333.92,308.76L343.69,308.5L344.23,308.6L346.4,308.3L346.95,308L348.58,307.75L349.12,307.96L354.55,308.7L355.09,309.64L355.63,308.75L356.18,303.04L358.89,253.9L359.43,251.06L362.69,243.67L363.24,242.72L369.75,232.32L370.29,231.72L372.47,227.84L373.01,226.82L375.72,223.59L376.27,223.11L381.7,217.27L382.24,216.27L384.95,212.89L385.5,212.34L390.38,207.07L390.93,206.52L399.61,197.52L400.16,196.94L404.5,192.07L405.04,191.19L406.67,189.83L407.21,189.74L408.3,189.08L408.84,188.33L409.39,188.73L409.93,191.95L411.02,212.64L411.56,232.1L413.19,286.23L413.73,288.31L415.9,291.3L416.44,291.48L422.96,293.96L423.5,294.03L436.53,295.81L437.08,295.88L442.51,296.13L443.05,295.71L444.68,294.73L445.22,294.97L448.48,296.6L449.02,296.67L456.62,297.22L457.17,297.32L460.97,297.4L461.51,297.24L463.68,296.69L464.22,296.93L466.94,297.8L467.48,297.75L471.83,297.66L472.37,297.89L474.54,297.89L475.08,297.63L476.71,297.09L477.26,297.34L479.97,298.55L480.51,298.53L493,298.8L493.54,298.64L494.63,297.56L495.17,294.7L498.97,255.66L499.52,254.26L507.12,240.07L507.66,239.45L514.18,230.33L514.72,229.26L517.43,223.43L517.98,223.07L521.23,220.04L521.78,219.41L526.12,215.02L526.66,214.59L531.01,210.07L531.55,209.55L535.89,205.68L536.44,205.19L542.41,199.3L542.95,198.7L544.04,198.41L544.58,201.03L545.67,217.87L546.21,233.87L548.38,283.07L548.92,283.42L550.55,284.82L551.1,284.82L565.21,286.6L565.76,286.7L571.73,287.43L572.27,287.63L574.44,287.9L574.99,287.66L580.42,286.46L580.96,286.69L585.3,288L585.85,287.92L607.56,288.03L608.11,287.79L609.74,287.67L610.28,287.87L612.99,288.45L613.54,288.37L618.42,288.31L618.97,288.28L623.31,288.16L623.85,287.66L624.94,280.83L625.48,273.82L627.65,250.86L628.2,248.99L632.54,239.88L633.08,238.9L636.88,232.82L637.43,232.27L641.23,226.87L641.77,226.02L647.2,218.4L647.74,217.96L651,214.15" style="vector-effect: none; fill: none; stroke: rgb(99, 110, 250); stroke-opacity: 1; stroke-width: 2px; opacity: 1;"/></g><g class="points"/><g class="text"/></g><g class="trace scatter trace4c7272" style="stroke-miterlimit: 2; opacity: 1;"><g class="fills"/><g class="errorbars"/><g class="lines"><path class="js-line" d="M0,23.04L13.03,23.97L13.57,25.06L14.66,35.33L15.2,47.69L16.29,97.22L16.83,138.27L18.46,241.59L19,263.07L20.09,286.88L20.63,284.94L22.26,287.19L22.8,286.82L34.75,283.25L35.29,283.06L44.52,280.86L45.07,280.77L49.95,279.93L50.49,279.82L59.72,278L60.27,277.91L70.04,277.06L70.58,276.98L76.01,276.48L76.56,276.46L87.96,274.8L88.5,272.41L89.59,266.22L90.13,255.49L92.84,133L93.39,127.16L94.47,123.92L95.02,123.55L99.9,118.28L100.45,117.84L106.96,114.03L107.5,113.79L120.54,108.4L121.08,108.24L127.59,105.83L128.14,105.62L140.62,102.41L141.17,102.31L141.71,102.32L142.25,103.61L143.34,115.79L143.88,131.64L146.6,245.06L147.14,250.22L148.23,255.99L148.77,256.28L152.03,259.43L152.57,259.8L157.46,261.67L158,261.78L171.57,263.88L172.12,263.85L175.37,264.52L175.92,264.62L190.03,264.69L190.58,264.63L198.18,264.03L198.72,264.05L207.41,263.53L207.95,263.45L221.52,262.53L222.07,260.99L223.7,248.91L224.24,225.13L226.41,134.04L226.95,127.41L228.58,121.99L229.13,121.47L231.84,119.88L232.38,119.76L237.27,117.63L237.81,117.27L243.79,114.73L244.33,114.47L249.76,112.89L250.3,112.86L253.02,111.91L253.56,111.65L258.99,109.36L259.53,109.32L261.7,108.58L262.25,108.23L266.59,106.43L267.13,106.19L270.39,105.42L270.93,105.42L275.28,105.58L275.82,107.56L276.91,121.16L277.45,135.7L280.16,236.22L280.71,240.12L281.79,245.89L282.34,246.18L287.22,250.27L287.76,250.59L293.74,253.18L294.28,253.29L307.31,255.64L307.85,255.69L319.26,256.09L319.8,256.03L330.66,255.96L331.2,256.03L335.54,255.87L336.09,255.81L345.32,255.47L345.86,255.53L350.2,255.29L350.75,255.24L352.38,254.71L352.92,253.96L354.01,249.11L354.55,240.39L358.35,122.69L358.89,119.84L361.06,116.2L361.61,115.47L365.41,111.86L365.95,111.78L370.84,111.3L371.38,111.09L373.01,109.88L373.55,109.16L375.72,107.13L376.27,107.21L378.98,107.29L379.52,107.05L384.95,104.13L385.5,104.29L388.21,105.03L388.75,104.82L393.1,103.62L393.64,103.58L396.9,103.05L397.44,102.89L402.33,102.48L402.87,102.46L408.84,101.25L409.39,101.94L410.47,109.51L411.02,119.68L412.64,191.65L413.19,215.14L414.82,228.48L415.36,230.64L419.7,234.4L420.25,234.7L428.93,238.09L429.48,238.18L437.08,239.58L437.62,239.61L447.94,240.46L448.48,240.44L460.42,240.85L460.97,240.85L467.48,240.63L468.03,240.48L475.08,240.84L475.63,240.78L491.91,240.61L492.46,240.24L494.09,234.67L494.63,225.19L497.34,125.54L497.89,120.98L499.52,117.59L500.06,116.93L504.4,113.01L504.95,112.8L527.21,105.01L527.75,104.96L543.5,102.2L544.04,102.78L545.12,110.09L545.67,119.32L547.3,183.28L547.84,208.27L548.92,218.79L549.47,222.29L550.55,225.79L551.1,226.23L554.35,229.22L554.9,229.58L561.96,233.03L562.5,233.06L564.67,233.85L565.21,234.18L569.56,234.91L570.1,234.98L587.47,236.33L588.02,236.38L595.62,236.49L596.16,236.51L621.68,236.21L622.22,234.96L623.31,230.98L623.85,223.99L626.57,121.47L627.11,116.82L628.2,114.93L628.74,115.02L633.63,113.25L634.17,112.95L638.51,111.05L639.06,110.95L643.94,109.62L644.48,109.35L651,107.19" style="vector-effect: none; fill: none; stroke: rgb(239, 85, 59); stroke-opacity: 1; stroke-width: 2px; opacity: 1;"/></g><g class="points"/><g class="text"/></g><g class="trace scatter trace09c1c2" style="stroke-miterlimit: 2; opacity: 1;"><g class="fills"/><g class="errorbars"/><g class="lines"><path class="js-line" d="M0,44.16L3.26,44.74L3.8,44.8L12.49,45.77L13.03,47.75L14.12,62.33L14.66,78.68L16.29,184.89L16.83,241.18L17.92,282.24L18.46,334.84L19,384.36L19.55,373.63L20.09,374.06L21.18,389.5L21.72,387.41L22.26,386.78L22.8,387.44L24.98,387.65L25.52,387.59L38.01,384.37L38.55,384.46L41.81,384.34L42.35,384.17L45.07,383.69L45.61,383.8L48.32,383.42L48.87,383.16L52.12,381.4L52.67,381.5L56.47,381.8L57.01,381.62L59.18,381.67L59.72,381.74L64.61,380.93L65.15,380.95L71.13,379.82L71.67,379.87L82.53,378.75L83.07,378.63L86.33,378.05L86.87,377.77L90.13,376.56L90.67,372.84L93.39,329.26L93.93,328.63L95.56,329.36L96.1,328.45L100.45,319.88L100.99,319.17L109.68,306.96L110.22,306.32L121.62,294.7L122.16,294.13L130.31,286.04L130.85,285.45L141.71,276.39L142.25,275.51L142.8,275.64L143.34,277.7L144.43,297.87L144.97,317.28L146.6,355.98L147.14,357.12L148.77,360.62L149.31,361.28L153.11,365.72L153.66,365.94L158,367.58L158.54,367.53L165.6,368.3L166.14,368.13L169.4,367.68L169.94,367.88L173.2,369.09L173.74,368.94L186.23,366.95L186.78,367.01L190.03,367.26L190.58,367.22L200.35,367.49L200.89,367.41L205.78,366.46L206.32,366.43L220.44,364.84L220.98,364.4L223.7,362.41L224.24,359.37L226.95,327.97L227.5,327.16L229.13,326.17L229.67,325.19L232.93,320.07L233.47,319.47L243.24,307.85L243.79,307.41L259.53,292.72L260.07,292.38L266.05,287.49L266.59,286.72L269.3,284.53L269.85,284.26L273.11,282.02L273.65,281.58L275.82,280.91L276.36,283.56L277.45,297.52L277.99,309.96L279.62,345.09L280.16,345.19L280.71,344.82L281.25,346.44L282.88,348.32L283.42,348.87L286.14,350.26L286.68,350.61L289.94,352.52L290.48,352.82L294.28,355.14L294.82,355.11L296.99,354.7L297.54,355.07L299.71,356.09L300.25,356.17L312.2,357.99L312.74,357.85L316,357.2L316.54,357.34L318.71,357.4L319.26,357.17L321.97,356.68L322.51,356.64L327.4,356.37L327.94,356.55L331.74,357.1L332.29,356.82L335,356.5L335.54,356.47L338.8,356.25L339.35,356.02L341.52,356.1L342.06,356.18L345.32,356.87L345.86,357.1L348.03,356.83L348.58,356.56L351.83,355.27L352.38,355.2L354.01,354.75L354.55,353.68L355.63,344.32L356.18,336.19L357.81,320.71L358.35,319.5L360.52,317.83L361.06,316.74L365.95,307.74L366.49,307.67L368.12,306.94L368.66,306.17L371.92,302.54L372.47,301.85L375.72,295.04L376.27,295.54L377.35,296.12L377.89,295.8L380.61,292.28L381.15,291.11L383.87,286.48L384.41,286.4L387.67,287.8L388.21,287.51L403.41,277.65L403.96,277.39L408.3,275L408.84,276.13L409.93,284.19L410.47,292.01L413.19,328.05L413.73,329.74L415.36,331.54L415.9,331.88L420.79,335.52L421.33,335.7L432.73,340.52L433.28,340.47L435.45,340.11L435.99,340.34L438.16,340.52L438.71,340.48L442.51,341.22L443.05,341.35L449.56,342.41L450.11,342.47L453.91,342.84L454.45,343L457.17,342.73L457.71,342.62L460.42,342.83L460.97,343.02L464.77,343.4L465.31,343.37L470.2,342.8L470.74,343.02L474,343.51L474.54,343.31L477.26,343.08L477.8,343.25L481.06,343.78L481.6,343.47L483.77,343.11L484.31,343.34L488.11,344.08L488.66,344.03L494.09,343.7L494.63,343.15L495.72,331.99L496.26,323.83L497.34,315.36L497.89,315.8L500.06,319.56L500.6,319.12L509.83,305.54L510.38,304.99L521.23,294.26L521.78,293.92L529.38,288.91L529.92,288.46L539.15,282L539.69,281.83L544.04,279.4L544.58,280.25L545.67,285.86L546.21,291.81L548.38,320.72L548.92,320.82L552.18,324.11L552.73,324.48L558.7,327.98L559.24,328.07L561.96,328.92L562.5,329.25L567.39,331.03L567.93,331.1L572.27,332.66L572.81,332.85L576.62,333.9L577.16,333.81L587.47,333.23L588.02,333.29L593.99,333.89L594.53,334.16L596.16,334.46L596.7,334.18L598.88,333.3L599.42,333.37L604.85,333.4L605.39,333.15L607.02,333.15L607.56,333.41L612.45,334.18L612.99,334.01L615.17,333.77L615.71,333.97L618.42,333.94L618.97,333.76L623.85,332.3L624.4,329.01L626.57,301.79L627.11,303.28L629.28,312.15L629.82,312.3L630.91,311.5L631.45,310.7L635.25,305.78L635.8,305.23L642.31,297.97L642.86,297.57L651,291.35" style="vector-effect: none; fill: none; stroke: rgb(0, 204, 150); stroke-opacity: 1; stroke-width: 2px; opacity: 1;"/></g><g class="points"/><g class="text"/></g><g class="trace scatter tracee3bdda" style="stroke-miterlimit: 2; opacity: 1;"><g class="fills"/><g class="errorbars"/><g class="lines"><path class="js-line" d="M0,22.41L11.94,22.61L12.49,22.89L13.03,24.76L13.57,29.77L14.66,56.25L15.2,81.67L17.92,246.62L18.46,270.79L19,282.66L19.55,280.91L20.09,280.73L21.18,282.71L21.72,282.18L24.43,281.42L24.98,281.33L28.78,279.9L29.32,279.72L55.38,273.87L55.92,273.83L87.96,269.47L88.5,268.49L90.13,258.38L90.67,238.75L92.84,137.79L93.39,129.48L94.47,123.99L95.02,123.58L101.53,118.33L102.08,118.06L119.99,110.82L120.54,110.65L132.48,106.92L133.02,106.89L139.54,105.22L140.08,105L142.25,104.84L142.8,107.19L143.88,124.32L144.43,144.02L146.6,239.42L147.14,242.83L148.77,250.6L149.31,251.05L152.03,253.28L152.57,253.58L161.26,257.18L161.8,257.27L168.86,258.14L169.4,258.18L179.17,258.99L179.72,258.92L184.06,258.84L184.6,258.79L220.98,256.56L221.52,255.62L222.61,251.76L223.15,243.94L226.95,125.71L227.5,123.48L229.13,122.02L229.67,121.73L234.01,119.98L234.56,119.82L237.81,118.71L238.36,118.48L250.3,114.61L250.84,114.35L255.73,112.56L256.27,112.42L262.25,110.44L262.79,110.14L269.85,107.49L270.39,107.49L275.28,107.91L275.82,108.7L276.91,118.36L277.45,129.67L280.16,231.88L280.71,233.44L282.34,240.58L282.88,240.88L286.14,243.64L286.68,243.93L294.28,247.21L294.82,247.28L310.57,249.57L311.11,249.62L334.46,249.38L335,249.31L342.6,249.21L343.15,249.18L352.38,248.47L352.92,247.5L354.01,244.09L354.55,237.49L357.81,126.84L358.35,121.92L359.98,117.67L360.52,117.2L365.41,112.84L365.95,112.85L368.12,112.99L368.66,112.74L373.55,109.79L374.09,108.98L375.72,107.71L376.27,107.9L378.44,108.25L378.98,108.03L382.78,105.6L383.32,105.23L384.95,105.21L385.5,105.62L387.67,106.5L388.21,106.48L396.9,104.57L397.44,104.33L401.24,103.88L401.78,103.78L408.3,103.97L408.84,106.14L409.93,120.58L410.47,135.82L412.64,217.09L413.19,218.37L414.82,224.87L415.36,225.28L418.62,228.36L419.16,228.66L426.76,231.93L427.3,232.18L431.1,232.97L431.65,233.01L436.53,233.91L437.08,233.97L453.37,235.02L453.91,235.1L463.14,235.21L463.68,235.21L482.14,235.57L482.68,235.53L492.46,235.35L493,234.57L494.63,227.4L495.17,210.9L497.34,127.67L497.89,121.83L498.97,118.19L499.52,117.81L503.86,114.51L504.4,114.18L510.92,111.5L511.46,111.35L519.06,108.85L519.61,108.6L523.41,107.68L523.95,107.63L544.04,104.14L544.58,105.47L545.67,115.42L546.21,127.16L548.92,214.11L549.47,216.67L550.55,221.02L551.1,221.39L556.53,225.51L557.07,225.76L563.58,228.07L564.13,228.2L569.56,229.55L570.1,229.64L581.5,230.92L582.05,230.94L621.68,231.61L622.22,231L623.85,224.69L624.4,211.19L626.57,123.88L627.11,117.59L628.2,114.93L628.74,115.4L630.91,115.78L631.45,115.69L640.68,113.02L641.23,112.9L651,110.21" style="vector-effect: none; fill: none; stroke: rgb(171, 99, 250); stroke-opacity: 1; stroke-width: 2px; opacity: 1;"/></g><g class="points"/><g class="text"/></g><g class="trace scatter trace19fc40" style="stroke-miterlimit: 2; opacity: 1;"><g class="fills"/><g class="errorbars"/><g class="lines"><path class="js-line" d="M0,27.7L8.69,28.46L9.23,28.41L12.49,28.53L13.03,30.25L14.12,44.24L14.66,60.4L16.29,167.74L16.83,224.4L19,329.36L19.55,325.18L20.09,324.8L21.18,330.52L21.72,329.47L23.35,328.65L23.89,328.38L30.95,325.8L31.49,325.7L36.38,324L36.92,323.74L41.81,322.42L42.35,322.4L45.07,321.68L45.61,321.4L50.49,319.99L51.04,319.87L64.07,317.68L64.61,317.58L80.36,315.37L80.9,315.35L86.87,314.59L87.42,314.46L87.96,314.59L88.5,313.36L90.13,301.61L90.67,279.62L92.84,175.93L93.39,168.24L94.47,163.27L95.02,162.71L99.9,156.6L100.45,156.12L108.05,150.19L108.59,149.85L114.02,146.5L114.56,146.45L117.28,144.94L117.82,144.64L131.94,138.59L132.48,138.44L141.17,135.99L141.71,135.44L142.25,135.24L142.8,136.71L143.88,151.41L144.43,170.42L146.6,278.91L147.14,283.03L148.23,292.73L148.77,293.22L153.66,296.96L154.2,297.13L165.06,300.18L165.6,300.33L169.4,300.53L169.94,300.52L178.09,300.76L178.63,300.81L185.15,300.67L185.69,300.64L193.83,300.13L194.38,300.12L206.32,299.67L206.86,299.57L217.72,298.45L218.27,298.5L220.44,298.31L220.98,297.91L222.07,294.98L222.61,292.53L223.7,266.28L224.24,240.84L226.41,171.11L226.95,166.83L228.58,163.81L229.13,163.36L231.84,161.31L232.38,161.2L236.73,159L237.27,158.58L239.98,156.96L240.53,156.79L245.41,153.94L245.96,153.66L271.48,141.82L272.02,141.78L275.28,141.95L275.82,142.61L276.91,151.84L277.45,162.71L279.08,231.66L279.62,260.8L281.25,277.48L281.79,281.03L285.59,284.28L286.14,284.7L289.94,286.63L290.48,286.86L299.71,289.65L300.25,289.82L306.23,290.76L306.77,290.69L309.48,290.74L310.03,290.91L313.28,290.97L313.83,290.96L338.8,290.17L339.35,290.06L344.23,289.96L344.77,289.95L352.38,289.32L352.92,288.3L354.01,284.43L354.55,277.27L357.81,165.88L358.35,161.5L359.98,157.91L360.52,157.43L365.95,151.87L366.49,151.82L368.66,151.25L369.21,150.91L373.01,147.85L373.55,146.82L375.18,144.28L375.72,144.26L378.44,144.92L378.98,144.63L384.41,140.9L384.95,141.1L387.13,141.69L387.67,141.57L401.78,138.14L402.33,138.26L404.5,138.39L405.04,138.18L407.76,137.52L408.3,137.88L409.39,144.36L409.93,152.73L411.56,212.8L412.1,239.53L413.19,253.47L413.73,256.67L414.82,261L415.36,261.34L419.7,265.89L420.25,266.27L428.39,270.68L428.93,270.73L433.28,271.4L433.82,271.52L442.51,272.71L443.05,272.74L460.42,273.39L460.97,273.35L469.65,273.33L470.2,273.46L477.8,273.6L478.34,273.59L487.03,273.38L487.57,273.51L490.83,273.26L491.37,273.07L493,272.19L493.54,270.05L494.63,264.86L495.17,248.13L497.34,166.52L497.89,161.88L498.97,159.75L499.52,159.69L506.03,153.81L506.57,153.35L510.38,151.13L510.92,150.95L514.18,149.39L514.72,148.94L517.43,147.71L517.98,147.53L524.49,144.36L525.04,144.13L528.84,142.22L529.38,142.07L542.95,138.56L543.5,138.43L544.04,138.49L544.58,139.61L545.67,148.47L546.21,159.13L548.92,247.6L549.47,250.32L551.1,255.91L551.64,256.58L553.81,258.71L554.35,259.06L561.41,263.12L561.96,263.27L579.87,267.34L580.42,267.38L599.42,268.06L599.96,268.05L607.56,267.61L608.11,267.63L622.22,267.19L622.77,265.13L623.85,260.76L624.4,247L626.57,161.19L627.11,156.14L627.65,154.78L628.2,155.14L628.74,156.04L630.91,157.21L631.45,157.14L634.17,155.4L634.71,155.02L638.51,153.01L639.06,152.84L643.94,151.05L644.48,150.79L651,148.05" style="vector-effect: none; fill: none; stroke: rgb(255, 161, 90); stroke-opacity: 1; stroke-width: 2px; opacity: 1;"/></g><g class="points"/><g class="text"/></g><g class="trace scatter trace9b9311" style="stroke-miterlimit: 2; opacity: 1;"><g class="fills"/><g class="errorbars"/><g class="lines"><path class="js-line" d="M0,23.88L12.49,24.64L13.03,25.86L14.12,36.84L14.66,50.05L15.75,101.19L16.29,145.07L17.92,244.06L18.46,275.13L19,301.69L19.55,301.31L20.09,299.2L21.18,303.57L21.72,302.97L24.43,300.92L24.98,300.48L29.32,298.19L29.86,297.96L35.29,295.88L35.83,295.63L41.81,293.74L42.35,293.66L51.58,291.06L52.12,290.66L54.84,289.3L55.38,289.15L60.81,287.9L61.35,287.91L74.93,285.7L75.47,285.6L87.96,283.58L88.5,282.97L89.59,277.63L90.13,271.81L91.76,208.68L92.3,190.45L93.93,169.84L94.47,169.01L95.56,168.56L96.1,167.79L100.45,162.19L100.99,161.62L108.05,156.06L108.59,155.78L125.42,146.85L125.96,146.71L128.68,145.66L129.22,145.28L134.11,142.94L134.65,142.78L138.45,141.7L139,141.5L142.8,140.19L143.34,142.65L144.43,164.51L144.97,188.5L146.6,263.88L147.14,265.31L148.77,271.97L149.31,271.78L154.2,272.95L154.74,272.98L167.23,273.56L167.77,273.47L185.15,273.14L185.69,273.07L220.98,269.78L221.52,269.04L222.61,266.72L223.15,262.34L226.41,176.81L226.95,175L228.04,175.53L228.58,176.04L229.67,176L230.21,175.56L231.84,174.66L232.38,174.64L234.01,173.66L234.56,173.12L239.44,170.15L239.98,169.87L243.24,167.43L243.79,167.02L255.19,160.87L255.73,160.64L261.7,156.96L262.25,156.49L264.42,155.58L264.96,155.5L267.13,154.11L267.68,153.6L270.39,152.21L270.93,152.04L273.65,152.25L274.19,152.34L275.82,152.48L276.36,154.49L277.45,167.55L277.99,181.53L280.16,257.08L280.71,256.32L282.34,261.18L282.88,261.04L287.76,262.54L288.31,262.53L297.54,263.17L298.08,263.38L301.34,263.93L301.88,263.98L306.23,263.87L306.77,263.82L317.63,263.52L318.17,263.56L344.77,262L345.32,262.02L349.12,261.52L349.66,261.38L352.92,260.22L353.46,258.93L354.01,257.92L354.55,254.98L356.18,202.22L356.72,186.27L358.35,170.06L358.89,170.02L360.52,171.15L361.06,171.03L362.69,169.38L363.24,168.52L365.41,165.77L365.95,165.67L368.12,165.25L368.66,164.87L373.55,160.69L374.09,159.49L375.72,157.48L376.27,157.84L377.89,158.26L378.44,157.8L383.87,152.31L384.41,152.45L387.67,154.07L388.21,153.97L401.78,150.23L402.33,150.3L405.04,149.88L405.59,149.63L407.76,148.96L408.3,149.05L408.84,150.09L409.39,152.94L410.47,168.64L411.02,184.62L412.64,238.47L413.19,238.93L414.82,242.47L415.36,242.4L417.53,243.59L418.07,243.95L422.42,246.07L422.96,246.12L434.36,247.92L434.9,247.91L440.88,248.09L441.42,248.03L444.68,248.16L445.22,248.36L449.02,248.51L449.56,248.53L458.79,248.72L459.34,248.84L462.05,248.73L462.6,248.59L466.94,247.71L467.48,247.62L469.65,247.56L470.2,247.81L471.83,247.73L472.37,247.51L476.17,247.36L476.71,247.41L483.77,247.59L484.31,247.4L487.57,246.89L488.11,246.95L492.46,246.67L493,246.31L494.63,243.58L495.17,236.17L497.89,173.55L498.43,173.13L500.6,175.27L501.15,175.01L516.35,163.51L516.89,163.35L519.06,161.96L519.61,161.42L522.32,159.75L522.86,159.64L525.04,158.7L525.58,158.23L527.75,157.04L528.29,157.06L530.46,156.55L531.01,156.35L535.35,155.13L535.89,154.86L542.95,152.05L543.5,151.99L544.58,152.59L545.12,154.59L546.21,166.19L546.75,178.34L548.92,230.92L549.47,231.85L551.1,234.66L551.64,234.84L556.53,236.81L557.07,236.87L560.87,238.03L561.41,238.15L571.19,239.46L571.73,239.43L576.07,239.75L576.62,239.95L579.87,239.88L580.42,239.87L594.53,240.12L595.08,240.23L597.79,240.11L598.33,239.97L603.76,239.47L604.31,239.46L617.34,239.17L617.88,239.22L622.22,239.23L622.77,238.33L623.85,236.42L624.4,230.92L627.11,166.31L627.65,166.24L630.37,172.24L630.91,172.7L632.54,172.76L633.08,172.48L639.6,168.37L640.14,168.34L642.31,167.5L642.86,167.15L651,163.06" style="vector-effect: none; fill: none; stroke: rgb(25, 211, 243); stroke-opacity: 1; stroke-width: 2px; opacity: 1;"/></g><g class="points"/><g class="text"/></g><g class="trace scatter trace9ae6e6" style="stroke-miterlimit: 2; opacity: 1;"><g class="fills"/><g class="errorbars"/><g class="lines"><path class="js-line" d="M0,22.18L12.49,22.58L13.03,23.47L14.12,32.6L14.66,43.77L15.75,89.12L16.29,128.53L17.92,233.09L18.46,258.86L19.55,290.57L20.09,287.1L21.18,290.12L21.72,289.61L22.26,288.85L26.6,286.4L27.15,286L30.95,284.11L31.49,283.96L42.35,279.69L42.89,279.3L45.61,278.15L46.15,278.03L57.55,275.34L58.1,275.28L87.42,270.57L87.96,270.07L89.04,267.63L89.59,263.43L90.67,234.31L91.22,210.91L92.84,166.75L93.39,162.51L94.47,161.21L95.02,161.51L96.1,161.16L96.65,160.54L105.33,151.82L105.88,151.55L111.85,147.96L112.39,147.66L135.2,137.92L135.74,137.85L139.54,136.93L140.08,136.68L141.71,136.1L142.25,135.23L142.8,134.9L143.34,136.28L143.88,141.37L144.43,153.74L147.14,253.94L147.68,257.15L148.77,260.46L149.31,260.19L159.09,261.36L159.63,261.29L163.97,261.21L164.51,261.36L167.23,261.39L167.77,261.32L182.43,260.66L182.97,260.74L187.86,260.4L188.4,260.27L195.46,259.49L196.01,259.44L220.98,257.11L221.52,256.41L223.15,250.9L223.7,239.15L225.87,173.12L226.41,168.8L226.95,167.63L227.5,168.23L229.13,170.32L229.67,170.14L231.84,169.12L232.38,169.26L234.01,168.74L234.56,168.33L251.39,158.82L251.93,158.31L258.99,154.11L259.53,153.95L261.7,153.05L262.25,152.54L264.42,151.41L264.96,151.42L266.59,150.77L267.13,150.22L269.85,147.98L270.39,147.89L273.11,148.06L273.65,148.19L276.36,148.85L276.91,151.37L277.99,167.31L278.53,184.3L280.16,244.76L280.71,245.05L282.34,249.44L282.88,249.21L286.68,249.79L287.22,249.94L291.57,250.32L292.11,250.31L295.37,250.7L295.91,250.72L301.88,251.22L302.42,251.26L308.4,250.92L308.94,250.86L320.88,250.17L321.43,250L327.4,250.2L327.94,250.23L337.17,249.52L337.72,249.46L342.6,249.16L343.15,249.15L352.92,247.78L353.46,246.53L354.55,243.69L355.09,233.64L357.26,168.31L357.81,164.12L358.35,162.92L358.89,163.44L359.43,164.41L361.06,165.2L361.61,164.9L363.78,162.56L364.32,161.85L365.95,161.17L366.49,161.31L368.12,160.97L368.66,160.67L371.92,158.15L372.47,157.75L374.09,154.96L374.64,153.56L375.72,152.48L376.27,152.91L377.89,153.79L378.44,153.43L381.15,150.54L381.7,149.57L383.32,147.76L383.87,147.81L387.67,150.06L388.21,149.95L400.7,146.02L401.24,146.01L406.13,145.16L406.67,145.04L408.84,145.19L409.39,147.04L410.47,159.18L411.02,172.89L413.19,228.76L413.73,229.01L414.82,231.11L415.36,231.04L417.53,231.94L418.07,232.27L420.79,233.38L421.33,233.41L434.36,235.69L434.9,235.74L441.42,235.86L441.96,235.78L447.94,236.16L448.48,236.21L453.91,235.89L454.45,235.9L460.42,236L460.97,235.85L465.85,235.03L466.4,234.99L477.26,234.72L477.8,234.79L483.23,234.67L483.77,234.64L488.66,234.56L489.2,234.58L493,234.03L493.54,233.21L494.63,231.49L495.17,226.67L497.89,167.49L498.43,167.13L500.6,170.52L501.15,170.39L507.66,165.81L508.2,165.4L522.32,155.8L522.86,155.79L525.04,155.26L525.58,154.86L528.29,153.1L528.84,153.04L535.35,150.95L535.89,150.8L544.04,147.64L544.58,147.8L545.67,151.9L546.21,157.8L547.84,200.48L548.38,215.01L549.47,219.81L550.01,221.27L551.1,222.41L551.64,222.53L555.98,224.42L556.53,224.47L571.19,226.7L571.73,226.68L574.99,227L575.53,227.24L577.7,227.38L578.24,227.27L585.3,226.74L585.85,226.79L596.7,227.35L597.25,227.25L605.39,226.3L605.93,226.35L619.51,226.12L620.05,226.11L622.77,225.49L623.31,224.25L623.85,223.5L624.4,220.31L627.11,160.68L627.65,160.37L630.91,167.86L631.45,168.21L633.08,167.78L633.63,167.36L636.88,165.54L637.43,165.36L643.94,162.76L644.48,162.36L647.74,160.91L648.29,160.67L651,159.09" style="vector-effect: none; fill: none; stroke: rgb(255, 102, 146); stroke-opacity: 1; stroke-width: 2px; opacity: 1;"/></g><g class="points"/><g class="text"/></g><g class="trace scatter tracedb10d3" style="stroke-miterlimit: 2; opacity: 1;"><g class="fills"/><g class="errorbars"/><g class="lines"><path class="js-line" d="M0,21.2L8.69,21.1L9.23,21.13L12.49,20.5L13.03,21.4L14.12,31.43L14.66,43.64L15.75,92.17L16.29,132.42L17.92,230.85L18.46,250.38L19.55,271.41L20.09,269.28L21.72,270.76L22.26,270.3L39.09,264.69L39.64,264.54L60.27,260.14L60.81,260.1L65.7,259.68L66.24,259.53L70.04,259.01L70.58,258.98L77.64,258.11L78.19,258.04L87.42,256.78L87.96,255.71L89.04,250.89L89.59,243L93.39,107.2L93.93,104.26L95.56,102.05L96.1,101.42L99.9,98.09L100.45,97.74L109.13,92.46L109.68,92.26L130.31,85.94L130.85,85.83L142.25,83.4L142.8,84.28L143.88,95.17L144.43,110.38L147.14,227.51L147.68,232.71L148.77,238.73L149.31,238.93L152.57,241.58L153.11,241.85L161.8,244.4L162.34,244.53L167.23,245.1L167.77,245.11L191.12,245.24L191.66,245.15L200.89,244.71L201.44,244.67L220.98,243.12L221.52,242.1L222.61,237.41L223.15,231.86L226.41,110.97L226.95,106.09L228.58,102.59L229.13,102.29L234.01,100.08L234.56,99.84L251.39,94.23L251.93,94.01L266.59,89.08L267.13,88.96L272.02,87.3L272.56,87.26L275.28,87.79L275.82,87.97L276.36,89.27L276.91,92.87L277.99,113.26L278.53,133.81L280.71,218.37L281.25,221.86L282.34,227.89L282.88,228.11L286.68,230.98L287.22,231.33L291.57,233.12L292.11,233.29L305.14,235.75L305.68,235.79L320.34,236.06L320.88,236L344.23,235.44L344.77,235.46L352.38,235.35L352.92,234.51L354.55,226.28L355.09,210.31L357.81,107.88L358.35,102.82L359.98,98.62L360.52,98.19L363.78,94.73L364.32,94.1L365.95,93.81L366.49,94.06L368.12,94.09L368.66,93.85L373.55,90.81L374.09,89.99L375.72,88.54L376.27,88.83L377.89,89.52L378.44,89.32L381.7,87.05L382.24,86.53L384.41,85.82L384.95,85.93L388.75,87L389.3,86.86L394.18,85.7L394.73,85.75L402.33,84.73L402.87,84.69L408.3,84.62L408.84,85.52L409.93,94.13L410.47,104.93L413.19,203.75L413.73,205.95L415.36,211.7L415.9,212.09L418.62,214.18L419.16,214.47L426.76,217.62L427.3,217.78L441.96,219.96L442.51,219.95L449.02,220.13L449.56,220.19L491.37,220.64L491.91,220.47L493,220.26L493.54,218.58L494.63,214.48L495.17,204.7L497.89,105.17L498.43,101.45L499.52,99.93L500.06,99.72L506.03,95.4L506.57,95.14L515.26,92L515.8,91.88L520.15,90.14L520.69,89.88L528.29,88.26L528.84,88.28L534.81,87.06L535.35,86.88L542.41,85.86L542.95,85.82L544.58,86.07L545.12,88.07L546.21,101.03L546.75,115.65L548.92,199.67L549.47,201.71L551.1,208.12L551.64,208.35L555.98,211.31L556.53,211.55L564.13,214.34L564.67,214.5L573.36,216.14L573.9,216.16L599.96,217.04L600.51,217.03L622.22,216.89L622.77,215.36L623.85,210.92L624.4,203.86L627.11,102.65L627.65,98.37L628.74,96.68L629.28,96.91L633.08,96.55L633.63,96.36L646.66,92.78L647.2,92.66L651,90.95" style="vector-effect: none; fill: none; stroke: rgb(182, 232, 128); stroke-opacity: 1; stroke-width: 2px; opacity: 1;"/></g><g class="points"/><g class="text"/></g><g class="trace scatter traceffeacc" style="stroke-miterlimit: 2; opacity: 1;"><g class="fills"/><g class="errorbars"/><g class="lines"><path class="js-line" d="M0,22.11L2.71,22.31L3.26,22.36L12.49,22.27L13.03,22.89L14.12,30.91L14.66,41.31L15.75,85.86L16.29,123.7L17.92,236.15L18.46,255.95L19.55,290.43L20.09,287.32L21.72,289.98L22.26,289.37L29.32,286.92L29.86,286.7L39.64,283.72L40.18,283.59L59.72,279.72L60.27,279.62L76.56,277.96L77.1,277.9L87.42,276.56L87.96,274.59L89.59,257.03L90.13,229.04L92.3,119.53L92.84,109.17L94.47,97.67L95.02,96L98.27,88.78L98.82,87.98L103.16,82.87L103.7,82.43L112.93,76.04L113.48,75.71L118.36,73.77L118.91,73.63L122.71,72.03L123.25,71.81L135.74,67.87L136.28,67.89L139.54,67.51L140.08,67.4L142.8,67.6L143.34,70.53L144.43,91.89L144.97,115.84L147.14,237.15L147.68,245.06L148.77,258.26L149.31,258.19L153.66,262.14L154.2,262.37L163.43,264.84L163.97,264.89L178.09,265.55L178.63,265.51L194.92,265.43L195.46,265.4L208.49,264.57L209.04,264.57L219.35,263.99L219.9,263.78L220.98,263.75L221.52,262.42L223.15,248.88L223.7,225.74L225.87,117.88L226.41,107.36L228.04,94.65L228.58,92.93L231.3,88.29L231.84,87.64L235.64,84.02L236.18,83.75L251.39,75.97L251.93,75.77L263.87,72.15L264.42,71.97L268.76,70.22L269.3,69.94L272.02,69.87L272.56,69.95L276.36,70.37L276.91,72.88L277.99,90.46L278.53,110.81L280.71,229.3L281.25,234.8L282.34,247.54L282.88,248.01L291.02,254.14L291.57,254.33L304.6,257.65L305.14,257.67L328.49,258L329.03,257.91L337.17,257.58L337.72,257.55L352.92,256.17L353.46,252.82L354.55,244.59L355.09,225.75L357.26,115.6L357.81,104.8L359.43,92.12L359.98,90.24L362.69,83.88L363.24,82.85L365.41,79.81L365.95,79.63L369.21,78.24L369.75,77.96L373.01,75.79L373.55,75.22L375.72,73.67L376.27,73.72L378.44,73.24L378.98,72.97L384.95,69.98L385.5,70.07L389.84,70.1L390.38,69.89L393.1,69.15L393.64,69.31L395.81,69.16L396.36,68.9L399.07,68.42L399.61,68.46L405.59,67.84L406.13,67.72L408.3,67.82L408.84,68.49L409.93,75.97L410.47,85.91L411.56,128.96L412.1,163.53L413.19,214.43L413.73,217.93L415.36,230.2L415.9,230.7L418.07,233.96L418.62,234.43L424.05,237.5L424.59,237.78L428.39,239.08L428.93,239.17L449.02,241.68L449.56,241.66L459.34,242.1L459.88,242.23L462.05,242.05L462.6,241.83L464.77,241.84L465.31,241.93L473.45,242.14L474,242.09L483.23,241.75L483.77,241.77L491.91,241.71L492.46,241.21L493.54,237.79L494.09,232.27L495.17,199.76L495.72,171.79L497.89,100.61L498.43,94.82L500.06,88.31L500.6,87.37L506.03,79.95L506.57,79.54L520.15,72.68L520.69,72.52L527.75,70.88L528.29,70.7L532.64,69.92L533.18,69.99L535.89,69.36L536.44,69.17L540.24,68.55L540.78,68.62L543.5,69.49L544.04,71.97L545.12,88.47L545.67,105.7L548.38,213.56L548.92,218.27L550.01,224.96L550.55,225.32L553.81,229.41L554.35,230.02L557.61,232.57L558.16,232.85L564.67,235.27L565.21,235.38L574.44,236.95L574.99,237.03L587.47,237.93L588.02,237.91L621.68,237.77L622.22,237.2L623.31,231.14L623.85,223.4L624.94,181.87L625.48,152.91L627.11,100.45L627.65,93.88L629.28,86.78L629.82,85.7L633.08,81.39L633.63,80.78L637.43,77.85L637.97,77.65L645.03,75.52L645.57,75.16L649.91,73.65L650.46,73.53L651,73.42" style="vector-effect: none; fill: none; stroke: rgb(255, 151, 255); stroke-opacity: 1; stroke-width: 2px; opacity: 1;"/></g><g class="points"/><g class="text"/></g><g class="trace scatter tracedb3015" style="stroke-miterlimit: 2; opacity: 1;"><g class="fills"/><g class="errorbars"/><g class="lines"><path class="js-line" d="M0,23.21L4.34,23.52L4.89,23.44L10.86,22.83L11.4,22.88L13.03,23.48L13.57,25.34L14.66,38.8L15.2,54.25L16.29,112.3L16.83,161.71L17.92,232.96L18.46,249.51L19.55,290.88L20.09,288.4L20.63,288.29L21.18,290.41L21.72,290.94L22.26,290.38L27.15,288.51L27.69,288.38L53.21,281.72L53.75,281.66L65.15,280.31L65.7,280.25L87.42,277.8L87.96,276.13L89.59,260.51L90.13,233.89L92.3,119.07L92.84,109.05L94.47,99.64L95.02,98.29L99.36,88.78L99.9,88.03L104.79,83.52L105.33,83.19L108.05,81.06L108.59,80.56L112.93,78.02L113.48,77.84L116.19,76.05L116.73,75.64L120.54,74.24L121.08,74.05L127.59,71.31L128.14,71L131.39,70.3L131.94,70.2L135.74,69L136.28,68.78L141.17,68.03L141.71,68.63L142.8,77.57L143.34,90.05L144.97,182.53L145.51,222.43L147.68,258.46L148.23,258.92L150.4,261.41L150.94,261.86L154.2,263.94L154.74,264.08L168.86,266.85L169.4,266.86L187.86,266.86L188.4,266.8L205.24,265.99L205.78,265.99L219.9,264.76L220.44,264.63L220.98,264.88L221.52,264L223.15,251.42L223.7,231.42L225.87,118.79L226.41,108.08L228.04,96.04L228.58,94.57L231.84,88.94L232.38,88.26L235.64,85.46L236.18,85.12L243.24,80.85L243.79,80.67L254.1,75.97L254.64,75.79L264.42,72.46L264.96,72.4L267.68,71.66L268.22,71.27L270.39,70.53L270.93,70.46L274.19,70.68L274.73,70.78L276.36,70.78L276.91,72.32L277.99,85.87L278.53,103.46L281.25,234.38L281.79,243.03L282.88,250.08L283.42,250.22L286.14,253.16L286.68,253.66L289.39,255.11L289.94,255.26L299.17,258.24L299.71,258.38L304.6,258.98L305.14,259.02L339.89,258.7L340.43,258.67L352.92,257.62L353.46,254.47L354.55,246.2L355.09,231.39L357.81,106.05L358.35,99.59L359.98,92.14L360.52,90.63L364.86,80.7L365.41,80.53L368.66,80.09L369.21,79.77L373.55,76.81L374.09,76.09L375.72,74.64L376.27,74.74L378.44,75.24L378.98,74.96L381.15,72.84L381.7,71.98L383.87,69.82L384.41,69.85L388.75,71.45L389.3,71.24L394.18,70.42L394.73,70.48L402.33,69.23L402.87,69.17L408.84,69.04L409.39,70.66L410.47,82.49L411.02,97.07L413.73,218.15L414.27,224.62L415.36,232.11L415.9,232.26L419.16,236.57L419.7,236.94L426.76,239.95L427.3,240.13L434.36,241.81L434.9,241.81L442.51,242.62L443.05,242.81L447.39,242.95L447.94,243.03L456.08,242.93L456.62,242.86L459.88,243.43L460.42,243.49L491.91,243.18L492.46,242.12L494.09,231.46L494.63,211.49L496.8,113.58L497.34,103.84L498.97,92.25L499.52,90.69L503.32,84.1L503.86,83.53L508.2,80.14L508.75,79.96L522.32,73.14L522.86,73.11L526.66,72.28L527.21,72.07L532.64,70.78L533.18,70.83L542.41,69.32L542.95,69.43L543.5,69.75L544.04,71.34L545.12,82.71L545.67,95.98L547.3,180.99L547.84,207.79L550.01,227.02L550.55,227.41L555.44,232.06L555.98,232.43L560.33,235.1L560.87,235.28L570.1,237.74L570.64,237.79L576.62,238.4L577.16,238.57L580.96,238.95L581.5,238.93L615.71,239.14L616.25,239.06L621.68,238.29L622.22,236.02L623.31,229.39L623.85,212.84L626.57,102.01L627.11,95.8L628.74,88.67L629.28,87.4L632,83.55L632.54,82.95L636.34,79.65L636.88,79.48L640.14,78.23L640.68,77.99L650.46,74.08L651,73.87" style="vector-effect: none; fill: none; stroke: rgb(254, 203, 82); stroke-opacity: 1; stroke-width: 2px; opacity: 1;"/></g><g class="points"/><g class="text"/></g></g></g></g><g class="zerolinelayer-above"/><path class="xlines-above crisp" d="M0,0" style="fill: none;"/><path class="ylines-above crisp" d="M0,0" style="fill: none;"/><g class="overlines-above"/><g class="xaxislayer-above"><g class="xtick"><text text-anchor="middle" x="0" y="473" transform="translate(111.08,0)" style="font-family: 'Times New Roman'; font-size: 12px; fill: rgb(0, 0, 0); fill-opacity: 1; white-space: pre;">4e+6</text></g><g class="xtick"><text text-anchor="middle" x="0" y="473" style="font-family: 'Times New Roman'; font-size: 12px; fill: rgb(0, 0, 0); fill-opacity: 1; white-space: pre;" transform="translate(199.66,0)">6e+6</text></g><g class="xtick"><text text-anchor="middle" x="0" y="473" style="font-family: 'Times New Roman'; font-size: 12px; fill: rgb(0, 0, 0); fill-opacity: 1; white-space: pre;" transform="translate(288.23,0)">8e+6</text></g><g class="xtick"><text text-anchor="middle" x="0" y="473" style="font-family: 'Times New Roman'; font-size: 12px; fill: rgb(0, 0, 0); fill-opacity: 1; white-space: pre;" transform="translate(376.81,0)">1e+7</text></g><g class="xtick"><text text-anchor="middle" x="0" y="473" style="font-family: 'Times New Roman'; font-size: 12px; fill: rgb(0, 0, 0); fill-opacity: 1; white-space: pre;" transform="translate(465.39,0)">1e+7</text></g><g class="xtick"><text text-anchor="middle" x="0" y="473" style="font-family: 'Times New Roman'; font-size: 12px; fill: rgb(0, 0, 0); fill-opacity: 1; white-space: pre;" transform="translate(553.97,0)">1e+7</text></g><g class="xtick"><text text-anchor="middle" x="0" y="473" style="font-family: 'Times New Roman'; font-size: 12px; fill: rgb(0, 0, 0); fill-opacity: 1; white-space: pre;" transform="translate(642.55,0)">2e+7</text></g></g><g class="yaxislayer-above"><g class="ytick"><text text-anchor="end" x="38" y="4.199999999999999" transform="translate(0,446.1)" style="font-family: 'Times New Roman'; font-size: 12px; fill: rgb(0, 0, 0); fill-opacity: 1; white-space: pre;">−7</text></g><g class="ytick"><text text-anchor="end" x="38" y="4.199999999999999" style="font-family: 'Times New Roman'; font-size: 12px; fill: rgb(0, 0, 0); fill-opacity: 1; white-space: pre;" transform="translate(0,397.02)">−6</text></g><g class="ytick"><text text-anchor="end" x="38" y="4.199999999999999" style="font-family: 'Times New Roman'; font-size: 12px; fill: rgb(0, 0, 0); fill-opacity: 1; white-space: pre;" transform="translate(0,347.94)">−5</text></g><g class="ytick"><text text-anchor="end" x="38" y="4.199999999999999" style="font-family: 'Times New Roman'; font-size: 12px; fill: rgb(0, 0, 0); fill-opacity: 1; white-space: pre;" transform="translate(0,298.86)">−4</text></g><g class="ytick"><text text-anchor="end" x="38" y="4.199999999999999" style="font-family: 'Times New Roman'; font-size: 12px; fill: rgb(0, 0, 0); fill-opacity: 1; white-space: pre;" transform="translate(0,249.77)">−3</text></g><g class="ytick"><text text-anchor="end" x="38" y="4.199999999999999" style="font-family: 'Times New Roman'; font-size: 12px; fill: rgb(0, 0, 0); fill-opacity: 1; white-space: pre;" transform="translate(0,200.69)">−2</text></g><g class="ytick"><text text-anchor="end" x="38" y="4.199999999999999" style="font-family: 'Times New Roman'; font-size: 12px; fill: rgb(0, 0, 0); fill-opacity: 1; white-space: pre;" transform="translate(0,151.61)">−1</text></g><g class="ytick"><text text-anchor="end" x="38" y="4.199999999999999" style="font-family: 'Times New Roman'; font-size: 12px; fill: rgb(0, 0, 0); fill-opacity: 1; white-space: pre;" transform="translate(0,102.53)">0</text></g><g class="ytick"><text text-anchor="end" x="38" y="4.199999999999999" style="font-family: 'Times New Roman'; font-size: 12px; fill: rgb(0, 0, 0); fill-opacity: 1; white-space: pre;" transform="translate(0,53.45)">1</text></g></g><g class="overaxes-above"/></g></g><g class="polarlayer"/><g class="smithlayer"/><g class="ternarylayer"/><g class="geolayer"/><g class="funnelarealayer"/><g class="pielayer"/><g class="iciclelayer"/><g class="treemaplayer"/><g class="sunburstlayer"/><g class="glimages"/><defs id="topdefs-8499ea"><g class="clips"/></defs><g class="layer-above"><g class="imagelayer"/><g class="shapelayer"><g class="shape-group" data-index="0" clip-path="url(#clip8499eax)"><path data-index="0" fill-rule="evenodd" d="M65.58,460H118.72V50H65.58Z" style="opacity: 0.4; stroke: rgb(0, 0, 0); stroke-opacity: 0; fill: rgb(160, 254, 205); fill-opacity: 1; stroke-width: 0px;"/></g><g class="shape-group" data-index="1" clip-path="url(#clip8499eax)"><path data-index="1" fill-rule="evenodd" d="M198.43,460H251.57V50H198.43Z" style="opacity: 0.4; stroke: rgb(0, 0, 0); stroke-opacity: 0; fill: rgb(136, 248, 239); fill-opacity: 1; stroke-width: 0px;"/></g><g class="shape-group" data-index="2" clip-path="url(#clip8499eax)"><path data-index="2" fill-rule="evenodd" d="M331.29,460H384.42V50H331.29Z" style="opacity: 0.4; stroke: rgb(0, 0, 0); stroke-opacity: 0; fill: rgb(145, 237, 255); fill-opacity: 1; stroke-width: 0px;"/></g><g class="shape-group" data-index="3" clip-path="url(#clip8499eax)"><path data-index="3" fill-rule="evenodd" d="M464.14,460H517.27V50H464.14Z" style="opacity: 0.4; stroke: rgb(0, 0, 0); stroke-opacity: 0; fill: rgb(175, 223, 255); fill-opacity: 1; stroke-width: 0px;"/></g><g class="shape-group" data-index="4" clip-path="url(#clip8499eax)"><path data-index="4" fill-rule="evenodd" d="M596.98,460H650.13V50H596.98Z" style="opacity: 0.4; stroke: rgb(0, 0, 0); stroke-opacity: 0; fill: rgb(205, 208, 255); fill-opacity: 1; stroke-width: 0px;"/></g></g></g><g class="infolayer"><g class="g-gtitle"><text class="gtitle" x="350" y="25" text-anchor="middle" dy="0em" style="opacity: 1; font-family: 'Times New Roman'; font-size: 17px; fill: rgb(0, 0, 0); fill-opacity: 1; white-space: pre;">Sensor 7 Net</text></g><g class="g-xtitle" transform="translate(0,-2.8000000000000114)"><text class="xtitle" x="364.5" y="499.8" text-anchor="middle" style="opacity: 1; font-family: 'Times New Roman'; font-size: 14px; fill: rgb(0, 0, 0); fill-opacity: 1; white-space: pre;">Time since power on (ms)</text></g><g class="g-ytitle" transform="translate(6.673828125,0)"><text class="ytitle" transform="rotate(-90,5.826562500000001,255)" x="5.826562500000001" y="255" text-anchor="middle" style="opacity: 1; font-family: 'Times New Roman'; font-size: 14px; fill: rgb(0, 0, 0); fill-opacity: 1; white-space: pre;">Resistance (Ohms)</text></g><g class="annotation" data-index="0" style="opacity: 1;"><g class="annotation-text-g" transform="rotate(0,80.58,58.5)"><g class="cursor-pointer" transform="translate(66,50)"><rect class="bg" x="0.5" y="0.5" width="29" height="16" style="stroke-width: 1px; stroke: rgb(0, 0, 0); stroke-opacity: 0; fill: rgb(0, 0, 0); fill-opacity: 0;"/><text class="annotation-text" text-anchor="middle" x="14.8359375" y="12.5" style="font-family: 'Times New Roman'; font-size: 12px; fill: rgb(0, 0, 0); fill-opacity: 1; white-space: pre;">M 15</text></g></g></g><g class="annotation" data-index="1" style="opacity: 1;"><g class="annotation-text-g" transform="rotate(0,213.43,58.5)"><g class="cursor-pointer" transform="translate(198,50)"><rect class="bg" x="0.5" y="0.5" width="29" height="16" style="stroke-width: 1px; stroke: rgb(0, 0, 0); stroke-opacity: 0; fill: rgb(0, 0, 0); fill-opacity: 0;"/><text class="annotation-text" text-anchor="middle" x="14.8359375" y="12.5" style="font-family: 'Times New Roman'; font-size: 12px; fill: rgb(0, 0, 0); fill-opacity: 1; white-space: pre;">M 10</text></g></g></g><g class="annotation" data-index="2" style="opacity: 1;"><g class="annotation-text-g" transform="rotate(0,343.29,58.5)"><g class="cursor-pointer" transform="translate(331,50)"><rect class="bg" x="0.5" y="0.5" width="23" height="16" style="stroke-width: 1px; stroke: rgb(0, 0, 0); stroke-opacity: 0; fill: rgb(0, 0, 0); fill-opacity: 0;"/><text class="annotation-text" text-anchor="middle" x="11.8359375" y="12.5" style="font-family: 'Times New Roman'; font-size: 12px; fill: rgb(0, 0, 0); fill-opacity: 1; white-space: pre;">M 7</text></g></g></g><g class="annotation" data-index="3" style="opacity: 1;"><g class="annotation-text-g" transform="rotate(0,476.14,58.5)"><g class="cursor-pointer" transform="translate(464,50)"><rect class="bg" x="0.5" y="0.5" width="23" height="16" style="stroke-width: 1px; stroke: rgb(0, 0, 0); stroke-opacity: 0; fill: rgb(0, 0, 0); fill-opacity: 0;"/><text class="annotation-text" text-anchor="middle" x="11.8359375" y="12.5" style="font-family: 'Times New Roman'; font-size: 12px; fill: rgb(0, 0, 0); fill-opacity: 1; white-space: pre;">M 3</text></g></g></g><g class="annotation" data-index="4" style="opacity: 1;"><g class="annotation-text-g" transform="rotate(0,608.98,58.5)"><g class="cursor-pointer" transform="translate(597,50)"><rect class="bg" x="0.5" y="0.5" width="23" height="16" style="stroke-width: 1px; stroke: rgb(0, 0, 0); stroke-opacity: 0; fill: rgb(0, 0, 0); fill-opacity: 0;"/><text class="annotation-text" text-anchor="middle" x="11.8359375" y="12.5" style="font-family: 'Times New Roman'; font-size: 12px; fill: rgb(0, 0, 0); fill-opacity: 1; white-space: pre;">M 0</text></g></g></g></g></svg>