<svg class="main-svg" xmlns="http://www.w3.org/2000/svg" xmlns:xlink="http://www.w3.org/1999/xlink" width="700" height="500" style="" viewBox="0 0 700 500"><rect x="0" y="0" width="700" height="500" style="fill: rgb(255, 255, 255); fill-opacity: 1;"/><defs id="defs-539ec0"><g class="clips"><clipPath id="clip539ec0xyplot" class="plotclip"><rect width="652" height="410"/></clipPath><clipPath class="axesclip" id="clip539ec0x"><rect x="38" y="0" width="652" height="500"/></clipPath><clipPath class="axesclip" id="clip539ec0y"><rect x="0" y="50" width="700" height="410"/></clipPath><clipPath class="axesclip" id="clip539ec0xy"><rect x="38" y="50" width="652" height="410"/></clipPath></g><g class="gradients"/><g class="patterns"/></defs><g class="bglayer"><rect class="bg" x="38" y="50" width="652" height="410" style="fill: rgb(229, 236, 246); fill-opacity: 1; stroke-width: 0;"/></g><g class="layer-below"><g class="imagelayer"/><g class="shapelayer"/></g><g class="cartesianlayer"><g class="subplot xy"><g class="layer-subplot"><g class="shapelayer"/><g class="imagelayer"/></g><g class="minor-gridlayer"><g class="x"/><g class="y"/></g><g class="gridlayer"><g class="x"><path class="xgrid crisp" transform="translate(110.19,0)" d="M0,50v410" style="stroke: rgb(255, 255, 255); stroke-opacity: 1; stroke-width: 1px;"/><path class="xgrid crisp" transform="translate(198.9,0)" d="M0,50v410" style="stroke: rgb(255, 255, 255); stroke-opacity: 1; stroke-width: 1px;"/><path class="xgrid crisp" transform="translate(287.62,0)" d="M0,50v410" style="stroke: rgb(255, 255, 255); stroke-opacity: 1; stroke-width: 1px;"/><path class="xgrid crisp" transform="translate(376.33,0)" d="M0,50v410" style="stroke: rgb(255, 255, 255); stroke-opacity: 1; stroke-width: 1px;"/><path class="xgrid crisp" transform="translate(465.05,0)" d="M0,50v410" style="stroke: rgb(255, 255, 255); stroke-opacity: 1; stroke-width: 1px;"/><path class="xgrid crisp" transform="translate(553.76,0)" d="M0,50v410" style="stroke: rgb(255, 255, 255); stroke-opacity: 1; stroke-width: 1px;"/><path class="xgrid crisp" transform="translate(642.48,0)" d="M0,50v410" style="stroke: rgb(255, 255, 255); stroke-opacity: 1; stroke-width: 1px;"/></g><g class="y"><path class="ygrid crisp" transform="translate(0,420.8)" d="M38,0h652" style="stroke: rgb(255, 255, 255); stroke-opacity: 1; stroke-width: 1px;"/><path class="ygrid crisp" transform="translate(0,379.32)" d="M38,0h652" style="stroke: rgb(255, 255, 255); stroke-opacity: 1; stroke-width: 1px;"/><path class="ygrid crisp" transform="translate(0,337.84)" d="M38,0h652" style="stroke: rgb(255, 255, 255); stroke-opacity: 1; stroke-width: 1px;"/><path class="ygrid crisp" transform="translate(0,296.35)" d="M38,0h652" style="stroke: rgb(255, 255, 255); stroke-opacity: 1; stroke-width: 1px;"/><path class="ygrid crisp" transform="translate(0,254.87)" d="M38,0h652" style="stroke: rgb(255, 255, 255); stroke-opacity: 1; stroke-width: 1px;"/><path class="ygrid crisp" transform="translate(0,213.39)" d="M38,0h652" style="stroke: rgb(255, 255, 255); stroke-opacity: 1; stroke-width: 1px;"/><path class="ygrid crisp" transform="translate(0,171.9)" d="M38,0h652" style="stroke: rgb(255, 255, 255); stroke-opacity: 1; stroke-width: 1px;"/><path class="ygrid crisp" transform="translate(0,130.42000000000002)" d="M38,0h652" style="stroke: rgb(255, 255, 255); stroke-opacity: 1; stroke-width: 1px;"/><path class="ygrid crisp" transform="translate(0,88.94)" d="M38,0h652" style="stroke: rgb(255, 255, 255); stroke-opacity: 1; stroke-width: 1px;"/></g></g><g class="zerolinelayer"/><g class="layer-between"><g class="shapelayer"/><g class="imagelayer"/></g><path class="xlines-below"/><path class="ylines-below"/><g class="overlines-below"/><g class="xaxislayer-below"/><g class="yaxislayer-below"/><g class="overaxes-below"/><g class="overplot"><g class="xy" transform="translate(38,50)" clip-path="url(#clip539ec0xyplot)"><g class="scatterlayer mlayer"><g class="trace scatter trace480285" style="stroke-miterlimit: 2; opacity: 1;"><g class="fills"/><g class="errorbars"/><g class="lines"><path class="js-line" d="M0,20.5L13.05,20.88L13.59,21.69L14.68,30.83L15.23,42.44L16.86,125.46L17.4,172.87L19.03,230.48L19.58,247.14L20.12,249.29L20.66,247.64L22.3,249.44L22.84,249.18L28.82,248.83L29.36,248.63L32.08,248.35L32.63,248.4L41.33,247.38L41.87,247.3L55.47,246.75L56.01,246.81L66.89,246.58L67.43,246.47L72.87,246.24L73.41,246.27L78.31,246.33L78.85,246.33L83.74,246.38L84.29,246.32L87.55,246.77L88.09,246.83L89.72,246.04L90.27,244.71L91.36,231.97L91.9,221.48L93.53,198L94.08,194.99L97.88,187.01L98.43,185.91L104.41,176.1L104.95,175.52L107.67,172.53L108.21,171.61L113.65,164.04L114.2,163.27L116.91,160.4L117.46,160.07L121.26,156.53L121.81,155.87L131.6,145.97L132.14,145.75L134.32,143.39L134.86,142.68L139.21,137.63L139.75,137.26L141.93,136.1L142.47,137.95L143.56,151.7L144.1,166.32L146.28,233.12L146.82,234.63L148.45,238.23L149,238.43L151.17,239.02L151.72,239.01L159.33,239.7L159.87,239.78L181.08,240.39L181.62,240.35L193.04,239.74L193.59,239.55L196.85,239.04L197.39,239.32L200.11,240.19L200.66,240.19L209.36,239.44L209.9,239.32L215.34,238.94L215.88,239.14L218.6,239.6L219.15,239.51L224.04,238.15L224.58,235.66L226.22,212.74L226.76,205.06L228.39,194.44L228.93,193.21L232.74,186.53L233.28,185.88L239.27,178.78L239.81,178.2L247.42,169.59L247.97,168.75L250.69,165.5L251.23,165.21L255.04,162.09L255.58,161.6L263.74,153.28L264.28,152.26L265.91,150.66L266.46,150.62L268.09,149.42L268.63,148.7L271.35,146.4L271.89,146.08L276.24,143.08L276.79,144.55L277.87,154.5L278.42,164.47L281.14,231.28L281.68,232.42L283.31,234.42L283.86,234.45L288.75,235.39L289.29,235.55L294.19,236.35L294.73,236.26L297.45,236.04L297.99,236.27L300.71,236.55L301.26,236.64L305.61,236.92L306.15,236.97L310.5,237.09L311.05,237.07L318.12,236.6L318.66,236.43L321.38,237.06L321.92,237.09L332.8,236.96L333.34,237.01L339.87,236.87L340.41,236.9L347.48,236.42L348.02,236.19L351.29,236.41L351.83,236.39L355.64,237.81L356.18,237.06L357.27,223.2L357.81,211.88L359.44,190.7L359.99,188.3L363.25,182.05L363.79,181.24L370.86,171.95L371.41,171.36L376.3,165.08L376.84,164.67L382.28,159.74L382.83,158.89L385.54,156.03L386.09,155.57L392.61,149.78L393.16,149.26L401.31,142.09L401.86,141.69L404.58,139.23L405.12,138.44L407.3,136.54L407.84,136.47L410.02,135.62L410.56,138.34L411.65,155.82L412.19,172.28L413.82,218.02L414.37,219.78L416.54,222.31L417.08,222.46L424.15,224.61L424.7,224.7L431.22,225.41L431.77,225.5L443.19,226.39L443.73,226.03L445.36,225.21L445.9,225.41L449.71,226.84L450.26,226.83L457.87,227.39L458.41,227.48L462.22,227.33L462.76,227.13L464.39,226.86L464.94,227.07L468.2,227.76L468.74,227.7L472.55,227.68L473.09,227.87L475.27,227.88L475.81,227.66L477.99,227.42L478.53,227.76L480.71,228.44L481.25,228.41L494.3,228.51L494.85,228.37L495.39,227.6L495.93,225.19L499.74,192.18L500.28,191L508.44,178.48L508.98,177.92L516.05,168.72L516.6,167.48L518.23,164.94L518.77,164.64L522.04,162.08L522.58,161.55L527.47,157.47L528.02,157.09L535.09,151.34L535.63,150.83L544.33,143.55L544.87,143.8L545.96,151.11L546.51,160.24L549.22,215.35L549.77,215.64L551.4,216.83L551.94,216.83L573.15,219.21L573.69,219.41L575.87,219.23L576.41,219.07L582.4,218.61L582.94,218.68L591.1,219.5L591.64,219.49L595.45,219.71L595.99,219.82L604.15,219.89L604.69,219.81L611.76,219.6L612.3,219.76L615.02,219.75L615.57,219.7L624.81,219.23L625.35,217.38L626.99,200.79L627.53,195L629.16,186.55L629.7,185.41L634.06,178.02L634.6,177.14L637.86,172.88L638.41,172.41L642.21,167.85L642.76,167.13L648.19,160.69L648.74,160.33L652,157.1" style="vector-effect: none; fill: none; stroke: rgb(99, 110, 250); stroke-opacity: 1; stroke-width: 2px; opacity: 1;"/></g><g class="points"/><g class="text"/></g><g class="trace scatter tracea013c7" style="stroke-miterlimit: 2; opacity: 1;"><g class="fills"/><g class="errorbars"/><g class="lines"><path class="js-line" d="M0,151.46L13.05,152.16L13.59,153.25L14.68,163.24L15.23,175.21L16.86,258.44L17.4,305.43L19.03,365.34L19.58,382.72L20.12,385.32L20.66,383.6L22.3,385.1L22.84,384.69L35.89,381.42L36.43,381.32L49.48,379.3L50.03,379.27L64.17,378.03L64.71,378.02L85.92,376.95L86.46,376.8L88.09,376.54L88.64,374.57L89.72,369.4L90.27,360.25L92.99,250.79L93.53,243.31L95.16,236.01L95.71,235.06L98.97,231.31L99.51,230.87L103.32,228.53L103.86,228.29L114.74,223.97L115.28,223.85L132.14,219.13L132.68,218.95L140.3,217.28L140.84,217.38L141.93,217.91L142.47,220.14L143.56,235.24L144.1,251.67L146.82,352.8L147.37,357.15L148.45,361.94L149,362.12L152.26,364.33L152.8,364.62L157.7,366.04L158.24,366.17L169.66,367.98L170.21,368.01L178.91,369.07L179.45,369.11L191.96,369.33L192.5,369.32L218.06,369.07L218.6,369.03L221.86,368.87L222.41,367.58L224.04,357.14L224.58,336.56L226.76,249.74L227.3,241.51L228.93,233.15L229.48,232.17L231.65,229.78L232.2,229.5L250.14,223.26L250.69,223.16L262.11,220.43L262.65,220.18L265.91,219.44L266.46,219.38L275.7,218.13L276.24,219.91L277.33,232.97L277.87,247.5L280.59,347.97L281.14,351.56L282.23,356.51L282.77,356.75L288.21,359.92L288.75,360.15L296.36,362.37L296.91,362.49L305.06,364L305.61,364.02L340.95,364.9L341.5,364.88L352.92,364.43L353.46,363.78L354.55,359.6L355.09,352.14L356.72,292.42L357.27,272.32L358.9,238.39L359.44,234.17L361.07,229.56L361.62,228.8L364.34,226.82L364.88,226.52L370.32,224.52L370.86,224.39L380.65,221.12L381.19,221L389.89,219.09L390.44,218.91L399.14,217.58L399.68,217.48L409.47,216.17L410.02,217.3L411.1,227.89L411.65,240.57L414.37,338.38L414.91,340.72L416.54,345.98L417.08,346.3L419.8,347.83L420.35,348.05L431.22,351.35L431.77,351.49L440.47,352.5L441.01,352.54L453.52,353.52L454.06,353.56L473.64,354.6L474.18,354.6L489.41,355L489.95,355.01L493.21,354.85L493.76,353.48L494.85,350.07L495.39,341.98L498.65,238.34L499.2,234.06L500.83,229.69L501.37,228.94L504.63,225.85L505.18,225.61L519.32,220.91L519.86,220.77L528.02,219.24L528.56,219.24L534,218.17L534.54,217.99L540.52,216.87L541.07,216.81L544.33,216.74L544.87,217.39L545.96,226.02L546.51,236.85L549.22,336.46L549.77,338.16L551.4,343.83L551.94,344.02L556.29,346.44L556.84,346.71L562.28,348.51L562.82,348.64L576.96,350.9L577.5,350.93L599.8,352.31L600.34,352.29L611.76,352.6L612.3,352.62L622.64,352.46L623.18,351.4L624.27,348.05L624.81,342.16L628.07,238.2L628.62,233.41L630.25,228.32L630.79,227.46L634.06,224.49L634.6,224.19L642.76,221L643.3,220.86L652,218.59" style="vector-effect: none; fill: none; stroke: rgb(239, 85, 59); stroke-opacity: 1; stroke-width: 2px; opacity: 1;"/></g><g class="points"/><g class="text"/></g><g class="trace scatter tracebb6f98" style="stroke-miterlimit: 2; opacity: 1;"><g class="fills"/><g class="errorbars"/><g class="lines"><path class="js-line" d="M0,20.5L12.51,21.12L13.05,22.81L14.14,35.93L14.68,51.19L16.31,151.8L16.86,203.57L17.94,242.65L18.49,287.54L19.03,329.36L19.58,320.23L20.12,320.48L21.21,333.19L21.75,331.32L22.84,331.23L23.38,331.39L37.52,327.65L38.07,327.74L41.87,328.13L42.42,327.97L45.13,327.52L45.68,327.64L48.94,327.44L49.48,327.26L52.75,326.47L53.29,326.64L56.01,326.64L56.55,326.52L58.73,326.67L59.27,326.85L60.9,326.68L61.45,326.4L63.62,326.12L64.17,326.34L66.34,326.62L66.89,326.51L74.5,325.85L75.04,325.86L87.01,325.37L87.55,325.24L89.72,324.67L90.27,324.3L90.81,320.7L91.36,311.58L94.08,262.13L94.62,259.83L101.14,247.71L101.69,246.99L108.76,238.68L109.3,238.15L115.28,232.86L115.83,232.64L120.18,228.73L120.72,228.19L123.98,225.4L124.53,225.1L129.96,220.6L130.51,219.99L133.23,218.38L133.77,218.11L141.93,212.68L142.47,213.42L143.56,222.88L144.1,234.5L146.82,308.46L147.37,309.57L149,312.1L149.54,312.32L156.61,316.18L157.15,316.29L160.96,316.6L161.5,316.62L170.75,317.18L171.29,317.41L174.01,317.81L174.56,317.74L183.8,317.59L184.34,317.64L197.39,318.76L197.94,318.93L201.2,319.06L201.74,319.01L209.36,318.61L209.9,318.61L220.23,318.45L220.78,318.26L223.5,316.42L224.04,315.55L224.58,312.34L225.13,304.41L227.85,257.51L228.39,254.88L231.65,248.27L232.2,247.62L249.6,231.17L250.14,230.69L260.47,223.22L261.02,222.89L264.82,220.47L265.37,220.25L270.26,216.36L270.81,216.14L276.24,213.71L276.79,216.12L277.87,231.5L278.42,246.64L280.59,302.11L281.14,303.22L282.77,305.8L283.31,306L289.84,308.6L290.38,308.71L295.82,310.62L296.36,310.51L298.54,311.14L299.08,311.34L306.7,312.76L307.24,312.75L310.5,313.13L311.05,313.31L313.22,313.43L313.76,313.23L316.48,312.98L317.03,313.07L325.73,313.08L326.27,312.96L328.99,313.22L329.53,313.31L333.88,313.48L334.43,313.52L344.76,313.76L345.3,313.98L347.48,314.67L348.02,314.5L351.29,313.38L351.83,313.35L354.55,312.75L355.09,311.64L356.18,300.78L356.72,290.08L358.9,253.67L359.44,250.11L361.62,244.17L362.16,243.33L372.49,231.86L373.04,231.42L380.11,225.98L380.65,225.66L404.58,210.57L405.12,210.34L408.93,208.8L409.47,210.18L410.56,220.59L411.1,231.51L413.82,291.06L414.37,293.12L416,294.78L416.54,295.02L429.05,299.58L429.59,299.76L437.75,301.24L438.29,301.18L441.01,301.22L441.55,301.37L448.62,302.9L449.17,302.96L457.87,303.8L458.41,303.75L461.67,304.46L462.22,304.6L466.57,304.34L467.11,304.29L471.46,304.78L472.01,304.96L475.27,305.08L475.81,304.96L478.53,305.33L479.08,305.48L481.79,305.59L482.34,305.36L483.97,305.18L484.51,305.36L488.32,306.19L488.86,306.1L492.67,306.48L493.21,306.55L494.85,306.04L495.39,305.4L496.48,293.65L497.02,282.4L499.2,250.2L499.74,248.3L506.81,238.48L507.35,237.87L513.88,231.32L514.42,230.79L520.95,225.55L521.49,225.15L539.98,214.45L540.52,214.3L544.87,212.51L545.42,213.85L546.51,224.5L547.05,236.03L549.22,287.27L549.77,288.18L551.94,290.3L552.49,290.52L558.47,292.77L559.01,292.95L570.98,296.09L571.52,296.31L577.5,298L578.05,298.02L584.57,297.64L585.11,297.55L591.1,297.71L591.64,297.81L597.62,298.9L598.17,298.6L599.8,298.29L600.34,298.45L603.06,298.58L603.6,298.52L608.5,298.78L609.04,298.91L614.48,299.4L615.02,299.35L623.18,299.32L623.72,299.01L624.81,298.19L625.35,295.36L626.99,266.14L627.53,256.41L629.16,243.9L629.7,242.89L635.69,234.97L636.23,234.55L646.02,226.1L646.56,225.72L652,222.35" style="vector-effect: none; fill: none; stroke: rgb(0, 204, 150); stroke-opacity: 1; stroke-width: 2px; opacity: 1;"/></g><g class="points"/><g class="text"/></g><g class="trace scatter traced0e078" style="stroke-miterlimit: 2; opacity: 1;"><g class="fills"/><g class="errorbars"/><g class="lines"><path class="js-line" d="M0,159.21L12.51,159.43L13.05,161.07L14.14,174L14.68,189.04L16.31,286.11L16.86,331.35L19.03,389.5L19.58,387.85L20.12,387.53L20.66,388.71L21.75,388.32L22.3,387.97L39.15,383.64L39.7,383.54L54.38,381.52L54.92,381.49L80.48,379.82L81.02,379.79L88.09,379.58L88.64,378.74L90.27,370.13L90.81,353.34L93.53,252.54L94.08,247.08L95.71,242.48L96.25,241.77L98.97,239.29L99.51,238.97L105.49,236.23L106.04,236.07L126.16,230.23L126.7,230.11L141.93,227.21L142.47,228.3L143.56,239L144.1,251.79L146.82,355.62L147.37,358.44L148.45,364.29L149,364.62L156.07,367.72L156.61,367.93L162.05,369.74L162.59,369.85L172.38,370.91L172.92,370.94L197.39,371.68L197.94,371.68L221.32,371.18L221.86,370.4L222.95,367.11L223.5,360.45L225.67,281.41L226.22,265.96L227.85,243.43L228.39,241.13L230.57,237.8L231.11,237.31L233.83,236.18L234.37,236.01L266.46,228L267,227.92L275.7,226.92L276.24,227.68L277.33,236.75L277.87,248L280.59,351.02L281.14,352.99L282.77,358.98L283.31,359.16L287.12,361.42L287.66,361.64L296.36,364.23L296.91,364.34L307.24,365.88L307.78,365.89L348.57,366.92L349.11,366.9L352.92,366.58L353.46,365.74L354.55,362.75L355.09,357.11L358.9,244.92L359.44,240.95L361.07,236.5L361.62,235.83L364.34,234.25L364.88,234.05L379.02,229.67L379.56,229.58L396.42,226.75L396.96,226.64L403.49,225.58L404.03,225.53L408.38,225.27L408.93,225.73L410.02,233.03L410.56,242.57L412.19,304.77L412.73,328.76L413.82,342.46L414.37,345.15L415.45,348.11L416,348.3L420.35,350.48L420.89,350.69L428.5,353.05L429.05,353.16L445.36,355.42L445.9,355.49L461.67,356.47L462.22,356.51L493.21,357.56L493.76,356.92L495.39,350.74L495.93,336.64L498.65,247.11L499.2,241.8L500.83,236.92L501.37,236.2L504.63,233.86L505.18,233.59L512.25,230.87L512.79,230.74L528.56,227.66L529.1,227.57L544.33,225.37L544.87,225.57L545.42,227.07L545.96,231.16L547.05,252.88L547.59,272.85L549.77,340.85L550.31,343.05L551.4,346.58L551.94,346.78L559.01,349.95L559.56,350.13L570.43,352.6L570.98,352.67L586.75,354.25L587.29,354.31L615.57,355.15L616.11,355.15L623.18,354.83L623.72,353.15L624.81,349.47L625.35,338.02L628.07,247.03L628.62,241.29L630.25,235.75L630.79,234.97L634.06,232.22L634.6,231.95L643.3,229.16L643.84,229L652,227.35" style="vector-effect: none; fill: none; stroke: rgb(171, 99, 250); stroke-opacity: 1; stroke-width: 2px; opacity: 1;"/></g><g class="points"/><g class="text"/></g><g class="trace scatter traceb7848f" style="stroke-miterlimit: 2; opacity: 1;"><g class="fills"/><g class="errorbars"/><g class="lines"><path class="js-line" d="M0,85.57L12.51,85.94L13.05,87.5L14.14,100.17L14.68,115.07L16.31,213.57L16.86,264.01L19.03,354.75L19.58,351.02L20.12,350.51L21.21,355.01L21.75,354.04L23.93,352.8L24.47,352.5L32.08,349.84L32.63,349.73L50.57,346.05L51.12,346.02L88.09,343.28L88.64,342.31L90.27,332.43L90.81,313.57L92.99,217.94L93.53,208.2L95.16,197.98L95.71,196.79L98.43,192.47L98.97,191.99L106.04,187.1L106.58,186.83L118,181.61L118.55,181.46L139.75,174.68L140.3,174.59L141.93,174.49L142.47,175.42L143.56,185.81L144.1,198.64L145.73,277.99L146.28,306.69L147.91,323.6L148.45,326.31L156.61,329.76L157.15,329.89L168.57,332.01L169.12,332.03L179.45,332.74L179.99,332.8L193.04,333.04L193.59,333.01L204.46,333.33L205.01,333.34L221.32,332.46L221.86,331.59L222.95,327.98L223.5,320.89L227.3,204.39L227.85,199.97L229.48,194.78L230.02,193.75L232.2,191.25L232.74,191.04L237.09,188.91L237.63,188.56L243.07,185.68L243.62,185.46L259.93,180.15L260.47,180.05L275.7,176.08L276.24,176.74L277.33,185.58L277.87,196.8L279.51,269.71L280.05,299.02L281.14,312.72L281.68,316.99L282.77,320.47L283.31,320.54L287.12,322.77L287.66,322.98L300.17,326.34L300.71,326.46L312.68,327.74L313.22,327.73L328.45,328.18L328.99,328.21L335.52,328.12L336.06,328.09L352.92,327.94L353.46,327.07L354.55,323.69L355.09,317.54L358.9,200.68L359.44,196.47L361.07,191.54L361.62,190.83L364.88,188.67L365.42,188.36L373.04,183.97L373.58,183.71L380.65,181.16L381.19,180.99L395.33,177.15L395.88,177L402.95,175.4L403.49,175.37L408.93,175.02L409.47,177.11L410.56,191.72L411.1,207.53L413.82,299.26L414.37,302.31L415.45,305.82L416,305.97L420.89,308.95L421.43,309.18L433.94,313.13L434.49,313.23L446.45,314.76L446.99,314.84L458.96,315.86L459.5,315.83L469.29,316.02L469.83,316.08L481.79,316.65L482.34,316.62L487.78,316.84L488.32,316.91L493.21,316.78L493.76,316.11L495.39,309.72L495.93,295.4L498.65,203.78L499.2,198.34L500.83,193.24L501.37,192.47L504.63,189.32L505.18,188.94L511.7,184.81L512.25,184.6L529.65,178.57L530.19,178.45L544.87,175.28L545.42,176.69L546.51,188.64L547.05,202.45L549.77,296.8L550.31,299.27L551.4,303.44L551.94,303.68L557.38,306.43L557.92,306.65L566.08,309.23L566.63,309.32L574.78,310.88L575.33,311.1L578.59,311.84L579.13,311.87L615.02,313.48L615.57,313.44L623.18,313.15L623.72,311.4L624.81,307.59L625.35,295.9L628.07,203.15L628.62,197.27L630.25,191.46L630.79,190.6L634.6,186.6L635.14,186.21L641.12,183.11L641.67,182.93L649.28,180.12L649.82,179.94L652,179.11" style="vector-effect: none; fill: none; stroke: rgb(255, 161, 90); stroke-opacity: 1; stroke-width: 2px; opacity: 1;"/></g><g class="points"/><g class="text"/></g><g class="trace scatter trace5d2a74" style="stroke-miterlimit: 2; opacity: 1;"><g class="fills"/><g class="errorbars"/><g class="lines"><path class="js-line" d="M0,96.96L10.88,96.78L11.42,96.92L12.51,97.14L13.05,98.24L14.14,108.98L14.68,122.19L15.77,172.46L16.31,213.18L17.94,301.53L18.49,327.79L19.03,350.04L19.58,349.45L20.12,347.38L21.21,350.47L21.75,349.76L23.93,348.09L24.47,347.65L29.36,344.78L29.91,344.52L41.87,341.3L42.42,341.24L52.75,339.42L53.29,339.22L57.1,338.43L57.64,338.36L63.62,337.7L64.17,337.71L71.24,337.32L71.78,337.23L79.39,336.94L79.94,336.95L88.09,336.05L88.64,335.59L89.72,331.08L90.27,326.12L91.9,268.96L92.44,250.01L94.08,221.72L94.62,219.15L98.43,213.04L98.97,212.49L104.95,207.58L105.49,207.29L118.55,200.81L119.09,200.61L127.25,197.69L127.79,197.51L140.3,193.36L140.84,193.31L142.47,193.48L143.02,196.01L144.1,212.82L144.65,230.47L146.82,321.21L147.37,322.38L149,327.51L149.54,327.18L171.84,328.28L172.38,328.18L175.64,328.45L176.19,328.51L189.24,328.49L189.78,328.42L200.11,328.17L200.66,328.19L214.25,328.3L214.8,328.2L219.69,328.03L220.23,327.96L221.86,327.31L222.41,326.26L222.95,325.26L223.5,321.41L225.13,271.16L225.67,253.5L227.3,226.37L227.85,223.55L230.02,219.67L230.57,218.8L232.2,217.26L232.74,217.12L234.92,215.9L235.46,215.5L245.79,209.33L246.34,209.17L251.77,206.91L252.32,206.64L257.75,204.7L258.3,204.52L275.7,199.36L276.24,199.8L277.33,207.22L277.87,216.96L279.51,281.87L280.05,307.31L281.14,318.73L281.68,320.73L282.77,322.79L283.31,322.55L298.54,323.54L299.08,323.71L303.43,324.01L303.98,324.08L321.92,324L322.47,323.98L352.92,323.46L353.46,322.92L355.09,318.25L355.64,307.39L358.36,228.34L358.9,222.94L360.53,218.24L361.07,217.74L370.32,211.53L370.86,211.29L381.74,206.5L382.28,206.29L393.7,202.31L394.25,202.23L398.05,200.85L398.6,200.62L402.4,199.71L402.95,199.66L408.93,198.83L409.47,200.4L410.56,212.85L411.1,226.82L413.82,306.66L414.37,307.87L415.45,309.85L416,309.69L419.26,310.42L419.8,310.61L423.61,311.39L424.15,311.43L438.29,313.38L438.84,313.37L448.62,313.86L449.17,313.9L463.85,314.58L464.39,314.42L467.66,314.21L468.2,314.22L477.99,314.5L478.53,314.59L483.97,314.61L484.51,314.57L491.04,314.67L491.58,314.71L493.76,314.39L494.3,313.55L495.39,311.77L495.93,305.35L499.2,225.29L499.74,223.02L502.46,220.37L503,219.88L517.14,209.98L517.68,209.82L522.58,207.72L523.12,207.51L531.82,204.61L532.37,204.45L544.87,200.74L545.42,201.68L546.51,211.37L547.05,223.08L549.77,302.89L550.31,303.8L551.4,306.08L551.94,306.07L555.75,306.41L556.29,306.52L574.24,308.47L574.78,308.46L592.18,309.51L592.73,309.58L600.88,309.49L601.43,309.45L608.5,309.41L609.04,309.46L616.65,309.74L617.2,309.7L623.18,309.83L623.72,309.05L624.81,307.3L625.35,302.32L628.62,222.5L629.16,220L630.79,218.34L631.34,217.94L642.21,210.58L642.76,210.32L648.74,207.6L649.28,207.45L652,206.31" style="vector-effect: none; fill: none; stroke: rgb(25, 211, 243); stroke-opacity: 1; stroke-width: 2px; opacity: 1;"/></g><g class="points"/><g class="text"/></g><g class="trace scatter tracec8a8d6" style="stroke-miterlimit: 2; opacity: 1;"><g class="fills"/><g class="errorbars"/><g class="lines"><path class="js-line" d="M0,103.81L12.51,103.68L13.05,104.48L14.14,113.68L14.68,125.29L15.77,171.37L16.31,208.74L17.94,302.15L18.49,323.86L19.58,350.28L20.12,347.16L21.21,349.43L21.75,348.87L22.3,348.1L31.54,342.89L32.08,342.75L46.77,338.35L47.31,338.24L58.19,336.92L58.73,336.89L83.74,335.28L84.29,335.2L88.09,334.47L88.64,333.67L89.18,332.4L89.72,328.81L90.81,303.86L91.36,282.96L93.53,227.43L94.08,223.23L95.71,219.68L96.25,218.94L99.51,215.2L100.06,214.66L104.41,211.21L104.95,210.87L115.83,205.66L116.37,205.49L134.32,199.03L134.86,198.9L142.47,197.47L143.02,199.23L144.1,213.44L144.65,229.51L146.82,321.25L147.37,322.51L149,327.59L149.54,327.22L157.15,327.19L157.7,327.25L179.45,327.77L179.99,327.72L185.43,327.88L185.97,327.89L221.32,327.14L221.86,326.63L223.5,321.75L224.04,311.25L226.76,233.68L227.3,228.71L228.93,224.56L229.48,223.9L232.2,221.06L232.74,221.03L234.92,220.31L235.46,219.99L249.05,212.8L249.6,212.64L255.04,210.27L255.58,210.03L259.39,208.86L259.93,208.77L266.46,206.58L267,206.37L274.07,204.13L274.61,204.1L276.24,204.38L276.79,206.01L277.87,218.67L278.42,233L281.14,319.55L281.68,320.92L282.77,323.05L283.31,322.69L286.03,322.45L286.58,322.52L290.93,322.47L291.47,322.47L299.08,323.08L299.63,323.18L337.69,323.29L338.24,323.27L345.3,323.19L345.85,323.18L353.46,322.51L354.01,321.42L355.09,318.88L355.64,310.05L358.36,230.74L358.9,225.48L359.99,222.09L360.53,221.64L364.34,220.12L364.88,219.87L378.48,212.39L379.02,212.25L384.46,210.12L385,209.92L394.25,207.08L394.79,206.93L407.84,203.48L408.38,203.47L408.93,203.48L409.47,204.55L410.56,215.01L411.1,227.42L413.82,308.61L414.37,309.08L415.45,310.74L416,310.52L418.72,310.73L419.26,310.9L424.7,311.66L425.24,311.74L441.55,313.1L442.1,313.09L462.76,314.12L463.31,313.98L467.66,313.75L468.2,313.82L481.25,314.35L481.79,314.35L494.3,313.72L494.85,312.75L495.39,312.04L495.93,307.66L499.2,229.22L499.74,226.8L502.46,224.93L503,224.49L517.14,215.37L517.68,215.18L522.04,212.97L522.58,212.68L529.65,210.15L530.19,210.02L545.42,206.04L545.96,208.43L547.05,224.05L547.59,240.06L549.77,303.9L550.31,304.46L551.94,306.51L552.49,306.42L557.38,306.71L557.92,306.71L580.22,308.8L580.76,308.76L589.46,308.99L590.01,309.09L595.45,309.55L595.99,309.55L601.97,309.06L602.52,309.01L612.3,309.07L612.85,309.23L615.57,309.41L616.11,309.43L623.18,309.63L623.72,309.06L624.81,307.3L625.35,304.15L626.99,257.35L627.53,242.26L629.16,223.71L629.7,222.8L634.06,220.27L634.6,219.83L640.58,216.32L641.12,216.08L652,211.31" style="vector-effect: none; fill: none; stroke: rgb(255, 102, 146); stroke-opacity: 1; stroke-width: 2px; opacity: 1;"/></g><g class="points"/><g class="text"/></g><g class="trace scatter tracef3f34a" style="stroke-miterlimit: 2; opacity: 1;"><g class="fills"/><g class="errorbars"/><g class="lines"><path class="js-line" d="M0,163.05L12.51,162.53L13.05,163.33L14.14,172.53L14.68,184.03L15.77,229.46L16.31,265.88L17.94,352.47L18.49,369.06L19.58,386.68L20.12,384.76L21.75,385.54L22.3,385.02L30.45,381.71L31,381.61L52.75,377.76L53.29,377.71L82.11,375.68L82.66,375.66L87.55,375.25L88.09,374.38L89.18,370.4L89.72,363.73L91.36,299L91.9,276.79L93.53,239.47L94.08,234.73L95.71,229.87L96.25,229.12L99.51,226.08L100.06,225.74L107.67,222.02L108.21,221.83L123.44,217.83L123.98,217.75L134.32,215.33L134.86,215.19L141.93,214.84L142.47,215.16L143.02,217.2L143.56,222.21L144.65,248.14L145.19,271.28L147.37,352.3L147.91,356.65L149,361.56L149.54,361.63L152.8,363.32L153.35,363.51L162.59,365.66L163.14,365.77L172.38,366.57L172.92,366.57L209.36,366.97L209.9,366.94L221.32,366.65L221.86,365.8L222.95,361.76L223.5,357.01L227.3,236.96L227.85,232.97L229.48,228.41L230.02,227.58L232.2,225.62L232.74,225.46L239.27,223.27L239.81,223.09L248.51,220.81L249.05,220.71L268.09,217.21L268.63,217.16L275.7,216.03L276.24,216.42L276.79,218.14L277.33,222.51L278.42,245.36L278.96,266.64L281.14,347.45L281.68,350.55L282.77,355.51L283.31,355.57L290.38,358.62L290.93,358.78L303.98,361.41L304.52,361.47L324.1,362.21L324.64,362.22L352.92,362.21L353.46,361.54L355.09,354.59L355.64,340.94L358.36,242.24L358.9,234.95L360.53,226.97L361.07,226.1L363.25,224.48L363.79,224.25L374.13,220.51L374.67,220.34L379.56,219.58L380.11,219.52L405.66,215L406.21,214.93L408.93,215.18L409.47,216.34L410.56,226.93L411.1,239.53L413.82,337.05L414.37,339.17L415.45,343.78L416,344.03L426.87,347.79L427.42,347.9L443.73,350.19L444.27,350.22L476.9,351.85L477.44,351.85L493.76,352.05L494.3,350.58L495.39,346.87L495.93,338.39L499.2,233.67L499.74,230.09L501.37,226.99L501.91,226.38L505.18,224.31L505.72,224.02L513.33,221.24L513.88,221.03L518.23,219.87L518.77,219.76L541.07,216.05L541.61,216.09L545.42,216.28L545.96,218.84L547.05,235.31L547.59,252.45L549.77,335.58L550.31,337.41L551.94,342.79L552.49,342.91L556.84,344.84L557.38,345L568.8,347.87L569.34,347.98L579.13,349.02L579.68,349.05L614.48,350.33L615.02,350.3L623.18,350.33L623.72,349.08L624.81,345.27L625.35,339.07L628.62,233.37L629.16,229.14L630.79,225.25L631.34,224.65L635.14,222.19L635.69,222.01L640.58,220L641.12,219.77L652,217.23" style="vector-effect: none; fill: none; stroke: rgb(182, 232, 128); stroke-opacity: 1; stroke-width: 2px; opacity: 1;"/></g><g class="points"/><g class="text"/></g><g class="trace scatter trace3c17ec" style="stroke-miterlimit: 2; opacity: 1;"><g class="fills"/><g class="errorbars"/><g class="lines"><path class="js-line" d="M0,144.35L2.72,144.46L3.26,144.53L12.51,144.61L13.05,145.16L14.14,152.65L14.68,162.55L15.77,204.17L16.31,238.18L17.94,335.75L18.49,352.49L19.58,381.52L20.12,378.79L21.75,380.77L22.3,380.22L29.91,377.62L30.45,377.49L49.48,373.66L50.03,373.62L87.55,370.95L88.09,369.33L89.72,354.61L90.27,330.97L92.44,234.95L92.99,223.97L94.62,209.2L95.16,207.11L97.88,200.66L98.43,199.87L103.32,194.78L103.86,194.43L114.74,188.69L115.28,188.55L137.58,182.79L138.12,182.79L142.47,182.56L143.02,184.01L144.1,196.76L144.65,211.82L147.37,339.33L147.91,345.97L149,356.98L149.54,356.87L153.89,359.8L154.44,359.99L165.31,362.28L165.85,362.35L177.27,363.08L177.82,363.09L208.81,363.19L209.36,363.16L221.32,362.85L221.86,361.74L223.5,350.22L224.04,330.47L226.76,221.11L227.3,213.6L228.93,203.69L229.48,202L231.65,198.07L232.2,197.49L237.09,193.65L237.63,193.3L242.53,190.77L243.07,190.59L258.3,186.02L258.84,185.9L275.7,183.72L276.24,183.78L276.79,184.96L277.33,188.62L278.42,209.33L278.96,229.89L281.14,335.33L281.68,340.09L282.77,350.83L283.31,351.17L286.03,353.39L286.58,353.75L292.01,356.22L292.56,356.38L306.15,359.01L306.7,359.05L325.18,359.69L325.73,359.7L351.29,359.44L351.83,359.31L353.46,358.78L354.01,355.93L355.09,348.95L355.64,332.95L358.36,220.7L358.9,212.76L360.53,202.5L361.07,200.8L363.79,195.99L364.34,195.34L368.14,192.31L368.69,192L376.3,188.81L376.84,188.67L382.83,186.83L383.37,186.71L394.79,184.61L395.33,184.52L403.49,183.17L404.03,183.18L408.93,183.09L409.47,183.92L410.56,193.18L411.1,204.71L412.73,280.11L413.28,311.84L414.91,333.49L415.45,337.38L418.17,340.53L418.72,340.9L423.61,343.27L424.15,343.46L431.22,345.29L431.77,345.4L440.47,346.57L441.01,346.66L449.17,347.34L449.71,347.35L492.67,348.57L493.21,348.18L494.3,345.33L494.85,340.66L495.93,312.44L496.48,287.46L498.65,216.33L499.2,209.39L500.83,201.05L501.37,199.79L504.63,194.77L505.18,194.27L508.98,191.68L509.53,191.49L521.49,186.73L522.04,186.64L542.16,183.71L542.7,183.74L544.33,184.25L544.87,186.43L545.96,201.25L546.51,217.41L549.22,324.79L549.77,329.71L550.86,335.61L551.4,335.89L554.66,338.92L555.21,339.34L559.01,341.42L559.56,341.61L569.34,344.17L569.89,344.22L602.52,346.32L603.06,346.31L622.64,346.29L623.18,345.83L624.27,340.65L624.81,334.07L625.9,297.91L626.44,271.79L628.62,210.33L629.16,205.2L630.79,198.65L631.34,197.31L634.06,193.19L634.6,192.61L638.41,189.74L638.95,189.48L648.74,186.45L649.28,186.31L652,185.69" style="vector-effect: none; fill: none; stroke: rgb(255, 151, 255); stroke-opacity: 1; stroke-width: 2px; opacity: 1;"/></g><g class="points"/><g class="text"/></g><g class="trace scatter trace0f74b7" style="stroke-miterlimit: 2; opacity: 1;"><g class="fills"/><g class="errorbars"/><g class="lines"><path class="js-line" d="M0,140.19L4.35,140.57L4.89,140.46L8.7,140.21L9.24,140.25L13.05,140.61L13.59,142.33L14.68,155.52L15.23,170.66L16.86,268.89L17.4,315.68L19.58,379.37L20.12,377.16L20.66,376.94L21.75,378.95L22.3,378.41L27.19,376.41L27.73,376.24L42.96,372.83L43.5,372.73L55.47,371.17L56.01,371.12L73.95,369.86L74.5,369.87L85.37,369.58L85.92,369.47L87.55,369.34L88.09,367.99L89.72,354.86L90.27,332.35L92.44,231.82L92.99,220.78L94.62,206.59L95.16,204.57L98.43,196.94L98.97,196.12L102.23,192.66L102.78,192.24L110.39,187.44L110.93,187.14L118.55,183.84L119.09,183.71L138.67,178.44L139.21,178.4L141.38,178.65L141.93,179.89L143.02,191.27L143.56,204.78L145.19,289.59L145.73,323.93L147.91,354.64L148.45,355L154.98,358.83L155.52,358.93L168.57,361.18L169.12,361.22L184.34,361.88L184.89,361.89L221.32,361.24L221.86,360.51L223.5,349.86L224.04,332.82L226.76,218.19L227.3,210.55L228.93,200.94L229.48,199.27L232.2,194.35L232.74,193.75L237.09,190.38L237.63,190.09L248.51,184.9L249.05,184.78L254.49,183.45L255.04,183.33L263.74,181.4L264.28,181.34L276.24,180.01L276.79,180.79L277.87,190.09L278.42,201.87L280.05,280.71L280.59,316.64L282.23,344.61L282.77,349.62L284.94,351.85L285.49,352.18L292.56,355.21L293.1,355.35L305.61,357.63L306.15,357.65L317.03,357.97L317.57,358.02L328.45,358.08L328.99,358.09L351.29,357.88L351.83,357.7L353.46,357.42L354.01,354.76L355.09,347.67L355.64,335.03L358.36,218.12L358.9,209.99L360.53,199.77L361.07,198.06L363.79,192.75L364.34,192.06L368.14,188.99L368.69,188.71L377.93,184.82L378.48,184.73L388.81,181.93L389.35,181.72L393.7,181.11L394.25,181.08L408.93,179.16L409.47,179.62L410.56,187.2L411.1,197.23L412.73,268.32L413.28,302.69L414.37,325.47L414.91,330.98L416,337.35L416.54,337.46L419.8,340.6L420.35,340.88L425.78,342.8L426.33,342.92L440.47,345.27L441.01,345.32L456.24,346.18L456.78,346.18L477.44,346.93L477.99,346.95L492.67,347.14L493.21,346.22L494.85,337.06L495.39,320.07L498.11,218.13L498.65,210.24L500.28,199.73L500.83,198.06L503.55,192.75L504.09,192.11L507.9,188.83L508.44,188.67L511.7,186.93L512.25,186.75L515.51,185.26L516.05,185.04L526.39,182.55L526.93,182.46L540.52,180.14L541.07,180.11L544.33,180.15L544.87,181.78L545.96,194.6L546.51,209.25L549.22,322.75L549.77,327.28L550.86,334.71L551.4,334.98L555.75,338.13L556.29,338.44L562.28,341.27L562.82,341.4L573.15,343.18L573.69,343.22L594.9,344.61L595.45,344.62L622.09,344.87L622.64,344.22L624.27,336.57L624.81,322.53L627.53,219.48L628.07,210.91L629.7,199.24L630.25,197.36L632.97,191.35L633.51,190.64L636.77,187.68L637.32,187.39L650.37,182.4L650.91,182.33L652,182.09" style="vector-effect: none; fill: none; stroke: rgb(254, 203, 82); stroke-opacity: 1; stroke-width: 2px; opacity: 1;"/></g><g class="points"/><g class="text"/></g></g></g></g><g class="zerolinelayer-above"/><path class="xlines-above crisp" d="M0,0" style="fill: none;"/><path class="ylines-above crisp" d="M0,0" style="fill: none;"/><g class="overlines-above"/><g class="xaxislayer-above"><g class="xtick"><text text-anchor="middle" x="0" y="473" transform="translate(110.19,0)" style="font-family: 'Times New Roman'; font-size: 12px; fill: rgb(0, 0, 0); fill-opacity: 1; white-space: pre;">4e+6</text></g><g class="xtick"><text text-anchor="middle" x="0" y="473" style="font-family: 'Times New Roman'; font-size: 12px; fill: rgb(0, 0, 0); fill-opacity: 1; white-space: pre;" transform="translate(198.9,0)">6e+6</text></g><g class="xtick"><text text-anchor="middle" x="0" y="473" style="font-family: 'Times New Roman'; font-size: 12px; fill: rgb(0, 0, 0); fill-opacity: 1; white-space: pre;" transform="translate(287.62,0)">8e+6</text></g><g class="xtick"><text text-anchor="middle" x="0" y="473" style="font-family: 'Times New Roman'; font-size: 12px; fill: rgb(0, 0, 0); fill-opacity: 1; white-space: pre;" transform="translate(376.33,0)">1e+7</text></g><g class="xtick"><text text-anchor="middle" x="0" y="473" style="font-family: 'Times New Roman'; font-size: 12px; fill: rgb(0, 0, 0); fill-opacity: 1; white-space: pre;" transform="translate(465.05,0)">1e+7</text></g><g class="xtick"><text text-anchor="middle" x="0" y="473" style="font-family: 'Times New Roman'; font-size: 12px; fill: rgb(0, 0, 0); fill-opacity: 1; white-space: pre;" transform="translate(553.76,0)">1e+7</text></g><g class="xtick"><text text-anchor="middle" x="0" y="473" style="font-family: 'Times New Roman'; font-size: 12px; fill: rgb(0, 0, 0); fill-opacity: 1; white-space: pre;" transform="translate(642.48,0)">2e+7</text></g></g><g class="yaxislayer-above"><g class="ytick"><text text-anchor="end" x="37" y="4.199999999999999" transform="translate(0,420.8)" style="font-family: 'Times New Roman'; font-size: 12px; fill: rgb(0, 0, 0); fill-opacity: 1; white-space: pre;">10</text></g><g class="ytick"><text text-anchor="end" x="37" y="4.199999999999999" style="font-family: 'Times New Roman'; font-size: 12px; fill: rgb(0, 0, 0); fill-opacity: 1; white-space: pre;" transform="translate(0,379.32)">11</text></g><g class="ytick"><text text-anchor="end" x="37" y="4.199999999999999" style="font-family: 'Times New Roman'; font-size: 12px; fill: rgb(0, 0, 0); fill-opacity: 1; white-space: pre;" transform="translate(0,337.84)">12</text></g><g class="ytick"><text text-anchor="end" x="37" y="4.199999999999999" style="font-family: 'Times New Roman'; font-size: 12px; fill: rgb(0, 0, 0); fill-opacity: 1; white-space: pre;" transform="translate(0,296.35)">13</text></g><g class="ytick"><text text-anchor="end" x="37" y="4.199999999999999" style="font-family: 'Times New Roman'; font-size: 12px; fill: rgb(0, 0, 0); fill-opacity: 1; white-space: pre;" transform="translate(0,254.87)">14</text></g><g class="ytick"><text text-anchor="end" x="37" y="4.199999999999999" style="font-family: 'Times New Roman'; font-size: 12px; fill: rgb(0, 0, 0); fill-opacity: 1; white-space: pre;" transform="translate(0,213.39)">15</text></g><g class="ytick"><text text-anchor="end" x="37" y="4.199999999999999" style="font-family: 'Times New Roman'; font-size: 12px; fill: rgb(0, 0, 0); fill-opacity: 1; white-space: pre;" transform="translate(0,171.9)">16</text></g><g class="ytick"><text text-anchor="end" x="37" y="4.199999999999999" style="font-family: 'Times New Roman'; font-size: 12px; fill: rgb(0, 0, 0); fill-opacity: 1; white-space: pre;" transform="translate(0,130.42000000000002)">17</text></g><g class="ytick"><text text-anchor="end" x="37" y="4.199999999999999" style="font-family: 'Times New Roman'; font-size: 12px; fill: rgb(0, 0, 0); fill-opacity: 1; white-space: pre;" transform="translate(0,88.94)">18</text></g></g><g class="overaxes-above"/></g></g><g class="polarlayer"/><g class="smithlayer"/><g class="ternarylayer"/><g class="geolayer"/><g class="funnelarealayer"/><g class="pielayer"/><g class="iciclelayer"/><g class="treemaplayer"/><g class="sunburstlayer"/><g class="glimages"/><defs id="topdefs-539ec0"><g class="clips"/></defs><g class="layer-above"><g class="imagelayer"/><g class="shapelayer"><g class="shape-group" data-index="0" clip-path="url(#clip539ec0x)"><path data-index="0" fill-rule="evenodd" d="M64.62,460H117.84V50H64.62Z" style="opacity: 0.4; stroke: rgb(0, 0, 0); stroke-opacity: 0; fill: rgb(160, 254, 205); fill-opacity: 1; stroke-width: 0px;"/></g><g class="shape-group" data-index="1" clip-path="url(#clip539ec0x)"><path data-index="1" fill-rule="evenodd" d="M197.67,460H250.89V50H197.67Z" style="opacity: 0.4; stroke: rgb(0, 0, 0); stroke-opacity: 0; fill: rgb(136, 248, 239); fill-opacity: 1; stroke-width: 0px;"/></g><g class="shape-group" data-index="2" clip-path="url(#clip539ec0x)"><path data-index="2" fill-rule="evenodd" d="M330.73,460H383.95V50H330.73Z" style="opacity: 0.4; stroke: rgb(0, 0, 0); stroke-opacity: 0; fill: rgb(145, 237, 255); fill-opacity: 1; stroke-width: 0px;"/></g><g class="shape-group" data-index="3" clip-path="url(#clip539ec0x)"><path data-index="3" fill-rule="evenodd" d="M463.79,460H517.01V50H463.79Z" style="opacity: 0.4; stroke: rgb(0, 0, 0); stroke-opacity: 0; fill: rgb(175, 223, 255); fill-opacity: 1; stroke-width: 0px;"/></g><g class="shape-group" data-index="4" clip-path="url(#clip539ec0x)"><path data-index="4" fill-rule="evenodd" d="M596.84,460H650.06V50H596.84Z" style="opacity: 0.4; stroke: rgb(0, 0, 0); stroke-opacity: 0; fill: rgb(205, 208, 255); fill-opacity: 1; stroke-width: 0px;"/></g></g></g><g class="infolayer"><g class="g-gtitle"><text class="gtitle" x="350" y="25" text-anchor="middle" dy="0em" style="opacity: 1; font-family: 'Times New Roman'; font-size: 17px; fill: rgb(0, 0, 0); fill-opacity: 1; white-space: pre;">Matrix 0, Sensor 7</text></g><g class="g-xtitle" transform="translate(0,-2.8000000000000114)"><text class="xtitle" x="364" y="499.8" text-anchor="middle" style="opacity: 1; font-family: 'Times New Roman'; font-size: 14px; fill: rgb(0, 0, 0); fill-opacity: 1; white-space: pre;">Time since power on (ms)</text></g><g class="g-ytitle" transform="translate(6.900390625,0)"><text class="ytitle" transform="rotate(-90,5.600000000000001,255)" x="5.600000000000001" y="255" text-anchor="middle" style="opacity: 1; font-family: 'Times New Roman'; font-size: 14px; fill: rgb(0, 0, 0); fill-opacity: 1; white-space: pre;">Resistance (Ohms)</text></g><g class="annotation" data-index="0" style="opacity: 1;"><g class="annotation-text-g" transform="rotate(0,79.62,58.5)"><g class="cursor-pointer" transform="translate(65,50)"><rect class="bg" x="0.5" y="0.5" width="29" height="16" style="stroke-width: 1px; stroke: rgb(0, 0, 0); stroke-opacity: 0; fill: rgb(0, 0, 0); fill-opacity: 0;"/><text class="annotation-text" text-anchor="middle" x="14.8359375" y="12.5" style="font-family: 'Times New Roman'; font-size: 12px; fill: rgb(0, 0, 0); fill-opacity: 1; white-space: pre;">M 15</text></g></g></g><g class="annotation" data-index="1" style="opacity: 1;"><g class="annotation-text-g" transform="rotate(0,212.67,58.5)"><g class="cursor-pointer" transform="translate(198,50)"><rect class="bg" x="0.5" y="0.5" width="29" height="16" style="stroke-width: 1px; stroke: rgb(0, 0, 0); stroke-opacity: 0; fill: rgb(0, 0, 0); fill-opacity: 0;"/><text class="annotation-text" text-anchor="middle" x="14.8359375" y="12.5" style="font-family: 'Times New Roman'; font-size: 12px; fill: rgb(0, 0, 0); fill-opacity: 1; white-space: pre;">M 10</text></g></g></g><g class="annotation" data-index="2" style="opacity: 1;"><g class="annotation-text-g" transform="rotate(0,342.73,58.5)"><g class="cursor-pointer" transform="translate(331,50)"><rect class="bg" x="0.5" y="0.5" width="23" height="16" style="stroke-width: 1px; stroke: rgb(0, 0, 0); stroke-opacity: 0; fill: rgb(0, 0, 0); fill-opacity: 0;"/><text class="annotation-text" text-anchor="middle" x="11.8359375" y="12.5" style="font-family: 'Times New Roman'; font-size: 12px; fill: rgb(0, 0, 0); fill-opacity: 1; white-space: pre;">M 7</text></g></g></g><g class="annotation" data-index="3" style="opacity: 1;"><g class="annotation-text-g" transform="rotate(0,475.79,58.5)"><g class="cursor-pointer" transform="translate(464,50)"><rect class="bg" x="0.5" y="0.5" width="23" height="16" style="stroke-width: 1px; stroke: rgb(0, 0, 0); stroke-opacity: 0; fill: rgb(0, 0, 0); fill-opacity: 0;"/><text class="annotation-text" text-anchor="middle" x="11.8359375" y="12.5" style="font-family: 'Times New Roman'; font-size: 12px; fill: rgb(0, 0, 0); fill-opacity: 1; white-space: pre;">M 3</text></g></g></g><g class="annotation" data-index="4" style="opacity: 1;"><g class="annotation-text-g" transform="rotate(0,608.84,58.5)"><g class="cursor-pointer" transform="translate(597,50)"><rect class="bg" x="0.5" y="0.5" width="23" height="16" style="stroke-width: 1px; stroke: rgb(0, 0, 0); stroke-opacity: 0; fill: rgb(0, 0, 0); fill-opacity: 0;"/><text class="annotation-text" text-anchor="middle" x="11.8359375" y="12.5" style="font-family: 'Times New Roman'; font-size: 12px; fill: rgb(0, 0, 0); fill-opacity: 1; white-space: pre;">M 0</text></g></g></g></g></svg>