<svg class="main-svg" xmlns="http://www.w3.org/2000/svg" xmlns:xlink="http://www.w3.org/1999/xlink" width="700" height="500" style="" viewBox="0 0 700 500"><rect x="0" y="0" width="700" height="500" style="fill: rgb(255, 255, 255); fill-opacity: 1;"/><defs id="defs-edd305"><g class="clips"><clipPath id="clipedd305xyplot" class="plotclip"><rect width="652" height="410"/></clipPath><clipPath class="axesclip" id="clipedd305x"><rect x="38" y="0" width="652" height="500"/></clipPath><clipPath class="axesclip" id="clipedd305y"><rect x="0" y="50" width="700" height="410"/></clipPath><clipPath class="axesclip" id="clipedd305xy"><rect x="38" y="50" width="652" height="410"/></clipPath></g><g class="gradients"/><g class="patterns"/></defs><g class="bglayer"><rect class="bg" x="38" y="50" width="652" height="410" style="fill: rgb(229, 236, 246); fill-opacity: 1; stroke-width: 0;"/></g><g class="layer-below"><g class="imagelayer"/><g class="shapelayer"/></g><g class="cartesianlayer"><g class="subplot xy"><g class="layer-subplot"><g class="shapelayer"/><g class="imagelayer"/></g><g class="minor-gridlayer"><g class="x"/><g class="y"/></g><g class="gridlayer"><g class="x"><path class="xgrid crisp" transform="translate(110.19,0)" d="M0,50v410" style="stroke: rgb(255, 255, 255); stroke-opacity: 1; stroke-width: 1px;"/><path class="xgrid crisp" transform="translate(198.9,0)" d="M0,50v410" style="stroke: rgb(255, 255, 255); stroke-opacity: 1; stroke-width: 1px;"/><path class="xgrid crisp" transform="translate(287.62,0)" d="M0,50v410" style="stroke: rgb(255, 255, 255); stroke-opacity: 1; stroke-width: 1px;"/><path class="xgrid crisp" transform="translate(376.33,0)" d="M0,50v410" style="stroke: rgb(255, 255, 255); stroke-opacity: 1; stroke-width: 1px;"/><path class="xgrid crisp" transform="translate(465.05,0)" d="M0,50v410" style="stroke: rgb(255, 255, 255); stroke-opacity: 1; stroke-width: 1px;"/><path class="xgrid crisp" transform="translate(553.76,0)" d="M0,50v410" style="stroke: rgb(255, 255, 255); stroke-opacity: 1; stroke-width: 1px;"/><path class="xgrid crisp" transform="translate(642.48,0)" d="M0,50v410" style="stroke: rgb(255, 255, 255); stroke-opacity: 1; stroke-width: 1px;"/></g><g class="y"><path class="ygrid crisp" transform="translate(0,426.75)" d="M38,0h652" style="stroke: rgb(255, 255, 255); stroke-opacity: 1; stroke-width: 1px;"/><path class="ygrid crisp" transform="translate(0,346.59)" d="M38,0h652" style="stroke: rgb(255, 255, 255); stroke-opacity: 1; stroke-width: 1px;"/><path class="ygrid crisp" transform="translate(0,266.44)" d="M38,0h652" style="stroke: rgb(255, 255, 255); stroke-opacity: 1; stroke-width: 1px;"/><path class="ygrid crisp" transform="translate(0,186.28)" d="M38,0h652" style="stroke: rgb(255, 255, 255); stroke-opacity: 1; stroke-width: 1px;"/><path class="ygrid crisp" transform="translate(0,106.12)" d="M38,0h652" style="stroke: rgb(255, 255, 255); stroke-opacity: 1; stroke-width: 1px;"/></g></g><g class="zerolinelayer"/><g class="layer-between"><g class="shapelayer"/><g class="imagelayer"/></g><path class="xlines-below"/><path class="ylines-below"/><g class="overlines-below"/><g class="xaxislayer-below"/><g class="yaxislayer-below"/><g class="overaxes-below"/><g class="overplot"><g class="xy" transform="translate(38,50)" clip-path="url(#clipedd305xyplot)"><g class="scatterlayer mlayer"><g class="trace scatter trace64384a" style="stroke-miterlimit: 2; opacity: 1;"><g class="fills"/><g class="errorbars"/><g class="lines"><path class="js-line" d="M0,20.5L652,20.5" style="vector-effect: none; fill: none; stroke: rgb(99, 110, 250); stroke-opacity: 1; stroke-width: 2px; opacity: 1;"/></g><g class="points"/><g class="text"/></g><g class="trace scatter tracef896a1" style="stroke-miterlimit: 2; opacity: 1;"><g class="fills"/><g class="errorbars"/><g class="lines"><path class="js-line" d="M0,321.7L13.59,321.86L14.14,322.66L15.23,327.34L15.77,331.63L17.4,342.54L17.94,343.34L25.56,341.68L26.1,341.65L32.08,341.38L32.63,341.33L37.52,341.7L38.07,341.71L62.54,343.21L63.08,343.16L65.8,343.89L66.34,344.09L69.6,343.85L70.15,343.86L81.57,345.01L82.11,344.88L86.46,345.31L87.01,345.35L90.81,345.16L91.36,344.24L92.44,338.65L92.99,334.05L95.16,320.94L95.71,320.23L98.43,318.9L98.97,318.87L106.58,318.83L107.13,318.88L128.33,319.36L128.88,319.34L133.23,319.08L133.77,319.03L140.84,319.46L141.38,319.71L142.47,322.84L143.02,326.68L145.73,347.64L146.28,348.07L149,347.85L149.54,347.68L153.35,346.94L153.89,346.99L156.61,346.63L157.15,346.57L168.57,347.16L169.12,347.07L171.84,346.98L172.38,347.11L179.99,347.95L180.54,347.87L184.34,347.98L184.89,348.04L209.9,349.74L210.45,349.65L219.69,350.21L220.23,350.3L223.5,350.46L224.04,350.25L224.58,349.34L225.13,346.88L228.93,317.95L229.48,316.9L231.65,314.65L232.2,314.34L234.92,314.16L235.46,314.01L237.63,313.61L238.18,313.73L242.53,313.57L243.07,313.56L250.69,313.57L251.23,313.48L253.95,314.21L254.49,314.42L259.39,315.25L259.93,315.26L264.28,315.77L264.82,315.9L270.81,316.94L271.35,316.79L275.7,315.73L276.24,315.93L276.79,316.69L277.33,318.95L278.42,330.08L278.96,338.37L280.59,353.27L281.14,353.82L283.86,353.64L284.4,353.44L288.75,352.82L289.29,352.76L295.82,352.63L296.36,352.67L305.06,352.8L305.61,352.87L324.1,353.92L324.64,354.1L327.36,353.74L327.9,353.71L345.85,354.36L346.39,354.32L355.09,354.51L355.64,353.81L356.72,348.76L357.27,343.76L359.99,321.18L360.53,319.88L361.62,319.01L362.16,319.11L365.97,320.67L366.51,320.32L369.23,318.48L369.77,318.41L373.04,318.01L373.58,318.53L375.76,321.45L376.3,321.34L379.56,319.3L380.11,319.39L382.28,321.17L382.83,321.67L385,322.3L385.54,321.94L388.81,319.32L389.35,319.25L401.86,318.81L402.4,318.67L406.21,318.49L406.75,318.52L409.47,319.02L410.02,320.06L411.1,328.18L411.65,336.05L413.28,356.76L413.82,358.43L416,357.81L416.54,357.59L420.89,356.29L421.43,356.24L432.85,355.97L433.4,356.14L435.57,356.47L436.12,356.33L440.47,356.08L441.01,356.21L444.27,357.08L444.82,356.89L447.54,356.32L448.08,356.43L454.06,357.07L454.61,356.97L460.59,357.24L461.13,357.37L468.2,358.23L468.74,358.52L476.36,358.43L476.9,358.43L485.06,358.35L485.6,358.57L488.32,359.43L488.86,359.37L492.13,359.51L492.67,359.79L494.85,359.85L495.39,359.7L495.93,358.92L496.48,356.38L498.11,336.45L498.65,329.63L500.28,320.24L500.83,319.52L503.55,318.09L504.09,318.06L517.68,317.37L518.23,317.23L519.86,317.62L520.4,317.94L522.04,318.15L522.58,318.01L525.3,318.06L525.84,318.2L530.19,318.96L530.74,318.94L540.52,318.38L541.07,318.43L544.87,318.87L545.42,320.28L546.51,329.47L547.05,337.84L549.22,362.14L549.77,362.76L551.4,362.29L551.94,361.95L556.29,360.64L556.84,360.73L560.1,360.68L560.64,360.54L563.36,359.94L563.91,360.11L565.54,359.59L566.08,359.29L568.26,359.53L568.8,359.59L573.69,359.76L574.24,359.6L576.41,359.95L576.96,360.06L588.92,360.53L589.46,360.45L593.27,360.7L593.81,360.78L599.25,361.17L599.8,361.1L603.6,361.06L604.15,361.13L611.76,361.26L612.3,361.3L622.09,362.04L622.64,361.97L625.35,361.98L625.9,360.89L626.99,351.86L627.53,344.08L629.7,322.11L630.25,320.21L632.42,316.07L632.97,315.58L635.14,314.89L635.69,314.95L638.41,314.86L638.95,314.64L643.84,313.18L644.39,313.37L647.11,313.66L647.65,313.52L650.37,313.56L650.91,313.67L652,313.99" style="vector-effect: none; fill: none; stroke: rgb(239, 85, 59); stroke-opacity: 1; stroke-width: 2px; opacity: 1;"/></g><g class="points"/><g class="text"/></g><g class="trace scatter tracee98837" style="stroke-miterlimit: 2; opacity: 1;"><g class="fills"/><g class="errorbars"/><g class="lines"><path class="js-line" d="M0,34.16L2.18,33.65L2.72,33.38L7.07,32.81L7.61,32.81L13.05,32.77L13.59,33.15L14.68,37.1L15.23,42.15L17.94,74.6L18.49,75.43L20.66,74.7L21.21,74.38L29.91,71.65L30.45,71.78L35.35,72.17L35.89,72.1L39.15,72.54L39.7,72.68L44.59,72.85L45.13,72.91L50.03,74.11L50.57,74.28L55.47,74.26L56.01,74.1L58.19,74.65L58.73,74.81L69.06,76.22L69.6,76.21L78.31,76.87L78.85,77.07L81.02,77.26L81.57,77.16L84.29,77.41L84.83,77.62L88.64,78.48L89.18,78.5L90.27,78.34L90.81,77.45L91.9,70.22L92.44,62.46L95.16,28.24L95.71,26.81L97.88,25.32L98.43,25.1L103.32,24.14L103.86,24.16L110.93,24.44L111.48,24.42L116.37,24.69L116.91,24.83L120.18,24.57L120.72,24.34L123.44,23.93L123.98,24.03L127.25,24.88L127.79,24.76L132.68,24.62L133.23,24.73L135.95,24.77L136.49,24.65L139.21,24.36L139.75,24.55L141.93,26.25L142.47,29.1L143.56,43.8L144.1,55.41L145.73,79.41L146.28,80.87L147.91,81.61L148.45,81.33L152.8,77.89L153.35,77.7L156.61,77.21L157.15,77.23L166.4,77.97L166.94,78.16L169.66,78.53L170.21,78.42L173.47,78.15L174.01,78.25L178.36,79.2L178.91,79.43L181.08,80.02L181.62,79.95L185.43,80.91L185.97,81.24L188.15,81.62L188.69,81.65L201.2,83.16L201.74,83.3L205.01,84.03L205.55,83.93L209.36,84.43L209.9,84.54L222.95,85.71L223.5,85.13L224.58,83.28L225.13,79.36L226.76,48.23L227.3,37.6L228.93,22.71L229.48,21.53L231.11,20.55L231.65,20.53L252.86,20.5L253.4,20.5L276.79,21.2L277.33,23.14L278.42,37.04L278.96,50.49L280.59,86.7L281.14,89.44L283.31,89.1L283.86,88.76L287.66,87.86L288.21,87.76L295.28,87.17L295.82,87.28L297.99,87.51L298.54,87.29L300.71,87.42L301.26,87.5L319.75,88.2L320.29,88.53L323.01,89.12L323.55,89.31L326.27,90.09L326.82,89.91L330.62,89.23L331.17,89.12L332.8,89.65L333.34,89.97L335.52,90.12L336.06,90.06L338.78,89.99L339.32,90.4L341.5,91.09L342.04,91.12L350.74,91.36L351.29,91.64L354.01,91.81L354.55,91.64L355.09,91.23L355.64,89.59L356.72,78.14L357.27,67.4L359.44,28.66L359.99,24.65L361.07,21.41L361.62,21.19L363.25,22.55L363.79,23.14L365.97,24.45L366.51,23.79L368.69,20.72L369.23,20.57L373.04,20.89L373.58,21.85L375.76,27.69L376.3,26.82L378.48,22.55L379.02,22.56L380.65,23.78L381.19,24.72L383.91,28.98L384.46,28.86L385.54,27L386.09,25.55L388.26,22.28L388.81,21.97L392.61,21.62L393.16,21.84L394.79,21.94L395.33,21.76L405.12,20.52L405.66,20.51L408.93,21.02L409.47,21.85L410.56,28.79L411.1,37.13L413.82,93.33L414.37,94.56L417.08,94.41L417.63,93.95L420.35,92.49L420.89,92.37L429.59,91.79L430.14,91.92L436.66,92.6L437.2,92.48L441.55,92.41L442.1,92.52L444.82,92.71L445.36,92.49L446.99,92.63L447.54,92.85L454.06,94.05L454.61,94.02L464.94,94.32L465.48,94.17L467.66,94.37L468.2,94.68L470.38,95.46L470.92,95.41L476.9,95.79L477.44,95.92L480.16,95.75L480.71,95.68L483.97,96.2L484.51,96.38L494.85,96.72L495.39,96.37L495.93,95.57L496.48,91.89L498.11,55.44L498.65,42.03L500.28,23.08L500.83,21.7L502.46,20.58L503,20.54L524.21,20.5L524.75,20.5L544.87,20.99L545.42,22.2L546.51,33.62L547.05,46.19L549.22,97.98L549.77,99.59L551.4,99.83L551.94,99.53L560.1,97.3L560.64,97.33L567.17,96.85L567.71,96.76L572.06,96.98L572.61,97.05L575.87,96.86L576.41,96.88L581.31,97.58L581.85,97.47L584.57,97.65L585.11,97.88L587.83,98.16L588.38,98.1L591.64,97.93L592.18,98.15L596.53,98.48L597.08,98.48L600.88,99.14L601.43,99.24L605.78,98.9L606.32,99.33L607.95,99.66L608.5,99.5L615.02,100.24L615.57,100.28L620.46,100.09L621,100.37L623.18,100.9L623.72,100.71L625.35,100.07L625.9,98.87L626.99,83.51L627.53,69.28L629.7,27.8L630.25,24.63L631.88,20.89L632.42,20.65L638.41,20.5L638.95,20.5L652,20.5" style="vector-effect: none; fill: none; stroke: rgb(0, 204, 150); stroke-opacity: 1; stroke-width: 2px; opacity: 1;"/></g><g class="points"/><g class="text"/></g><g class="trace scatter trace9a9ccf" style="stroke-miterlimit: 2; opacity: 1;"><g class="fills"/><g class="errorbars"/><g class="lines"><path class="js-line" d="M0,337.71L13.59,337.75L14.14,338.46L15.23,342.93L15.77,346.77L17.4,357.11L17.94,358.05L19.58,357.33L20.12,357L23.93,355.48L24.47,355.26L27.19,354.85L27.73,354.93L34.8,354.97L35.35,354.99L84.29,359.13L84.83,359.42L87.55,360.08L88.09,360.04L90.81,359.5L91.36,358.44L92.44,352.53L92.99,347.93L95.16,334.88L95.71,334.16L99.51,332.55L100.06,332.6L109.3,333.21L109.84,333.08L113.65,333.13L114.2,333.15L123.44,333.65L123.98,333.61L131.05,334.36L131.6,334.37L138.67,333.85L139.21,333.93L141.93,335.09L142.47,336.59L143.56,344.32L144.1,350.18L145.73,361.91L146.28,362.68L147.91,362.47L148.45,362.2L152.8,361.17L153.35,361.15L161.5,360.91L162.05,360.96L181.08,361.82L181.62,361.92L195.76,362.82L196.31,362.84L212.08,364.14L212.62,364.22L222.95,364.86L223.5,364.77L224.58,363.92L225.13,361.87L226.76,345.7L227.3,339.82L228.93,330.6L229.48,329.43L231.65,327.13L232.2,326.9L236.55,326.51L237.09,326.48L253.95,327.05L254.49,327.12L268.09,329.89L268.63,330.26L270.81,330.47L271.35,330.35L276.24,329.1L276.79,329.46L277.87,334.09L278.42,339.67L280.59,366.25L281.14,367.5L284.94,366.89L285.49,366.79L295.28,366.25L295.82,366.28L307.78,366.68L308.33,366.73L317.03,366.95L317.57,366.98L339.87,368.52L340.41,368.49L345.3,368.68L345.85,368.7L355.09,368.85L355.64,368.26L356.72,363.38L357.27,358.24L359.99,334.65L360.53,333.12L362.16,331.82L362.71,332.06L365.97,333.92L366.51,333.52L368.69,331.55L369.23,331.63L373.58,332.94L374.13,333.79L375.76,336.09L376.3,335.82L378.48,333.65L379.02,333.68L381.74,335.28L382.28,335.82L384.46,337.24L385,337.02L388.81,333.35L389.35,333.25L399.14,333.45L399.68,333.27L402.4,333.1L402.95,333.07L407.3,332.51L407.84,332.62L409.47,333.73L410.02,335.26L411.1,343.7L411.65,350.63L413.82,371.77L414.37,372.35L416.54,371.43L417.08,371.08L420.89,369.91L421.43,369.87L433.4,369.87L433.94,369.96L445.36,370.28L445.9,370.23L451.34,370.75L451.89,370.86L460.04,371.31L460.59,371.2L463.85,371.4L464.39,371.4L468.74,372.07L469.29,372.17L474.73,371.87L475.27,371.91L494.3,373.24L494.85,373.13L495.93,372.72L496.48,371.14L497.56,361.01L498.11,352.9L499.74,335.66L500.28,333.77L502.46,331.73L503,331.55L515.51,331.13L516.05,331.22L531.82,332.14L532.37,331.92L534.54,331.79L535.09,331.91L542.7,332.44L543.24,332.39L544.87,332.45L545.42,333.19L546.51,340.23L547.05,347.63L549.22,374.74L549.77,375.62L551.4,375.4L551.94,375.18L558.47,373.38L559.01,373.31L563.91,373.17L564.45,373.23L575.87,372.99L576.41,372.89L579.13,373.11L579.68,373.23L585.66,373.47L586.2,373.51L606.87,374.36L607.41,374.34L618.83,374.87L619.37,374.88L625.35,374.91L625.9,374.34L626.99,367.29L627.53,360.19L629.7,335.62L630.25,333.32L632.42,328.63L632.97,328.12L635.69,327.07L636.23,326.98L648.19,325.66L648.74,325.75L652,326" style="vector-effect: none; fill: none; stroke: rgb(171, 99, 250); stroke-opacity: 1; stroke-width: 2px; opacity: 1;"/></g><g class="points"/><g class="text"/></g><g class="trace scatter traceea7b52" style="stroke-miterlimit: 2; opacity: 1;"><g class="fills"/><g class="errorbars"/><g class="lines"><path class="js-line" d="M0,186.78L7.61,185.77L8.16,185.78L11.96,186.04L12.51,186.14L13.59,186.84L14.14,187.98L15.23,194.4L15.77,199.65L17.4,213.35L17.94,214.62L19.03,214.27L19.58,213.88L22.84,212.5L23.38,212.32L26.1,211.92L26.65,211.89L33.71,210.92L34.26,210.94L55.47,213.11L56.01,212.99L60.36,213.65L60.9,213.84L66.89,214.44L67.43,214.37L70.15,214.45L70.69,214.59L76.67,215.04L77.22,215.12L82.11,215.36L82.66,215.39L90.27,216.45L90.81,215.93L91.9,211.55L92.44,206.59L95.16,183.49L95.71,182.45L98.43,180.51L98.97,180.4L102.78,180.36L103.32,180.51L109.84,180.78L110.39,180.78L117.46,181.19L118,181.37L120.72,181.38L121.26,181.31L125.07,181.43L125.61,181.81L127.25,182.02L127.79,181.85L131.05,181.51L131.6,181.59L137.58,181.53L138.12,181.49L141.38,181.9L141.93,182.64L143.02,188.84L143.56,195.26L145.73,218.84L146.28,219.7L147.91,219.45L148.45,219.13L152.8,217.43L153.35,217.38L176.19,217.94L176.73,218.11L182.71,218.9L183.26,219.02L194.68,219.98L195.22,220.03L223.5,222.42L224.04,221.93L225.13,217.7L225.67,212.27L228.39,179.92L228.93,177.68L231.11,173.66L231.65,173.15L233.28,172.52L233.83,172.62L235.46,172.66L236,172.4L238.18,172.06L238.72,172.04L244.16,171.58L244.7,171.72L248.51,172.09L249.05,171.96L252.32,172.36L252.86,172.55L260.47,174.81L261.02,174.83L267,175.86L267.54,176.22L269.72,176.75L270.26,176.72L273.52,175.81L274.07,175.42L275.7,175.09L276.24,175.28L276.79,175.67L277.33,177.29L278.42,188.14L278.96,198.29L280.59,224.07L281.14,225.97L283.86,225.59L284.4,225.45L292.56,224.14L293.1,224.16L307.78,224.62L308.33,224.76L314.85,224.85L315.4,224.92L328.99,225.85L329.53,225.87L333.88,226.29L334.43,226.42L339.87,227.02L340.41,227L346.39,227.3L346.94,227.28L355.09,227.42L355.64,226.6L356.72,220.04L357.27,213.24L359.99,182.73L360.53,180.76L361.62,179.26L362.16,179.3L365.97,181.57L366.51,181.13L369.23,178.53L369.77,178.63L373.04,179.38L373.58,180.19L375.76,184.06L376.3,183.56L378.48,180.85L379.02,180.94L381.74,182.93L382.28,183.49L384.46,184.54L385,184.25L388.26,181.1L388.81,180.92L392.07,180.51L392.61,180.76L394.25,181.06L394.79,180.79L398.05,180.14L398.6,180.06L404.03,179.15L404.58,178.95L406.75,179.42L407.3,179.56L408.93,179.68L409.47,180.55L410.56,187.7L411.1,195.21L413.82,230.98L414.37,231.64L416.54,230.75L417.08,230.41L421.43,228.69L421.98,228.59L429.59,227.82L430.14,227.99L433.4,228.51L433.94,228.49L443.73,229.05L444.27,229.11L457.32,230.05L457.87,230.11L467.66,230.87L468.2,231.07L470.38,231.15L470.92,230.99L473.64,231.16L474.18,231.26L494.3,232.91L494.85,232.73L495.93,232.23L496.48,230.22L497.56,216.83L498.11,206.14L499.74,183.6L500.28,181.06L501.91,178.99L502.46,178.75L506.81,178.08L507.35,178.04L518.77,177.32L519.32,177.46L522.58,178.41L523.12,178.27L525.84,178.22L526.39,178.53L529.1,179.45L529.65,179.46L532.37,178.95L532.91,178.67L535.09,178.64L535.63,178.72L544.87,179.2L545.42,180.1L546.51,188.7L547.05,197.98L549.22,234.37L549.77,235.8L551.4,235.94L551.94,235.53L555.21,233.87L555.75,233.73L561.73,232.66L562.28,232.63L579.13,232.7L579.68,232.75L591.64,233.63L592.18,233.59L597.62,234.09L598.17,234.13L606.32,234.62L606.87,234.73L615.02,235.08L615.57,235.07L625.35,235.06L625.9,234.26L626.99,224.34L627.53,214.82L629.7,183.81L630.25,180.9L632.42,174.63L632.97,173.91L635.14,172.69L635.69,172.65L638.41,171.99L638.95,171.7L644.93,170.38L645.47,170.33L648.19,170.53L648.74,170.79L650.91,170.9L651.46,170.88L652,170.99" style="vector-effect: none; fill: none; stroke: rgb(255, 161, 90); stroke-opacity: 1; stroke-width: 2px; opacity: 1;"/></g><g class="points"/><g class="text"/></g><g class="trace scatter trace1dc6fb" style="stroke-miterlimit: 2; opacity: 1;"><g class="fills"/><g class="errorbars"/><g class="lines"><path class="js-line" d="M0,215.03L7.07,214.3L7.61,214.28L13.05,214.26L13.59,215.02L14.68,221.03L15.23,227.24L17.4,249.83L17.94,250.73L19.03,250.34L19.58,249.83L22.84,247.27L23.38,247.17L33.71,245.86L34.26,245.95L40.78,246.47L41.33,246.47L44.59,247.07L45.13,247.24L47.85,247.21L48.4,247.12L51.66,247.61L52.2,248.11L53.83,248.93L54.38,248.79L56.01,248.84L56.55,249.08L60.36,249.56L60.9,249.62L65.8,250.01L66.34,250.16L71.78,250.9L72.32,250.98L79.94,252.12L80.48,252.24L90.27,252.93L90.81,252.22L91.9,245.58L92.44,238.73L94.62,214.1L95.16,212.19L97.34,209.71L97.88,209.4L101.69,209.07L102.23,209.1L108.76,209.33L109.3,209.22L116.91,209.05L117.46,209.23L121.81,209.43L122.35,209.42L128.33,209.48L128.88,209.64L131.05,209.58L131.6,209.43L137.58,209.29L138.12,209.45L141.93,210.38L142.47,212.21L143.56,223.73L144.1,233.51L145.73,255.08L146.28,256.34L147.91,256.09L148.45,255.74L151.17,254.51L151.72,254.43L157.7,253.57L158.24,253.59L166.94,254.06L167.49,254.29L169.66,254.17L170.21,254.06L173.47,254.18L174.01,254.25L184.89,255.16L185.43,255.24L195.76,256.67L196.31,256.7L212.08,258.61L212.62,258.68L223.5,259.3L224.04,258.29L225.13,250.9L225.67,243.4L228.39,209.18L228.93,206.71L231.11,202.07L231.65,201.59L233.83,200.93L234.37,201.05L236.55,200.67L237.09,200.54L247.42,199.7L247.97,199.82L257.75,201.43L258.3,201.77L261.02,202.71L261.56,202.83L264.82,203.42L265.37,203.27L267,203.5L267.54,203.88L269.72,204.92L270.26,204.95L272.98,204.43L273.52,203.99L275.7,203.26L276.24,203.71L277.33,207.19L277.87,212.27L281.14,263.94L281.68,264.12L292.56,261.18L293.1,261.24L321.38,263.13L321.92,263.17L332.8,263.49L333.34,263.62L337.69,264.27L338.24,264.31L354.55,265.4L355.09,265.2L355.64,264.21L356.18,261.19L357.81,236.37L358.36,227.12L359.99,211.28L360.53,209.18L362.16,207.22L362.71,207.64L365.42,210.99L365.97,210.79L369.23,207.21L369.77,207.3L373.58,208.22L374.13,209.29L375.76,212.91L376.3,212.49L378.48,209.61L379.02,209.99L381.74,212.82L382.28,213.79L383.91,215.14L384.46,214.82L386.09,211.8L386.63,210.61L388.26,208.73L388.81,208.57L392.61,208.87L393.16,208.93L404.03,206.52L404.58,206.34L406.75,206.63L407.3,206.88L408.93,207.44L409.47,208.79L410.56,219.09L411.1,229.53L413.28,267.33L413.82,269.02L414.91,269.54L415.45,269.41L424.7,266.25L425.24,266.23L450.8,267.56L451.34,267.62L466.03,269.08L466.57,269.12L474.73,269.69L475.27,269.65L482.34,270.01L482.88,269.94L485.6,270.61L486.15,270.8L493.76,271.9L494.3,271.86L495.93,271L496.48,268.91L497.56,253L498.11,240.27L499.74,213.5L500.28,210.49L501.91,207.71L502.46,207.35L505.72,206.87L506.27,206.82L517.14,205.37L517.68,205.33L519.86,205.98L520.4,206.32L522.58,206.89L523.12,206.74L525.84,206.21L526.39,206.65L528.02,207.33L528.56,207.09L530.74,206.55L531.28,206.68L533.45,205.99L534,205.81L538.35,206.2L538.89,206.29L542.7,206.48L543.24,206.35L544.87,206.42L545.42,207.18L546.51,216.05L547.05,226.32L549.22,272.85L549.77,274.8L551.4,275.14L551.94,274.85L556.29,272.71L556.84,272.57L562.82,271.73L563.36,271.67L580.76,272.06L581.31,272.12L624.81,274.36L625.35,273.7L625.9,271.78L626.44,266.81L630.25,210.35L630.79,208.27L632.97,203.08L633.51,202.45L635.69,201.29L636.23,201.3L638.41,200.92L638.95,200.58L642.21,198.95L642.76,198.92L652,199.03" style="vector-effect: none; fill: none; stroke: rgb(25, 211, 243); stroke-opacity: 1; stroke-width: 2px; opacity: 1;"/></g><g class="points"/><g class="text"/></g><g class="trace scatter trace6c2145" style="stroke-miterlimit: 2; opacity: 1;"><g class="fills"/><g class="errorbars"/><g class="lines"><path class="js-line" d="M0,231.04L9.24,230.35L9.79,230.32L13.05,230.23L13.59,230.94L14.68,237.29L15.23,243.99L17.4,269.05L17.94,269.83L19.58,268.96L20.12,268.61L26.65,265.84L27.19,265.8L39.15,266.02L39.7,266.08L53.29,267.8L53.83,267.95L62.54,268.49L63.08,268.49L72.87,270.31L73.41,270.42L85.92,271.47L86.46,271.6L90.27,271.73L90.81,271.16L91.9,264.42L92.44,257.18L94.62,230.7L95.16,228.5L96.79,225.97L97.34,225.52L99.51,224.78L100.06,224.75L102.78,225.16L103.32,225.4L106.58,225.6L107.13,225.58L112.56,224.88L113.11,224.75L115.83,224.73L116.37,224.94L119.63,225.46L120.18,225.41L125.61,225.3L126.16,225.51L128.88,225.26L129.42,225.24L135.95,225.42L136.49,225.28L139.21,225.22L139.75,225.37L141.93,225.85L142.47,227.4L143.56,238.25L144.1,248.24L145.73,273.27L146.28,275.15L147.91,274.94L148.45,274.63L152.8,272.79L153.35,272.69L159.33,272.2L159.87,272.24L165.31,272.6L165.85,272.56L179.45,273.98L179.99,274.12L184.89,274.25L185.43,274.27L194.13,275.65L194.68,275.73L201.74,276.31L202.29,276.42L211.53,277.59L212.08,277.59L215.88,278.04L216.43,278.13L223.5,278.63L224.04,277.52L225.13,269.45L225.67,261.25L228.39,225.41L228.93,222.85L231.11,218.48L231.65,218.01L233.83,217.32L234.37,217.42L236.55,216.85L237.09,216.73L240.9,215.97L241.44,215.7L243.62,215.55L244.16,215.66L255.58,217.18L256.12,217.36L265.91,218.99L266.46,218.99L268.09,220.29L268.63,220.88L270.26,221.26L270.81,221.12L272.98,220.04L273.52,219.53L275.16,218.75L275.7,218.86L276.24,219.58L276.79,221.64L277.87,233.22L278.42,243.64L280.59,282L281.14,283.94L282.23,283.83L282.77,283.52L286.58,282.16L287.12,282.08L293.64,281L294.19,280.97L297.99,280.64L298.54,280.76L308.87,281.4L309.41,281.4L320.29,282.27L320.83,282.4L326.27,282.92L326.82,282.92L332.25,283.28L332.8,283.36L340.41,284.05L340.95,284.04L355.09,284.86L355.64,284.22L356.72,275.47L357.27,266.1L359.44,230.64L359.99,227.3L361.62,223.88L362.16,223.85L363.79,225.66L364.34,226.53L365.42,227.5L365.97,227.25L368.69,223.65L369.23,223.58L373.58,224.21L374.13,225.3L375.76,229.68L376.3,229.38L378.48,225.91L379.02,226.23L381.74,228.92L382.28,230.02L383.91,231.77L384.46,231.3L388.26,224.9L388.81,224.59L390.98,224.59L391.53,224.82L393.7,225.24L394.25,224.95L395.88,224.78L396.42,224.89L404.58,223.11L405.12,222.89L407.3,222.91L407.84,223.07L408.93,223.44L409.47,224.79L410.56,235.33L411.1,246.14L413.28,287.62L413.82,289.38L414.91,289.9L415.45,289.68L421.98,286.7L422.52,286.65L430.68,286.09L431.22,286.13L439.92,286.57L440.47,286.41L442.64,286.66L443.19,286.88L446.45,287.27L446.99,287.27L460.04,288.37L460.59,288.53L464.39,289.03L464.94,288.97L468.2,289.46L468.74,289.65L474.18,290.08L474.73,290.13L495.39,291.56L495.93,290.98L496.48,288.68L497.02,282.51L500.28,226.92L500.83,225.38L503,223.29L503.55,223.11L512.79,221.33L513.33,221.41L521.49,222.95L522.04,223.1L525.84,222.25L526.39,222.54L528.56,223.18L529.1,222.98L534,222.08L534.54,222.23L537.8,222.62L538.35,222.67L545.42,223.43L545.96,226.01L547.05,241.87L547.59,256.23L549.22,293.19L549.77,295.87L551.94,295.72L552.49,295.35L557.92,292.58L558.47,292.47L571.52,291.96L572.06,292.05L576.96,292.16L577.5,292.16L599.8,293.56L600.34,293.52L612.3,294.7L612.85,294.75L624.81,295.45L625.35,294.58L626.44,286.57L626.99,277.02L629.7,229.92L630.25,226.67L632.42,220.03L632.97,219.22L634.6,218.12L635.14,218.07L637.86,217.47L638.41,217.15L643.84,214.52L644.39,214.62L647.11,214.89L647.65,214.77L650.91,214.79L651.46,214.94L652,215.16" style="vector-effect: none; fill: none; stroke: rgb(255, 102, 146); stroke-opacity: 1; stroke-width: 2px; opacity: 1;"/></g><g class="points"/><g class="text"/></g><g class="trace scatter tracef8d769" style="stroke-miterlimit: 2; opacity: 1;"><g class="fills"/><g class="errorbars"/><g class="lines"><path class="js-line" d="M0,347.11L13.59,347.63L14.14,348.72L15.23,354.78L15.77,359.53L17.4,369.92L17.94,370.71L19.58,370.6L20.12,370.36L25.01,368.49L25.56,368.44L35.89,368.15L36.43,368.19L48.4,368.86L48.94,368.94L54.38,369.73L54.92,369.75L65.8,370.57L66.34,370.75L69.06,370.86L69.6,370.81L73.95,371.34L74.5,371.41L85.37,372.07L85.92,372.19L90.81,372.27L91.36,371.14L92.44,364.68L92.99,359.5L95.16,345.12L95.71,344.2L98.43,342.92L98.97,342.82L102.78,342.97L103.32,343.06L116.37,343.64L116.91,343.63L129.96,344.57L130.51,344.47L137.58,344.66L138.12,344.76L141.93,345.25L142.47,346.22L143.56,353.09L144.1,359.3L145.73,374.44L146.28,375.7L147.91,375.76L148.45,375.61L154.98,373.99L155.52,373.9L160.96,373.64L161.5,373.75L166.94,373.95L167.49,373.97L183.26,374.98L183.8,375L195.22,375.93L195.76,375.99L221.86,378.12L222.41,378.06L224.04,377.37L224.58,376.06L225.67,368.68L226.22,362.84L228.39,344.27L228.93,342.32L231.11,338.56L231.65,338.21L234.37,338.04L234.92,338.05L241.44,336.89L241.98,336.93L252.86,338.25L253.4,338.24L257.75,339.23L258.3,339.46L261.56,340.25L262.11,340.39L265.37,340.88L265.91,340.84L268.09,341.47L268.63,341.88L270.81,342.53L271.35,342.39L275.7,340.74L276.24,341.18L277.33,344.94L277.87,349.43L281.14,381.41L281.68,381.7L292.56,379.74L293.1,379.81L295.82,379.67L296.36,379.6L311.05,380.33L311.59,380.44L316.48,380.7L317.03,380.72L351.83,382.2L352.37,382.16L355.64,382L356.18,380.65L357.27,372.29L357.81,365.44L359.99,345.8L360.53,344.18L362.16,342.65L362.71,342.89L365.97,345.48L366.51,344.9L368.69,342.8L369.23,342.76L373.58,343.74L374.13,344.46L376.3,347.04L376.84,346.42L378.48,344.94L379.02,345.17L382.28,347.7L382.83,348.36L384.46,348.82L385,348.38L388.81,344.82L389.35,344.67L392.07,344.96L392.61,345.13L394.79,344.94L395.33,344.74L398.6,344.62L399.14,344.65L408.38,344.16L408.93,344.26L409.47,345.02L410.02,347.22L411.1,358.14L411.65,366.29L413.28,383.81L413.82,385.19L415.45,385.81L416,385.69L421.43,384.1L421.98,384.02L429.05,383.47L429.59,383.54L437.2,384.07L437.75,384.01L444.82,384.36L445.36,384.37L462.22,385.06L462.76,385.18L468.74,385.69L469.29,385.71L474.73,386.01L475.27,386.02L495.39,386.64L495.93,386.23L496.48,384.96L497.02,381.58L500.28,345.01L500.83,343.76L503,342.42L503.55,342.38L510.07,342.54L510.62,342.52L519.32,342.52L519.86,342.75L522.58,343.57L523.12,343.43L525.84,343.34L526.39,343.53L528.56,344.13L529.1,343.94L531.28,343.52L531.82,343.59L545.42,344.02L545.96,345.7L547.05,356.36L547.59,365.61L549.22,387.41L549.77,389.02L551.94,389.15L552.49,389L562.82,387.26L563.36,387.26L572.61,387.26L573.15,387.23L589.46,388.1L590.01,388.06L597.08,388.27L597.62,388.35L603.6,388.55L604.15,388.51L625.35,388.92L625.9,387.75L626.99,379.63L627.53,372.43L629.7,347.57L630.25,345.15L632.42,340.73L632.97,340.17L635.69,338.83L636.23,338.79L641.12,337.72L641.67,337.56L645.47,337.26L646.02,337.32L652,337.89" style="vector-effect: none; fill: none; stroke: rgb(182, 232, 128); stroke-opacity: 1; stroke-width: 2px; opacity: 1;"/></g><g class="points"/><g class="text"/></g><g class="trace scatter tracedf65a6" style="stroke-miterlimit: 2; opacity: 1;"><g class="fills"/><g class="errorbars"/><g class="lines"><path class="js-line" d="M0,309.48L9.79,309.36L10.33,309.48L13.59,310.09L14.14,311.15L15.23,316.72L15.77,320.96L17.4,329.3L17.94,329.77L20.66,329.17L21.21,328.99L28.28,327.93L28.82,327.93L39.7,328.53L40.24,328.54L63.08,330.09L63.62,330.15L70.69,330.82L71.24,330.89L90.81,331.95L91.36,331L92.44,325.46L92.99,321.15L95.16,310.08L95.71,309.32L97.88,307.97L98.43,307.89L106.58,308.28L107.13,308.34L120.72,308.64L121.26,308.61L132.14,308.95L132.68,309.09L135.4,309.11L135.95,309.02L140.3,309.01L140.84,309.06L142.47,309.97L143.02,311.84L144.65,325.89L145.19,330.52L146.28,334.84L146.82,335.08L151.72,334.17L152.26,334.04L157.7,333.69L158.24,333.69L178.91,334.71L179.45,334.79L197.39,335.75L197.94,335.87L203.38,335.99L203.92,335.99L223.5,336.93L224.04,336.56L225.13,332.58L225.67,328.39L228.39,309.9L228.93,308.5L231.11,305.38L231.65,305.2L239.81,304.02L240.35,303.89L243.62,304.06L244.16,304.19L249.6,304.87L250.14,304.83L255.04,305.16L255.58,305.27L265.37,306.85L265.91,306.75L268.09,307.07L268.63,307.4L271.35,308.06L271.89,308L275.7,307.33L276.24,307.73L277.33,312.11L277.87,316.98L280.05,338.3L280.59,339.67L282.23,340.41L282.77,340.32L289.29,339.55L289.84,339.58L302.89,339.37L303.43,339.35L312.68,339.76L313.22,339.8L355.09,341.48L355.64,341.34L356.72,337.8L357.27,333.49L359.99,311.72L360.53,310.58L362.16,309.59L362.71,309.64L365.97,310.89L366.51,310.42L368.69,308.86L369.23,308.84L374.13,309.56L374.67,310.16L376.3,311.19L376.84,310.83L379.02,309.64L379.56,309.76L381.74,311.15L382.28,311.68L384.46,312.78L385,312.54L389.89,309.74L390.44,309.78L393.7,310.57L394.25,310.28L396.42,309.72L396.96,309.88L399.14,310.04L399.68,309.89L402.4,309.57L402.95,309.58L408.93,309.7L409.47,310.21L410.56,315.89L411.1,321.93L413.28,343.42L413.82,344.28L415.45,344.46L416,344.28L420.89,343.05L421.43,342.98L430.68,342.8L431.22,342.85L462.22,343.77L462.76,344.04L464.94,344.37L465.48,344.25L471.46,344.31L472.01,344.35L482.34,344.98L482.88,345.13L487.23,345.43L487.78,345.37L492.67,345.45L493.21,345.52L495.39,345.3L495.93,344.15L497.02,337.24L497.56,331.51L499.74,313.82L500.28,312.11L502.46,308.93L503,308.68L512.79,308.14L513.33,308.22L527.47,309.32L528.02,309.41L545.42,309.73L545.96,311.06L547.05,319.35L547.59,326.7L549.22,345.49L549.77,347.31L551.4,347.73L551.94,347.56L557.92,346.19L558.47,346.15L569.89,345.99L570.43,346L579.68,345.97L580.22,346.04L583.48,346.19L584.03,346.05L587.29,346.31L587.83,346.34L613.39,347.08L613.93,347L617.2,347.09L617.74,347.16L624.81,347.35L625.35,346.86L626.44,342.12L626.99,337.06L629.7,313.55L630.25,311.83L632.42,307.95L632.97,307.49L636.77,306.38L637.32,306.34L648.19,305.28L648.74,305.3L652,305.56" style="vector-effect: none; fill: none; stroke: rgb(255, 151, 255); stroke-opacity: 1; stroke-width: 2px; opacity: 1;"/></g><g class="points"/><g class="text"/></g><g class="trace scatter trace1ea4a4" style="stroke-miterlimit: 2; opacity: 1;"><g class="fills"/><g class="errorbars"/><g class="lines"><path class="js-line" d="M0,299.66L13.05,300.02L13.59,300.3L14.68,303.82L15.23,307.84L17.4,324.2L17.94,324.8L20.66,324.21L21.21,323.97L25.56,323.09L26.1,323.01L32.08,322.61L32.63,322.6L90.81,326.77L91.36,325.94L92.44,320.14L92.99,315.17L95.16,301.43L95.71,300.54L97.88,299.34L98.43,299.26L108.21,299.12L108.76,299.24L113.11,298.65L113.65,298.56L117.46,299.44L118,299.47L128.33,300.17L128.88,300.25L138.67,299.92L139.21,300.02L141.38,300.78L141.93,302.19L143.02,309.58L143.56,315.31L145.19,328.14L145.73,329.34L147.37,329.87L147.91,329.82L152.26,328.84L152.8,328.76L169.12,328.86L169.66,328.93L212.62,331.32L213.16,331.3L218.6,331.99L219.15,332.06L224.04,331.83L224.58,330.48L225.67,322.86L226.22,317.16L228.39,302.06L228.93,300.5L231.11,297.45L231.65,297.15L236.55,296.12L237.09,296.19L239.27,295.92L239.81,295.72L243.07,295.82L243.62,295.88L265.37,298.54L265.91,298.45L268.09,298.96L268.63,299.31L270.81,299.75L271.35,299.66L276.24,299.09L276.79,300.42L277.87,308.95L278.42,316.49L280.05,334.2L280.59,335.52L282.77,335.53L283.31,335.41L296.91,334.45L297.45,334.5L355.64,336.15L356.18,335.05L357.27,327.53L357.81,321.29L359.99,303.64L360.53,302.2L361.62,301.06L362.16,301.25L365.42,303.94L365.97,303.35L368.69,300.09L369.23,300L373.04,300.22L373.58,300.41L376.3,302.85L376.84,302.23L378.48,300.53L379.02,300.55L380.65,301.34L381.19,302.01L383.91,305.87L384.46,305.91L386.09,304.33L386.63,303.53L388.81,301.24L389.35,301.13L392.61,301.79L393.16,302.11L394.79,301.42L395.33,301.09L396.96,301.23L397.51,301.51L399.14,301.95L399.68,301.58L401.86,300.39L402.4,300.39L409.47,301L410.02,302.72L411.1,313.04L411.65,321.48L413.28,338.41L413.82,339.25L418.17,338.95L418.72,338.73L421.98,338.4L422.52,338.32L426.87,337.86L427.42,337.81L430.68,337.82L431.22,337.92L443.73,338.18L444.27,338.06L449.71,338.22L450.26,338.28L455.15,338.56L455.69,338.61L460.04,338.75L460.59,338.68L466.57,339.18L467.11,339.25L473.09,339.22L473.64,339.18L494.85,339.95L495.39,339.74L496.48,335.99L497.02,331.36L499.74,306.3L500.28,304.49L502.46,301.1L503,300.86L507.9,300.03L508.44,300.09L517.14,299.9L517.68,300.01L523.67,300.38L524.21,300.26L526.39,300.64L526.93,300.83L532.37,301.94L532.91,301.55L534.54,300.62L535.09,300.68L543.79,300.95L544.33,300.86L544.87,301.42L545.42,303.48L546.51,314.26L547.05,322.55L548.68,340.59L549.22,342.09L550.86,342.67L551.4,342.55L560.64,341.52L561.19,341.59L592.18,341.64L592.73,341.71L603.6,341.97L604.15,342L623.72,342.55L624.27,342.41L625.35,341.86L625.9,340.19L626.99,331.02L627.53,324.17L629.7,306.84L630.25,305.28L632.97,299.97L633.51,299.56L640.04,297.95L640.58,297.79L643.84,297.54L644.39,297.53L650.37,297.7L650.91,297.75L652,297.88" style="vector-effect: none; fill: none; stroke: rgb(254, 203, 82); stroke-opacity: 1; stroke-width: 2px; opacity: 1;"/></g><g class="points"/><g class="text"/></g></g></g></g><g class="zerolinelayer-above"/><path class="xlines-above crisp" d="M0,0" style="fill: none;"/><path class="ylines-above crisp" d="M0,0" style="fill: none;"/><g class="overlines-above"/><g class="xaxislayer-above"><g class="xtick"><text text-anchor="middle" x="0" y="473" transform="translate(110.19,0)" style="font-family: 'Times New Roman'; font-size: 12px; fill: rgb(0, 0, 0); fill-opacity: 1; white-space: pre;">4e+6</text></g><g class="xtick"><text text-anchor="middle" x="0" y="473" style="font-family: 'Times New Roman'; font-size: 12px; fill: rgb(0, 0, 0); fill-opacity: 1; white-space: pre;" transform="translate(198.9,0)">6e+6</text></g><g class="xtick"><text text-anchor="middle" x="0" y="473" style="font-family: 'Times New Roman'; font-size: 12px; fill: rgb(0, 0, 0); fill-opacity: 1; white-space: pre;" transform="translate(287.62,0)">8e+6</text></g><g class="xtick"><text text-anchor="middle" x="0" y="473" style="font-family: 'Times New Roman'; font-size: 12px; fill: rgb(0, 0, 0); fill-opacity: 1; white-space: pre;" transform="translate(376.33,0)">1e+7</text></g><g class="xtick"><text text-anchor="middle" x="0" y="473" style="font-family: 'Times New Roman'; font-size: 12px; fill: rgb(0, 0, 0); fill-opacity: 1; white-space: pre;" transform="translate(465.05,0)">1e+7</text></g><g class="xtick"><text text-anchor="middle" x="0" y="473" style="font-family: 'Times New Roman'; font-size: 12px; fill: rgb(0, 0, 0); fill-opacity: 1; white-space: pre;" transform="translate(553.76,0)">1e+7</text></g><g class="xtick"><text text-anchor="middle" x="0" y="473" style="font-family: 'Times New Roman'; font-size: 12px; fill: rgb(0, 0, 0); fill-opacity: 1; white-space: pre;" transform="translate(642.48,0)">2e+7</text></g></g><g class="yaxislayer-above"><g class="ytick"><text text-anchor="end" x="37" y="4.199999999999999" transform="translate(0,426.75)" style="font-family: 'Times New Roman'; font-size: 12px; fill: rgb(0, 0, 0); fill-opacity: 1; white-space: pre;">14</text></g><g class="ytick"><text text-anchor="end" x="37" y="4.199999999999999" style="font-family: 'Times New Roman'; font-size: 12px; fill: rgb(0, 0, 0); fill-opacity: 1; white-space: pre;" transform="translate(0,346.59)">15</text></g><g class="ytick"><text text-anchor="end" x="37" y="4.199999999999999" style="font-family: 'Times New Roman'; font-size: 12px; fill: rgb(0, 0, 0); fill-opacity: 1; white-space: pre;" transform="translate(0,266.44)">16</text></g><g class="ytick"><text text-anchor="end" x="37" y="4.199999999999999" style="font-family: 'Times New Roman'; font-size: 12px; fill: rgb(0, 0, 0); fill-opacity: 1; white-space: pre;" transform="translate(0,186.28)">17</text></g><g class="ytick"><text text-anchor="end" x="37" y="4.199999999999999" style="font-family: 'Times New Roman'; font-size: 12px; fill: rgb(0, 0, 0); fill-opacity: 1; white-space: pre;" transform="translate(0,106.12)">18</text></g></g><g class="overaxes-above"/></g></g><g class="polarlayer"/><g class="smithlayer"/><g class="ternarylayer"/><g class="geolayer"/><g class="funnelarealayer"/><g class="pielayer"/><g class="iciclelayer"/><g class="treemaplayer"/><g class="sunburstlayer"/><g class="glimages"/><defs id="topdefs-edd305"><g class="clips"/></defs><g class="layer-above"><g class="imagelayer"/><g class="shapelayer"><g class="shape-group" data-index="0" clip-path="url(#clipedd305x)"><path data-index="0" fill-rule="evenodd" d="M62.019999999999996,460H115.26V50H62.019999999999996Z" style="opacity: 0.4; stroke: rgb(0, 0, 0); stroke-opacity: 0; fill: rgb(44, 115, 210); fill-opacity: 1; stroke-width: 0px;"/></g><g class="shape-group" data-index="1" clip-path="url(#clipedd305x)"><path data-index="1" fill-rule="evenodd" d="M195.07,460H248.29V50H195.07Z" style="opacity: 0.4; stroke: rgb(0, 0, 0); stroke-opacity: 0; fill: rgb(44, 115, 210); fill-opacity: 1; stroke-width: 0px;"/></g><g class="shape-group" data-index="2" clip-path="url(#clipedd305x)"><path data-index="2" fill-rule="evenodd" d="M328.14,460H381.36V50H328.14Z" style="opacity: 0.4; stroke: rgb(0, 0, 0); stroke-opacity: 0; fill: rgb(44, 115, 210); fill-opacity: 1; stroke-width: 0px;"/></g><g class="shape-group" data-index="3" clip-path="url(#clipedd305x)"><path data-index="3" fill-rule="evenodd" d="M461.18,460H514.4100000000001V50H461.18Z" style="opacity: 0.4; stroke: rgb(0, 0, 0); stroke-opacity: 0; fill: rgb(44, 115, 210); fill-opacity: 1; stroke-width: 0px;"/></g><g class="shape-group" data-index="4" clip-path="url(#clipedd305x)"><path data-index="4" fill-rule="evenodd" d="M594.26,460H647.47V50H594.26Z" style="opacity: 0.4; stroke: rgb(0, 0, 0); stroke-opacity: 0; fill: rgb(44, 115, 210); fill-opacity: 1; stroke-width: 0px;"/></g></g></g><g class="infolayer"><g class="g-gtitle"><text class="gtitle" x="350" y="25" text-anchor="middle" dy="0em" style="opacity: 1; font-family: 'Times New Roman'; font-size: 17px; fill: rgb(0, 0, 0); fill-opacity: 1; white-space: pre;">Matrix 1, Sensor 7</text></g><g class="g-xtitle" transform="translate(0,-2.8000000000000114)"><text class="xtitle" x="364" y="499.8" text-anchor="middle" style="opacity: 1; font-family: 'Times New Roman'; font-size: 14px; fill: rgb(0, 0, 0); fill-opacity: 1; white-space: pre;">Time since power on (ms)</text></g><g class="g-ytitle" transform="translate(6.900390625,0)"><text class="ytitle" transform="rotate(-90,5.600000000000001,255)" x="5.600000000000001" y="255" text-anchor="middle" style="opacity: 1; font-family: 'Times New Roman'; font-size: 14px; fill: rgb(0, 0, 0); fill-opacity: 1; white-space: pre;">Resistance (Ohms)</text></g><g class="annotation" data-index="0" style="opacity: 1;"><g class="annotation-text-g" transform="rotate(0,72.02,58.5)"><g class="cursor-pointer" transform="translate(62,50)"><rect class="bg" x="0.5" y="0.5" width="19" height="16" style="stroke-width: 1px; stroke: rgb(0, 0, 0); stroke-opacity: 0; fill: rgb(0, 0, 0); fill-opacity: 0;"/><text class="annotation-text" text-anchor="middle" x="10" y="12.5" style="font-family: 'Times New Roman'; font-size: 12px; fill: rgb(0, 0, 0); fill-opacity: 1; white-space: pre;">Air</text></g></g></g><g class="annotation" data-index="1" style="opacity: 1;"><g class="annotation-text-g" transform="rotate(0,205.07,58.5)"><g class="cursor-pointer" transform="translate(195,50)"><rect class="bg" x="0.5" y="0.5" width="19" height="16" style="stroke-width: 1px; stroke: rgb(0, 0, 0); stroke-opacity: 0; fill: rgb(0, 0, 0); fill-opacity: 0;"/><text class="annotation-text" text-anchor="middle" x="10" y="12.5" style="font-family: 'Times New Roman'; font-size: 12px; fill: rgb(0, 0, 0); fill-opacity: 1; white-space: pre;">Air</text></g></g></g><g class="annotation" data-index="2" style="opacity: 1;"><g class="annotation-text-g" transform="rotate(0,338.14,58.5)"><g class="cursor-pointer" transform="translate(328,50)"><rect class="bg" x="0.5" y="0.5" width="19" height="16" style="stroke-width: 1px; stroke: rgb(0, 0, 0); stroke-opacity: 0; fill: rgb(0, 0, 0); fill-opacity: 0;"/><text class="annotation-text" text-anchor="middle" x="10" y="12.5" style="font-family: 'Times New Roman'; font-size: 12px; fill: rgb(0, 0, 0); fill-opacity: 1; white-space: pre;">Air</text></g></g></g><g class="annotation" data-index="3" style="opacity: 1;"><g class="annotation-text-g" transform="rotate(0,471.18,58.5)"><g class="cursor-pointer" transform="translate(461,50)"><rect class="bg" x="0.5" y="0.5" width="19" height="16" style="stroke-width: 1px; stroke: rgb(0, 0, 0); stroke-opacity: 0; fill: rgb(0, 0, 0); fill-opacity: 0;"/><text class="annotation-text" text-anchor="middle" x="10" y="12.5" style="font-family: 'Times New Roman'; font-size: 12px; fill: rgb(0, 0, 0); fill-opacity: 1; white-space: pre;">Air</text></g></g></g><g class="annotation" data-index="4" style="opacity: 1;"><g class="annotation-text-g" transform="rotate(0,604.26,58.5)"><g class="cursor-pointer" transform="translate(594,50)"><rect class="bg" x="0.5" y="0.5" width="19" height="16" style="stroke-width: 1px; stroke: rgb(0, 0, 0); stroke-opacity: 0; fill: rgb(0, 0, 0); fill-opacity: 0;"/><text class="annotation-text" text-anchor="middle" x="10" y="12.5" style="font-family: 'Times New Roman'; font-size: 12px; fill: rgb(0, 0, 0); fill-opacity: 1; white-space: pre;">Air</text></g></g></g></g></svg>