<svg class="main-svg" xmlns="http://www.w3.org/2000/svg" xmlns:xlink="http://www.w3.org/1999/xlink" width="700" height="500" style="" viewBox="0 0 700 500"><rect x="0" y="0" width="700" height="500" style="fill: rgb(255, 255, 255); fill-opacity: 1;"/><defs id="defs-e15ef5"><g class="clips"><clipPath id="clipe15ef5xyplot" class="plotclip"><rect width="652" height="410"/></clipPath><clipPath class="axesclip" id="clipe15ef5x"><rect x="38" y="0" width="652" height="500"/></clipPath><clipPath class="axesclip" id="clipe15ef5y"><rect x="0" y="50" width="700" height="410"/></clipPath><clipPath class="axesclip" id="clipe15ef5xy"><rect x="38" y="50" width="652" height="410"/></clipPath></g><g class="gradients"/><g class="patterns"/></defs><g class="bglayer"><rect class="bg" x="38" y="50" width="652" height="410" style="fill: rgb(229, 236, 246); fill-opacity: 1; stroke-width: 0;"/></g><g class="layer-below"><g class="imagelayer"/><g class="shapelayer"/></g><g class="cartesianlayer"><g class="subplot xy"><g class="layer-subplot"><g class="shapelayer"/><g class="imagelayer"/></g><g class="minor-gridlayer"><g class="x"/><g class="y"/></g><g class="gridlayer"><g class="x"><path class="xgrid crisp" transform="translate(67.25,0)" d="M0,50v410" style="stroke: rgb(255, 255, 255); stroke-opacity: 1; stroke-width: 1px;"/><path class="xgrid crisp" transform="translate(155.97,0)" d="M0,50v410" style="stroke: rgb(255, 255, 255); stroke-opacity: 1; stroke-width: 1px;"/><path class="xgrid crisp" transform="translate(244.69,0)" d="M0,50v410" style="stroke: rgb(255, 255, 255); stroke-opacity: 1; stroke-width: 1px;"/><path class="xgrid crisp" transform="translate(333.41,0)" d="M0,50v410" style="stroke: rgb(255, 255, 255); stroke-opacity: 1; stroke-width: 1px;"/><path class="xgrid crisp" transform="translate(422.13,0)" d="M0,50v410" style="stroke: rgb(255, 255, 255); stroke-opacity: 1; stroke-width: 1px;"/><path class="xgrid crisp" transform="translate(510.85,0)" d="M0,50v410" style="stroke: rgb(255, 255, 255); stroke-opacity: 1; stroke-width: 1px;"/><path class="xgrid crisp" transform="translate(599.57,0)" d="M0,50v410" style="stroke: rgb(255, 255, 255); stroke-opacity: 1; stroke-width: 1px;"/><path class="xgrid crisp" transform="translate(688.28,0)" d="M0,50v410" style="stroke: rgb(255, 255, 255); stroke-opacity: 1; stroke-width: 1px;"/></g><g class="y"><path class="ygrid crisp" transform="translate(0,433.12)" d="M38,0h652" style="stroke: rgb(255, 255, 255); stroke-opacity: 1; stroke-width: 1px;"/><path class="ygrid crisp" transform="translate(0,390.18)" d="M38,0h652" style="stroke: rgb(255, 255, 255); stroke-opacity: 1; stroke-width: 1px;"/><path class="ygrid crisp" transform="translate(0,347.24)" d="M38,0h652" style="stroke: rgb(255, 255, 255); stroke-opacity: 1; stroke-width: 1px;"/><path class="ygrid crisp" transform="translate(0,304.28999999999996)" d="M38,0h652" style="stroke: rgb(255, 255, 255); stroke-opacity: 1; stroke-width: 1px;"/><path class="ygrid crisp" transform="translate(0,261.35)" d="M38,0h652" style="stroke: rgb(255, 255, 255); stroke-opacity: 1; stroke-width: 1px;"/><path class="ygrid crisp" transform="translate(0,218.41)" d="M38,0h652" style="stroke: rgb(255, 255, 255); stroke-opacity: 1; stroke-width: 1px;"/><path class="ygrid crisp" transform="translate(0,175.47)" d="M38,0h652" style="stroke: rgb(255, 255, 255); stroke-opacity: 1; stroke-width: 1px;"/><path class="ygrid crisp" transform="translate(0,132.53)" d="M38,0h652" style="stroke: rgb(255, 255, 255); stroke-opacity: 1; stroke-width: 1px;"/><path class="ygrid crisp" transform="translate(0,89.58)" d="M38,0h652" style="stroke: rgb(255, 255, 255); stroke-opacity: 1; stroke-width: 1px;"/></g></g><g class="zerolinelayer"/><g class="layer-between"><g class="shapelayer"/><g class="imagelayer"/></g><path class="xlines-below"/><path class="ylines-below"/><g class="overlines-below"/><g class="xaxislayer-below"/><g class="yaxislayer-below"/><g class="overaxes-below"/><g class="overplot"><g class="xy" transform="translate(38,50)" clip-path="url(#clipe15ef5xyplot)"><g class="scatterlayer mlayer"><g class="trace scatter trace462e8b" style="stroke-miterlimit: 2; opacity: 1;"><g class="fills"/><g class="errorbars"/><g class="lines"><path class="js-line" d="M0,20.5L11.96,20.97L12.51,22.21L13.59,33.57L14.14,47.32L15.77,140.01L16.31,188.15L18.49,249.26L19.03,248.77L19.58,247.59L20.12,248.43L21.21,248.9L21.75,248.87L23.93,248.5L24.47,248.28L27.19,247.62L27.73,247.7L31,247.33L31.54,247.13L34.8,246.55L35.35,246.41L41.87,244.78L42.42,244.77L49.48,243.8L50.03,243.41L51.66,243.1L52.2,243.41L54.38,243.76L54.92,243.68L62.54,242.88L63.08,242.98L66.34,242.92L66.89,242.87L75.04,242.1L75.59,242.17L81.57,242.19L82.11,242.1L88.64,241.53L89.18,240L90.81,212.77L91.36,186.92L93.53,58.47L94.08,42.63L95.71,22.56L96.25,21.2L97.88,20.56L98.43,20.52L119.09,20.5L119.63,20.5L144.65,20.86L145.19,21.57L146.28,30.37L146.82,41.73L147.91,87.53L148.45,123.68L150.09,207.35L150.63,220.41L151.72,234.57L152.26,233.65L153.89,234.93L154.44,234.72L170.75,233.97L171.29,233.71L172.92,233.86L173.47,234.03L178.91,234.29L179.45,234.23L183.8,234.32L184.34,234.42L196.85,234.58L197.39,234.31L199.57,232.38L200.11,232.88L202.29,234.56L202.83,234.48L210.45,234.36L210.99,234.41L216.97,234.5L217.51,234.39L222.95,233.9L223.5,228.67L225.13,194.67L225.67,155.84L227.85,46.41L228.39,35.78L230.02,22.76L230.57,21.49L232.2,20.56L232.74,20.53L253.4,20.5L253.95,20.5L277.87,21.17L278.42,23.02L279.51,36.92L280.05,52.83L281.68,151.87L282.23,191.27L284.4,228.8L284.94,227.88L286.03,228.56L286.58,228.69L289.84,228.29L290.38,228.31L295.82,228.68L296.36,228.58L301.8,228.36L302.35,228.49L306.7,228.49L307.24,228.44L315.94,228.13L316.48,228.23L318.66,228L319.2,227.72L320.83,227.86L321.38,228.15L323.55,228.17L324.1,228.2L331.71,228.5L332.25,228.43L337.15,228.51L337.69,228.6L343.67,228.66L344.22,228.55L349.11,227.99L349.65,227.75L351.83,228.3L352.37,228.43L354.55,228.11L355.09,227.9L355.64,228.33L356.18,226.01L357.81,200.4L358.36,169.96L360.53,49.46L361.07,36.5L362.71,21.77L363.25,20.95L365.42,20.51L365.97,20.5L410.56,20.94L411.1,22.06L412.19,32.83L412.73,46.04L414.37,134.55L414.91,177.31L416.54,213.32L417.08,220.63L419.8,222.94L420.35,222.92L425.24,223.05L425.78,223.04L430.14,223.52L430.68,223.65L433.94,223.39L434.49,223.44L440.47,223.69L441.01,223.47L443.19,223.46L443.73,223.54L450.26,223.37L450.8,223.29L457.87,223.65L458.41,223.85L461.13,223.41L461.67,223.03L463.31,222.61L463.85,222.98L466.03,223.8L466.57,223.91L469.29,224.01L469.83,223.9L474.73,223.63L475.27,223.6L479.62,223.73L480.16,223.76L482.88,222.99L483.43,222.81L486.15,221.65L486.69,222L488.32,222.62L488.86,222.23L490.5,221.35L491.04,221.59L494.3,222.95L494.85,223L498.11,222.61L498.65,222.01L499.74,221.5L500.28,216.9L501.91,186.84L502.46,149.96L504.63,42.92L505.18,32.32L506.81,21.29L507.35,20.77L511.7,20.5L512.25,20.5L553.57,21.23L554.12,23.28L555.21,37.92L555.75,54.23L557.38,151.65L557.92,185.17L560.1,215.48L560.64,214.9L562.82,215.53L563.36,215.35L566.08,215.55L566.63,215.78L568.8,216.13L569.34,215.99L572.06,215.86L572.61,216.01L576.41,216.26L576.96,216.21L579.68,215.14L580.22,215.56L582.4,216.57L582.94,216.56L585.66,215.73L586.2,215.53L587.83,215.77L588.38,216.06L590.55,216.66L591.1,216.58L594.36,216.43L594.9,216.65L597.62,216.88L598.17,216.78L600.34,216.75L600.88,216.97L603.06,217.18L603.6,217.09L611.22,216.63L611.76,216.68L616.65,216.6L617.2,216.51L626.99,216.89L627.53,217.05L630.25,217.22L630.79,217L631.88,216.38L632.42,216.68L632.97,213.44L633.51,205.04L634.6,187.99L635.14,153.62L637.32,41.86L637.86,31.43L639.49,21.24L640.04,20.8L643.3,20.5L643.84,20.5L652,20.5" style="vector-effect: none; fill: none; stroke: rgb(99, 110, 250); stroke-opacity: 1; stroke-width: 2px; opacity: 1;"/></g><g class="points"/><g class="text"/></g><g class="trace scatter trace1d20f6" style="stroke-miterlimit: 2; opacity: 1;"><g class="fills"/><g class="errorbars"/><g class="lines"><path class="js-line" d="M0,171.2L10.33,170.45L10.88,170.59L11.96,170.86L12.51,171.98L13.59,183L14.14,196.49L15.77,287.41L16.31,333.34L18.49,386.57L19.03,386.65L19.58,386.03L20.12,386.89L21.21,387.14L21.75,386.92L39.15,383.32L39.7,383.22L51.66,381.38L52.2,381.34L82.66,379.19L83.2,379.18L88.64,378.74L89.18,378.26L90.81,366.32L91.36,350.91L94.08,225.17L94.62,216.21L96.25,204.35L96.79,202.29L99.51,196.4L100.06,195.62L103.32,192.66L103.86,192.31L112.56,187.98L113.11,187.76L125.61,183.91L126.16,183.84L132.68,182.4L133.23,182.26L143.56,180.54L144.1,180.63L145.19,181.3L145.73,183.91L146.82,200.93L147.37,219.36L150.09,355.33L150.63,365.03L151.72,374.95L152.26,374.34L153.89,375.12L154.44,374.95L164.77,374.33L165.31,374.31L178.36,374.1L178.91,374.09L210.99,374.22L211.53,374.24L221.32,374.44L221.86,374.14L222.95,374.2L223.5,372.08L225.13,354.98L225.67,327.03L227.85,226.67L228.39,216.75L230.02,203.92L230.57,201.76L232.74,196.18L233.28,195.3L237.09,191.16L237.63,190.78L245.25,186.58L245.79,186.36L262.65,181.31L263.19,181.26L268.09,180.14L268.63,180L277.33,178.9L277.87,179.14L278.42,180.85L278.96,185.43L280.05,209.91L280.59,233.32L282.77,350.16L283.31,358.13L284.4,371.95L284.94,371.38L319.75,370.86L320.29,370.87L339.87,371.22L340.41,371.28L351.83,371.41L352.37,371.33L355.64,371.19L356.18,370.16L357.81,357.5L358.36,337.45L360.53,229.86L361.07,217.82L362.71,202.28L363.25,200.05L365.97,193.36L366.51,192.54L370.32,188.67L370.86,188.29L376.3,185.23L376.84,184.9L381.74,182.85L382.28,182.69L400.23,177.58L400.77,177.46L409.47,176.48L410.02,176.52L410.56,176.54L411.1,177.49L412.19,187.78L412.73,200.67L414.37,286.81L414.91,327.02L416.54,359.17L417.08,365.13L419.8,365.97L420.35,365.97L432.85,366.86L433.4,366.86L458.41,367.45L458.96,367.43L467.66,367.53L468.2,367.53L478.53,367.88L479.08,367.89L493.76,367.96L494.3,367.99L499.74,368.04L500.28,365.74L501.91,349.15L502.46,320.99L504.63,223.94L505.18,214.35L506.81,202.02L507.35,199.97L510.07,193.95L510.62,193.13L513.88,189.95L514.42,189.46L520.4,185.3L520.95,185.03L530.19,181.33L530.74,181.2L545.42,177.64L545.96,177.58L553.57,176.82L554.12,178.77L555.21,192.85L555.75,208.69L559.01,349.68L559.56,358.36L560.1,361.26L560.64,360.9L561.19,361.11L562.82,361.79L563.36,361.83L582.4,363.18L582.94,363.18L617.74,363.93L618.29,363.99L625.9,363.99L626.44,363.98L632.42,363.92L632.97,362.56L634.6,349.52L635.14,326.41L637.32,224.53L637.86,213.61L639.49,198.99L640.04,196.6L642.21,190.8L642.76,189.91L647.11,184.8L647.65,184.28L650.91,182.25L651.46,182.02L652,181.73" style="vector-effect: none; fill: none; stroke: rgb(239, 85, 59); stroke-opacity: 1; stroke-width: 2px; opacity: 1;"/></g><g class="points"/><g class="text"/></g><g class="trace scatter trace8056df" style="stroke-miterlimit: 2; opacity: 1;"><g class="fills"/><g class="errorbars"/><g class="lines"><path class="js-line" d="M0,91.6L6.53,90.72L7.07,90.74L9.79,90.21L10.33,90.04L11.42,90.24L11.96,92.43L13.05,107.87L13.59,124.94L15.23,227.86L15.77,266.52L17.94,317.36L18.49,316.31L20.12,318.03L20.66,317.84L23.93,317.15L24.47,316.9L27.73,316.22L28.28,316.12L46.77,313.32L47.31,313.3L53.83,312.93L54.38,312.88L63.08,311.86L63.62,311.7L70.69,310.71L71.24,310.68L84.83,309.97L85.37,309.94L89.18,309.96L89.72,308.31L91.36,293.63L91.9,268.48L94.08,166.69L94.62,156.51L96.25,144.06L96.79,142.16L98.97,137.35L99.51,136.66L103.32,133.59L103.86,133.32L110.93,130.46L111.48,130.38L116.91,128.64L117.46,128.36L127.25,124.76L127.79,124.64L135.4,122.36L135.95,122.2L145.19,119.36L145.73,120.77L146.82,133.06L147.37,147.56L149,238.13L149.54,273.47L151.72,301.18L152.26,300.84L153.35,301.36L153.89,301.58L161.5,301.26L162.05,301.31L195.76,301.26L196.31,301.19L205.01,301.24L205.55,301.28L209.9,301.06L210.45,300.95L213.71,300.98L214.25,301.04L221.32,300.39L221.86,300.12L223.5,299.37L224.04,296.27L225.13,288.21L225.67,271.62L228.39,157.5L228.93,150.16L230.57,140.84L231.11,139.14L233.28,134.93L233.83,134.27L238.72,130.52L239.27,130.21L246.34,127.32L246.88,127.15L274.61,118.08L275.16,117.93L277.87,117.34L278.42,117.87L279.51,127.01L280.05,138.92L281.68,220.18L282.23,258.62L283.86,288.87L284.4,294.45L285.49,294.79L286.03,295.04L287.66,294.87L288.21,294.8L292.01,295.02L292.56,295.2L295.28,295.3L295.82,295.23L301.26,294.88L301.8,294.75L308.33,294.87L308.87,295.02L311.59,294.7L312.13,294.72L317.03,294.67L317.57,294.64L347.48,295.31L348.02,295.34L356.18,294.91L356.72,292.79L358.36,274.63L358.9,247.42L361.07,154.36L361.62,145.24L363.25,134.11L363.79,132.41L366.51,127.3L367.06,126.67L370.86,123.3L371.41,122.97L376.84,120.59L377.39,120.41L393.16,115.56L393.7,115.37L408.38,110.41L408.93,110.26L410.02,110.18L410.56,111.01L411.65,118.4L412.19,127.34L413.82,186.83L414.37,217.6L416,274.25L416.54,278.78L417.63,283.54L418.17,283.58L421.98,284.97L422.52,285.04L429.05,285.35L429.59,285.31L443.73,286.86L444.27,286.79L449.17,286.61L449.71,286.69L452.97,286.9L453.52,286.81L464.94,286.87L465.48,286.95L475.27,287.35L475.81,287.49L477.99,287.45L478.53,287.25L481.25,287.03L481.79,286.98L486.69,286.8L487.23,286.91L490.5,286.77L491.04,286.76L499.74,286.27L500.28,285.53L501.91,275.58L502.46,258.43L505.18,146.87L505.72,140.13L507.35,133.08L507.9,131.87L510.62,128.11L511.16,127.49L513.88,125.99L514.42,125.65L522.04,121.72L522.58,121.52L526.93,119.85L527.47,119.5L530.19,118.42L530.74,118.34L536.72,116.49L537.26,116.21L544.87,113.64L545.42,113.51L550.86,111.28L551.4,111.03L553.57,110.76L554.12,111.52L555.21,121.04L555.75,133.19L557.38,212.63L557.92,245.93L559.56,270.22L560.1,274.25L562.28,275.56L562.82,275.69L577.5,276.86L578.05,276.87L600.34,278.27L600.88,278.36L605.23,278.08L605.78,277.92L609.04,277.89L609.58,277.89L618.83,277.73L619.37,277.82L625.35,278.03L625.9,277.93L632.97,277.45L633.51,274.97L634.6,267.85L635.14,255.02L637.86,138.17L638.41,129.72L640.04,118.29L640.58,116.12L642.76,110.8L643.3,110.06L648.74,105.04L649.28,104.64L652,103.62" style="vector-effect: none; fill: none; stroke: rgb(0, 204, 150); stroke-opacity: 1; stroke-width: 2px; opacity: 1;"/></g><g class="points"/><g class="text"/></g><g class="trace scatter trace29d236" style="stroke-miterlimit: 2; opacity: 1;"><g class="fills"/><g class="errorbars"/><g class="lines"><path class="js-line" d="M0,188.96L11.42,189.39L11.96,191.57L13.05,206.82L13.59,223.75L15.23,323.81L15.77,356.79L17.94,389.21L18.49,388.59L20.66,389.31L21.21,389.18L52.75,382.95L53.29,382.93L68.52,381.94L69.06,381.89L89.18,381.12L89.72,379.4L91.36,364.07L91.9,338.22L94.08,234.44L94.62,224.09L96.25,211.85L96.79,210.19L98.97,206.1L99.51,205.49L102.78,203.13L103.32,202.88L110.93,200.45L111.48,200.33L128.88,197.39L129.42,197.34L144.65,196.43L145.19,197.78L146.28,207.5L146.82,218.18L148.45,288.28L149,323.52L150.09,363.1L150.63,368.28L151.72,376.81L152.26,376.74L162.59,376.1L163.14,376.1L222.41,375.56L222.95,374.9L224.04,369.85L224.58,361.59L225.67,321.9L226.22,293.25L228.39,223.74L228.93,217.49L230.57,209.3L231.11,207.83L233.83,203.68L234.37,203.16L238.18,200.79L238.72,200.57L248.51,197.73L249.05,197.66L277.87,194.08L278.42,194.73L279.51,203.96L280.05,215.79L281.68,296.61L282.23,335.42L283.86,367.14L284.4,372.87L284.94,373.52L285.49,373.05L286.03,373.3L287.66,373.2L288.21,373.09L295.28,372.79L295.82,372.82L355.09,372.56L355.64,372.06L356.72,368.29L357.27,362.36L358.36,328.92L358.9,300.99L361.07,224.6L361.62,217.14L363.25,207.5L363.79,205.93L366.51,201L367.06,200.38L370.32,198.36L370.86,198.12L377.39,195.88L377.93,195.74L392.61,193.01L393.16,192.92L409.47,191.17L410.02,191.46L410.56,193.29L411.1,197.88L412.19,221.55L412.73,243.03L415.45,356.84L416,363.57L417.08,366.57L417.63,366.98L419.26,367.44L419.8,367.46L444.27,368.52L444.82,368.52L466.03,368.63L466.57,368.6L485.06,368.99L485.6,369.02L499.2,368.79L499.74,368.35L500.83,363.59L501.37,356.45L502.46,320.6L503,291.92L505.18,221.19L505.72,214.97L507.35,207.26L507.9,205.86L510.62,201.78L511.16,201.19L515.51,198.13L516.05,197.87L522.04,195.99L522.58,195.89L528.02,194.25L528.56,194.13L547.59,191.64L548.14,191.64L553.57,190.95L554.12,191.89L555.21,201.75L555.75,213.97L557.38,294.16L557.92,329.47L559.56,357.47L560.1,362.03L561.73,362.74L562.28,363L611.22,364.39L611.76,364.38L629.16,364.69L629.7,364.8L631.88,364.72L632.42,364.18L633.51,360.22L634.06,353.77L635.14,319.34L635.69,291.8L637.86,219.49L638.41,212.45L640.04,202.81L640.58,201.07L642.76,196.84L643.3,196.19L647.11,193.09L647.65,192.77L652,190.92" style="vector-effect: none; fill: none; stroke: rgb(171, 99, 250); stroke-opacity: 1; stroke-width: 2px; opacity: 1;"/></g><g class="points"/><g class="text"/></g><g class="trace scatter trace2ce3ad" style="stroke-miterlimit: 2; opacity: 1;"><g class="fills"/><g class="errorbars"/><g class="lines"><path class="js-line" d="M0,119.91L10.88,119.59L11.42,120.05L12.51,127.55L13.05,137.61L14.14,180.13L14.68,214.67L16.31,315.12L16.86,331.52L17.94,360.23L18.49,358.31L20.12,360.37L20.66,359.9L31.54,355.96L32.08,355.76L42.96,353.12L43.5,353.02L57.64,351.17L58.19,351.13L75.04,349.34L75.59,349.3L89.18,348.51L89.72,345.57L91.36,321.87L91.9,289.2L94.08,177.2L94.62,166.07L96.25,151.77L96.79,149.63L99.51,143.46L100.06,142.67L103.32,139.62L103.86,139.28L110.39,136.62L110.93,136.47L129.42,132.19L129.96,132.11L143.02,130.32L143.56,130.24L144.1,130.24L144.65,131.18L145.73,140.15L146.28,150.95L147.91,219.13L148.45,253.49L150.09,326.8L150.63,334.78L151.72,341.71L152.26,342.26L154.98,342.5L155.52,342.47L182.71,341.71L183.26,341.72L221.32,341.99L221.86,341.8L222.95,340.51L223.5,338.1L224.58,321.17L225.13,303.35L228.39,165.91L228.93,158.72L230.57,148.8L231.11,147.05L233.83,141.58L234.37,140.94L238.72,137.31L239.27,136.95L243.07,135.53L243.62,135.28L249.05,133.4L249.6,133.23L265.91,129.65L266.46,129.58L277.87,128.21L278.42,128.9L279.51,138.21L280.05,150.1L281.68,233.91L282.23,279.17L283.86,325.51L284.4,336.44L284.94,337.94L285.49,337.07L287.12,338.24L287.66,338.09L355.09,337.42L355.64,336.81L356.18,335.2L356.72,331.17L357.81,307.25L358.36,283.13L361.07,166.88L361.62,158.38L363.25,146.76L363.79,144.76L366.51,138.7L367.06,138.02L370.86,134.69L371.41,134.36L377.93,131.41L378.48,131.25L403.49,125.27L404.03,125.31L406.75,125L407.3,124.84L409.47,124.78L410.02,125.13L410.56,127.09L411.1,131.98L412.19,157.22L412.73,180.62L415.45,312.22L416,323.97L416.54,328.23L417.08,328.14L417.63,328.67L419.26,329.8L419.8,329.9L425.78,330.69L426.33,330.7L439.92,332.15L440.47,332.27L444.27,332.29L444.82,332.3L499.2,332.24L499.74,331.8L500.28,329.85L500.83,324.58L501.91,301.28L502.46,274.42L504.63,174.66L505.18,163.64L506.81,149.3L507.35,147.19L510.07,140.45L510.62,139.57L513.33,136.94L513.88,136.52L519.32,133.19L519.86,133L532.37,128.65L532.91,128.56L538.89,127.41L539.44,127.2L545.96,125.91L546.51,125.87L553.57,124.98L554.12,125.87L555.21,135.71L555.75,148.02L557.38,232.12L557.92,274.2L559.56,313.62L560.1,321.73L560.64,322.69L561.19,322.36L561.73,323.07L563.36,323.9L563.91,324.05L581.85,325.96L582.4,325.98L622.64,326.92L623.18,326.91L631.88,326.63L632.42,326.04L632.97,324.41L633.51,320.44L634.6,297.17L635.14,272.55L637.32,173.56L637.86,161.55L639.49,144.43L640.04,141.72L642.21,135.35L642.76,134.41L646.56,129.9L647.11,129.36L650.37,127.36L650.91,127.19L652,126.69" style="vector-effect: none; fill: none; stroke: rgb(255, 161, 90); stroke-opacity: 1; stroke-width: 2px; opacity: 1;"/></g><g class="points"/><g class="text"/></g><g class="trace scatter traceb3228a" style="stroke-miterlimit: 2; opacity: 1;"><g class="fills"/><g class="errorbars"/><g class="lines"><path class="js-line" d="M0,137.39L9.24,136.69L9.79,136.72L11.42,137.16L11.96,138.83L13.05,152.15L13.59,167.6L15.23,267.75L15.77,313.89L17.94,367.67L18.49,365.88L19.03,365.36L19.58,366.23L20.66,365.42L21.21,364.83L27.73,360.35L28.28,360.08L37.52,356.17L38.07,355.98L50.57,353.28L51.12,353.16L57.1,352.52L57.64,352.52L70.69,351.3L71.24,351.23L89.18,349.48L89.72,348.21L91.36,332.52L91.9,309.42L94.08,197.04L94.62,184.9L96.25,169.18L96.79,166.92L98.97,161.36L99.51,160.5L102.23,157.73L102.78,157.41L109.3,153.87L109.84,153.69L123.44,150.47L123.98,150.41L144.1,149.2L144.65,150.19L145.73,160.49L146.28,173.2L147.91,258.97L148.45,300.61L150.09,335.23L150.63,341.85L153.35,342.43L153.89,342.31L181.08,339.82L181.62,339.81L222.41,338.56L222.95,337.63L224.04,332.66L224.58,324.76L226.22,253.83L226.76,228.81L228.93,176.11L229.48,171.35L231.65,162.45L232.2,161.23L235.46,156.57L236,156.09L241.44,152.72L241.98,152.51L251.23,149.43L251.77,149.31L270.26,146.33L270.81,146.28L277.87,146.06L278.42,146.51L279.51,154.18L280.05,164.49L281.68,240.96L282.23,283L283.31,318.04L283.86,326.67L284.94,337.28L285.49,336.46L287.66,336.84L288.21,336.72L297.45,336.03L297.99,336.01L354.01,334.3L354.55,334.2L355.64,333.51L356.18,331.98L357.27,324.81L357.81,311.46L361.62,175.89L362.16,170.33L364.34,160.19L364.88,158.82L367.6,154.47L368.14,153.86L372.49,150.64L373.04,150.31L378.48,147.82L379.02,147.65L392.07,144.3L392.61,144.16L405.12,141.9L405.66,141.86L410.02,141.79L410.56,143.32L411.65,155.95L412.19,170.62L413.82,261.93L414.37,297.45L416.54,325.21L417.08,324.79L418.17,325.22L418.72,325.45L426.33,325.84L426.87,325.9L436.12,326.36L436.66,326.35L459.5,326.37L460.04,326.31L466.57,326.22L467.11,326.2L499.2,325.73L499.74,325.12L500.83,321.13L501.37,314.5L502.46,278.81L503,251.67L505.18,180.87L505.72,174.01L507.35,164.47L507.9,162.62L510.62,156.81L511.16,155.93L514.42,152.59L514.97,152.2L523.67,147.76L524.21,147.6L532.37,144.99L532.91,144.93L537.8,143.89L538.35,143.72L550.31,141.56L550.86,141.52L553.57,141.57L554.12,142.15L555.21,150.32L555.75,161.05L557.38,237.51L557.92,275.93L559.01,302.33L559.56,309.11L560.64,316.03L561.19,315.6L564.45,316.22L564.99,316.2L570.98,316.38L571.52,316.39L587.83,317.56L588.38,317.58L606.32,317.52L606.87,317.51L631.88,317.39L632.42,316.84L633.51,313.72L634.06,309.08L635.14,277.62L635.69,252.04L637.86,179.23L638.41,171.28L640.04,159.44L640.58,157.22L642.76,151.58L643.3,150.66L646.56,146.82L647.11,146.36L652,143.1" style="vector-effect: none; fill: none; stroke: rgb(25, 211, 243); stroke-opacity: 1; stroke-width: 2px; opacity: 1;"/></g><g class="points"/><g class="text"/></g><g class="trace scatter tracec32f94" style="stroke-miterlimit: 2; opacity: 1;"><g class="fills"/><g class="errorbars"/><g class="lines"><path class="js-line" d="M0,144.99L11.42,144.72L11.96,145.91L13.05,157.17L13.59,170.84L15.23,262.98L15.77,310.42L17.94,368.23L18.49,367.73L19.03,366.56L19.58,367.1L20.12,367.16L23.93,363.43L24.47,363L31,358.93L31.54,358.62L38.07,355.96L38.61,355.81L53.29,352.96L53.83,352.92L74.5,350.35L75.04,350.2L78.31,350.25L78.85,350.42L81.02,350.13L81.57,349.96L89.18,348.72L89.72,347.6L90.81,336.59L91.36,326.92L95.16,182.07L95.71,177.16L97.88,168.59L98.43,167.39L101.14,163.72L101.69,163.2L105.49,160.78L106.04,160.54L112.02,158.84L112.56,158.73L123.98,156.55L124.53,156.56L133.23,156.03L133.77,155.98L141.38,156.04L141.93,156.03L144.1,156.29L144.65,156.99L145.73,165.8L146.28,177L147.91,256.08L148.45,297.33L149.54,325.57L150.09,333.76L151.17,341.7L151.72,341.04L153.89,341.24L154.44,341.17L183.8,338.32L184.34,338.35L191.41,338.15L191.96,338.14L222.41,337.03L222.95,336.19L224.04,331.6L224.58,325.56L226.22,256.86L226.76,231.88L228.39,187.76L228.93,180.93L231.11,168.92L231.65,167.35L234.37,162.75L234.92,162.32L242.53,157.54L243.07,157.33L251.77,155.05L252.32,154.96L277.33,152.76L277.87,152.78L278.42,152.99L278.96,154.65L280.05,167.98L280.59,183.46L282.23,277.5L282.77,310.94L284.94,336.23L285.49,335.67L295.28,334.79L295.82,334.75L323.01,333.47L323.55,333.48L337.15,332.98L337.69,332.93L347.48,332.73L348.02,332.76L355.09,332.36L355.64,331.94L356.72,328.17L357.27,324.67L358.36,291.4L358.9,264.55L361.07,188.83L361.62,180.73L363.25,169.03L363.79,166.96L366.51,160.85L367.06,160.12L370.32,157.32L370.86,156.92L375.21,154.6L375.76,154.45L393.16,149.89L393.7,149.85L400.23,149.19L400.77,149.1L408.93,148.67L409.47,148.72L410.02,148.8L410.56,149.86L411.65,160.49L412.19,173.52L413.82,258.18L414.37,294.62L416,319.07L416.54,323L420.89,322.93L421.43,322.96L439.92,323.69L440.47,323.74L445.9,323.61L446.45,323.57L480.16,323.07L480.71,323.11L499.2,322.7L499.74,322.1L500.83,318.71L501.37,313.58L502.46,279.01L503,253.4L505.18,185.76L505.72,178.97L507.35,169.17L507.9,167.35L510.62,161.55L511.16,160.8L514.97,157.39L515.51,157L520.4,154.51L520.95,154.26L527.47,151.83L528.02,151.59L531.82,150.78L532.37,150.71L553.57,148.61L554.12,148.9L554.66,150.77L555.21,155.57L556.29,180.82L556.84,204.33L559.01,301.47L559.56,306.34L560.64,313.07L561.19,312.58L567.71,312.71L568.26,312.73L579.13,313.21L579.68,313.24L597.62,313.49L598.17,313.48L609.58,313.47L610.13,313.46L619.37,313.6L619.92,313.62L631.88,313.28L632.42,312.8L633.51,310.06L634.06,306.94L635.14,278.4L635.69,254.27L637.86,183.6L638.41,175.87L640.04,164.41L640.58,162.32L643.3,155.92L643.84,155.15L647.65,151.25L648.19,150.84L652,148.73" style="vector-effect: none; fill: none; stroke: rgb(255, 102, 146); stroke-opacity: 1; stroke-width: 2px; opacity: 1;"/></g><g class="points"/><g class="text"/></g><g class="trace scatter trace6e5def" style="stroke-miterlimit: 2; opacity: 1;"><g class="fills"/><g class="errorbars"/><g class="lines"><path class="js-line" d="M0,187.6L11.42,187.58L11.96,188.73L13.05,199.76L13.59,213.16L15.23,301.83L15.77,344.22L17.4,381.14L17.94,388.19L20.66,388.07L21.21,387.78L39.7,382.04L40.24,381.88L51.12,379.37L51.66,379.32L88.64,376.7L89.18,376.04L90.27,371.06L90.81,363.11L91.9,324.13L92.44,294.94L94.62,221.48L95.16,214.5L96.79,205.41L97.34,203.9L99.51,200.31L100.06,199.76L103.86,197.38L104.41,197.18L113.11,195L113.65,194.92L135.95,192.87L136.49,192.88L144.1,192.78L144.65,193.43L145.73,201.93L146.28,212.87L147.91,289.53L148.45,328.09L149.54,357.22L150.09,365.08L151.17,372.6L151.72,372.18L153.89,372.42L154.44,372.33L166.94,371.2L167.49,371.21L183.26,370.77L183.8,370.75L199.57,370.61L200.11,370.67L210.45,370.68L210.99,370.68L222.41,370.42L222.95,369.56L224.04,364.77L224.58,358.66L226.22,287.35L226.76,262.62L228.39,219.99L228.93,213.59L230.57,204.59L231.11,202.98L233.28,199.01L233.83,198.41L237.09,196.41L237.63,196.13L243.07,194.28L243.62,194.18L257.75,191.71L258.3,191.69L274.61,190.4L275.16,190.31L277.87,190.77L278.42,190.99L278.96,192.59L279.51,196.99L280.59,220.87L281.14,243.8L283.31,352.6L283.86,358.73L284.94,368.86L285.49,368.45L299.63,367.26L300.17,367.3L305.06,367.09L305.61,367.04L314.31,366.93L314.85,367L326.82,366.95L327.36,366.92L351.83,367.17L352.37,367.23L355.09,366.96L355.64,366.44L357.27,358.69L357.81,346.37L361.07,221.37L361.62,213.72L363.25,203.21L363.79,201.55L366.51,196.81L367.06,196.25L370.32,194.02L370.86,193.82L379.02,191.14L379.56,191.07L408.93,187.9L409.47,187.96L410.02,188.03L410.56,189.05L411.65,199.45L412.19,212.15L413.82,294.08L414.37,329.22L416,356.5L416.54,360.81L418.72,361.51L419.26,361.44L423.61,361.48L424.15,361.5L457.32,362.15L457.87,362.1L468.2,362.07L468.74,362.09L493.76,362.36L494.3,362.29L498.11,362.51L498.65,362.6L499.2,362.55L499.74,361.71L500.83,357.4L501.37,351.35L503,283.85L503.55,260.01L505.18,218.13L505.72,211.9L507.35,203.19L507.9,201.58L510.07,197.6L510.62,196.95L513.88,194.4L514.42,194.04L518.77,192.14L519.32,191.93L524.21,190.47L524.75,190.3L531.82,189.18L532.37,189.17L553.57,187.65L554.12,187.96L554.66,189.78L555.21,194.45L556.29,219.14L556.84,242.26L559.01,342.08L559.56,347.85L560.64,355.93L561.19,355.63L570.43,355.82L570.98,355.79L576.96,356.38L577.5,356.45L588.92,356.75L589.46,356.78L601.97,356.92L602.52,356.96L609.04,356.82L609.58,356.8L632.42,356.41L632.97,354.84L634.06,349.1L634.6,336.07L637.86,217.39L638.41,210.35L640.04,200.12L640.58,198.27L642.76,193.94L643.3,193.3L647.65,189.8L648.19,189.46L652,188.03" style="vector-effect: none; fill: none; stroke: rgb(182, 232, 128); stroke-opacity: 1; stroke-width: 2px; opacity: 1;"/></g><g class="points"/><g class="text"/></g><g class="trace scatter trace989e37" style="stroke-miterlimit: 2; opacity: 1;"><g class="fills"/><g class="errorbars"/><g class="lines"><path class="js-line" d="M0,156.01L11.42,156.13L11.96,156.92L13.05,166.26L13.59,178.11L14.68,225.13L15.23,262.74L16.86,349.38L17.4,365.68L18.49,382.8L19.03,381.42L20.66,382.92L21.21,382.57L26.65,380.34L27.19,380.12L45.13,375.25L45.68,375.18L70.15,373.07L70.69,373L80.48,372.68L81.02,372.73L87.01,372.52L87.55,372.32L88.64,372.17L89.18,370.18L90.27,362.79L90.81,353.3L94.08,215L94.62,206.39L96.79,190.55L97.34,188.53L100.06,182.07L100.6,181.22L104.41,177.17L104.95,176.67L109.3,173.68L109.84,173.44L113.65,171L114.2,170.63L118.55,168.59L119.09,168.38L128.33,166.04L128.88,165.91L134.86,164.52L135.4,164.41L144.1,163.31L144.65,163.65L145.19,165.63L145.73,170.63L146.82,196.87L147.37,221.49L149.54,342.82L150.09,353.35L151.17,369.42L151.72,368.65L153.89,369.37L154.44,369.21L159.33,368.89L159.87,368.9L179.45,368.28L179.99,368.28L221.32,368.3L221.86,368.26L222.41,368.4L222.95,367.18L224.58,354.12L225.13,332.47L227.85,214.57L228.39,205.77L230.57,189.94L231.11,187.8L233.83,181.18L234.37,180.32L238.72,175.32L239.27,174.84L247.97,168.72L248.51,168.5L264.28,163.26L264.82,163.16L277.33,161.37L277.87,162.67L278.96,174.21L279.51,187.98L281.14,277.4L281.68,318.97L283.86,365.33L284.4,365.45L284.94,365.25L285.49,365.95L286.58,366.04L287.12,365.85L293.64,365.18L294.19,365.17L307.24,364.9L307.78,364.91L324.1,365.12L324.64,365.04L330.08,364.96L330.62,365L346.39,365.13L346.94,365.13L355.09,364.99L355.64,364.55L357.27,354.25L357.81,340.41L360.53,216.99L361.07,206.89L362.71,191.99L363.25,189.3L365.97,180.84L366.51,179.77L369.77,175.41L370.32,174.83L376.3,169.22L376.84,168.91L386.63,164.59L387.18,164.44L404.03,159.89L404.58,159.81L410.02,159.51L410.56,160.21L411.65,169L412.19,180.34L413.82,261.36L414.37,304.8L416,348.88L416.54,358.39L417.08,360.05L417.63,359.44L418.17,360.04L419.26,360.76L419.8,360.67L429.05,360.9L429.59,360.97L446.99,361.87L447.54,361.88L459.5,361.85L460.04,361.81L499.2,362.23L499.74,360.95L501.37,348.37L501.91,326.72L504.63,212.87L505.18,204.19L507.35,188.63L507.9,186.72L511.16,178.85L511.7,178.07L519.86,169.29L520.4,168.97L531.28,163.7L531.82,163.55L546.51,159.56L547.05,159.47L554.12,158.89L554.66,160.27L555.75,172.34L556.29,186.71L557.92,279.23L558.47,319.39L560.64,356.7L561.19,356.41L561.73,356.29L562.28,356.97L563.91,357.02L564.45,357.06L585.11,357.9L585.66,357.88L632.42,357.91L632.97,355.11L634.06,347.77L634.6,331.02L637.32,213.11L637.86,203.71L640.04,186.75L640.58,184.55L643.3,177.58L643.84,176.63L649.28,169.55L649.82,169.07L652,167.42" style="vector-effect: none; fill: none; stroke: rgb(255, 151, 255); stroke-opacity: 1; stroke-width: 2px; opacity: 1;"/></g><g class="points"/><g class="text"/></g><g class="trace scatter trace224606" style="stroke-miterlimit: 2; opacity: 1;"><g class="fills"/><g class="errorbars"/><g class="lines"><path class="js-line" d="M0,150.69L11.42,150.31L11.96,150.87L13.05,158.72L13.59,169.06L14.68,212.26L15.23,247.2L16.86,343.28L17.4,358.39L18.49,381.87L19.03,380L20.66,381.53L21.21,381.02L25.01,379.53L25.56,379.38L45.13,374.05L45.68,373.96L58.73,372.52L59.27,372.46L73.41,371.64L73.95,371.67L87.01,371.2L87.55,370.98L88.64,371.06L89.18,369.27L90.81,353.53L91.36,328.1L93.53,223.08L94.08,211.14L95.71,193.93L96.25,191.04L98.97,182.53L99.51,181.45L102.78,176.83L103.32,176.26L110.39,169.99L110.93,169.69L120.72,164.49L121.26,164.31L131.05,161.48L131.6,161.33L139.75,159.43L140.3,159.37L144.65,158.84L145.19,160.35L146.28,172.97L146.82,187.8L148.45,283.29L149,325.59L151.17,367.84L151.72,367.27L152.26,367.1L152.8,367.86L153.89,367.84L154.44,367.68L166.94,366.79L167.49,366.82L176.73,366.98L177.27,366.96L193.59,366.78L194.13,366.81L221.32,366.68L221.86,366.56L222.41,366.84L222.95,366.05L224.58,353.3L225.13,334.3L227.85,210.9L228.39,202.32L230.02,190.15L230.57,187.79L233.28,180.26L233.83,179.27L237.63,174.2L238.18,173.63L243.62,168.63L244.16,168.3L252.86,163.51L253.4,163.28L262.65,160.02L263.19,159.8L270.81,157.72L271.35,157.68L277.33,157.02L277.87,157.86L278.96,167.6L279.51,179.84L281.14,264.73L281.68,309.43L283.31,353.73L283.86,363.37L284.4,364.32L284.94,363.51L286.58,364.24L287.12,364L294.19,363.69L294.73,363.68L314.31,363.35L314.85,363.37L343.67,363.69L344.22,363.68L355.64,363.44L356.18,360.96L357.81,342.17L358.36,313.09L360.53,214.23L361.07,204.03L362.71,189.79L363.25,187.23L365.97,179.22L366.51,178.2L371.41,171.11L371.95,170.45L376.3,166.78L376.84,166.43L389.89,160.06L390.44,159.87L404.03,155.87L404.58,155.76L410.02,155.24L410.56,155.49L411.1,157.42L411.65,162.43L412.73,188.89L413.28,213.66L415.45,333.14L416,343.39L417.08,358.58L417.63,357.71L419.8,358.69L420.35,358.6L427.42,359.04L427.96,359.07L446.45,360.2L446.99,360.2L454.61,360.48L455.15,360.51L499.2,360.73L499.74,359.8L501.37,348.02L501.91,328.91L504.63,210.18L505.18,201.61L507.35,186.69L507.9,184.71L511.16,177.12L511.7,176.3L519.32,167.48L519.86,166.99L524.75,163.76L525.3,163.5L539.98,157.39L540.52,157.27L551.4,154.65L551.94,154.67L553.03,154.71L553.57,155.65L554.66,165.65L555.21,178.04L556.84,260.46L557.38,300.69L559.01,345.37L559.56,353.24L561.19,354.91L561.73,355.33L572.61,355.74L573.15,355.86L580.76,356.43L581.31,356.4L591.64,356.18L592.18,356.33L594.9,356.37L595.45,356.39L601.97,356.77L602.52,356.77L616.65,356.83L617.2,356.89L630.25,356.75L630.79,356.64L632.42,356.3L632.97,353.42L634.06,346.14L634.6,332.61L637.32,210.07L637.86,200.87L639.49,187.67L640.04,185.14L642.76,177.44L643.3,176.33L648.19,168.61L648.74,168.08L652,165.31" style="vector-effect: none; fill: none; stroke: rgb(254, 203, 82); stroke-opacity: 1; stroke-width: 2px; opacity: 1;"/></g><g class="points"/><g class="text"/></g></g></g></g><g class="zerolinelayer-above"/><path class="xlines-above crisp" d="M0,0" style="fill: none;"/><path class="ylines-above crisp" d="M0,0" style="fill: none;"/><g class="overlines-above"/><g class="xaxislayer-above"><g class="xtick"><text text-anchor="middle" x="0" y="473" transform="translate(67.25,0)" style="font-family: 'Times New Roman'; font-size: 12px; fill: rgb(0, 0, 0); fill-opacity: 1; white-space: pre;">4e+6</text></g><g class="xtick"><text text-anchor="middle" x="0" y="473" style="font-family: 'Times New Roman'; font-size: 12px; fill: rgb(0, 0, 0); fill-opacity: 1; white-space: pre;" transform="translate(155.97,0)">6e+6</text></g><g class="xtick"><text text-anchor="middle" x="0" y="473" style="font-family: 'Times New Roman'; font-size: 12px; fill: rgb(0, 0, 0); fill-opacity: 1; white-space: pre;" transform="translate(244.69,0)">8e+6</text></g><g class="xtick"><text text-anchor="middle" x="0" y="473" style="font-family: 'Times New Roman'; font-size: 12px; fill: rgb(0, 0, 0); fill-opacity: 1; white-space: pre;" transform="translate(333.41,0)">1e+7</text></g><g class="xtick"><text text-anchor="middle" x="0" y="473" style="font-family: 'Times New Roman'; font-size: 12px; fill: rgb(0, 0, 0); fill-opacity: 1; white-space: pre;" transform="translate(422.13,0)">1e+7</text></g><g class="xtick"><text text-anchor="middle" x="0" y="473" style="font-family: 'Times New Roman'; font-size: 12px; fill: rgb(0, 0, 0); fill-opacity: 1; white-space: pre;" transform="translate(510.85,0)">1e+7</text></g><g class="xtick"><text text-anchor="middle" x="0" y="473" style="font-family: 'Times New Roman'; font-size: 12px; fill: rgb(0, 0, 0); fill-opacity: 1; white-space: pre;" transform="translate(599.57,0)">2e+7</text></g><g class="xtick"/></g><g class="yaxislayer-above"><g class="ytick"><text text-anchor="end" x="37" y="4.199999999999999" transform="translate(0,433.12)" style="font-family: 'Times New Roman'; font-size: 12px; fill: rgb(0, 0, 0); fill-opacity: 1; white-space: pre;">10</text></g><g class="ytick"><text text-anchor="end" x="37" y="4.199999999999999" style="font-family: 'Times New Roman'; font-size: 12px; fill: rgb(0, 0, 0); fill-opacity: 1; white-space: pre;" transform="translate(0,390.18)">11</text></g><g class="ytick"><text text-anchor="end" x="37" y="4.199999999999999" style="font-family: 'Times New Roman'; font-size: 12px; fill: rgb(0, 0, 0); fill-opacity: 1; white-space: pre;" transform="translate(0,347.24)">12</text></g><g class="ytick"><text text-anchor="end" x="37" y="4.199999999999999" style="font-family: 'Times New Roman'; font-size: 12px; fill: rgb(0, 0, 0); fill-opacity: 1; white-space: pre;" transform="translate(0,304.28999999999996)">13</text></g><g class="ytick"><text text-anchor="end" x="37" y="4.199999999999999" style="font-family: 'Times New Roman'; font-size: 12px; fill: rgb(0, 0, 0); fill-opacity: 1; white-space: pre;" transform="translate(0,261.35)">14</text></g><g class="ytick"><text text-anchor="end" x="37" y="4.199999999999999" style="font-family: 'Times New Roman'; font-size: 12px; fill: rgb(0, 0, 0); fill-opacity: 1; white-space: pre;" transform="translate(0,218.41)">15</text></g><g class="ytick"><text text-anchor="end" x="37" y="4.199999999999999" style="font-family: 'Times New Roman'; font-size: 12px; fill: rgb(0, 0, 0); fill-opacity: 1; white-space: pre;" transform="translate(0,175.47)">16</text></g><g class="ytick"><text text-anchor="end" x="37" y="4.199999999999999" style="font-family: 'Times New Roman'; font-size: 12px; fill: rgb(0, 0, 0); fill-opacity: 1; white-space: pre;" transform="translate(0,132.53)">17</text></g><g class="ytick"><text text-anchor="end" x="37" y="4.199999999999999" style="font-family: 'Times New Roman'; font-size: 12px; fill: rgb(0, 0, 0); fill-opacity: 1; white-space: pre;" transform="translate(0,89.58)">18</text></g></g><g class="overaxes-above"/></g></g><g class="polarlayer"/><g class="smithlayer"/><g class="ternarylayer"/><g class="geolayer"/><g class="funnelarealayer"/><g class="pielayer"/><g class="iciclelayer"/><g class="treemaplayer"/><g class="sunburstlayer"/><g class="glimages"/><defs id="topdefs-e15ef5"><g class="clips"/></defs><g class="layer-above"><g class="imagelayer"/><g class="shapelayer"><g class="shape-group" data-index="0" clip-path="url(#clipe15ef5x)"><path data-index="0" fill-rule="evenodd" d="M69.93,460H123.16V50H69.93Z" style="opacity: 0.4; stroke: rgb(0, 0, 0); stroke-opacity: 0; fill: rgb(160, 254, 205); fill-opacity: 1; stroke-width: 0px;"/></g><g class="shape-group" data-index="1" clip-path="url(#clipe15ef5x)"><path data-index="1" fill-rule="evenodd" d="M203.01,460H256.21000000000004V50H203.01Z" style="opacity: 0.4; stroke: rgb(0, 0, 0); stroke-opacity: 0; fill: rgb(136, 248, 239); fill-opacity: 1; stroke-width: 0px;"/></g><g class="shape-group" data-index="2" clip-path="url(#clipe15ef5x)"><path data-index="2" fill-rule="evenodd" d="M336.09,460H389.28V50H336.09Z" style="opacity: 0.4; stroke: rgb(0, 0, 0); stroke-opacity: 0; fill: rgb(145, 237, 255); fill-opacity: 1; stroke-width: 0px;"/></g><g class="shape-group" data-index="3" clip-path="url(#clipe15ef5x)"><path data-index="3" fill-rule="evenodd" d="M469.12,460H522.35V50H469.12Z" style="opacity: 0.4; stroke: rgb(0, 0, 0); stroke-opacity: 0; fill: rgb(175, 223, 255); fill-opacity: 1; stroke-width: 0px;"/></g><g class="shape-group" data-index="4" clip-path="url(#clipe15ef5x)"><path data-index="4" fill-rule="evenodd" d="M610.17,460H663.41V50H610.17Z" style="opacity: 0.4; stroke: rgb(0, 0, 0); stroke-opacity: 0; fill: rgb(205, 208, 255); fill-opacity: 1; stroke-width: 0px;"/></g></g></g><g class="infolayer"><g class="g-gtitle"><text class="gtitle" x="350" y="25" text-anchor="middle" dy="0em" style="opacity: 1; font-family: 'Times New Roman'; font-size: 17px; fill: rgb(0, 0, 0); fill-opacity: 1; white-space: pre;">Matrix 0, Sensor 7</text></g><g class="g-xtitle" transform="translate(0,-2.8000000000000114)"><text class="xtitle" x="364" y="499.8" text-anchor="middle" style="opacity: 1; font-family: 'Times New Roman'; font-size: 14px; fill: rgb(0, 0, 0); fill-opacity: 1; white-space: pre;">Time since power on (ms)</text></g><g class="g-ytitle" transform="translate(6.900390625,0)"><text class="ytitle" transform="rotate(-90,5.600000000000001,255)" x="5.600000000000001" y="255" text-anchor="middle" style="opacity: 1; font-family: 'Times New Roman'; font-size: 14px; fill: rgb(0, 0, 0); fill-opacity: 1; white-space: pre;">Resistance (Ohms)</text></g><g class="annotation" data-index="0" style="opacity: 1;"><g class="annotation-text-g" transform="rotate(0,84.93,58.5)"><g class="cursor-pointer" transform="translate(70,50)"><rect class="bg" x="0.5" y="0.5" width="29" height="16" style="stroke-width: 1px; stroke: rgb(0, 0, 0); stroke-opacity: 0; fill: rgb(0, 0, 0); fill-opacity: 0;"/><text class="annotation-text" text-anchor="middle" x="14.8359375" y="12.5" style="font-family: 'Times New Roman'; font-size: 12px; fill: rgb(0, 0, 0); fill-opacity: 1; white-space: pre;">M 15</text></g></g></g><g class="annotation" data-index="1" style="opacity: 1;"><g class="annotation-text-g" transform="rotate(0,218.01,58.5)"><g class="cursor-pointer" transform="translate(203,50)"><rect class="bg" x="0.5" y="0.5" width="29" height="16" style="stroke-width: 1px; stroke: rgb(0, 0, 0); stroke-opacity: 0; fill: rgb(0, 0, 0); fill-opacity: 0;"/><text class="annotation-text" text-anchor="middle" x="14.8359375" y="12.5" style="font-family: 'Times New Roman'; font-size: 12px; fill: rgb(0, 0, 0); fill-opacity: 1; white-space: pre;">M 10</text></g></g></g><g class="annotation" data-index="2" style="opacity: 1;"><g class="annotation-text-g" transform="rotate(0,348.09,58.5)"><g class="cursor-pointer" transform="translate(336,50)"><rect class="bg" x="0.5" y="0.5" width="23" height="16" style="stroke-width: 1px; stroke: rgb(0, 0, 0); stroke-opacity: 0; fill: rgb(0, 0, 0); fill-opacity: 0;"/><text class="annotation-text" text-anchor="middle" x="11.8359375" y="12.5" style="font-family: 'Times New Roman'; font-size: 12px; fill: rgb(0, 0, 0); fill-opacity: 1; white-space: pre;">M 7</text></g></g></g><g class="annotation" data-index="3" style="opacity: 1;"><g class="annotation-text-g" transform="rotate(0,481.12,58.5)"><g class="cursor-pointer" transform="translate(469,50)"><rect class="bg" x="0.5" y="0.5" width="23" height="16" style="stroke-width: 1px; stroke: rgb(0, 0, 0); stroke-opacity: 0; fill: rgb(0, 0, 0); fill-opacity: 0;"/><text class="annotation-text" text-anchor="middle" x="11.8359375" y="12.5" style="font-family: 'Times New Roman'; font-size: 12px; fill: rgb(0, 0, 0); fill-opacity: 1; white-space: pre;">M 3</text></g></g></g><g class="annotation" data-index="4" style="opacity: 1;"><g class="annotation-text-g" transform="rotate(0,622.17,58.5)"><g class="cursor-pointer" transform="translate(610,50)"><rect class="bg" x="0.5" y="0.5" width="23" height="16" style="stroke-width: 1px; stroke: rgb(0, 0, 0); stroke-opacity: 0; fill: rgb(0, 0, 0); fill-opacity: 0;"/><text class="annotation-text" text-anchor="middle" x="11.8359375" y="12.5" style="font-family: 'Times New Roman'; font-size: 12px; fill: rgb(0, 0, 0); fill-opacity: 1; white-space: pre;">M 0</text></g></g></g></g></svg>