<svg class="main-svg" xmlns="http://www.w3.org/2000/svg" xmlns:xlink="http://www.w3.org/1999/xlink" width="700" height="500" style="" viewBox="0 0 700 500"><rect x="0" y="0" width="700" height="500" style="fill: rgb(255, 255, 255); fill-opacity: 1;"/><defs id="defs-45488f"><g class="clips"><clipPath id="clip45488fxyplot" class="plotclip"><rect width="651" height="410"/></clipPath><clipPath class="axesclip" id="clip45488fx"><rect x="39" y="0" width="651" height="500"/></clipPath><clipPath class="axesclip" id="clip45488fy"><rect x="0" y="50" width="700" height="410"/></clipPath><clipPath class="axesclip" id="clip45488fxy"><rect x="39" y="50" width="651" height="410"/></clipPath></g><g class="gradients"/><g class="patterns"/></defs><g class="bglayer"><rect class="bg" x="39" y="50" width="651" height="410" style="fill: rgb(229, 236, 246); fill-opacity: 1; stroke-width: 0;"/></g><g class="layer-below"><g class="imagelayer"/><g class="shapelayer"/></g><g class="cartesianlayer"><g class="subplot xy"><g class="layer-subplot"><g class="shapelayer"/><g class="imagelayer"/></g><g class="minor-gridlayer"><g class="x"/><g class="y"/></g><g class="gridlayer"><g class="x"><path class="xgrid crisp" transform="translate(68.21000000000001,0)" d="M0,50v410" style="stroke: rgb(255, 255, 255); stroke-opacity: 1; stroke-width: 1px;"/><path class="xgrid crisp" transform="translate(156.79000000000002,0)" d="M0,50v410" style="stroke: rgb(255, 255, 255); stroke-opacity: 1; stroke-width: 1px;"/><path class="xgrid crisp" transform="translate(245.37,0)" d="M0,50v410" style="stroke: rgb(255, 255, 255); stroke-opacity: 1; stroke-width: 1px;"/><path class="xgrid crisp" transform="translate(333.96,0)" d="M0,50v410" style="stroke: rgb(255, 255, 255); stroke-opacity: 1; stroke-width: 1px;"/><path class="xgrid crisp" transform="translate(422.54,0)" d="M0,50v410" style="stroke: rgb(255, 255, 255); stroke-opacity: 1; stroke-width: 1px;"/><path class="xgrid crisp" transform="translate(511.12,0)" d="M0,50v410" style="stroke: rgb(255, 255, 255); stroke-opacity: 1; stroke-width: 1px;"/><path class="xgrid crisp" transform="translate(599.7,0)" d="M0,50v410" style="stroke: rgb(255, 255, 255); stroke-opacity: 1; stroke-width: 1px;"/><path class="xgrid crisp" transform="translate(688.29,0)" d="M0,50v410" style="stroke: rgb(255, 255, 255); stroke-opacity: 1; stroke-width: 1px;"/></g><g class="y"><path class="ygrid crisp" transform="translate(0,392.34)" d="M39,0h651" style="stroke: rgb(255, 255, 255); stroke-opacity: 1; stroke-width: 1px;"/><path class="ygrid crisp" transform="translate(0,321.99)" d="M39,0h651" style="stroke: rgb(255, 255, 255); stroke-opacity: 1; stroke-width: 1px;"/><path class="ygrid crisp" transform="translate(0,251.63)" d="M39,0h651" style="stroke: rgb(255, 255, 255); stroke-opacity: 1; stroke-width: 1px;"/><path class="ygrid crisp" transform="translate(0,181.28)" d="M39,0h651" style="stroke: rgb(255, 255, 255); stroke-opacity: 1; stroke-width: 1px;"/></g></g><g class="zerolinelayer"><path class="yzl zl crisp" transform="translate(0,110.93)" d="M39,0h651" style="stroke: rgb(255, 255, 255); stroke-opacity: 1; stroke-width: 2px;"/></g><g class="layer-between"><g class="shapelayer"/><g class="imagelayer"/></g><path class="xlines-below"/><path class="ylines-below"/><g class="overlines-below"/><g class="xaxislayer-below"/><g class="yaxislayer-below"/><g class="overaxes-below"/><g class="overplot"><g class="xy" transform="translate(39,50)" clip-path="url(#clip45488fxyplot)"><g class="scatterlayer mlayer"><g class="trace scatter trace3c53ea" style="stroke-miterlimit: 2; opacity: 1;"><g class="fills"/><g class="errorbars"/><g class="lines"><path class="js-line" d="M0,60.93L11.94,61.35L12.49,62.71L13.57,72.97L14.12,85.94L15.2,145.25L15.75,204.01L17.37,332.42L17.92,363L19,383.48L19.55,382.48L21.18,386.41L21.72,386.86L23.35,388.12L23.89,388.28L29.32,389.5L29.86,389.4L33.66,387.87L34.21,388.31L35.83,388.71L36.38,388.47L41.81,387.03L42.35,386.87L44.52,386.62L45.07,386.87L48.32,387.68L48.87,387.69L51.58,385.67L52.12,386.24L53.75,387.32L54.3,387.26L57.55,385.97L58.1,385.42L59.72,383.76L60.27,384.33L61.9,386.04L62.44,385.92L63.53,386.18L64.07,386.69L65.7,387.77L66.24,387.75L68.41,386.52L68.95,386.22L70.58,386.39L71.13,386.63L76.01,388L76.56,388.11L80.9,388.79L81.44,388.49L83.61,387.46L84.16,387.38L85.79,386.89L86.33,387.39L87.42,388.18L87.96,388.02L88.5,388.5L89.04,385.69L90.67,341.12L91.22,299.39L93.39,100.99L93.93,82.35L95.56,63.04L96.1,61.73L97.73,61L98.27,60.96L112.39,60.93L112.93,60.93L144.43,61.26L144.97,62.32L146.05,72.96L146.6,85.7L147.68,138.82L148.23,186.57L149.85,312.21L150.4,334.29L151.48,358.9L152.03,358.32L153.66,362.13L154.2,362.1L156.91,362.53L157.46,362.5L160.17,361.75L160.71,362.46L162.89,364.24L163.43,364.64L165.06,365.2L165.6,365.02L167.23,365.13L167.77,365.54L169.94,368.32L170.49,367.53L172.12,364.93L172.66,365.07L179.72,367.27L180.26,367.07L181.89,366.65L182.43,366.86L185.69,367.88L186.23,367.75L187.86,367.78L188.4,368.11L191.12,369.04L191.66,369.12L193.83,368.82L194.38,368.59L196.01,368.89L196.55,369.09L197.63,367.95L198.18,366.83L199.26,366.01L199.81,367.05L201.44,370.71L201.98,370.73L208.49,367.43L209.04,367.65L210.67,368.3L211.21,368.04L212.29,368.04L212.84,368.84L215.01,371.14L215.55,371.16L217.18,371.79L217.72,372.23L218.81,371.91L219.35,370.8L220.44,369.63L220.98,369.54L221.52,369.43L222.07,370.39L222.61,370.71L223.15,362.12L224.78,306.3L225.33,244.67L226.95,113.6L227.5,94.54L229.13,67.98L229.67,64.41L231.3,61.11L231.84,61.02L242.7,60.93L243.24,60.93L276.91,61.31L277.45,61.74L278.53,71.46L279.08,83.26L280.16,131.97L280.71,171.85L282.34,300L282.88,316.24L283.96,346.59L284.51,345.68L286.68,348.73L287.22,348.51L288.85,348.65L289.39,349.07L291.02,349.53L291.57,349.31L292.65,349.34L293.19,349.78L295.91,351.76L296.45,352.12L299.17,355.57L299.71,354.83L301.34,352.45L301.88,352.68L302.97,353.02L303.51,352.17L305.68,346.97L306.23,348.39L307.85,353.16L308.4,353.36L310.57,353.4L311.11,353.66L312.74,353.69L313.28,353.42L315.46,352.77L316,353.07L317.63,353.71L318.17,353.37L319.8,352.71L320.34,353.33L321.43,354.07L321.97,353.28L323.6,350.3L324.14,351.38L325.77,354.68L326.31,354.64L329.03,352.21L329.57,353.09L331.2,354.96L331.74,354.93L335,355.48L335.54,355.76L337.72,358.26L338.26,359.36L339.89,361L340.43,360.37L343.15,357.2L343.69,356.85L345.32,356.5L345.86,356.73L347.49,356.74L348.03,356.57L351.29,355.91L351.83,356.63L353.46,357.84L354.01,357.11L354.55,356.86L355.09,357.7L355.63,354L356.18,340.63L357.26,312.02L357.81,262.33L359.98,90.7L360.52,77.69L362.15,62.65L362.69,61.43L364.86,60.94L365.41,60.93L405.59,60.93L406.13,60.93L409.93,61.23L410.47,61.95L411.56,69.56L412.1,80.73L413.19,138.71L413.73,194.86L414.82,293.22L415.36,304.12L416.99,337.56L417.53,338.16L418.62,341L419.16,340.75L420.25,341.23L420.79,342.34L421.87,343.95L422.42,343.89L424.59,342.03L425.13,341.29L425.67,340.92L426.22,341.62L428.39,346.61L428.93,346.2L431.1,344.29L431.65,344.27L435.99,346L436.53,346.28L439.25,347.02L439.79,346.94L442.51,346.78L443.05,346.84L446.85,345.22L447.39,345.02L450.65,347.17L451.19,347.21L452.82,347.47L453.37,346.92L455.54,344.37L456.08,345.31L458.25,348.39L458.79,348.37L460.97,347.69L461.51,347.46L462.6,347.69L463.14,348.18L467.48,350.65L468.03,350.43L471.28,349.3L471.83,349.32L474.54,350.09L475.08,349.11L476.71,346.08L477.26,346.33L479.43,348.73L479.97,348.82L483.77,349.63L484.31,349.15L486.49,347.43L487.03,347.76L488.11,348L488.66,347.6L489.74,347.02L490.29,347.34L494.09,350.31L494.63,350.38L497.34,349.62L497.89,348.92L498.97,348.63L499.52,341.12L501.15,294.8L501.69,240.17L503.86,94.31L504.4,79.27L506.03,62.12L506.57,61.36L509.29,60.94L509.83,60.93L552.73,61.65L553.27,63.71L554.35,77.24L554.9,93.44L555.98,163L556.53,224.48L557.61,292.16L558.16,307.72L559.24,329.35L559.78,328.07L560.33,328.15L560.87,329.14L563.58,331.72L564.13,332.07L567.93,335L568.47,334.89L570.64,334.95L571.19,335.35L572.81,335.98L573.36,335.88L576.07,336.17L576.62,335.3L578.24,332.35L578.79,332.94L580.96,337.21L581.5,337.29L584.22,336.84L584.76,336.38L586.39,335.79L586.93,336.26L590.19,339.39L590.73,339.7L592.9,340.23L593.45,340.02L595.62,339.62L596.16,339.78L597.79,339.62L598.33,339.37L599.96,339.52L600.51,339.79L603.76,340.63L604.31,340.2L605.93,338.64L606.48,339.04L608.11,340.33L608.65,340.19L610.82,340.12L611.36,340.34L615.17,340.83L615.71,339.96L617.34,336.98L617.88,337.41L620.59,340.8L621.14,340.97L622.22,341.74L622.77,342.67L624.4,344.56L624.94,344.09L627.65,342.11L628.2,341.97L629.82,342.06L630.37,341.31L631.45,341.95L632,336.84L633.63,296.1L634.17,242.6L635.8,109.31L636.34,88.85L637.97,63.71L638.51,61.94L640.14,61.01L640.68,60.96L651,60.93" style="vector-effect: none; fill: none; stroke: rgb(99, 110, 250); stroke-opacity: 1; stroke-width: 2px; opacity: 1;"/></g><g class="points"/><g class="text"/></g><g class="trace scatter trace0f1f0e" style="stroke-miterlimit: 2; opacity: 1;"><g class="fills"/><g class="errorbars"/><g class="lines"><path class="js-line" d="M0,37.09L3.8,36.68L4.34,36.66L11.4,36.66L11.94,36.85L13.03,40.34L13.57,44.83L14.66,67.68L15.2,92.43L17.37,245.33L17.92,270.14L19,287.11L19.55,286.77L21.18,289.96L21.72,290.01L23.89,290.46L24.43,290.39L27.69,290.84L28.23,290.88L34.21,290.19L34.75,290.01L39.09,289L39.64,288.94L57.01,287.01L57.55,286.64L59.72,285.85L60.27,285.92L64.61,286.2L65.15,286.16L78.19,286.39L78.73,286.42L86.87,286.63L87.42,286.28L89.04,285.62L89.59,280.03L90.67,266.76L91.22,242.03L93.39,92.71L93.93,88.7L95.56,91.74L96.1,91.19L99.9,82.87L100.45,82.27L108.05,76.09L108.59,75.86L125.96,67.45L126.51,67.38L130.31,65.87L130.85,65.63L137.91,62.91L138.45,62.78L144.43,61.86L144.97,62.82L146.05,71.54L146.6,81.05L147.68,117.08L148.23,149.29L149.85,236.21L150.4,252.34L151.48,268.27L152.03,267.71L153.66,270.07L154.2,270.14L157.46,270.79L158,270.77L161.26,271.4L161.8,271.54L167.77,272.48L168.32,272.57L176.46,273.43L177,273.45L184.6,274.17L185.15,274.2L192.75,274.5L193.29,274.58L198.72,275.39L199.26,275.41L213.92,275.98L214.47,276.17L220.44,277.23L220.98,277L222.07,276.61L222.61,276.69L223.7,266.1L224.24,260.16L224.78,247.41L225.33,206.92L226.95,115.41L227.5,105.52L229.13,94.25L229.67,92.19L232.38,84.74L232.93,83.89L236.73,79.35L237.27,78.97L244.33,74.06L244.87,73.8L261.7,65.96L262.25,65.76L265.5,64.49L266.05,64.22L275.82,61.71L276.36,61.81L277.45,62L277.99,64.71L279.08,81.17L279.62,97.59L281.25,189.65L281.79,226.08L282.34,228.89L282.88,239.82L283.96,262.23L284.51,261.28L287.22,263.28L287.76,263.46L296.99,265.04L297.54,265.16L304.6,265.87L305.14,265.76L307.31,266.29L307.85,266.47L311.65,266.79L312.2,266.69L317.08,267.17L317.63,267.23L324.69,267.63L325.23,267.76L353.46,270L354.01,269.68L355.09,269.84L355.63,268.18L357.26,248.82L357.81,217.2L359.43,108.17L359.98,97.28L361.61,89.33L362.15,88.09L365.41,80.84L365.95,79.97L368.66,76.86L369.21,76.55L375.18,73.04L375.72,72.58L378.98,70.34L379.52,70.07L389.84,65.41L390.38,65.23L396.36,62.6L396.9,62.23L399.07,61.45L399.61,61.37L410.47,59.2L411.02,59.76L411.56,61.45L412.1,65.7L413.19,96.33L413.73,135.85L415.36,226.54L415.9,241.78L416.99,252.49L417.53,252.33L419.16,254.64L419.7,254.86L423.5,256.27L424.05,256.44L435.99,259.79L436.53,259.95L442.51,261.01L443.05,261.03L448.48,261.42L449.02,261.57L451.74,261.86L452.28,261.78L457.17,262.06L457.71,262.11L463.68,262.34L464.22,262.39L474,263.16L474.54,263.11L481.6,263.56L482.14,263.67L490.83,264.72L491.37,264.73L495.72,265.08L496.26,265.19L498.97,265.16L499.52,261.6L501.15,238.58L501.69,198.92L503.32,109.71L503.86,100.4L505.49,91.95L506.03,90.42L508.75,83.86L509.29,82.96L512,79.67L512.55,79.25L520.15,72.31L520.69,72.02L537.52,64.2L538.07,64.01L542.41,63.14L542.95,63.12L546.75,61.91L547.3,61.77L552.18,60.57L552.73,61.03L553.81,64.84L554.35,69.31L555.44,91.16L555.98,116.4L557.61,213.9L558.16,227.17L559.24,245.88L559.78,245.65L563.04,248.79L563.58,249.05L569.01,251L569.56,251.07L572.81,252.15L573.36,252.4L580.96,254.03L581.5,254.11L602.68,256.46L603.22,256.38L605.93,256.22L606.48,256.37L614.62,256.91L615.17,256.88L622.77,257.47L623.31,257.63L626.57,257.68L627.11,257.7L631.45,257.94L632,256.09L633.63,237.84L634.17,207.12L635.8,116.8L636.34,103.91L637.97,87.1L638.51,84.48L640.68,78.01L641.23,77.17L647.2,70.08L647.74,69.57L651,67.61" style="vector-effect: none; fill: none; stroke: rgb(239, 85, 59); stroke-opacity: 1; stroke-width: 2px; opacity: 1;"/></g><g class="points"/><g class="text"/></g><g class="trace scatter trace859134" style="stroke-miterlimit: 2; opacity: 1;"><g class="fills"/><g class="errorbars"/><g class="lines"><path class="js-line" d="M0,144.47L5.97,144.26L6.52,144.46L8.69,145.05L9.23,144.73L10.86,143.81L11.4,144.31L12.49,156.34L13.03,170.59L14.66,252.21L15.2,291.5L15.75,313.9L16.29,292.71L16.83,292.95L17.37,316.71L17.92,323.69L18.46,319.88L19,320.78L19.55,323.59L21.18,325.42L21.72,326.01L23.89,327.23L24.43,327.14L26.6,327.13L27.15,327.34L35.29,328.88L35.83,328.63L38.55,327.38L39.09,327.52L44.52,328.25L45.07,328.32L52.12,329.41L52.67,329.4L66.78,328.93L67.33,328.68L70.04,328.36L70.58,328.41L77.64,328.86L78.19,329.11L80.9,329.82L81.44,329.61L83.61,329.32L84.16,329.53L87.42,329.74L87.96,329.51L89.04,330.1L89.59,327.49L91.22,307.36L91.76,270.07L93.39,195.39L93.93,198.69L96.1,221.2L96.65,222.14L98.82,221.28L99.36,221.17L104.25,220.96L104.79,220.87L115.65,220.74L116.19,220.62L125.42,216.77L125.96,216.7L130.31,215.57L130.85,215.28L136.28,212.84L136.82,212.85L139,211.82L139.54,211.38L142.25,210.17L142.8,209.97L145.51,208.37L146.05,209.31L146.6,211.48L147.14,217.1L148.23,238.06L148.77,259.46L149.31,279.05L149.85,275.61L150.4,282.38L151.48,298.25L152.03,297.7L155.83,302.46L156.37,302.87L158,302.98L158.54,302.86L160.17,303.19L160.71,303.66L163.43,305.43L163.97,305.64L167.23,306.39L167.77,306.46L175.92,308.4L176.46,308.8L178.09,309.1L178.63,308.89L180.26,308.79L180.8,309.02L186.23,310.39L186.78,310.38L204.15,312.48L204.69,312.59L207.95,312.65L208.49,312.5L212.84,311.82L213.38,312.27L215.55,313.34L216.1,313.34L219.35,313.3L219.9,312.95L223.15,311.49L223.7,307.88L224.78,298.47L225.33,280.21L226.95,229.85L227.5,227.12L228.58,227.2L229.13,227.67L230.21,227.79L230.75,227.48L233.47,226.76L234.01,226.84L237.27,226.85L237.81,226.88L243.24,226.8L243.79,226.62L255.73,223.01L256.27,222.66L261.7,220.55L262.25,220.4L266.59,219.32L267.13,219.02L272.56,216.29L273.11,216.16L277.45,215.68L277.99,216.54L279.08,227.89L279.62,239.46L281.79,312.55L282.34,294.69L282.88,275.17L283.42,284.59L283.96,290.39L284.51,288.28L285.05,287.34L286.68,289.39L287.22,289.57L294.28,294L294.82,294.07L296.99,295.06L297.54,295.47L299.71,296.02L300.25,295.85L304.05,295.25L304.6,295.14L306.23,295.23L306.77,295.7L309.48,298.01L310.03,297.89L311.65,297.87L312.2,298.16L314.37,298.4L314.91,298.27L318.17,298.01L318.71,298.39L320.88,299.16L321.43,299.04L324.14,298.54L324.69,298.92L326.86,299.8L327.4,299.69L330.12,299.97L330.66,300.16L339.35,301.63L339.89,301.61L346.95,302.43L347.49,302.52L353.46,302.63L354.01,302.52L355.63,302.87L356.18,299.94L357.26,290.63L357.81,277.04L359.43,211.19L359.98,209.51L362.69,218.38L363.24,218.69L365.95,219.31L366.49,219.21L370.29,218.9L370.84,218.92L373.55,219.57L374.09,219.72L377.89,219.47L378.44,219.63L381.15,219.23L381.7,218.97L385.5,218.35L386.04,218.19L394.18,215.51L394.73,215.16L403.41,209.96L403.96,209.73L409.39,207.46L409.93,208.69L411.02,216.51L411.56,222.64L415.9,265.99L416.44,268.79L418.07,272.49L418.62,273.39L421.33,276.38L421.87,276.76L426.76,279.68L427.3,279.55L429.48,279.3L430.02,279.63L435.45,283.82L435.99,284.17L438.16,283.92L438.71,283.93L444.14,285.25L444.68,285.2L449.02,286.2L449.56,286.68L451.19,287.34L451.74,287.29L454.99,287.53L455.54,288L457.17,288.64L457.71,288.39L461.51,287.17L462.05,287.34L469.65,289.29L470.2,289.2L472.91,289.33L473.45,289.44L477.26,290.37L477.8,289.99L479.43,289.4L479.97,289.52L487.57,290.31L488.11,290.23L490.29,290.22L490.83,290.35L496.26,290.57L496.8,290.52L499.52,289.91L500.06,286.19L500.6,282.53L501.15,283.34L501.69,269.73L503.32,219.81L503.86,215.9L504.4,216.15L504.95,217.67L507.12,223.16L507.66,223.57L509.83,224.32L510.38,224.11L512,224.24L512.55,224.5L514.72,224.56L515.26,224.54L520.15,224.58L520.69,224.38L526.12,223.2L526.66,222.78L529.38,221.35L529.92,221.21L534.81,219.05L535.35,218.64L538.61,216.65L539.15,216.46L547.84,211.79L548.38,211.28L551.64,208.77L552.18,208.5L553.27,208.5L553.81,209.31L554.9,213.27L555.44,216.72L556.53,228.88L557.07,238.12L558.16,246.05L558.7,252.77L559.78,257.69L560.33,258.69L562.5,262.45L563.04,262.9L575.53,269.44L576.07,269.54L580.42,270.57L580.96,270.82L590.19,272.72L590.73,272.64L592.9,273.56L593.45,273.8L603.22,275.42L603.76,275.26L607.02,274.62L607.56,274.84L610.82,275.55L611.36,275.49L614.62,274.64L615.17,274.9L617.88,275.29L618.42,275.39L623.31,277.08L623.85,276.97L626.02,276.76L626.57,277.06L628.74,277.57L629.28,277.52L632,277.46L632.54,274.96L634.17,260.51L634.71,240.76L636.34,208.11L636.88,204.13L639.06,198.59L639.6,197.67L641.23,196.07L641.77,196.04L644.48,196.33L645.03,196.14L647.2,196.14L647.74,196.24L651,195.94" style="vector-effect: none; fill: none; stroke: rgb(0, 204, 150); stroke-opacity: 1; stroke-width: 2px; opacity: 1;"/></g><g class="points"/><g class="text"/></g><g class="trace scatter trace3a6244" style="stroke-miterlimit: 2; opacity: 1;"><g class="fills"/><g class="errorbars"/><g class="lines"><path class="js-line" d="M0,49.98L8.69,50.36L9.23,50.34L11.4,51.24L11.94,54.35L13.03,75.05L13.57,96.11L16.29,249.63L16.83,262.19L17.92,284.95L18.46,284.13L20.63,286.95L21.18,287.05L26.06,287.23L26.6,287.23L30.95,286.98L31.49,286.81L42.35,284.08L42.89,284.02L65.7,282.45L66.24,282.49L87.42,282.38L87.96,281.98L89.04,282.29L89.59,279.52L91.22,255.97L91.76,216.02L93.39,104L93.93,93.06L95.02,89.88L95.56,90.46L96.1,90.76L96.65,90.1L99.36,86.05L99.9,85.61L105.33,82.53L105.88,82.33L112.39,79.9L112.93,79.86L116.73,78.6L117.28,78.34L122.16,77.24L122.71,77.19L133.57,74.83L134.11,74.74L137.37,74.19L137.91,73.93L143.88,72.8L144.43,73.3L145.51,75.27L146.05,78.12L147.14,92.34L147.68,111.13L150.4,251.07L150.94,260.95L152.03,265.62L152.57,265.83L154.2,266.87L154.74,266.97L157.46,267.13L158,267.09L168.86,268.44L169.4,268.49L184.6,269.73L185.15,269.71L190.58,270.1L191.12,270.15L209.58,271.4L210.12,271.27L213.38,271.66L213.92,271.66L222.07,271.7L222.61,270.61L223.7,262.74L224.24,249.69L227.5,101.31L228.04,97.81L230.75,90.59L231.3,89.54L234.01,86.36L234.56,86.02L243.79,81.58L244.33,81.4L249.76,80.03L250.3,80.06L253.02,79.25L253.56,79.04L267.13,75.8L267.68,75.7L274.73,74.4L275.28,74.43L277.45,74.24L277.99,75.11L279.08,87.25L279.62,100.37L281.25,178.97L281.79,219.84L283.42,249.39L283.96,258.54L284.51,259.32L285.05,258.76L286.68,260.08L287.22,259.97L292.11,260.73L292.65,260.84L300.25,262.01L300.8,261.86L304.05,261.65L304.6,261.68L308.4,262.53L308.94,262.7L311.65,262.7L312.2,262.62L316,263.2L316.54,263.25L330.66,264.17L331.2,264.31L344.23,265.25L344.77,265.26L354.55,265.58L355.09,264.81L356.18,258.85L356.72,249.53L357.81,197.84L358.35,157.8L359.98,96.45L360.52,92.59L363.24,87.84L363.78,86.94L367.58,82.54L368.12,82.16L370.84,81.39L371.38,81.23L378.98,78.54L379.52,78.43L407.76,72.24L408.3,72.45L409.39,72.81L409.93,75.65L411.02,93.86L411.56,111.17L414.82,233.39L415.36,244.4L416.44,248.61L416.99,249.46L418.62,250.97L419.16,251.19L424.05,252.68L424.59,252.74L427.85,253.6L428.39,253.85L432.73,254.87L433.28,254.84L435.99,255.3L436.53,255.49L441.96,256.76L442.51,256.6L445.22,256.76L445.76,256.78L449.02,257.08L449.56,257.25L454.45,257.57L454.99,257.57L468.57,258.21L469.11,258.42L471.83,258.84L472.37,258.83L491.37,259.79L491.91,259.63L494.63,259.81L495.17,259.94L497.89,260.07L498.43,259.67L498.97,258.96L499.52,256.86L500.6,240.47L501.15,222.17L503.32,111.42L503.86,101.63L505.49,93.61L506.03,92.75L509.29,87.1L509.83,86.44L513.09,83.73L513.63,83.38L517.98,81.77L518.52,81.68L524.49,79.34L525.04,79.06L527.75,78.23L528.29,78.2L534.27,76.91L534.81,76.58L539.69,75.58L540.24,75.75L541.87,75.45L542.41,75.09L545.12,74.29L545.67,74.46L547.84,74.96L548.38,74.58L550.55,73.64L551.1,73.76L553.27,74.78L553.81,76.58L554.9,86.31L555.44,97.56L556.53,150.25L557.07,193.57L558.7,234.58L559.24,241.77L561.41,244.49L561.96,244.78L569.56,246.7L570.1,246.78L573.9,247.85L574.44,247.96L595.08,250.95L595.62,250.91L600.51,251.45L601.05,251.47L610.82,251.57L611.36,251.63L618.97,252.39L619.51,252.32L623.85,252.24L624.4,252.29L628.74,252.92L629.28,253.06L630.91,253.04L631.45,252.23L632.54,246.4L633.08,236.3L634.71,150.32L635.25,124.94L636.88,94.77L637.43,90.92L639.6,82.14L640.14,80.85L642.86,77.39L643.4,76.9L647.74,74.31L648.29,74.04L651,72.98" style="vector-effect: none; fill: none; stroke: rgb(171, 99, 250); stroke-opacity: 1; stroke-width: 2px; opacity: 1;"/></g><g class="points"/><g class="text"/></g><g class="trace scatter trace9767ed" style="stroke-miterlimit: 2; opacity: 1;"><g class="fills"/><g class="errorbars"/><g class="lines"><path class="js-line" d="M0,66.47L11.4,67.61L11.94,70.37L13.03,87.94L13.57,105.9L15.2,216.23L15.75,260.31L16.29,260.51L16.83,279.86L17.92,326.62L18.46,323.59L20.09,328.73L20.63,328.45L24.43,328.51L24.98,328.33L28.78,327.75L29.32,327.61L37.46,325.27L38.01,325.19L53.75,323.61L54.3,323.61L67.33,322.03L67.87,322.07L80.9,322.55L81.44,322.45L83.61,322.88L84.16,323.06L87.42,322.79L87.96,322.26L89.04,322.9L89.59,318.21L91.22,281.93L91.76,232.88L93.39,126.6L93.93,119.35L94.47,118.47L95.02,119.15L96.1,120.18L96.65,119.48L100.45,113.6L100.99,113.06L105.33,110.23L105.88,110.04L114.56,106.9L115.11,106.62L119.99,104.7L120.54,104.62L131.39,101.32L131.94,101.1L134.65,100.61L135.2,100.64L138.45,99.55L139,99.41L143.88,98.89L144.43,100.05L145.51,107.4L146.05,114.73L147.14,136.05L147.68,155.81L150.4,285.14L150.94,292.96L152.03,297.93L152.57,298.54L154.74,299.71L155.28,299.93L160.71,301.89L161.26,302.03L179.17,304.88L179.72,304.85L184.06,305.2L184.6,305.39L188.4,306.17L188.95,306.08L192.21,306.18L192.75,306.24L199.26,307.32L199.81,307.44L213.92,307.65L214.47,307.61L217.18,308.48L217.72,308.61L221.52,308.88L222.07,308.26L222.61,306.87L223.15,303.03L224.24,276.96L224.78,248.55L226.95,134.71L227.5,130.31L230.21,122.61L230.75,121.42L234.01,116.2L234.56,115.71L239.44,112.52L239.98,112.2L258.45,105.92L258.99,105.9L261.16,104.79L261.7,104.43L264.42,103.98L264.96,103.85L275.82,100.62L276.36,100.74L277.45,100.75L277.99,101.91L279.08,114.06L279.62,126.35L281.25,197.29L281.79,237.85L283.96,287.73L284.51,289.02L285.05,287.64L285.59,289.2L286.68,290.61L287.22,290.64L293.19,293.3L293.74,293.36L300.25,294.59L300.8,294.85L303.51,295.31L304.05,295.19L307.31,295.11L307.85,295.23L312.74,296.68L313.28,296.58L316,296.82L316.54,296.92L325.23,297.79L325.77,297.69L328.49,297.86L329.03,297.98L334.46,298.47L335,298.53L342.06,299.86L342.6,299.8L345.86,299.89L346.4,300.01L351.83,300.36L352.38,300.34L354.55,299.5L355.09,298.51L355.63,296L356.18,289.73L357.26,253.18L357.81,218L359.43,131.27L359.98,124.08L361.06,121.06L361.61,120.5L363.24,117.85L363.78,116.87L366.49,113.61L367.04,113.19L371.38,110.35L371.92,110.15L375.18,108.81L375.72,108.35L378.44,107.4L378.98,107.4L381.7,106.81L382.24,106.7L384.95,105.74L385.5,105.45L388.21,104.99L388.75,104.91L394.18,102.58L394.73,102.32L399.07,101.22L399.61,101.2L406.67,98.99L407.21,98.73L408.84,99.02L409.39,99.45L410.47,109.71L411.02,121.62L412.64,190.88L413.19,224.97L413.73,248.36L414.27,241.48L414.82,250.31L415.9,274.58L416.44,273.34L418.62,277.63L419.16,277.98L424.59,280.82L425.13,281.03L441.96,287.1L442.51,286.97L444.68,287.19L445.22,287.37L451.74,288.37L452.28,288.29L474,290.05L474.54,290.28L476.71,290.31L477.26,290.22L484.31,291.05L484.86,291.15L494.63,291.51L495.17,291.72L497.89,291.78L498.43,291.28L498.97,290.7L499.52,287.88L500.6,265.51L501.15,246.67L503.32,140.79L503.86,132.52L505.49,125.44L506.03,124.57L510.38,116.57L510.92,116.04L517.98,111.09L518.52,110.83L521.23,110.3L521.78,110.24L527.21,107.4L527.75,106.97L529.92,106.63L530.46,106.55L537.52,104.82L538.07,104.38L539.69,103.58L540.24,103.66L542.41,103.57L542.95,103.28L545.67,102.36L546.21,102.38L549.47,102.16L550.01,101.91L552.73,101.43L553.27,102.14L554.35,106.45L554.9,111.23L555.98,131.73L556.53,157.27L558.16,234.25L558.7,251.34L559.78,265.29L560.33,265.19L562.5,268.82L563.04,269.37L567.93,272.24L568.47,272.54L573.36,274.76L573.9,274.99L585.85,277.87L586.39,277.81L590.19,278.48L590.73,278.62L595.08,279.38L595.62,279.51L599.96,280.08L600.51,280.07L609.19,280.17L609.74,280.28L616.79,280.97L617.34,281.01L630.37,282.2L630.91,281.67L632,278.23L632.54,272.59L633.63,236.94L634.17,204.11L635.8,137.19L636.34,129.96L638.51,115.94L639.06,113.95L641.23,108.75L641.77,108.03L648.29,102.79L648.83,102.67L651,102.04" style="vector-effect: none; fill: none; stroke: rgb(255, 161, 90); stroke-opacity: 1; stroke-width: 2px; opacity: 1;"/></g><g class="points"/><g class="text"/></g><g class="trace scatter trace5f2979" style="stroke-miterlimit: 2; opacity: 1;"><g class="fills"/><g class="errorbars"/><g class="lines"><path class="js-line" d="M0,70.4L4.89,69.94L5.43,70.1L8.69,70.38L9.23,70.33L11.4,70.95L11.94,72.4L13.03,79.97L13.57,87.83L14.66,119.69L15.2,156.93L16.83,238.12L17.37,268.38L17.92,282.71L18.46,280.61L19,280.64L20.09,283.29L20.63,282.71L25.52,279.88L26.06,279.64L38.01,274.96L38.55,274.81L47.24,272.98L47.78,273.03L60.27,272.05L60.81,272.03L81.99,271.8L82.53,271.39L84.16,271.02L84.7,271.14L89.04,271.72L89.59,269.84L91.22,247.54L91.76,217.08L93.39,125.89L93.93,117.93L95.02,115.62L95.56,115.79L96.65,115.22L97.19,114.16L99.9,110.57L100.45,110.19L108.05,106.08L108.59,105.94L116.19,104.1L116.73,103.89L121.62,103.2L122.16,103.13L129.22,102.79L129.77,102.88L132.48,102.16L133.02,101.93L136.28,101.43L136.82,101.42L143.88,102.14L144.43,103.63L145.51,112.93L146.05,122.23L147.68,176.21L148.23,206.96L149.31,216.5L149.85,231.54L150.94,240.74L151.48,240.59L153.11,243.29L153.66,243.52L158.54,245.25L159.09,245.3L178.09,247.58L178.63,247.41L180.8,247.53L181.35,247.71L184.6,248.21L185.15,248.16L189.49,248.8L190.03,248.65L193.29,248.79L193.83,248.95L197.63,249.25L198.18,249.22L205.24,249.77L205.78,249.78L213.38,249.36L213.92,249.59L217.72,250.25L218.27,250.3L222.07,250.05L222.61,248.51L223.7,241.16L224.24,229.61L226.95,117.35L227.5,118.52L228.58,120.1L229.13,119.49L232.38,112.91L232.93,112.32L236.18,110.11L236.73,109.85L242.7,107.4L243.24,107.25L262.79,103.1L263.33,103.17L264.96,102.72L265.5,102.34L267.68,101.77L268.22,101.81L277.45,101.61L277.99,100.43L279.62,95.19L280.16,96.61L281.25,122.87L281.79,163.03L282.88,202.05L283.42,213.93L284.51,231.2L285.05,230.36L287.76,233.38L288.31,233.62L299.71,236.4L300.25,236.51L311.11,238.16L311.65,237.99L315.46,237.92L316,238.04L326.31,239.02L326.86,238.85L331.2,238.68L331.74,238.65L344.77,239.88L345.32,239.84L354.01,240.06L354.55,239.8L355.63,236.57L356.18,233.25L356.72,226.46L357.26,207.37L359.43,119.24L359.98,115.67L361.61,114.59L362.15,114.02L365.95,108.74L366.49,108.35L370.29,106.02L370.84,105.81L376.81,103.96L377.35,103.88L383.32,102.71L383.87,102.66L404.5,98.22L405.04,98.25L407.76,97.46L408.3,97.26L409.93,97.5L410.47,98.57L411.56,104.46L412.1,112.01L413.19,151.53L413.73,182.71L415.9,211.15L416.44,211.06L416.99,211.49L418.62,213.98L419.16,214.44L422.42,216.47L422.96,216.58L426.22,217.91L426.76,218.18L433.82,221.08L434.36,221.09L437.62,222L438.16,222.14L447.94,223.14L448.48,223.07L459.34,224.45L459.88,224.28L462.6,224.58L463.14,224.65L472.37,225.18L472.91,225.13L498.43,225.91L498.97,225.11L500.06,220.29L500.6,210.46L503.32,127.9L503.86,123.1L505.49,118.5L506.03,117.73L510.92,110.1L511.46,109.59L515.26,107.38L515.8,107.14L519.06,105.84L519.61,105.82L523.95,104.24L524.49,103.96L527.21,103.37L527.75,103.25L532.64,102.33L533.18,102.35L535.89,101.65L536.44,101.35L539.15,100.61L539.69,100.61L544.04,99.66L544.58,99.42L547.3,99.34L547.84,99.37L552.73,99.42L553.27,99.89L554.35,103.04L554.9,106.48L555.98,119.4L556.53,133.44L558.16,179.13L558.7,188.1L559.78,197L560.33,197.02L563.04,200.15L563.58,200.59L570.1,203.72L570.64,203.96L579.33,207.01L579.87,207.16L588.56,208.71L589.1,208.75L602.68,209.94L603.22,209.97L615.71,210.96L616.25,211.16L618.97,211.23L619.51,211.09L622.77,210.66L623.31,210.76L630.91,211.52L631.45,210.58L632.54,206.91L633.08,200.84L635.8,120.31L636.34,118.21L640.68,103.32L641.23,102.45L644.48,99.36L645.03,99.16L648.83,97.65L649.37,97.35L651,96.37" style="vector-effect: none; fill: none; stroke: rgb(25, 211, 243); stroke-opacity: 1; stroke-width: 2px; opacity: 1;"/></g><g class="points"/><g class="text"/></g><g class="trace scatter traced145ec" style="stroke-miterlimit: 2; opacity: 1;"><g class="fills"/><g class="errorbars"/><g class="lines"><path class="js-line" d="M0,68.64L3.8,68.99L4.34,68.92L7.6,69.28L8.14,69.35L11.4,69.12L11.94,70.12L13.03,75.86L13.57,82.06L14.66,106.63L15.2,136.25L16.83,222.67L17.37,249.27L17.92,266.58L18.46,266.56L19,265.59L20.09,267.84L20.63,267.32L23.89,265.08L24.43,264.73L36.38,257.57L36.92,257.45L51.58,254.98L52.12,255.03L55.92,254.68L56.47,254.55L65.7,254.09L66.24,254.12L73.84,253.87L74.38,253.67L77.64,253.09L78.19,253.49L79.81,254.29L80.36,254.19L86.33,252.42L86.87,252.58L88.5,252.3L89.04,252.01L89.59,250.4L90.13,244.57L91.22,219.66L91.76,191.68L93.39,115.69L93.93,109.03L95.02,106.96L95.56,107.15L96.65,107.01L97.19,106.15L100.45,102.54L100.99,102.11L104.79,100.27L105.33,100.21L122.71,97.55L123.25,97.55L137.91,97.9L138.45,98.04L143.88,98.34L144.43,99.38L145.51,107.65L146.05,115.82L147.68,162.31L148.23,190.79L150.4,222L150.94,222.92L151.48,222.33L152.03,223.24L153.66,224.63L154.2,225.04L156.91,226.02L157.46,226.13L165.6,226.87L166.14,226.83L178.63,227.44L179.17,227.33L182.43,227.32L182.97,227.44L187.32,228.58L187.86,228.47L191.66,228.48L192.21,228.59L199.26,229.15L199.81,229.18L217.18,229.44L217.72,229.51L221.52,229.19L222.07,229.07L223.15,224.86L223.7,221.16L224.24,212.77L224.78,188.42L226.41,108.09L226.95,104.57L229.13,110.63L229.67,109.92L232.93,104.53L233.47,103.91L235.64,103.22L236.18,103.05L241.07,100.88L241.61,100.92L245.96,100.29L246.5,100.05L249.22,99.26L249.76,99.33L254.1,98.63L254.64,98.46L262.25,97.42L262.79,97.53L265.5,97.69L266.05,97.62L271.48,97.37L272.02,97.47L276.36,97.56L276.91,97.49L277.45,97.44L277.99,96.5L279.62,87.89L280.16,84.93L280.71,86.81L281.25,97.61L282.88,185.62L283.42,193.98L284.51,211.69L285.05,211.57L287.76,213.96L288.31,214.1L293.19,215.54L293.74,215.67L311.11,217.98L311.65,217.83L314.91,217.55L315.46,217.58L324.14,218.08L324.69,218.23L326.86,218.03L327.4,217.91L332.83,217.8L333.37,217.97L337.17,218.69L337.72,218.66L344.23,218.94L344.77,218.82L353.46,218.91L354.01,218.91L355.09,218.18L355.63,215.94L356.72,207.82L357.26,191.18L359.43,108.24L359.98,105.36L361.06,105.04L361.61,105.03L363.24,103.31L363.78,102.68L368.12,99.47L368.66,99.37L382.78,96.05L383.32,96.05L387.13,95.87L387.67,95.67L393.1,94.55L393.64,94.66L396.36,94.61L396.9,94.54L404.5,94.56L405.04,94.81L406.67,94.58L407.21,94.27L409.93,93.57L410.47,93.88L411.56,96.28L412.1,100.14L413.19,126.49L413.73,156.48L415.36,183.6L415.9,189.46L418.62,191.92L419.16,192.19L424.05,195.05L424.59,195.16L432.73,197.86L433.28,198.11L441.96,200.28L442.51,200.25L446.31,200.34L446.85,200.46L451.74,200.91L452.28,200.82L455.54,201.62L456.08,201.68L462.6,201.24L463.14,201.34L470.74,202.41L471.28,202.38L478.88,202.15L479.43,202.23L488.66,202.59L489.2,202.54L493.54,202.38L494.09,202.42L497.34,202.64L497.89,202.48L498.97,201.29L499.52,199.77L500.06,197.68L500.6,190.35L503.32,115.57L503.86,112.96L506.03,109.16L506.57,108.23L510.38,102.18L510.92,101.76L517.98,98.48L518.52,98.54L520.69,98.05L521.23,97.83L532.64,96.26L533.18,96.4L534.81,96.26L535.35,95.93L538.07,94.14L538.61,94.18L543.5,95L544.04,94.92L546.75,95.15L547.3,95.21L553.27,95.99L553.81,96.91L554.9,101.41L555.44,105.85L556.53,122.79L557.07,141.48L558.16,160.44L558.7,166.75L559.78,174.64L560.33,174.42L567.93,178.94L568.47,179.16L573.36,180.48L573.9,180.53L582.05,182.87L582.59,182.88L588.56,184.07L589.1,184.29L594.53,185L595.08,185.02L602.13,185.08L602.68,185.08L615.17,185.27L615.71,185.39L621.68,185.81L622.22,185.75L628.74,186.29L629.28,186.59L630.91,186.61L631.45,185.7L633.08,178.35L633.63,163.04L635.25,105.78L635.8,103.42L636.88,104.02L637.43,103.36L641.77,94.01L642.31,93.48L645.57,91.39L646.11,91.22L651,89.23" style="vector-effect: none; fill: none; stroke: rgb(255, 102, 146); stroke-opacity: 1; stroke-width: 2px; opacity: 1;"/></g><g class="points"/><g class="text"/></g><g class="trace scatter trace22468f" style="stroke-miterlimit: 2; opacity: 1;"><g class="fills"/><g class="errorbars"/><g class="lines"><path class="js-line" d="M0,39.44L5.97,39.26L6.52,39.4L9.77,39.71L10.32,39.78L11.4,40.04L11.94,41.26L13.03,49.49L13.57,59.15L14.66,101.69L15.2,145.89L16.83,241.47L17.37,260.9L18.46,273.49L19,273.23L20.63,275.17L21.18,275.07L24.98,274.55L25.52,274.44L33.66,272.21L34.21,271.97L43.44,268.64L43.98,268.52L55.38,266.87L55.92,266.84L76.56,266.17L77.1,266.18L83.07,266.01L83.61,265.98L87.96,265.47L88.5,265.18L89.59,261.68L90.13,256.47L91.22,220.19L91.76,183.64L93.39,93.63L93.93,83.51L95.02,77.38L95.56,76.49L97.19,73.59L97.73,72.32L99.9,69.15L100.45,68.71L103.7,66.6L104.25,66.41L118.91,61.37L119.45,61.5L121.62,61.54L122.16,61.31L124.34,60.75L124.88,60.84L127.59,60.77L128.14,60.65L143.88,59.19L144.43,60.04L145.51,69.05L146.05,79.07L147.14,116.5L147.68,148.41L149.31,224.49L149.85,236.88L150.94,248.66L151.48,248.27L153.11,249.72L153.66,249.66L166.14,250.15L166.69,250.31L169.94,250.7L170.49,250.7L175.37,251.3L175.92,251.44L179.17,251.41L179.72,251.35L186.78,251.8L187.32,251.84L192.21,251.94L192.75,252.04L209.04,252.86L209.58,252.8L214.47,253.18L215.01,253.34L219.35,253.4L219.9,253.45L222.07,252.99L222.61,251.62L223.7,244.19L224.24,234.89L227.5,84.25L228.04,81.66L232.93,70.32L233.47,69.63L235.64,68.55L236.18,68.45L238.9,66.79L239.44,66.44L242.16,65.72L242.7,65.57L251.39,62.93L251.93,62.84L256.27,61.89L256.82,61.87L259.53,61.02L260.07,60.75L262.79,60.12L263.33,60.19L269.3,59.97L269.85,59.77L272.56,59.32L273.11,59.28L275.82,59.24L276.36,59.38L277.45,59.59L277.99,58.82L279.62,56.83L280.16,61.52L281.25,105.67L281.79,155.67L282.88,215.58L283.42,224.98L284.51,241.77L285.05,241.47L287.76,242.65L288.31,242.51L291.02,242.38L291.57,242.51L295.37,242.53L295.91,242.61L304.6,243.56L305.14,243.51L309.48,243.3L310.03,243.43L316,244.31L316.54,244.29L325.23,244.55L325.77,244.58L338.8,245.8L339.35,245.95L354.55,246.22L355.09,245.35L356.72,233.31L357.26,214.02L359.98,84.34L360.52,79.47L362.69,73.23L363.24,72.05L366.49,67.6L367.04,67.09L369.75,65.37L370.29,65.26L376.27,62.88L376.81,62.53L378.98,62.01L379.52,62.01L389.3,60.42L389.84,60.28L394.18,59.21L394.73,59.15L399.61,58.23L400.16,58.17L409.39,57.56L409.93,57.92L411.02,61.77L411.56,67.49L412.64,100.56L413.19,136.88L414.27,203.33L414.82,210.72L416.44,230L416.99,229.98L418.62,231.27L419.16,231.36L425.67,233.17L426.22,233.11L428.93,233.45L429.48,233.69L432.73,234.38L433.28,234.36L436.53,234.9L437.08,235.16L441.96,236.22L442.51,236.17L449.02,236.12L449.56,236.35L453.37,237.1L453.91,237.11L470.74,237.39L471.28,237.55L475.08,237.69L475.63,237.6L479.43,237.76L479.97,237.75L485.4,238.39L485.94,238.4L498.43,239.14L498.97,237.75L500.06,231.31L500.6,221.86L503.86,86.4L504.4,82.39L507.66,72.82L508.2,71.66L511.46,67.45L512,67.19L515.8,65.04L516.35,64.73L521.78,62.95L522.32,62.89L528.84,60.55L529.38,60.55L534.27,60.4L534.81,60.17L539.15,58.74L539.69,58.76L552.73,58.5L553.27,58.83L554.35,62.6L554.9,67.37L555.98,91.06L556.53,116.58L558.16,200.8L558.7,209.85L559.78,222.35L560.33,222.1L564.67,223.82L565.21,223.94L571.19,224.93L571.73,224.95L574.99,226.17L575.53,226.28L582.59,227.23L583.13,227.2L587.47,227.54L588.02,227.69L590.73,227.64L591.28,227.59L595.08,228.41L595.62,228.51L599.42,228.51L599.96,228.41L605.93,228.61L606.48,228.7L621.68,229.72L622.22,229.67L630.91,230.09L631.45,229.17L632.54,223.48L633.08,217.93L634.17,161.85L634.71,126.61L636.34,82.01L636.88,78.77L640.68,65.79L641.23,64.95L644.48,61.89L645.03,61.53L649.91,58.64L650.46,58.55L651,58.41" style="vector-effect: none; fill: none; stroke: rgb(182, 232, 128); stroke-opacity: 1; stroke-width: 2px; opacity: 1;"/></g><g class="points"/><g class="text"/></g><g class="trace scatter trace0dd309" style="stroke-miterlimit: 2; opacity: 1;"><g class="fills"/><g class="errorbars"/><g class="lines"><path class="js-line" d="M0,23.18L11.4,23.31L11.94,24.09L13.03,30.21L13.57,37.73L14.66,73.56L15.2,114.53L16.83,240.59L17.37,267.89L18.46,297.12L19,295.65L20.63,299.48L21.18,299.3L24.43,299.47L24.98,299.23L28.23,298.09L28.78,298.05L33.66,296.69L34.21,296.38L36.92,295.35L37.46,295.3L53.75,293.23L54.3,293.21L65.15,292.74L65.7,292.82L69.5,292.51L70.04,292.4L77.1,292.28L77.64,292.38L85.24,292.76L85.79,292.74L88.5,292.44L89.04,289.13L90.13,277.22L90.67,261.96L93.39,96.54L93.93,91.96L97.73,77.73L98.27,76.14L102.08,67.86L102.62,67.12L108.05,61.27L108.59,60.92L111.85,58.26L112.39,57.49L115.65,54.1L116.19,53.8L127.59,48.45L128.14,48.35L138.45,44.58L139,44.53L141.17,44.1L141.71,43.81L143.88,43.23L144.43,43.69L145.51,51.32L146.05,59.86L147.14,94.57L147.68,125.31L149.31,232.51L149.85,250.16L150.94,276.25L151.48,275.34L153.11,278.02L153.66,277.86L157.46,278.41L158,278.68L160.17,279.41L160.71,279.31L163.43,279.3L163.97,279.41L181.89,281.33L182.43,281.34L196.01,282.71L196.55,282.81L204.15,283.3L204.69,283.38L215.01,284.15L215.55,284.14L222.07,284.58L222.61,282.68L224.24,262.44L224.78,229.73L226.95,107.77L227.5,99.31L229.67,84.07L230.21,81.42L232.93,72.64L233.47,71.47L236.73,66.17L237.27,65.41L241.07,61L241.61,60.49L248.13,53.77L248.67,53.44L261.16,46.22L261.7,46.08L267.13,44L267.68,43.76L276.91,41.74L277.45,43.75L278.53,58.38L279.08,73.29L280.71,161.92L281.25,208.74L283.96,268.84L284.51,268.84L285.59,271.17L286.14,271.18L299.17,273.27L299.71,273.49L302.42,273.76L302.97,273.75L316,274.69L316.54,274.85L321.43,275.84L321.97,275.97L325.23,275.73L325.77,275.63L329.03,275.99L329.57,276.12L337.17,276.89L337.72,276.94L343.15,277.25L343.69,277.27L354.55,277.69L355.09,277.02L356.72,261.13L357.26,239.01L359.43,103.47L359.98,94.8L362.15,81.22L362.69,78.78L365.41,70.38L365.95,69.17L369.21,64.01L369.75,63.32L375.72,55.39L376.27,54.96L380.61,52.27L381.15,52.49L382.78,52.59L383.32,52.24L387.13,50.23L387.67,49.98L396.36,46.02L396.9,45.87L403.41,43.37L403.96,43.28L406.13,41.78L406.67,41.38L408.3,41.41L408.84,41.62L410.47,42.75L411.02,44.45L412.1,57.66L412.64,76.88L415.36,242.6L415.9,258.16L416.44,261.32L416.99,260.81L417.53,262.17L418.62,263.99L419.16,264.08L432.19,267.51L432.73,267.76L436.53,269L437.08,269.09L444.68,269.9L445.22,269.93L447.94,270.36L448.48,270.55L454.45,270.96L454.99,270.99L466.94,271.41L467.48,271.31L470.2,271.76L470.74,271.85L478.34,272.23L478.88,272.28L484.31,272.65L484.86,272.67L493.54,273.36L494.09,273.38L498.43,273.44L498.97,271.3L500.6,251.63L501.15,217.1L502.77,110.8L503.32,99.31L505.49,84.91L506.03,82.15L509.29,71.2L509.83,69.77L513.09,64.57L513.63,63.71L519.61,55.31L520.15,55.36L522.32,55.4L522.86,54.89L526.12,52.05L526.66,51.74L533.72,47.9L534.27,47.68L552.18,41.88L552.73,41.05L554.35,28L554.9,23.57L555.44,26.17L555.98,41.49L557.07,133.28L557.61,196.14L559.78,256.86L560.33,256.72L560.87,256.86L561.41,258.31L562.5,259.12L563.04,259.23L570.64,261.9L571.19,262.04L578.79,263.66L579.33,263.6L585.3,264.12L585.85,264.19L611.36,266.38L611.91,266.4L630.91,267.64L631.45,266.73L633.08,251.27L633.63,226.85L635.8,104.59L636.34,95.3L638.51,79.18L639.06,76.26L641.77,66.91L642.31,65.66L646.11,59.52L646.66,58.47L649.37,54.56L649.91,54L651,53.1" style="vector-effect: none; fill: none; stroke: rgb(255, 151, 255); stroke-opacity: 1; stroke-width: 2px; opacity: 1;"/></g><g class="points"/><g class="text"/></g><g class="trace scatter trace5e16c5" style="stroke-miterlimit: 2; opacity: 1;"><g class="fills"/><g class="errorbars"/><g class="lines"><path class="js-line" d="M0,21.35L5.97,20.7L6.52,20.77L9.77,20.54L10.32,20.52L11.94,21.28L12.49,23.21L13.57,33.13L14.12,44.33L15.2,97.7L15.75,157.44L17.37,256.73L17.92,287.02L18.46,295.94L19,293.64L19.55,295.04L20.63,297.72L21.18,297.38L35.29,295.84L35.83,295.38L38.55,293.79L39.09,293.62L42.89,293.05L43.44,293.04L52.12,292.02L52.67,291.88L60.81,292.23L61.35,292.31L64.61,291.76L65.15,291.69L69.5,291.59L70.04,291.78L74.93,292.31L75.47,292.31L82.53,292.66L83.07,292.73L86.87,292.29L87.42,291.98L88.5,292.31L89.04,289.42L90.67,264.46L91.22,223.14L92.84,103.18L93.39,92L94.47,88.61L95.02,88.3L96.1,85.15L96.65,82.97L98.82,77.5L99.36,76.6L104.79,68.3L105.33,67.66L112.39,59.31L112.93,58.86L123.25,51.47L123.79,51.49L125.96,50.85L126.51,50.45L131.39,47.58L131.94,47.29L137.37,45.43L137.91,45.31L142.25,44.16L142.8,43.91L144.43,43.54L144.97,45.5L146.05,57.19L146.6,69.6L147.68,114.44L148.23,159.16L149.31,227.1L149.85,241.65L150.94,274.65L151.48,274.08L152.03,274.36L152.57,276.01L153.66,276.65L154.2,276.69L177,280.62L177.55,280.65L193.29,281.69L193.83,281.78L204.15,282.04L204.69,282.02L212.84,282.77L213.38,282.74L222.07,283.57L222.61,282.36L224.24,262.56L224.78,233.9L226.95,107.38L227.5,98.84L229.67,84.46L230.21,82.24L232.93,74.49L233.47,73.62L242.7,60.84L243.24,60.45L247.04,56.81L247.59,56.17L250.84,53.9L251.39,53.42L256.27,50.05L256.82,49.95L259.53,48.82L260.07,48.4L264.42,46.35L264.96,46.11L271.48,43.29L272.02,43.26L276.91,42.2L277.45,43.45L278.53,56.19L279.08,69.56L280.71,151.88L281.25,201.19L283.42,266.66L283.96,268L284.51,267.01L285.05,268.4L286.14,269.48L286.68,269.39L298.62,272.19L299.17,272.18L348.03,276.74L348.58,276.62L351.29,276.92L351.83,276.92L355.09,276.5L355.63,272.57L357.26,243.27L357.81,198.44L359.43,102.54L359.98,93.94L362.15,82.18L362.69,79.84L364.86,73.86L365.41,73.09L370.29,64.58L370.84,63.59L375.18,58.06L375.72,57.44L382.78,52.14L383.32,51.75L394.18,45.43L394.73,45.19L407.21,40.45L407.76,40.39L410.47,40.01L411.02,41.05L411.56,43.87L412.1,50.73L413.19,97.29L413.73,152.97L414.82,218.22L415.36,234.76L416.44,259.74L416.99,258.8L419.16,261.92L419.7,262.04L423.5,263.86L424.05,264.17L440.33,268.53L440.88,268.54L458.79,269.73L459.34,269.71L477.8,271.14L478.34,271.09L481.6,271.42L482.14,271.53L498.43,272.17L498.97,270.62L500.6,252.45L501.15,222.3L502.77,111.24L503.32,98.67L504.95,87.78L505.49,85.41L508.2,75.68L508.75,74.64L516.35,61.43L516.89,60.81L522.86,54.28L523.41,53.82L527.75,50.4L528.29,49.9L539.15,44.02L539.69,43.89L545.12,41.92L545.67,41.66L549.47,40.41L550.01,40.39L552.73,40.86L553.27,42.58L554.35,51.99L554.9,62.85L555.98,117.4L556.53,168.86L558.16,238.77L558.7,251.59L560.33,255.44L560.87,256.44L566.3,259.21L566.84,259.37L571.19,260.28L571.73,260.62L575.53,261.81L576.07,261.87L584.76,263.34L585.3,263.26L588.56,262.86L589.1,262.9L591.82,263.71L592.36,263.83L595.62,264.23L596.16,264.48L598.88,264.79L599.42,264.77L623.85,265.18L624.4,265.11L631.45,264.6L632,260.34L633.08,249.73L633.63,231.17L635.8,108.21L636.34,97.5L638.51,79.65L639.06,77.04L641.23,70.81L641.77,69.89L650.46,56.38L651,55.73" style="vector-effect: none; fill: none; stroke: rgb(254, 203, 82); stroke-opacity: 1; stroke-width: 2px; opacity: 1;"/></g><g class="points"/><g class="text"/></g></g></g></g><g class="zerolinelayer-above"/><path class="xlines-above crisp" d="M0,0" style="fill: none;"/><path class="ylines-above crisp" d="M0,0" style="fill: none;"/><g class="overlines-above"/><g class="xaxislayer-above"><g class="xtick"><text text-anchor="middle" x="0" y="473" transform="translate(68.21000000000001,0)" style="font-family: 'Times New Roman'; font-size: 12px; fill: rgb(0, 0, 0); fill-opacity: 1; white-space: pre;">4e+6</text></g><g class="xtick"><text text-anchor="middle" x="0" y="473" style="font-family: 'Times New Roman'; font-size: 12px; fill: rgb(0, 0, 0); fill-opacity: 1; white-space: pre;" transform="translate(156.79000000000002,0)">6e+6</text></g><g class="xtick"><text text-anchor="middle" x="0" y="473" style="font-family: 'Times New Roman'; font-size: 12px; fill: rgb(0, 0, 0); fill-opacity: 1; white-space: pre;" transform="translate(245.37,0)">8e+6</text></g><g class="xtick"><text text-anchor="middle" x="0" y="473" style="font-family: 'Times New Roman'; font-size: 12px; fill: rgb(0, 0, 0); fill-opacity: 1; white-space: pre;" transform="translate(333.96,0)">1e+7</text></g><g class="xtick"><text text-anchor="middle" x="0" y="473" style="font-family: 'Times New Roman'; font-size: 12px; fill: rgb(0, 0, 0); fill-opacity: 1; white-space: pre;" transform="translate(422.54,0)">1e+7</text></g><g class="xtick"><text text-anchor="middle" x="0" y="473" style="font-family: 'Times New Roman'; font-size: 12px; fill: rgb(0, 0, 0); fill-opacity: 1; white-space: pre;" transform="translate(511.12,0)">1e+7</text></g><g class="xtick"><text text-anchor="middle" x="0" y="473" style="font-family: 'Times New Roman'; font-size: 12px; fill: rgb(0, 0, 0); fill-opacity: 1; white-space: pre;" transform="translate(599.7,0)">2e+7</text></g><g class="xtick"/></g><g class="yaxislayer-above"><g class="ytick"><text text-anchor="end" x="38" y="4.199999999999999" transform="translate(0,392.34)" style="font-family: 'Times New Roman'; font-size: 12px; fill: rgb(0, 0, 0); fill-opacity: 1; white-space: pre;">−4</text></g><g class="ytick"><text text-anchor="end" x="38" y="4.199999999999999" style="font-family: 'Times New Roman'; font-size: 12px; fill: rgb(0, 0, 0); fill-opacity: 1; white-space: pre;" transform="translate(0,321.99)">−3</text></g><g class="ytick"><text text-anchor="end" x="38" y="4.199999999999999" style="font-family: 'Times New Roman'; font-size: 12px; fill: rgb(0, 0, 0); fill-opacity: 1; white-space: pre;" transform="translate(0,251.63)">−2</text></g><g class="ytick"><text text-anchor="end" x="38" y="4.199999999999999" style="font-family: 'Times New Roman'; font-size: 12px; fill: rgb(0, 0, 0); fill-opacity: 1; white-space: pre;" transform="translate(0,181.28)">−1</text></g><g class="ytick"><text text-anchor="end" x="38" y="4.199999999999999" style="font-family: 'Times New Roman'; font-size: 12px; fill: rgb(0, 0, 0); fill-opacity: 1; white-space: pre;" transform="translate(0,110.93)">0</text></g></g><g class="overaxes-above"/></g></g><g class="polarlayer"/><g class="smithlayer"/><g class="ternarylayer"/><g class="geolayer"/><g class="funnelarealayer"/><g class="pielayer"/><g class="iciclelayer"/><g class="treemaplayer"/><g class="sunburstlayer"/><g class="glimages"/><defs id="topdefs-45488f"><g class="clips"/></defs><g class="layer-above"><g class="imagelayer"/><g class="shapelayer"><g class="shape-group" data-index="0" clip-path="url(#clip45488fx)"><path data-index="0" fill-rule="evenodd" d="M70.88,460H124.03V50H70.88Z" style="opacity: 0.4; stroke: rgb(0, 0, 0); stroke-opacity: 0; fill: rgb(160, 254, 205); fill-opacity: 1; stroke-width: 0px;"/></g><g class="shape-group" data-index="1" clip-path="url(#clip45488fx)"><path data-index="1" fill-rule="evenodd" d="M203.75,460H256.88V50H203.75Z" style="opacity: 0.4; stroke: rgb(0, 0, 0); stroke-opacity: 0; fill: rgb(136, 248, 239); fill-opacity: 1; stroke-width: 0px;"/></g><g class="shape-group" data-index="2" clip-path="url(#clip45488fx)"><path data-index="2" fill-rule="evenodd" d="M336.63,460H389.74V50H336.63Z" style="opacity: 0.4; stroke: rgb(0, 0, 0); stroke-opacity: 0; fill: rgb(145, 237, 255); fill-opacity: 1; stroke-width: 0px;"/></g><g class="shape-group" data-index="3" clip-path="url(#clip45488fx)"><path data-index="3" fill-rule="evenodd" d="M469.46,460H522.61V50H469.46Z" style="opacity: 0.4; stroke: rgb(0, 0, 0); stroke-opacity: 0; fill: rgb(175, 223, 255); fill-opacity: 1; stroke-width: 0px;"/></g><g class="shape-group" data-index="4" clip-path="url(#clip45488fx)"><path data-index="4" fill-rule="evenodd" d="M610.3,460H663.45V50H610.3Z" style="opacity: 0.4; stroke: rgb(0, 0, 0); stroke-opacity: 0; fill: rgb(205, 208, 255); fill-opacity: 1; stroke-width: 0px;"/></g></g></g><g class="infolayer"><g class="g-gtitle"><text class="gtitle" x="350" y="25" text-anchor="middle" dy="0em" style="opacity: 1; font-family: 'Times New Roman'; font-size: 17px; fill: rgb(0, 0, 0); fill-opacity: 1; white-space: pre;">Sensor 7 Net</text></g><g class="g-xtitle" transform="translate(0,-2.8000000000000114)"><text class="xtitle" x="364.5" y="499.8" text-anchor="middle" style="opacity: 1; font-family: 'Times New Roman'; font-size: 14px; fill: rgb(0, 0, 0); fill-opacity: 1; white-space: pre;">Time since power on (ms)</text></g><g class="g-ytitle" transform="translate(6.673828125,0)"><text class="ytitle" transform="rotate(-90,5.826562500000001,255)" x="5.826562500000001" y="255" text-anchor="middle" style="opacity: 1; font-family: 'Times New Roman'; font-size: 14px; fill: rgb(0, 0, 0); fill-opacity: 1; white-space: pre;">Resistance (Ohms)</text></g><g class="annotation" data-index="0" style="opacity: 1;"><g class="annotation-text-g" transform="rotate(0,85.88,58.5)"><g class="cursor-pointer" transform="translate(71,50)"><rect class="bg" x="0.5" y="0.5" width="29" height="16" style="stroke-width: 1px; stroke: rgb(0, 0, 0); stroke-opacity: 0; fill: rgb(0, 0, 0); fill-opacity: 0;"/><text class="annotation-text" text-anchor="middle" x="14.8359375" y="12.5" style="font-family: 'Times New Roman'; font-size: 12px; fill: rgb(0, 0, 0); fill-opacity: 1; white-space: pre;">M 15</text></g></g></g><g class="annotation" data-index="1" style="opacity: 1;"><g class="annotation-text-g" transform="rotate(0,218.75,58.5)"><g class="cursor-pointer" transform="translate(204,50)"><rect class="bg" x="0.5" y="0.5" width="29" height="16" style="stroke-width: 1px; stroke: rgb(0, 0, 0); stroke-opacity: 0; fill: rgb(0, 0, 0); fill-opacity: 0;"/><text class="annotation-text" text-anchor="middle" x="14.8359375" y="12.5" style="font-family: 'Times New Roman'; font-size: 12px; fill: rgb(0, 0, 0); fill-opacity: 1; white-space: pre;">M 10</text></g></g></g><g class="annotation" data-index="2" style="opacity: 1;"><g class="annotation-text-g" transform="rotate(0,348.63,58.5)"><g class="cursor-pointer" transform="translate(337,50)"><rect class="bg" x="0.5" y="0.5" width="23" height="16" style="stroke-width: 1px; stroke: rgb(0, 0, 0); stroke-opacity: 0; fill: rgb(0, 0, 0); fill-opacity: 0;"/><text class="annotation-text" text-anchor="middle" x="11.8359375" y="12.5" style="font-family: 'Times New Roman'; font-size: 12px; fill: rgb(0, 0, 0); fill-opacity: 1; white-space: pre;">M 7</text></g></g></g><g class="annotation" data-index="3" style="opacity: 1;"><g class="annotation-text-g" transform="rotate(0,481.46,58.5)"><g class="cursor-pointer" transform="translate(469,50)"><rect class="bg" x="0.5" y="0.5" width="23" height="16" style="stroke-width: 1px; stroke: rgb(0, 0, 0); stroke-opacity: 0; fill: rgb(0, 0, 0); fill-opacity: 0;"/><text class="annotation-text" text-anchor="middle" x="11.8359375" y="12.5" style="font-family: 'Times New Roman'; font-size: 12px; fill: rgb(0, 0, 0); fill-opacity: 1; white-space: pre;">M 3</text></g></g></g><g class="annotation" data-index="4" style="opacity: 1;"><g class="annotation-text-g" transform="rotate(0,622.3,58.5)"><g class="cursor-pointer" transform="translate(610,50)"><rect class="bg" x="0.5" y="0.5" width="23" height="16" style="stroke-width: 1px; stroke: rgb(0, 0, 0); stroke-opacity: 0; fill: rgb(0, 0, 0); fill-opacity: 0;"/><text class="annotation-text" text-anchor="middle" x="11.8359375" y="12.5" style="font-family: 'Times New Roman'; font-size: 12px; fill: rgb(0, 0, 0); fill-opacity: 1; white-space: pre;">M 0</text></g></g></g></g></svg>