<svg class="main-svg" xmlns="http://www.w3.org/2000/svg" xmlns:xlink="http://www.w3.org/1999/xlink" width="700" height="500" style="" viewBox="0 0 700 500"><rect x="0" y="0" width="700" height="500" style="fill: rgb(255, 255, 255); fill-opacity: 1;"/><defs id="defs-f25d9a"><g class="clips"><clipPath id="clipf25d9axyplot" class="plotclip"><rect width="652" height="410"/></clipPath><clipPath class="axesclip" id="clipf25d9ax"><rect x="38" y="0" width="652" height="500"/></clipPath><clipPath class="axesclip" id="clipf25d9ay"><rect x="0" y="50" width="700" height="410"/></clipPath><clipPath class="axesclip" id="clipf25d9axy"><rect x="38" y="50" width="652" height="410"/></clipPath></g><g class="gradients"/><g class="patterns"/></defs><g class="bglayer"><rect class="bg" x="38" y="50" width="652" height="410" style="fill: rgb(229, 236, 246); fill-opacity: 1; stroke-width: 0;"/></g><g class="layer-below"><g class="imagelayer"/><g class="shapelayer"/></g><g class="cartesianlayer"><g class="subplot xy"><g class="layer-subplot"><g class="shapelayer"/><g class="imagelayer"/></g><g class="minor-gridlayer"><g class="x"/><g class="y"/></g><g class="gridlayer"><g class="x"><path class="xgrid crisp" transform="translate(67.25,0)" d="M0,50v410" style="stroke: rgb(255, 255, 255); stroke-opacity: 1; stroke-width: 1px;"/><path class="xgrid crisp" transform="translate(155.97,0)" d="M0,50v410" style="stroke: rgb(255, 255, 255); stroke-opacity: 1; stroke-width: 1px;"/><path class="xgrid crisp" transform="translate(244.69,0)" d="M0,50v410" style="stroke: rgb(255, 255, 255); stroke-opacity: 1; stroke-width: 1px;"/><path class="xgrid crisp" transform="translate(333.41,0)" d="M0,50v410" style="stroke: rgb(255, 255, 255); stroke-opacity: 1; stroke-width: 1px;"/><path class="xgrid crisp" transform="translate(422.13,0)" d="M0,50v410" style="stroke: rgb(255, 255, 255); stroke-opacity: 1; stroke-width: 1px;"/><path class="xgrid crisp" transform="translate(510.85,0)" d="M0,50v410" style="stroke: rgb(255, 255, 255); stroke-opacity: 1; stroke-width: 1px;"/><path class="xgrid crisp" transform="translate(599.57,0)" d="M0,50v410" style="stroke: rgb(255, 255, 255); stroke-opacity: 1; stroke-width: 1px;"/><path class="xgrid crisp" transform="translate(688.28,0)" d="M0,50v410" style="stroke: rgb(255, 255, 255); stroke-opacity: 1; stroke-width: 1px;"/></g><g class="y"><path class="ygrid crisp" transform="translate(0,431.75)" d="M38,0h652" style="stroke: rgb(255, 255, 255); stroke-opacity: 1; stroke-width: 1px;"/><path class="ygrid crisp" transform="translate(0,365.39)" d="M38,0h652" style="stroke: rgb(255, 255, 255); stroke-opacity: 1; stroke-width: 1px;"/><path class="ygrid crisp" transform="translate(0,299.03999999999996)" d="M38,0h652" style="stroke: rgb(255, 255, 255); stroke-opacity: 1; stroke-width: 1px;"/><path class="ygrid crisp" transform="translate(0,232.69)" d="M38,0h652" style="stroke: rgb(255, 255, 255); stroke-opacity: 1; stroke-width: 1px;"/><path class="ygrid crisp" transform="translate(0,166.34)" d="M38,0h652" style="stroke: rgb(255, 255, 255); stroke-opacity: 1; stroke-width: 1px;"/><path class="ygrid crisp" transform="translate(0,99.99000000000001)" d="M38,0h652" style="stroke: rgb(255, 255, 255); stroke-opacity: 1; stroke-width: 1px;"/></g></g><g class="zerolinelayer"/><g class="layer-between"><g class="shapelayer"/><g class="imagelayer"/></g><path class="xlines-below"/><path class="ylines-below"/><g class="overlines-below"/><g class="xaxislayer-below"/><g class="yaxislayer-below"/><g class="overaxes-below"/><g class="overplot"><g class="xy" transform="translate(38,50)" clip-path="url(#clipf25d9axyplot)"><g class="scatterlayer mlayer"><g class="trace scatter traceed6a46" style="stroke-miterlimit: 2; opacity: 1;"><g class="fills"/><g class="errorbars"/><g class="lines"><path class="js-line" d="M0,20.5L11.96,20.83L12.51,21.46L13.59,29.34L14.14,38.35L16.31,73.39L16.86,72.88L19.58,68.12L20.12,67.43L26.1,62.13L26.65,62.01L33.71,61.46L34.26,61.07L36.98,59.94L37.52,59.85L42.42,59.62L42.96,59.8L44.59,59.56L45.13,59.27L49.48,57.69L50.03,57.73L52.75,57.95L53.29,57.8L57.1,58L57.64,58.34L59.82,60.18L60.36,59.45L61.99,57.42L62.54,57.6L63.62,57.66L64.17,57.26L66.34,55.94L66.89,55.99L69.6,56.2L70.15,56.08L80.48,53.87L81.02,53.92L84.29,54.49L84.83,54.55L86.46,54.35L87.01,53.86L88.64,53.08L89.18,53.35L90.27,53.73L90.81,53.33L91.9,52.11L92.44,50.47L93.53,41.38L94.08,34.5L95.71,21.69L96.25,20.82L100.6,20.5L101.14,20.5L145.19,20.85L145.73,21.66L146.82,29.94L147.37,38.99L149.54,72.12L150.09,72.21L154.44,67.46L154.98,67.22L157.7,66.8L158.24,66.96L160.42,68.07L160.96,67.32L163.14,64.72L163.68,64.46L165.31,64.51L165.85,64.66L167.49,63.83L168.03,63.38L170.21,60.83L170.75,61.18L172.92,63.32L173.47,63.38L177.27,62.95L177.82,62.71L180.54,61.79L181.08,61.88L185.43,61.53L185.97,61.55L188.15,61.53L188.69,61.25L191.41,60.72L191.96,60.72L198.48,60.31L199.03,60.25L203.38,59.5L203.92,59.78L208.81,61.68L209.36,61.51L210.99,61.12L211.53,61.47L212.62,61.68L213.16,61.06L215.34,58.97L215.88,58.87L217.51,57.8L218.06,57.29L219.15,57.53L219.69,58.47L220.78,59.6L221.32,59.34L223.5,58.08L224.04,58.17L225.13,58.2L225.67,56.32L227.3,36.02L227.85,28.83L229.48,20.83L230.02,20.71L235.46,20.5L236,20.5L278.42,20.88L278.96,21.79L280.05,30.77L280.59,40.43L282.77,74.37L283.31,74.1L286.58,70.57L287.12,70.48L289.29,70.28L289.84,69.8L290.93,69.5L291.47,69.77L293.1,70.27L293.64,69.89L297.99,65.57L298.54,64.52L299.63,63.64L300.17,64.21L301.8,66.73L302.35,66.71L303.43,66.54L303.98,67.33L306.15,72.16L306.7,70.76L308.33,66L308.87,65.71L316.48,65.95L317.03,65.73L319.75,65.34L320.29,65.3L321.92,65.16L322.47,65.94L324.1,68.5L324.64,67.6L326.27,64.61L326.82,64.61L329.53,67.1L330.08,66.35L331.71,64.58L332.25,64.5L337.15,62.96L337.69,62.48L340.41,59.54L340.95,60.21L343.13,62.6L343.67,62.71L347.48,63.1L348.02,63.01L350.2,62.46L350.74,63.03L351.83,63.36L352.37,62.89L354.01,61.91L354.55,61.95L358.36,61.49L358.9,59.39L360.53,37.17L361.07,29.41L362.71,20.84L363.25,20.72L368.69,20.5L369.23,20.5L410.56,20.9L411.1,21.95L412.19,31.41L412.73,41.29L414.91,72.66L415.45,72.25L418.72,69.03L419.26,69.14L420.35,69.45L420.89,69.04L423.07,66.33L423.61,66.67L426.33,69.35L426.87,68.7L429.05,64.45L429.59,64.96L431.77,67.25L432.31,67.12L436.12,65.71L436.66,65.49L441.55,64.36L442.1,64.35L445.9,65.42L446.45,65.79L448.08,67L448.62,66.54L450.8,63.76L451.34,63.9L454.06,63.97L454.61,64.67L456.24,65.84L456.78,65.25L458.96,63.65L459.5,63.59L462.22,62.61L462.76,62.38L474.18,61.38L474.73,61.3L475.81,62.42L476.36,63.57L477.44,65.11L477.99,64.98L480.71,62.99L481.25,62.71L485.06,59.75L485.6,60.07L487.78,62.38L488.32,61.97L489.95,60.97L490.5,61.02L493.76,60.82L494.3,60.64L496.48,60.46L497.02,60.61L498.65,60.25L499.2,59.95L501.37,59.44L501.91,56.94L505.18,21.46L505.72,20.79L511.7,20.5L512.25,20.5L553.57,20.95L554.12,22.18L555.21,32.04L555.75,41.97L557.38,68.9L557.92,70.26L559.56,68.45L560.1,68.61L561.73,69.17L562.28,68.59L564.99,65.66L565.54,65.35L568.8,64.28L569.34,64.17L576.96,63.31L577.5,63.75L579.13,65.01L579.68,64.71L581.85,62.86L582.4,62.81L589.46,61.88L590.01,61.62L593.81,59.54L594.36,60.02L596.53,61.19L597.08,61.01L599.25,60.87L599.8,61.05L602.52,61.16L603.06,60.91L604.69,60.21L605.23,60.5L606.87,62.02L607.41,61.8L609.58,60.52L610.13,60.5L616.65,60.33L617.2,61.52L618.29,63.07L618.83,62.8L621.55,59.64L622.09,59.51L623.18,58.73L623.72,57.76L625.35,55.9L625.9,56.45L628.62,59.33L629.16,59.42L634.06,58.11L634.6,57.49L635.69,49.52L636.23,41.86L637.86,23.2L638.41,21.28L640.04,20.59L640.58,20.51L652,20.5" style="vector-effect: none; fill: none; stroke: rgb(99, 110, 250); stroke-opacity: 1; stroke-width: 2px; opacity: 1;"/></g><g class="points"/><g class="text"/></g><g class="trace scatter traceab8ce7" style="stroke-miterlimit: 2; opacity: 1;"><g class="fills"/><g class="errorbars"/><g class="lines"><path class="js-line" d="M0,275.83L4.89,275.57L5.44,275.47L11.96,275.54L12.51,276.29L13.59,286.77L14.14,299.69L16.86,374.65L17.4,373.97L19.03,372.94L19.58,372.3L23.38,369.65L23.93,369.44L36.43,366.44L36.98,366.39L56.01,363.88L56.55,363.88L61.45,363.66L61.99,363.57L90.81,360.71L91.36,360.23L91.9,359.37L92.44,354.69L94.08,310.55L94.62,295.94L96.25,276.03L96.79,274.28L98.97,271.38L99.51,270.91L102.78,268.82L103.32,268.75L107.67,267.87L108.21,267.72L113.11,267.2L113.65,267.22L123.98,266.88L124.53,266.86L135.95,266.87L136.49,266.92L140.3,266.78L140.84,266.65L143.56,266.81L144.1,266.97L145.19,267.18L145.73,268.24L146.82,280.31L147.37,294.69L149.54,370.43L150.09,372.54L154.98,370.56L155.52,370.29L158.79,369.57L159.33,369.52L177.82,366.47L178.36,366.44L193.59,365.47L194.13,365.33L198.48,364.76L199.03,364.77L208.27,364.39L208.81,364.37L214.25,364.42L214.8,364.24L219.69,363.76L220.23,363.72L224.04,362.84L224.58,362.41L225.13,361.43L225.67,356.44L229.48,276.56L230.02,274.42L232.2,270.14L232.74,269.49L235.46,267.7L236,267.41L239.27,266.29L239.81,266.19L245.79,264.9L246.34,264.86L278.42,264.7L278.96,265.9L280.05,278.59L280.59,293.51L282.77,371.46L283.31,373.46L286.58,372.58L287.12,372.3L291.47,370.82L292.01,370.66L302.35,368.74L302.89,368.68L308.33,368.24L308.87,368.13L319.2,367.35L319.75,367.44L325.73,366.95L326.27,366.85L345.3,365.83L345.85,365.85L356.72,365.04L357.27,364.46L358.36,362.85L358.9,357.06L362.16,279.23L362.71,275.75L364.88,270.03L365.42,269.36L369.23,266.57L369.77,266.21L373.04,264.89L373.58,264.75L380.11,263.5L380.65,263.49L389.35,263.1L389.89,263.05L396.96,263.02L397.51,263.17L399.68,262.95L400.23,262.8L406.75,262.59L407.3,262.71L410.56,263.27L411.1,264.7L412.19,278.48L412.73,294.39L414.91,371.53L415.45,372.92L418.17,372.43L418.72,372.15L423.61,370.51L424.15,370.42L442.1,368.17L442.64,368.13L474.73,366.26L475.27,366.31L483.43,365.88L483.97,365.83L500.83,364.34L501.37,363.42L502.46,354.66L503,343.2L505.72,279.94L506.27,275.61L507.9,270.49L508.44,269.56L511.16,266.94L511.7,266.63L516.05,265.09L516.6,264.91L520.4,264.11L520.95,264L528.56,262.75L529.1,262.7L536.17,262.72L536.72,262.79L542.16,262.16L542.7,261.92L545.42,261.64L545.96,261.76L549.22,261.83L549.77,261.74L553.57,261.94L554.12,263.67L555.21,278.9L555.75,295.84L557.92,371.59L558.47,372.38L561.73,371.85L562.28,371.59L567.17,369.64L567.71,369.56L601.43,366.56L601.97,366.63L609.04,366.42L609.58,366.38L618.29,366.29L618.83,366.28L632.97,364.97L633.51,364.39L634.06,363.94L634.6,362.03L635.69,342.65L636.23,325.79L638.41,279.75L638.95,276.27L641.12,270.06L641.67,269.13L644.39,266.39L644.93,266.1L650.37,263.57L650.91,263.47L652,263.33" style="vector-effect: none; fill: none; stroke: rgb(239, 85, 59); stroke-opacity: 1; stroke-width: 2px; opacity: 1;"/></g><g class="points"/><g class="text"/></g><g class="trace scatter tracef611d1" style="stroke-miterlimit: 2; opacity: 1;"><g class="fills"/><g class="errorbars"/><g class="lines"><path class="js-line" d="M0,51.57L10.33,49.49L10.88,49.53L12.51,49.89L13.05,52.08L14.14,70.68L14.68,92.02L17.4,230.1L17.94,231.38L19.03,233.41L19.58,232.31L22.3,229.31L22.84,228.72L25.01,227.19L25.56,227.01L36.43,223.16L36.98,223.11L56.55,218.47L57.1,218.39L61.99,217.63L62.54,217.47L67.43,217.18L67.97,217.16L90.27,213.47L90.81,212.35L91.9,206.42L92.44,195.73L95.71,66.82L96.25,60.26L97.88,52.16L98.43,50.84L102.23,44.96L102.78,44.53L110.39,39.48L110.93,39.28L118,37.08L118.55,37.1L121.81,36.28L122.35,36.04L126.7,34.93L127.25,34.86L137.58,33.68L138.12,33.63L143.02,33.13L143.56,33.02L144.65,33.2L145.19,34.07L146.28,41.84L146.82,52.43L147.91,95.34L148.45,130.18L150.09,224.09L150.63,226.78L152.26,230.36L152.8,229.64L157.7,226.17L158.24,225.99L162.59,224.19L163.14,223.96L169.66,222.35L170.21,222.3L184.89,219.09L185.43,219L212.08,217L212.62,217.13L214.25,216.46L214.8,216.06L216.97,215.55L217.51,215.61L222.95,215.45L223.5,215.08L225.13,210.12L225.67,201.7L229.48,56.63L230.02,52.14L232.2,43.36L232.74,42.05L235.46,37.53L236,36.94L242.53,31.03L243.07,30.86L256.12,27.28L256.67,27.31L262.65,26.61L263.19,26.4L265.91,25.63L266.46,25.66L274.07,25.16L274.61,24.88L277.33,24.09L277.87,24.18L278.96,24.67L279.51,27.6L280.59,49.37L281.14,73.55L283.86,224.22L284.4,227.37L285.49,230.77L286.03,229.95L292.01,225.95L292.56,225.81L297.45,224.39L297.99,224.2L302.89,223.14L303.43,223.12L307.78,222.12L308.33,221.75L311.05,220.95L311.59,220.86L315.4,220.46L315.94,220.55L318.66,220.53L319.2,220.27L321.92,219.71L322.47,219.76L325.18,219.9L325.73,219.67L328.45,219.34L328.99,219.34L351.83,217.04L352.37,217.03L356.18,216.32L356.72,215.8L358.36,209.35L358.9,197.82L362.16,58.06L362.71,51.53L364.88,40.14L365.42,38.51L368.14,33.74L368.69,33.04L373.04,28.47L373.58,27.99L376.84,26.06L377.39,25.73L381.19,23.53L381.74,23.52L383.91,22.99L384.46,22.73L387.18,22.57L387.72,22.53L394.79,20.6L395.33,20.55L408.93,20.51L409.47,20.64L411.1,21.69L411.65,25.03L412.73,48.21L413.28,73.5L416,222.73L416.54,226.18L417.63,229.16L418.17,228.28L425.78,224.13L426.33,224.02L431.77,223.26L432.31,222.92L436.12,221.59L436.66,221.4L443.19,220.42L443.73,220.37L450.26,219.1L450.8,218.95L456.78,217.8L457.32,217.57L462.76,217.75L463.31,217.73L469.83,217.23L470.38,217.21L483.97,215.87L484.51,215.7L487.23,215.96L487.78,216L493.21,215.26L493.76,215.23L499.74,214.63L500.28,214.04L501.37,211.01L501.91,204.86L503,167.5L503.55,137.73L505.72,57.52L506.27,49.8L507.9,39.57L508.44,37.66L511.16,31.92L511.7,31.3L519.32,24.55L519.86,24.22L525.84,21.21L526.39,21.1L531.82,20.5L532.37,20.5L553.57,21.02L554.12,21.96L555.21,34.61L555.75,50.94L557.38,158.97L557.92,201.71L559.01,221.73L559.56,225.41L560.1,228.04L560.64,227.82L561.19,226.86L564.99,224L565.54,223.71L569.34,221.97L569.89,221.85L576.96,219.86L577.5,219.79L580.76,219.26L581.31,219.04L585.66,218.48L586.2,218.5L588.92,217.85L589.46,217.62L594.36,217.14L594.9,217.12L609.04,216.23L609.58,216.04L612.3,215.86L612.85,215.92L615.57,215.79L616.11,215.53L617.74,215.38L618.29,215.59L620.46,215.58L621,215.38L625.9,214.83L626.44,214.81L632.42,213.88L632.97,213.31L634.6,207.44L635.14,194.64L638.41,56.21L638.95,49.33L641.12,37.27L641.67,35.55L644.39,29.29L644.93,28.52L650.37,22.47L650.91,22.26L652,21.6" style="vector-effect: none; fill: none; stroke: rgb(0, 204, 150); stroke-opacity: 1; stroke-width: 2px; opacity: 1;"/></g><g class="points"/><g class="text"/></g><g class="trace scatter tracef9865b" style="stroke-miterlimit: 2; opacity: 1;"><g class="fills"/><g class="errorbars"/><g class="lines"><path class="js-line" d="M0,291.13L6.53,290.88L7.07,290.85L11.42,290.6L11.96,291.03L12.51,292.12L13.05,295.07L14.14,311.87L14.68,327.4L16.86,379.5L17.4,379.37L21.75,376.63L22.3,376.39L29.91,373.93L30.45,373.85L48.4,371.47L48.94,371.37L56.01,371.05L56.55,371.06L64.17,370.52L64.71,370.46L85.92,368.78L86.46,368.8L90.27,368.73L90.81,368.37L91.9,365.15L92.44,359.86L96.25,288.02L96.79,286.09L98.97,283.06L99.51,282.64L102.78,281.16L103.32,281.09L110.93,280.19L111.48,280.23L138.12,279.7L138.67,279.87L144.65,280.67L145.19,282.15L146.28,293.23L146.82,305.4L149.54,376.38L150.09,378.36L151.72,378.2L152.26,377.89L156.61,376.1L157.15,375.98L178.91,373.04L179.45,373.02L200.11,371.7L200.66,371.73L207.18,371.33L207.73,371.23L218.6,370.49L219.15,370.53L224.04,369.96L224.58,369.51L225.13,369.14L225.67,366.64L226.76,344.71L227.3,327.68L228.93,291.9L229.48,287.24L231.11,281.98L231.65,281.14L235.46,277.99L236,277.7L240.35,276.73L240.9,276.74L244.7,276.3L245.25,276.31L250.14,276.03L250.69,275.93L257.21,275.67L257.75,275.68L266.46,275.76L267,275.71L277.87,276.15L278.42,276.34L278.96,276.8L279.51,279.15L280.59,296.03L281.14,313.6L283.31,378.17L283.86,378.36L285.49,378.66L286.03,378.31L292.01,376.61L292.56,376.46L299.63,375.1L300.17,375.02L307.78,374.37L308.33,374.22L313.22,373.8L313.76,373.78L331.17,372.8L331.71,372.68L336.06,372.68L336.6,372.65L357.27,370.85L357.81,369.93L358.36,367.92L358.9,362.54L362.71,285.23L363.25,283.08L365.42,278.87L365.97,278.25L368.69,276.51L369.23,276.35L375.21,274.49L375.76,274.44L391.53,273.12L392.07,273.08L410.56,273.6L411.1,274.26L412.19,283.76L412.73,295.72L415.45,377.54L416,377.55L417.63,378.05L418.17,377.73L424.7,375.89L425.24,375.84L440.47,374.02L441.01,373.88L445.36,373.64L445.9,373.63L451.34,373.32L451.89,373.27L476.36,372.15L476.9,372.21L488.86,371.7L489.41,371.59L495.39,371.23L495.93,371.23L500.83,370.78L501.37,370.25L501.91,368.09L502.46,362.51L506.27,284.36L506.81,281.65L508.44,278.51L508.98,277.92L512.25,275.68L512.79,275.44L518.77,273.72L519.32,273.62L525.84,272.89L526.39,272.88L544.33,272.22L544.87,272.24L553.57,271.49L554.12,272.25L555.21,282.67L555.75,295.5L558.47,376.83L559.01,376.93L560.64,377.45L561.19,377.1L565.54,375.62L566.08,375.52L588.38,373.29L588.92,373.28L599.25,372.64L599.8,372.68L607.41,372.51L607.95,372.5L630.79,371.39L631.34,371.3L634.06,370.05L634.6,369.39L635.14,365.4L635.69,355.39L638.41,288.8L638.95,284.61L641.12,278.52L641.67,277.7L644.39,275.19L644.93,274.85L649.28,273.04L649.82,272.9L652,272.46" style="vector-effect: none; fill: none; stroke: rgb(171, 99, 250); stroke-opacity: 1; stroke-width: 2px; opacity: 1;"/></g><g class="points"/><g class="text"/></g><g class="trace scatter trace062c17" style="stroke-miterlimit: 2; opacity: 1;"><g class="fills"/><g class="errorbars"/><g class="lines"><path class="js-line" d="M0,168.87L10.88,167.81L11.42,168.02L11.96,168.82L12.51,171L13.59,185.53L14.14,200.36L16.86,294.59L17.4,295.12L19.58,293.64L20.12,293.08L24.47,290.26L25.01,290.06L32.63,287.88L33.17,287.79L56.01,284.11L56.55,284.05L64.71,283.12L65.25,283.08L89.72,280.13L90.27,279.88L90.81,279.36L91.36,277.73L92.44,264.04L92.99,247.42L95.71,172.01L96.25,167.46L97.88,161.7L98.43,160.71L101.14,158.09L101.69,157.75L106.58,155.88L107.13,155.73L115.28,154.82L115.83,154.77L128.88,154.11L129.42,154.18L134.32,154.18L134.86,154.05L138.12,153.97L138.67,154.03L144.65,154.63L145.19,156.54L146.28,171.32L146.82,187.88L149.54,290.76L150.09,293.8L151.17,294.7L151.72,294.44L160.42,290.43L160.96,290.24L169.12,288.6L169.66,288.51L175.1,287.77L175.64,287.71L193.04,285.64L193.59,285.61L210.45,284.52L210.99,284.52L221.32,283.23L221.86,283.1L224.04,282.26L224.58,281.32L225.13,280.59L225.67,276.23L226.76,241.52L227.3,217.68L228.93,171.89L229.48,165.98L231.11,158.98L231.65,157.8L234.37,154.47L234.92,154.04L239.81,151.28L240.35,151.21L259.39,148.89L259.93,148.86L268.09,149.1L268.63,149.06L274.61,149.31L275.16,149.33L278.96,149.68L279.51,152.26L280.59,171.84L281.14,192.9L283.31,292.64L283.86,293.72L285.49,295.83L286.03,295.31L293.64,291.94L294.19,291.79L301.8,290.07L302.35,289.91L314.31,288.36L314.85,288.39L320.29,287.6L320.83,287.53L328.99,287.09L329.53,287.05L356.18,285.05L356.72,284.73L357.81,282.24L358.36,278.15L359.44,250.24L359.99,228.36L362.16,168.73L362.71,163.79L364.88,155.83L365.42,154.75L368.14,151.41L368.69,151.02L374.67,148.18L375.21,148.2L378.48,147.74L379.02,147.58L384.46,146.18L385,146.3L387.72,146.36L388.26,146.17L392.61,145.59L393.16,145.68L396.42,145.86L396.96,145.79L406.75,145.74L407.3,145.82L410.56,145.99L411.1,146.74L412.19,157.46L412.73,171.23L415.45,292.63L416,293.3L417.63,295.31L418.17,294.69L420.35,293.73L420.89,293.62L431.77,290.79L432.31,290.81L437.2,289.43L437.75,289.27L443.19,289.12L443.73,289.16L446.99,288.36L447.54,288.32L452.97,287.9L453.52,287.85L462.22,287.12L462.76,287.07L499.74,284.79L500.28,284.43L501.37,283.05L501.91,279.17L503,252.18L503.55,230.18L505.72,168.74L506.27,163.01L507.9,155.77L508.44,154.53L511.16,150.89L511.7,150.5L518.23,147.67L518.77,147.6L521.49,146.71L522.04,146.37L526.39,145.38L526.93,145.26L531.82,144.93L532.37,144.75L535.09,144.55L535.63,144.66L541.61,144.39L542.16,144.2L544.87,144.15L545.42,144.23L548.14,143.8L548.68,143.62L552.49,143.56L553.03,143.69L554.12,144.45L554.66,147.78L555.75,170.1L556.29,193.45L558.47,291.68L559.01,292.44L560.64,294.7L561.19,294.27L571.52,290.41L572.06,290.34L580.22,288.9L580.76,288.84L599.8,287.1L600.34,287.12L608.5,287.11L609.04,286.99L615.02,286.42L615.57,286.48L622.64,286.16L623.18,286.06L628.07,285.52L628.62,285.49L632.97,285.15L633.51,284.31L634.6,282L635.14,274.9L638.95,163.39L639.49,160.1L641.67,153.71L642.21,152.86L646.02,148.53L646.56,148.22L652,145.81" style="vector-effect: none; fill: none; stroke: rgb(255, 161, 90); stroke-opacity: 1; stroke-width: 2px; opacity: 1;"/></g><g class="points"/><g class="text"/></g><g class="trace scatter trace308479" style="stroke-miterlimit: 2; opacity: 1;"><g class="fills"/><g class="errorbars"/><g class="lines"><path class="js-line" d="M0,192.18L11.42,191.31L11.96,192.52L13.05,205.96L13.59,222.41L16.31,344.88L16.86,346.66L17.94,347.76L18.49,346.97L21.75,343.3L22.3,342.9L28.82,339.44L29.36,339.21L39.7,336.79L40.24,336.73L64.71,333.19L65.25,333.12L79.94,331.14L80.48,330.95L82.66,331.19L83.2,331.38L85.37,330.97L85.92,330.8L90.27,329.36L90.81,328.71L91.36,326.62L91.9,319.65L93.53,260.47L94.08,239.52L95.71,203.21L96.25,198.43L97.88,192.29L98.43,191.2L101.69,187.22L102.23,186.94L114.2,183.2L114.74,183.14L121.81,181.88L122.35,181.79L132.14,181.08L132.68,181.1L144.65,180.63L145.19,182.37L146.28,198.63L146.82,217.73L149.54,344.19L150.09,345.89L151.17,347.87L151.72,347.27L154.98,344.83L155.52,344.42L158.79,342.77L159.33,342.62L171.84,339.12L172.38,339.05L176.19,338.23L176.73,338.02L189.78,336.46L190.33,336.52L194.13,336.1L194.68,335.99L207.73,335.12L208.27,335.21L213.16,335.04L213.71,334.82L216.97,334.12L217.51,334.07L224.04,332.85L224.58,331.53L225.13,330.61L225.67,326.64L226.76,286.29L227.3,258.49L228.93,205.14L229.48,198.35L231.11,190.78L231.65,189.4L234.37,185.06L234.92,184.47L238.72,181.6L239.27,181.34L247.42,178.71L247.97,178.64L269.72,176.59L270.26,176.6L274.61,176.05L275.16,175.92L277.33,175.89L277.87,176.15L278.42,177.95L278.96,183.05L280.05,210.68L280.59,236.24L282.77,342.04L283.31,347.14L284.4,349.71L284.94,349.38L290.93,345.02L291.47,344.75L296.36,343.02L296.91,342.91L301.8,341.78L302.35,341.65L313.22,339.91L313.76,339.91L321.38,339.18L321.92,339.11L328.45,338.5L328.99,338.46L349.11,336.65L349.65,336.68L356.18,336.13L356.72,335.54L357.27,334.58L357.81,331.96L358.9,310.84L359.44,288.44L361.62,209.68L362.16,201.39L363.79,190.81L364.34,189.13L367.06,183.83L367.6,183.2L371.95,179.99L372.49,179.72L379.56,176.77L380.11,176.71L395.33,173.85L395.88,173.84L408.38,173.18L408.93,173.37L410.02,173.77L410.56,175.78L411.65,192.39L412.19,211.39L414.91,343.41L415.45,347.65L416.54,349.63L417.08,349.08L421.43,345.75L421.98,345.5L435.03,342.1L435.57,342.05L449.17,340.07L449.71,340L454.61,339.44L455.15,339.46L462.22,338.66L462.76,338.55L481.79,337.4L482.34,337.4L489.41,336.84L489.95,336.77L499.2,336.52L499.74,336.33L501.37,333.74L501.91,329.37L503,295.27L503.55,269.33L505.72,202.46L506.27,196.53L507.9,188.53L508.44,187.15L511.16,182.79L511.7,182.23L516.6,178.87L517.14,178.62L529.65,174.09L530.19,174.06L541.07,172.8L541.61,172.68L545.96,172.12L546.51,172.2L549.77,171.47L550.31,171.44L554.12,171.72L554.66,174.42L555.75,194.72L556.29,217.34L559.01,344.48L559.56,346.5L560.64,348.8L561.19,348.11L566.63,344.43L567.17,344.11L570.98,343.01L571.52,342.81L578.59,341.52L579.13,341.5L586.2,340.11L586.75,340.05L596.53,339.36L597.08,339.3L603.06,339.17L603.6,339.13L612.3,338.44L612.85,338.54L616.11,338.33L616.65,338.17L619.92,337.95L620.46,338L626.44,337.86L626.99,337.82L632.97,336.98L633.51,335.89L634.6,333.19L635.14,325.96L638.95,197.19L639.49,193.62L641.67,186.62L642.21,185.51L645.47,181.05L646.02,180.4L649.28,177.36L649.82,177.08L652,176.51" style="vector-effect: none; fill: none; stroke: rgb(25, 211, 243); stroke-opacity: 1; stroke-width: 2px; opacity: 1;"/></g><g class="points"/><g class="text"/></g><g class="trace scatter traced01e9c" style="stroke-miterlimit: 2; opacity: 1;"><g class="fills"/><g class="errorbars"/><g class="lines"><path class="js-line" d="M0,205.59L7.07,204.48L7.61,204.41L11.42,204.71L11.96,205.61L13.05,217.59L13.59,232.87L16.31,361.98L16.86,362.51L17.94,363.83L18.49,363.09L21.21,359.95L21.75,359.51L26.65,356.47L27.19,356.26L34.26,354.57L34.8,354.58L37.52,353.85L38.07,353.68L54.92,350.97L55.47,350.94L65.25,349.93L65.8,349.79L74.5,348.39L75.04,348.37L79.39,348.12L79.94,347.99L82.66,347.9L83.2,348.05L85.92,347.88L86.46,347.75L90.27,346.63L90.81,345.86L91.36,344.26L91.9,337.8L93.53,277.37L94.08,255.75L95.71,218.98L96.25,214.13L97.88,207.44L98.43,206.21L101.14,202.96L101.69,202.53L107.13,199.51L107.67,199.36L123.98,196.19L124.53,196.19L139.75,194.73L140.3,194.83L144.65,195.13L145.19,196.41L146.28,210.54L146.82,227.86L149.54,360.6L150.09,361.48L151.17,364.02L151.72,363.56L155.52,360.44L156.07,360.16L164.22,357.23L164.77,357.15L170.21,356.1L170.75,355.92L175.1,355.27L175.64,355.21L184.89,353.96L185.43,353.74L188.15,353.63L188.69,353.65L223.5,350.71L224.04,350.08L225.13,346.48L225.67,341.51L226.76,302.64L227.3,276.01L228.93,221.84L229.48,214.42L231.11,205.63L231.65,204.05L233.83,200.63L234.37,200.12L239.81,196.11L240.35,195.83L245.79,193.49L246.34,193.35L261.56,191.64L262.11,191.64L276.24,190L276.79,190.18L277.87,190.46L278.42,191.68L279.51,205.65L280.05,222.96L282.77,361.24L283.31,363.63L284.4,366.71L284.94,366.16L288.21,362.93L288.75,362.63L296.36,359.85L296.91,359.74L311.05,356.77L311.59,356.8L333.88,355.24L334.43,355.06L340.41,353.94L340.95,353.93L350.74,353.77L351.29,353.68L356.72,352.76L357.27,351.95L357.81,349.76L358.36,342.54L359.99,279.49L360.53,257.06L362.16,218.16L362.71,212.8L364.88,203.11L365.42,201.77L368.14,197.94L368.69,197.37L372.49,194.56L373.04,194.2L377.93,192.06L378.48,191.93L394.79,188.44L395.33,188.36L408.38,187.34L408.93,187.56L410.02,187.98L410.56,189.59L411.65,205.03L412.19,223.59L414.91,361.76L415.45,363.9L416.54,366.68L417.08,365.94L419.26,364.12L419.8,363.82L425.78,361.28L426.33,361.2L432.85,359.79L433.4,359.49L436.12,358.79L436.66,358.73L444.27,357.79L444.82,357.8L458.96,356.08L459.5,356.1L480.16,354.74L480.71,354.75L488.32,354.27L488.86,354.18L497.56,353.8L498.11,353.94L499.74,354.13L500.28,353.48L501.37,351.29L501.91,347.97L503,314.47L503.55,287.96L505.72,218.28L506.27,212.09L507.9,203.85L508.44,202.56L511.7,197.82L512.25,197.31L515.51,195L516.05,194.77L524.75,190.43L525.3,190.33L528.02,189.29L528.56,188.99L531.28,188.63L531.82,188.6L537.26,188.37L537.8,188.56L539.98,188.27L540.52,188.03L544.87,186.97L545.42,186.94L553.57,185.57L554.12,185.83L554.66,187.84L555.21,193.71L556.29,225.84L556.84,256.19L559.01,360.78L559.56,362.35L560.64,365.31L561.19,364.77L565.54,362.16L566.08,361.91L573.15,359.44L573.69,359.5L576.41,359.07L576.96,358.96L587.29,357.58L587.83,357.65L594.9,356.69L595.45,356.57L598.71,356.56L599.25,356.65L605.78,356.43L606.32,356.38L621.55,355.47L622.09,355.52L624.81,355.25L625.35,355.12L630.79,354.54L631.34,354.41L633.51,353.71L634.06,352.35L634.6,351.3L635.14,346.04L636.77,273.67L637.32,249.26L638.95,213.65L639.49,209.74L641.67,202.13L642.21,200.96L644.93,197.06L645.47,196.45L649.28,193.15L649.82,192.89L652,191.95" style="vector-effect: none; fill: none; stroke: rgb(255, 102, 146); stroke-opacity: 1; stroke-width: 2px; opacity: 1;"/></g><g class="points"/><g class="text"/></g><g class="trace scatter trace412e6d" style="stroke-miterlimit: 2; opacity: 1;"><g class="fills"/><g class="errorbars"/><g class="lines"><path class="js-line" d="M0,298.96L4.35,298.64L4.89,298.52L11.42,298.36L11.96,298.98L13.05,308.28L13.59,319.86L16.31,389.5L16.86,389.34L18.49,388.26L19.03,387.69L22.84,385.24L23.38,385.07L34.8,382.42L35.35,382.33L50.57,380.71L51.12,380.7L59.82,380.13L60.36,380.12L67.43,379.38L67.97,379.33L79.94,378.52L80.48,378.52L90.27,377.74L90.81,377.36L91.36,376.66L91.9,373.93L92.99,356.1L93.53,341.19L95.71,298.73L96.25,295.1L97.88,291.28L98.43,290.83L102.23,288.97L102.78,288.82L106.04,288.32L106.58,288.35L120.72,287.78L121.26,287.67L138.67,288.05L139.21,288.12L144.65,288.54L145.19,289.61L146.28,300.63L146.82,313.69L149.54,386.52L150.09,386.98L151.17,387.49L151.72,387.21L154.98,386.01L155.52,385.85L160.96,384.6L161.5,384.53L189.78,381.65L190.33,381.68L211.53,380.69L212.08,380.74L214.8,380.36L215.34,380.21L220.78,380.02L221.32,380.02L224.04,379.6L224.58,378.94L225.67,374.35L226.22,366.6L229.48,295.32L230.02,292.47L232.2,288.3L232.74,287.82L237.63,285.26L238.18,285.21L249.6,284.86L250.14,284.89L258.84,284.44L259.39,284.62L262.11,284.98L262.65,284.84L266.46,284.26L267,284.33L277.87,284.86L278.42,285.92L279.51,297.15L280.05,310.45L282.77,386.68L283.31,387.79L284.4,388.48L284.94,388.21L288.75,386.4L289.29,386.37L317.03,382.96L317.57,382.96L339.32,381.59L339.87,381.53L348.57,381.52L349.11,381.45L357.27,380.46L357.81,379.63L358.9,369.35L359.44,357.21L362.16,297.41L362.71,293.53L364.34,288.64L364.88,287.76L367.6,285.49L368.14,285.25L375.76,283.11L376.3,283.16L379.56,283.04L380.11,282.95L389.89,282.21L390.44,282.23L394.79,282.22L395.33,282.21L403.49,282.15L404.03,282.17L410.02,282.54L410.56,283.78L411.65,296.2L412.19,310.45L414.91,386.28L415.45,387.18L416.54,387.72L417.08,387.45L422.52,385.74L423.07,385.65L433.94,384.1L434.49,384.08L440.47,383.54L441.01,383.43L446.99,383.16L447.54,383.23L450.8,382.93L451.34,382.84L461.13,382.26L461.67,382.28L472.01,381.96L472.55,381.88L500.83,380.36L501.37,379.93L501.91,378.54L502.46,373.47L504.09,331.24L504.63,316.7L506.27,293.29L506.81,290.49L508.44,287.03L508.98,286.49L512.79,284.38L513.33,284.03L516.05,283.06L516.6,283.04L535.63,281.31L536.17,281.48L540.52,281.77L541.07,281.71L545.96,281.46L546.51,281.55L554.12,281.24L554.66,282.86L555.75,297.17L556.29,313.12L558.47,384.11L559.01,385.47L561.19,386.32L561.73,386.13L572.61,383.95L573.15,383.99L592.18,382.62L592.73,382.66L597.62,382.21L598.17,382.18L610.67,381.84L611.22,381.75L617.74,381.53L618.29,381.56L633.51,380.61L634.06,380.16L634.6,379.82L635.14,377.81L636.23,356.29L636.77,338.53L638.41,299.09L638.95,293.84L640.58,288.27L641.12,287.28L643.84,284.64L644.39,284.32L648.74,282.39L649.28,282.31L652,281.73" style="vector-effect: none; fill: none; stroke: rgb(182, 232, 128); stroke-opacity: 1; stroke-width: 2px; opacity: 1;"/></g><g class="points"/><g class="text"/></g><g class="trace scatter trace5e8636" style="stroke-miterlimit: 2; opacity: 1;"><g class="fills"/><g class="errorbars"/><g class="lines"><path class="js-line" d="M0,265.49L11.42,265.55L11.96,266.04L12.51,268.55L13.05,274.69L14.14,303.42L14.68,324.77L16.31,360.2L16.86,359.23L22.3,354.42L22.84,354.12L28.28,352.04L28.82,351.91L47.31,348.79L47.85,348.8L52.2,348.24L52.75,348.18L58.73,347.87L59.27,347.92L62.54,347.47L63.08,347.39L76.13,346.87L76.67,346.83L81.57,346.37L82.11,346.34L88.09,345.59L88.64,345.53L90.81,345.13L91.36,344.79L91.9,342.12L92.44,334.44L95.71,268.51L96.25,265.82L98.43,260.92L98.97,260.32L101.14,259.3L101.69,259.26L113.11,257.63L113.65,257.68L132.68,257.47L133.23,257.57L135.95,257.53L136.49,257.4L143.56,257.63L144.1,257.87L145.19,258.58L145.73,261.54L146.82,280.71L147.37,299.33L149,353.54L149.54,356.71L150.63,356.47L151.17,356.55L156.61,353.87L157.15,353.68L163.14,352.27L163.68,352.11L171.29,350.96L171.84,350.94L182.17,350L182.71,349.93L190.33,349.2L190.87,349.19L201.74,348.52L202.29,348.42L218.6,347.35L219.15,347.31L224.04,346.43L224.58,345.93L225.13,343.34L225.67,336.52L228.93,270.08L229.48,266.67L231.11,261.9L231.65,261.04L234.37,258.55L234.92,258.32L239.27,256.99L239.81,256.95L247.42,256.01L247.97,255.97L263.19,255.73L263.74,255.74L277.33,256.27L277.87,256.37L278.42,257.17L278.96,260.42L280.05,280.46L280.59,299.72L282.23,354.58L282.77,357.58L283.86,357.34L284.4,357.41L291.47,354.04L292.01,353.94L303.98,351.92L304.52,351.89L337.15,349.33L337.69,349.27L356.72,347.75L357.27,347.37L357.81,346.86L358.36,343.69L359.44,322.42L359.99,306.62L361.62,273.66L362.16,269.06L364.34,261.87L364.88,260.85L367.06,258.43L367.6,258.13L373.04,256.16L373.58,255.99L379.02,255.09L379.56,255.07L381.19,254.68L381.74,254.27L383.91,253L384.46,252.95L396.96,252.53L397.51,252.52L406.21,252.96L406.75,253.35L408.38,253.58L408.93,253.47L410.02,253.34L410.56,254.18L411.65,265.5L412.19,279.24L414.91,356.76L415.45,356.34L416.54,356.57L417.08,356.15L420.35,354.36L420.89,354.23L427.42,352.85L427.96,352.76L442.64,351.28L443.19,351.29L500.83,347.64L501.37,347.24L501.91,346.36L502.46,341.95L504.09,300.74L504.63,286.67L506.27,266.22L506.81,264.01L508.98,259.78L509.53,259.25L513.33,256.76L513.88,256.58L518.77,255.65L519.32,255.66L520.95,254.71L521.49,254.09L523.67,252.85L524.21,252.87L530.19,252.37L530.74,252.3L537.26,252.52L537.8,252.58L543.24,251.98L543.79,251.88L550.31,251.67L550.86,251.72L553.03,252.01L553.57,252.87L554.66,262.32L555.21,273.75L557.92,352.05L558.47,354.8L559.56,355.66L560.1,355.47L567.17,352.47L567.71,352.32L573.69,351.47L574.24,351.46L632.97,347.57L633.51,347.37L634.06,346.66L634.6,343.8L635.69,326.13L636.23,311.91L638.41,270.53L638.95,266.71L640.58,261.9L641.12,261.09L644.39,257.96L644.93,257.54L648.19,255.87L648.74,255.78L652,254.89" style="vector-effect: none; fill: none; stroke: rgb(255, 151, 255); stroke-opacity: 1; stroke-width: 2px; opacity: 1;"/></g><g class="points"/><g class="text"/></g><g class="trace scatter trace2f61e8" style="stroke-miterlimit: 2; opacity: 1;"><g class="fills"/><g class="errorbars"/><g class="lines"><path class="js-line" d="M0,258.99L4.89,258.93L5.44,258.92L11.96,259.34L12.51,261.16L13.59,276.27L14.14,292.71L16.31,358.61L16.86,358.43L23.38,353.14L23.93,352.9L34.8,348.88L35.35,348.87L39.15,348.77L39.7,348.7L60.9,345.99L61.45,345.89L66.34,345.98L66.89,345.98L72.32,345.13L72.87,345.11L89.72,343.84L90.27,343.55L91.36,342.8L91.9,340.7L92.99,320.56L93.53,304.21L95.16,268.41L95.71,263.67L97.88,257.15L98.43,256.14L100.6,253.39L101.14,253.15L109.3,251.3L109.84,251.23L119.63,250.55L120.18,250.57L123.44,250.32L123.98,250.11L126.7,250.09L127.25,250.19L133.77,250.43L134.32,250.3L139.75,250.09L140.3,250.09L144.65,250.66L145.19,251.15L145.73,253.57L146.28,259.62L147.37,288.8L147.91,311.67L149.54,355.54L150.09,355.46L151.72,355.27L152.26,354.76L156.07,352.93L156.61,352.74L162.59,351.09L163.14,350.94L182.17,348.16L182.71,348.1L189.78,347.45L190.33,347.51L193.59,347.34L194.13,347.3L222.95,345.59L223.5,345.3L224.58,344.55L225.13,342.23L226.22,322.26L226.76,306.27L228.93,265.51L229.48,262.47L231.65,256.83L232.2,256.05L236,251.96L236.55,251.65L241.98,250.13L242.53,250.07L249.05,249.58L249.6,249.55L259.93,249.07L260.47,249.12L277.87,249.23L278.42,249.72L278.96,252.27L279.51,258.56L280.59,288.71L281.14,312.1L282.77,356.18L283.31,356.1L284.94,356.13L285.49,355.63L289.29,353.72L289.84,353.53L299.08,351.36L299.63,351.31L319.2,348.84L319.75,348.89L323.55,348.58L324.1,348.59L339.87,347.55L340.41,347.53L356.72,346.51L357.27,345.97L357.81,345.55L358.36,342.9L359.44,321.15L359.99,304.36L361.62,269.27L362.16,264.63L364.34,257.59L364.88,256.43L367.6,252.48L368.14,252.12L372.49,250.24L373.04,250.03L380.11,248.97L380.65,249.03L383.91,248.56L384.46,248.51L390.98,248.3L391.53,248.27L397.51,248.01L398.05,247.98L408.38,247.91L408.93,248.01L410.56,248.94L411.1,251.79L412.19,270.93L412.73,290.31L414.91,355.4L415.45,355.23L417.08,355.37L417.63,354.92L421.98,352.87L422.52,352.78L430.68,350.95L431.22,350.95L435.03,350.29L435.57,350.17L452.43,348.74L452.97,348.75L461.13,348.36L461.67,348.28L472.55,347.56L473.09,347.59L481.25,347.36L481.79,347.29L485.6,347.26L486.15,347.29L494.85,347.35L495.39,347.36L500.83,346.52L501.37,345.94L501.91,344.85L502.46,340.28L506.27,262.53L506.81,260.48L510.07,253.77L510.62,253.11L513.33,251.63L513.88,251.39L521.49,249.16L522.04,249.06L530.74,248.07L531.28,247.93L547.59,247.43L548.14,247.48L553.03,247.43L553.57,248.26L554.66,259.06L555.21,272.35L557.92,355.01L558.47,354.6L560.1,354.46L560.64,354.05L567.71,350.99L568.26,350.9L602.52,347.76L603.06,347.8L607.95,347.42L608.5,347.38L618.83,347.17L619.37,347.14L632.97,346.84L633.51,346.33L634.06,345.6L634.6,342.2L635.69,320.71L636.23,304.79L638.41,266.11L638.95,263.15L641.12,257.45L641.67,256.47L645.47,251.15L646.02,250.84L650.91,249.26L651.46,249.2L652,249.15" style="vector-effect: none; fill: none; stroke: rgb(254, 203, 82); stroke-opacity: 1; stroke-width: 2px; opacity: 1;"/></g><g class="points"/><g class="text"/></g></g></g></g><g class="zerolinelayer-above"/><path class="xlines-above crisp" d="M0,0" style="fill: none;"/><path class="ylines-above crisp" d="M0,0" style="fill: none;"/><g class="overlines-above"/><g class="xaxislayer-above"><g class="xtick"><text text-anchor="middle" x="0" y="473" transform="translate(67.25,0)" style="font-family: 'Times New Roman'; font-size: 12px; fill: rgb(0, 0, 0); fill-opacity: 1; white-space: pre;">4e+6</text></g><g class="xtick"><text text-anchor="middle" x="0" y="473" style="font-family: 'Times New Roman'; font-size: 12px; fill: rgb(0, 0, 0); fill-opacity: 1; white-space: pre;" transform="translate(155.97,0)">6e+6</text></g><g class="xtick"><text text-anchor="middle" x="0" y="473" style="font-family: 'Times New Roman'; font-size: 12px; fill: rgb(0, 0, 0); fill-opacity: 1; white-space: pre;" transform="translate(244.69,0)">8e+6</text></g><g class="xtick"><text text-anchor="middle" x="0" y="473" style="font-family: 'Times New Roman'; font-size: 12px; fill: rgb(0, 0, 0); fill-opacity: 1; white-space: pre;" transform="translate(333.41,0)">1e+7</text></g><g class="xtick"><text text-anchor="middle" x="0" y="473" style="font-family: 'Times New Roman'; font-size: 12px; fill: rgb(0, 0, 0); fill-opacity: 1; white-space: pre;" transform="translate(422.13,0)">1e+7</text></g><g class="xtick"><text text-anchor="middle" x="0" y="473" style="font-family: 'Times New Roman'; font-size: 12px; fill: rgb(0, 0, 0); fill-opacity: 1; white-space: pre;" transform="translate(510.85,0)">1e+7</text></g><g class="xtick"><text text-anchor="middle" x="0" y="473" style="font-family: 'Times New Roman'; font-size: 12px; fill: rgb(0, 0, 0); fill-opacity: 1; white-space: pre;" transform="translate(599.57,0)">2e+7</text></g><g class="xtick"/></g><g class="yaxislayer-above"><g class="ytick"><text text-anchor="end" x="37" y="4.199999999999999" transform="translate(0,431.75)" style="font-family: 'Times New Roman'; font-size: 12px; fill: rgb(0, 0, 0); fill-opacity: 1; white-space: pre;">13</text></g><g class="ytick"><text text-anchor="end" x="37" y="4.199999999999999" style="font-family: 'Times New Roman'; font-size: 12px; fill: rgb(0, 0, 0); fill-opacity: 1; white-space: pre;" transform="translate(0,365.39)">14</text></g><g class="ytick"><text text-anchor="end" x="37" y="4.199999999999999" style="font-family: 'Times New Roman'; font-size: 12px; fill: rgb(0, 0, 0); fill-opacity: 1; white-space: pre;" transform="translate(0,299.03999999999996)">15</text></g><g class="ytick"><text text-anchor="end" x="37" y="4.199999999999999" style="font-family: 'Times New Roman'; font-size: 12px; fill: rgb(0, 0, 0); fill-opacity: 1; white-space: pre;" transform="translate(0,232.69)">16</text></g><g class="ytick"><text text-anchor="end" x="37" y="4.199999999999999" style="font-family: 'Times New Roman'; font-size: 12px; fill: rgb(0, 0, 0); fill-opacity: 1; white-space: pre;" transform="translate(0,166.34)">17</text></g><g class="ytick"><text text-anchor="end" x="37" y="4.199999999999999" style="font-family: 'Times New Roman'; font-size: 12px; fill: rgb(0, 0, 0); fill-opacity: 1; white-space: pre;" transform="translate(0,99.99000000000001)">18</text></g></g><g class="overaxes-above"/></g></g><g class="polarlayer"/><g class="smithlayer"/><g class="ternarylayer"/><g class="geolayer"/><g class="funnelarealayer"/><g class="pielayer"/><g class="iciclelayer"/><g class="treemaplayer"/><g class="sunburstlayer"/><g class="glimages"/><defs id="topdefs-f25d9a"><g class="clips"/></defs><g class="layer-above"><g class="imagelayer"/><g class="shapelayer"><g class="shape-group" data-index="0" clip-path="url(#clipf25d9ax)"><path data-index="0" fill-rule="evenodd" d="M67.34,460H120.58V50H67.34Z" style="opacity: 0.4; stroke: rgb(0, 0, 0); stroke-opacity: 0; fill: rgb(44, 115, 210); fill-opacity: 1; stroke-width: 0px;"/></g><g class="shape-group" data-index="1" clip-path="url(#clipf25d9ax)"><path data-index="1" fill-rule="evenodd" d="M200.4,460H253.63V50H200.4Z" style="opacity: 0.4; stroke: rgb(0, 0, 0); stroke-opacity: 0; fill: rgb(44, 115, 210); fill-opacity: 1; stroke-width: 0px;"/></g><g class="shape-group" data-index="2" clip-path="url(#clipf25d9ax)"><path data-index="2" fill-rule="evenodd" d="M333.46,460H386.69V50H333.46Z" style="opacity: 0.4; stroke: rgb(0, 0, 0); stroke-opacity: 0; fill: rgb(44, 115, 210); fill-opacity: 1; stroke-width: 0px;"/></g><g class="shape-group" data-index="3" clip-path="url(#clipf25d9ax)"><path data-index="3" fill-rule="evenodd" d="M466.52,460H519.77V50H466.52Z" style="opacity: 0.4; stroke: rgb(0, 0, 0); stroke-opacity: 0; fill: rgb(44, 115, 210); fill-opacity: 1; stroke-width: 0px;"/></g><g class="shape-group" data-index="4" clip-path="url(#clipf25d9ax)"><path data-index="4" fill-rule="evenodd" d="M607.56,460H660.79V50H607.56Z" style="opacity: 0.4; stroke: rgb(0, 0, 0); stroke-opacity: 0; fill: rgb(44, 115, 210); fill-opacity: 1; stroke-width: 0px;"/></g></g></g><g class="infolayer"><g class="g-gtitle"><text class="gtitle" x="350" y="25" text-anchor="middle" dy="0em" style="opacity: 1; font-family: 'Times New Roman'; font-size: 17px; fill: rgb(0, 0, 0); fill-opacity: 1; white-space: pre;">Matrix 1, Sensor 7</text></g><g class="g-xtitle" transform="translate(0,-2.8000000000000114)"><text class="xtitle" x="364" y="499.8" text-anchor="middle" style="opacity: 1; font-family: 'Times New Roman'; font-size: 14px; fill: rgb(0, 0, 0); fill-opacity: 1; white-space: pre;">Time since power on (ms)</text></g><g class="g-ytitle" transform="translate(6.900390625,0)"><text class="ytitle" transform="rotate(-90,5.600000000000001,255)" x="5.600000000000001" y="255" text-anchor="middle" style="opacity: 1; font-family: 'Times New Roman'; font-size: 14px; fill: rgb(0, 0, 0); fill-opacity: 1; white-space: pre;">Resistance (Ohms)</text></g><g class="annotation" data-index="0" style="opacity: 1;"><g class="annotation-text-g" transform="rotate(0,77.34,58.5)"><g class="cursor-pointer" transform="translate(67,50)"><rect class="bg" x="0.5" y="0.5" width="19" height="16" style="stroke-width: 1px; stroke: rgb(0, 0, 0); stroke-opacity: 0; fill: rgb(0, 0, 0); fill-opacity: 0;"/><text class="annotation-text" text-anchor="middle" x="10" y="12.5" style="font-family: 'Times New Roman'; font-size: 12px; fill: rgb(0, 0, 0); fill-opacity: 1; white-space: pre;">Air</text></g></g></g><g class="annotation" data-index="1" style="opacity: 1;"><g class="annotation-text-g" transform="rotate(0,210.4,58.5)"><g class="cursor-pointer" transform="translate(200,50)"><rect class="bg" x="0.5" y="0.5" width="19" height="16" style="stroke-width: 1px; stroke: rgb(0, 0, 0); stroke-opacity: 0; fill: rgb(0, 0, 0); fill-opacity: 0;"/><text class="annotation-text" text-anchor="middle" x="10" y="12.5" style="font-family: 'Times New Roman'; font-size: 12px; fill: rgb(0, 0, 0); fill-opacity: 1; white-space: pre;">Air</text></g></g></g><g class="annotation" data-index="2" style="opacity: 1;"><g class="annotation-text-g" transform="rotate(0,343.46,58.5)"><g class="cursor-pointer" transform="translate(333,50)"><rect class="bg" x="0.5" y="0.5" width="19" height="16" style="stroke-width: 1px; stroke: rgb(0, 0, 0); stroke-opacity: 0; fill: rgb(0, 0, 0); fill-opacity: 0;"/><text class="annotation-text" text-anchor="middle" x="10" y="12.5" style="font-family: 'Times New Roman'; font-size: 12px; fill: rgb(0, 0, 0); fill-opacity: 1; white-space: pre;">Air</text></g></g></g><g class="annotation" data-index="3" style="opacity: 1;"><g class="annotation-text-g" transform="rotate(0,476.52,58.5)"><g class="cursor-pointer" transform="translate(467,50)"><rect class="bg" x="0.5" y="0.5" width="19" height="16" style="stroke-width: 1px; stroke: rgb(0, 0, 0); stroke-opacity: 0; fill: rgb(0, 0, 0); fill-opacity: 0;"/><text class="annotation-text" text-anchor="middle" x="10" y="12.5" style="font-family: 'Times New Roman'; font-size: 12px; fill: rgb(0, 0, 0); fill-opacity: 1; white-space: pre;">Air</text></g></g></g><g class="annotation" data-index="4" style="opacity: 1;"><g class="annotation-text-g" transform="rotate(0,617.56,58.5)"><g class="cursor-pointer" transform="translate(608,50)"><rect class="bg" x="0.5" y="0.5" width="19" height="16" style="stroke-width: 1px; stroke: rgb(0, 0, 0); stroke-opacity: 0; fill: rgb(0, 0, 0); fill-opacity: 0;"/><text class="annotation-text" text-anchor="middle" x="10" y="12.5" style="font-family: 'Times New Roman'; font-size: 12px; fill: rgb(0, 0, 0); fill-opacity: 1; white-space: pre;">Air</text></g></g></g></g></svg>